<svg xmlns="http://www.w3.org/2000/svg" xmlns:xlink="http://www.w3.org/1999/xlink" width="960" height="540" viewBox="0 0 960 540"><defs><filter id="a" x="-5" y="-5" width="52" height="52" filterUnits="userSpaceOnUse"><feOffset dx="1" dy="1" input="SourceAlpha"/><feGaussianBlur stdDeviation="2" result="b"/><feFlood flood-opacity="0.2"/><feComposite operator="in" in2="b"/><feComposite in="SourceGraphic"/></filter><clipPath id="d"><rect width="960" height="540"/></clipPath></defs><g id="c" clip-path="url(#d)"><rect width="960" height="540" fill="#fff"/><rect width="179" height="457" rx="89.5" transform="translate(563 279) rotate(90)" fill="#809b0a"/><rect width="304" height="604" rx="152" transform="translate(328 -146)" fill="#006da9"/><g transform="translate(0)"><g transform="matrix(1, 0, 0, 1, 0, 0)" filter="url(#a)"><path d="M3461.633,3124.767h40v40h-40Z" transform="translate(-3461.63 -3124.77)" fill="#fff"/></g><g transform="translate(-3461.633 -3124.767)"><path d="M3474.435,3142.083h-3.1v-7.915h7.719v3.182h-4.616Z" fill="#3375d0"/><path d="M3492.672,3142.083h-3.181v-4.733h-4.734v-3.182h7.915Z" fill="#3375d0"/><path d="M3492.672,3154.739h-7.914v-3.185h4.733v-4.733h3.182Z" fill="#3375d0"/><path d="M3479.051,3154.739h-7.719v-7.719h3.1v4.616h4.616Z" fill="#3375d0"/></g></g><path d="M0,0H198A130,130,0,0,1,328,130V362a0,0,0,0,1,0,0H130A130,130,0,0,1,0,232V0A0,0,0,0,1,0,0Z" transform="translate(632 96)" fill="#f2f2f2"/><path d="M180.138,172.949a54.5,54.5,0,1,1-54.5-54.5,54.5,54.5,0,0,1,54.5,54.5" transform="translate(147.862 51.552)" fill="#ffb500"/><text transform="translate(480 377)" fill="#fff" font-size="24" font-family="Roboto-Bold, Roboto" font-weight="700"><tspan x="-66.586" y="0">Porter Davis</tspan></text><text transform="translate(61 97)" fill="#006da9" font-size="40" font-family="Roboto-Medium, Roboto" font-weight="500"><tspan x="0" y="0">Continuity</tspan><tspan x="0" y="40">case study</tspan></text><g transform="translate(4 26)"><path d="M280.764,92.191a10.64,10.64,0,0,0-4.477-4.4,9.236,9.236,0,0,0-2.985-.946,11.564,11.564,0,0,0-1.534-.064,2.064,2.064,0,0,1-1-.169,1.607,1.607,0,0,1-.652-1,14.232,14.232,0,0,0-3.042-5.458,14.452,14.452,0,0,0-5.089-3.562,15.153,15.153,0,0,0-13.1,1.025,15.7,15.7,0,0,0-2.761,1.98c-.948.849-1.783,1.814-2.726,2.67a24.98,24.98,0,0,1-3.321,2.262,10.06,10.06,0,0,0-2.458,2.307,14.068,14.068,0,0,0-.888,1.314c-.077.122-.148.246-.217.373a23.415,23.415,0,0,0-1.958,4.7,28.159,28.159,0,0,0-1.187,6.783c0,.047-.007.094-.009.141,0,.071-.006.144-.008.212q-.04.978-.014,1.96a28.752,28.752,0,0,0,2.737,11.514,27.748,27.748,0,0,0,1.753,3.132c.072.107.724.107,1.063.135,1.451.132,2.945.082,4.4.118,2.955.078,5.909.169,8.861.218a84.579,84.579,0,0,0,8.662-.213,34.122,34.122,0,0,0,8.111-1.505,18.065,18.065,0,0,0,6.4-4.055,24.962,24.962,0,0,0,4.053-4.739q.277-.424.531-.868a16.826,16.826,0,0,0,2.2-6.714c.009-.067.015-.136.018-.2a12.367,12.367,0,0,0-1.35-6.959" transform="translate(339 170.002)" fill="#83a00a"/><path d="M282.114,99.149a2.035,2.035,0,0,1-.018.2,33.128,33.128,0,0,1-4.1-.9,11.644,11.644,0,0,1-4.315-2.282,25.558,25.558,0,0,1-3.623-4.436,18.821,18.821,0,0,0-9.594-7.052,27.039,27.039,0,0,0-12.833-.456,32.5,32.5,0,0,0-11.128,4.3c-.143.085-.281.173-.425.262-.106.071-.213-.106-.106-.175.246-.157.492-.309.743-.46a32.718,32.718,0,0,1,12.358-4.362,25.686,25.686,0,0,1,12.5,1.062,19.4,19.4,0,0,1,8.857,7.057,19.709,19.709,0,0,0,4,4.61,13.429,13.429,0,0,0,4.941,2.1c.9.212,1.816.379,2.735.531" transform="translate(339 170.002)" fill="#60664b"/><path d="M278.941,106.54a10.47,10.47,0,0,0-5.148-2.458,10.693,10.693,0,0,0-1.2-.113c-.362-.018-.735-.027-1.106-.043a5.625,5.625,0,0,1-3.6-1.043c-.035-.029-.071-.061-.106-.093a3.96,3.96,0,0,1-.738-.982,19.044,19.044,0,0,1-.834-1.971,8.664,8.664,0,0,0-1.363-2.295,9.87,9.87,0,0,0-4.759-3.051,11.81,11.81,0,0,0-5.082-.306c-.424.062-.857.145-1.274.247-.047.01-.094.02-.14.033a16.807,16.807,0,0,0-3.224,1.174c-1.11.531-2.159,1.2-3.305,1.658a5.125,5.125,0,0,1-3.035.387,3.642,3.642,0,0,1-.531-.159c-.293-.114-.574-.247-.85-.383a6.966,6.966,0,0,0-2.17-.806,7.179,7.179,0,0,0-5.639,2.059c-.083.077-.161.159-.242.238.171-.7.318-1.4.425-2.116a4.432,4.432,0,0,0-.2-2.78c-.062-.116-.237-.014-.178.106.611,1.179.2,2.711-.062,3.937-.082.379-.173.755-.269,1.132a14.38,14.38,0,0,0-.956,1.106c-.22.277-.425.559-.637.849-.076.106.106.213.177.106.143-.2.288-.4.442-.594.271-.359.56-.711.866-1.046-.192.717-.4,1.43-.615,2.141-.087.286-.176.576-.265.863a28.787,28.787,0,0,0,2.737,11.515,27.6,27.6,0,0,0,1.754,3.132c.071.106.723.106,1.062.135,1.452.132,2.945.081,4.4.118,2.4.062,4.81.137,7.213.185.551.012,1.1.025,1.648.033,1.09.018,2.181.029,3.27.021,1.806-.016,3.6-.08,5.39-.233a34.23,34.23,0,0,0,8.112-1.5,18.057,18.057,0,0,0,6.4-4.055,24.927,24.927,0,0,0,4.053-4.739c-.14-.137-.283-.269-.425-.4" transform="translate(339 170.002)" fill="#728409"/><path d="M271.489,103.925a14.773,14.773,0,0,1-11.471,9.437q.627-.638,1.23-1.3a50.642,50.642,0,0,0,4.861-6.112,29.05,29.05,0,0,0,1.788-3.067c-.035-.029-.071-.061-.106-.093a3.975,3.975,0,0,1-.737-.982q-.81,1.323-1.723,2.575a42.645,42.645,0,0,1-4.136,4.857c-1.521-.531-2.538-2.045-3.339-3.361a18.71,18.71,0,0,1-2-4.637,23.846,23.846,0,0,1-.84-7.057c-.424.062-.857.145-1.274.247a23.577,23.577,0,0,0,.253,5.61,21.816,21.816,0,0,0,.886,3.372c-2.562,1.026-5.182-.387-7.346-1.7a8.076,8.076,0,0,1-2.7-2.6,11.518,11.518,0,0,1-.8-1.43,3.811,3.811,0,0,1-.531-.159c-.293-.114-.574-.247-.849-.384a12.4,12.4,0,0,0,4.136,5.894c2.623,2.047,6.031,2.731,9.263,3.17q.489.963,1.063,1.872a22,22,0,0,0,1.317,1.851c.259.326.525.646.8.956.035.038.067.082.107.124a51.277,51.277,0,0,1-8.847,6.4c.55.012,1.1.024,1.648.033,1.089.018,2.18.028,3.27.02.743-.564,1.462-1.159,2.159-1.776a18.327,18.327,0,0,0,8.2-2.4,14.435,14.435,0,0,0,3.749-3.1,18.372,18.372,0,0,0,3.069-6.223c-.362-.018-.735-.026-1.106-.042" transform="translate(339 170.002)" fill="#51331e"/><path d="M89.609,51.421A1.6,1.6,0,0,0,87.955,50.3a1.476,1.476,0,0,0-.643.255A28.947,28.947,0,0,0,88.2,44.6c.053-1.431-.213-3.35-1.841-3.794-1.772-.483-3.427,1.144-4.426,2.387a13.071,13.071,0,0,0-.786,1.085,14.112,14.112,0,0,0-2.132,9.932c-.744-.821-1.912-1.782-3-1.146a2.651,2.651,0,0,0-1.019,1.558,9.7,9.7,0,0,0-.448,2.2,10.543,10.543,0,0,0,2.051,7.2,3.326,3.326,0,0,0-.7.411c-.106.082.043.224.145.145a3.055,3.055,0,0,1,.67-.4,9.865,9.865,0,0,0,.7.8c.091.094.235-.049.144-.144a9.228,9.228,0,0,1-.646-.737c2.86-1.02,6.739,2.342,9.14-.041a3.9,3.9,0,0,0,.479-.584A12.979,12.979,0,0,0,87.765,60.7q.614-1.641,1.124-3.316a25.407,25.407,0,0,0,.863-3.336,4.846,4.846,0,0,0-.144-2.631" transform="translate(339 170.002)" fill="#83a00a"/><path d="M85.667,60.813a11.892,11.892,0,0,0-1.34-3.218c-.319-.522-.687-.992-1.048-1.481a3.042,3.042,0,0,1-.629-2.049c.042-1.558.14-3.116.212-4.673a7.15,7.15,0,0,0-.556-3.907,3.191,3.191,0,0,0-1.156-1.2,14.117,14.117,0,0,0-2.133,9.932c-.743-.821-1.912-1.782-3-1.146A2.645,2.645,0,0,0,75,54.627a9.65,9.65,0,0,0-.448,2.2,10.538,10.538,0,0,0,2.051,7.2,3.276,3.276,0,0,0-.7.411c-.106.082.042.224.144.145a3.1,3.1,0,0,1,.67-.4,10.062,10.062,0,0,0,.7.8c.092.094.236-.049.145-.144a9.206,9.206,0,0,1-.646-.737c2.859-1.02,6.739,2.341,9.139-.041a11.384,11.384,0,0,0-.382-3.25" transform="translate(339 170.002)" fill="#728409"/><path d="M205.975,3.783V64.556l-58.054,2.7L148.133,0Z" transform="translate(339 170.002)" fill="#d2c7c2"/><path d="M148.136,0V67.257H90.081V3.613L136.495.723Z" transform="translate(339 170.002)" fill="#cfb3a5"/><path d="M139.982,61.491H95.876V10.431l5.361-.351,4.474,5.938Z" transform="translate(339 170.002)" fill="#b38a78"/><path d="M206.19,3.783V63.65l-2.884.18-7.966.495-47.2,2.932V0l54.99,3.582Z" transform="translate(339 170.002)" fill="#f0ded5"/><path d="M58.055,67.118v49.943H0V68.456l1.285-.031h.2l2.549-.059h.2l2.85-.065.2-.006,2.495-.058H10l2.443-.057h.2l2.189-.051h.2l2.443-.056h.2l2.85-.065.2-.006,2.495-.058h.2l2.443-.057h.2l2.189-.051h.2l2.8-.065h.2l2.85-.065.2-.006,2.495-.057h.2l2.443-.058h.2l2.189-.051h.2l2.443-.057h.2l2.852-.067h.2l2.5-.057h.2l2.443-.058h.2l2.189-.051h.2Z" transform="translate(339 170.002)" fill="#51331e"/><path d="M116.109,70.9l-.695,46.415-25-.107-32.356-.138V67.12l11.376.743L97.609,69.7Z" transform="translate(339 170.002)" fill="#8c6858"/><path d="M203.126,3.585a25.424,25.424,0,0,0-1.134,4.6A53.979,53.979,0,0,0,202,16.656a29.493,29.493,0,0,1-.859,8.5c-.706,2.549-1.878,4.955-2.517,7.529-.668,2.695-.446,5.436-.491,8.179a22.41,22.41,0,0,1-1.519,7.487c-.83,2.251-1.831,4.44-2.519,6.742a13.09,13.09,0,0,0-.564,6.746,4.032,4.032,0,0,0,1.8,2.478,5.727,5.727,0,0,0,2.831.817,10.194,10.194,0,0,0,5.139-1.312,15.331,15.331,0,0,0,1.563-.956q.684-.477,1.32-1V3.785Z" transform="translate(339 170.002)" fill="#e6d0c5"/><path d="M101.237,10.081l-5.359.35V15.2a7.518,7.518,0,0,1,1.805.425,6.654,6.654,0,0,0,1.8.479,12.824,12.824,0,0,0,2.116-.327,10.055,10.055,0,0,1,2.22.082,14.058,14.058,0,0,0,1.9.157Z" transform="translate(339 170.002)" fill="#a6745e"/><path d="M148.136,7.161v54.33h-46.9V10.084l11.623-.725,1.021-.063,17.1-1.062L132,8.171Z" transform="translate(339 170.002)" fill="#b6bfd9"/><path d="M136.495.728a13.586,13.586,0,0,1-2.428,2.159,18.99,18.99,0,0,1-4.407,1.644,11.81,11.81,0,0,0-3.4,1.806A12.183,12.183,0,0,0,123.313,9.6a8.187,8.187,0,0,0-2.684.648c-.12.055-.016.23.106.177a7.688,7.688,0,0,1,2.455-.611,11.932,11.932,0,0,0-1.206,2.8.106.106,0,0,0,.1.107.108.108,0,0,0,.093-.052,11.756,11.756,0,0,1,1.256-2.875c.607-.049,1.217-.062,1.825-.073q2.4-.046,4.808.016,4.707.118,9.393.637c2.681.3,5.559,1,8.233.3.149-.039.3-.084.442-.133V0Z" transform="translate(339 170.002)" fill="#c2a093"/><path d="M69.431,67.861C67,71.069,67.746,76.03,67.618,79.815a13.773,13.773,0,0,1-.693,4.209,9.134,9.134,0,0,1-2.384,3.483,19.757,19.757,0,0,0-2.7,2.835,7.864,7.864,0,0,0-1.261,3.707,32.81,32.81,0,0,0-.011,4.4A23.6,23.6,0,0,1,60.306,103a21.972,21.972,0,0,1-2.252,6.719v7.342l32.356.138a18.278,18.278,0,0,0,3.041-2.9,15.24,15.24,0,0,0,3.321-7.168A48.092,48.092,0,0,0,97,97.778q-.241-10.3.195-20.589.107-2.573.261-5.142.071-1.177.149-2.351Z" transform="translate(339 170.002)" fill="#7d5746"/><path d="M132,8.165l-1.021.063-17.1,1.062-1.02.062-11.623.726V25.04a15.167,15.167,0,0,0,3.017-1.028c2.526-1.175,4.567-3.148,7.051-4.387a16.279,16.279,0,0,1,8.207-1.662c2.892.182,5.755,1.143,8.671.727,2.572-.367,4.822-1.77,7.042-3.026a31.9,31.9,0,0,1,7.9-3.232,32.825,32.825,0,0,1,4.312-.766c.232-.027.466-.053.7-.082V7.13Z" transform="translate(339 170.002)" fill="#a5b0cf"/><path d="M195.031,10.214V61.49h-46.9V7.129l15.127,1,1.021.067,17.1,1.123,1.021.067,10.1.664,1.143.076Z" transform="translate(339 170.002)" fill="#d4d8e6"/><path d="M194.559,46.491c-.382-.473-1.054-.5-1.388-1.051a1.777,1.777,0,0,1-.2-.465c.187,0,.372,0,.554.007a.107.107,0,0,0,.072-.132.1.1,0,0,0-.072-.072c-.2,0-.394-.008-.593-.007a1.677,1.677,0,0,1,.28-1.177c.074-.107-.107-.213-.177-.107a1.875,1.875,0,0,0-.31,1.283,8.731,8.731,0,0,0-4.248.973c-1.568.9-2.092,2.443-2.762,4.023a4.469,4.469,0,0,1-1.829,2.329,13.609,13.609,0,0,1-2.957.926,12,12,0,0,0-4.553,2.51A12.141,12.141,0,0,0,173,60.407a.107.107,0,0,0,.072.125,92.687,92.687,0,0,0,16.509,1.029q1-.027,1.992-.077a7.048,7.048,0,0,0,1.894-.155.907.907,0,0,0,.6-.729,15.645,15.645,0,0,0,.213-1.931q.406-4.229.5-8.48.025-1.111.029-2.23a2.3,2.3,0,0,0-.261-1.479" transform="translate(339 170.002)" fill="#b6bfd9"/><path d="M192.509,10.049l-10.1-.664-1.02-.067-17.1-1.123-1.02-.067-15.127-1V40.315a12.956,12.956,0,0,1,3.277-2.655c2.336-1.328,4.885-1.593,7.5-1.974a14.425,14.425,0,0,0,3.816-.981,9.4,9.4,0,0,0,2.825-1.98,26.961,26.961,0,0,0,3.985-5.831,28.764,28.764,0,0,1,4.378-6.1,13.23,13.23,0,0,1,2.974-2.275,15.533,15.533,0,0,1,3.938-1.381,37.071,37.071,0,0,0,4-1.043,18.252,18.252,0,0,0,3.292-1.574,31.246,31.246,0,0,0,5.529-4.394Z" transform="translate(339 170.002)" fill="#dfe1eb"/><path d="M195.035,10.215V61.49h-2.526V10.047Z" transform="translate(339 170.002)" fill="#cfb3a5"/><path d="M148.136,67.258l-.212,50.051H84.09V68.381l6.851-.12Z" transform="translate(339 170.002)" fill="#cfb3a5"/><path d="M95.706,71.217a4.688,4.688,0,0,0-.114-1.016c-.085-.253-.318-.287-.566-.4a27.347,27.347,0,0,0-4.088-1.538l-6.852.12v7.832c.569.082,1.139.187,1.7.242a20.582,20.582,0,0,0,4.568-.483,6.231,6.231,0,0,1,2.376.089,7.431,7.431,0,0,0,2.018.493.761.761,0,0,0,.8-.651,11.659,11.659,0,0,0,.211-2.2,20.256,20.256,0,0,0-.057-2.488" transform="translate(339 170.002)" fill="#c4a397"/><path d="M154.714,117.309H90.08V68.379l19.157-.332,10.932-.189,21.628-.373,6.337-.18Z" transform="translate(339 170.002)" fill="#b38a78"/><path d="M109.789,68.559a2.21,2.21,0,0,0-.55-.511l-19.158.333v7.606a10.32,10.32,0,0,0,2.072-1.238,5.6,5.6,0,0,1,2.779-1c1.77-.111,3.346.886,5.1.915a3.5,3.5,0,0,0,2.033-.63,5.438,5.438,0,0,1,2.293-1.181,24.05,24.05,0,0,0,2.46-.124,4.306,4.306,0,0,0,1.729-.841c.831-.662,2.035-2.249,1.248-3.326" transform="translate(339 170.002)" fill="#a6745e"/><path d="M172.407,67.258l-.22,50.051H106.732V68.262l41.4-.956,4.171-.009Z" transform="translate(339 170.002)" fill="#a6745e"/><path d="M153.027,68.214a2.235,2.235,0,0,0-.721-.914l-4.171.008-41.4.956v4.6c1.579.041,3.187.284,4.72.261,3.326-.051,6.4-1.578,9.588-2.348a36.857,36.857,0,0,1,10.491-.988c3.438.173,6.848.894,10.3.726a17.771,17.771,0,0,0,5.3-1.163,14.526,14.526,0,0,1,2.753-.772,24.263,24.263,0,0,1,3.059-.212.108.108,0,0,0,.1-.114.1.1,0,0,0-.011-.039" transform="translate(339 170.002)" fill="#855845"/><path d="M211.753,117.308H147.919l.212-49.727v-.319l58.016-1.292v.013Z" transform="translate(339 170.002)" fill="#cfb3a5"/><path d="M112.86,9.975v51.5l1.021.016V10.011a6.449,6.449,0,0,1-1.021-.036" transform="translate(339 170.002)" fill="#452d2e"/><path d="M130.984,8.227V60.466l1.021.016V8.164Z" transform="translate(339 170.002)" fill="#452d2e"/><path d="M163.263,8.126V62.44l1.021.016V8.193Z" transform="translate(339 170.002)" fill="#8c6858"/><path d="M181.388,9.317V61.382l1.021.018V9.385Z" transform="translate(339 170.002)" fill="#8c6858"/><path d="M245.532,65.122v52.185H206.24l-.086-51.328v-.857Z" transform="translate(339 170.002)" fill="#d9c0b4"/><path d="M245.557,71.195c-.006-.049-.014-.1-.024-.149-.051-.316-.117-.631-.2-.947a.106.106,0,0,0-.147-.032.1.1,0,0,0-.048.085v.008c-.025-.006-.051-.009-.078-.013a.082.082,0,0,0-.057.013,3.743,3.743,0,0,0-2.318-1.415,43.854,43.854,0,0,0-4.415-.693c-3.3-.479-6.6-.965-9.912-1.421-4.719-.653-9.453-1.218-14.209-1.509q-2.788-.174-5.59-.213c-6.667-.069-13.323.409-19.986.571-3.321.081-6.646.083-9.966-.1s-6.611-.653-9.91-1.095a36.591,36.591,0,0,0-10.842-.213,51.826,51.826,0,0,0-10.069,3.1l-.1-.049c-.116-.06.425.186.446.175,0,.146-.008,1.7-.008,1.7s5.152,1.32,7.414,3.149a19.748,19.748,0,0,1,5.565,6.995c1.243,2.655,2.018,5.492,3.186,8.178a18.3,18.3,0,0,0,2.109,3.729,15.32,15.32,0,0,0,2.973,2.91c1.27.975,2.62,1.852,3.824,2.915a13.512,13.512,0,0,1,2.762,3.429c1.4,2.43,2.24,5.126,3.586,7.579a13.494,13.494,0,0,0,2.353,3.2,16.69,16.69,0,0,0,3.772,2.575,42.006,42.006,0,0,1,4.329,2.6c.484.344.963.7,1.441,1.046h43.464c.138-.178.267-.362.391-.554a16.109,16.109,0,0,0,2.13-6.744c.345-2.626.549-5.268.85-7.9a62.991,62.991,0,0,1,3.381-15.54c1.387-3.6,3.292-7.305,3.869-11.152.009-.051.016-.1.023-.151a13.79,13.79,0,0,0,0-4.067" transform="translate(339 170.002)" fill="#c4a397"/><path d="M148.136,67.305l38.252-.883,59.143,4.271Z" transform="translate(339 170.002)" fill="#a6745e"/><path d="M69.535,69.121l14.551-.336v1.432Z" transform="translate(339 170.002)" fill="#b38a78"/><path d="M197,69.122V118.2H186.483V66.43l4.551.33,4.722,1.869Z" transform="translate(339 170.002)" fill="#b38a78"/><path d="M181.4,75.915v33.731H156.414V74.272l1.021.067,22.941,1.509Z" transform="translate(339 170.002)" fill="#d4d8e6"/><path d="M157.879,74.393a19.046,19.046,0,0,1,3.205,4.78c1.243,2.655,2.019,5.492,3.187,8.178a18.3,18.3,0,0,0,2.107,3.729,15.382,15.382,0,0,0,2.974,2.91c1.269.976,2.619,1.851,3.824,2.915a13.469,13.469,0,0,1,2.761,3.429c1.4,2.429,2.24,5.126,3.587,7.578a16.062,16.062,0,0,0,1.114,1.764h.737V75.938l-1.02-.067Z" transform="translate(339 170.002)" fill="#b6bfd9"/><path d="M195.9,69.433a4.761,4.761,0,0,0-.147-.8l-4.722-1.869-4.551-.331v4.7c.9.125,1.792.319,2.7.438a10.083,10.083,0,0,0,3.611-.287c.648-.142,1.3-.184,1.955-.277.327-.047.9-.091,1.1-.406a1.989,1.989,0,0,0,.053-1.168" transform="translate(339 170.002)" fill="#855845"/><path d="M197,65.179V118.2h-5.921V63.646Z" transform="translate(339 170.002)" fill="#f0ded5"/><path d="M215.707,64.789v52.518H205.192V62.058Z" transform="translate(339 170.002)" fill="#b38a78"/><path d="M213.477,69.651a3.278,3.278,0,0,0-1.509-2c-1.843-1.214-4.182-1.016-6.267-.768l-.513.063v4.822a4.627,4.627,0,0,0,1.487.212,14.3,14.3,0,0,0,1.487-.212,7.071,7.071,0,0,1,2.018.043,3.809,3.809,0,0,0,2.509-.263,1.783,1.783,0,0,0,.794-1.9" transform="translate(339 170.002)" fill="#855845"/><path d="M215.708,64.965V117.31h-5.921V63.432Z" transform="translate(339 170.002)" fill="#f0ded5"/><path d="M234.927,67.508v49.8H224.412V66.219l.206.018q1,.062,1.987.171c2.775.379,5.534.837,8.325,1.1" transform="translate(339 170.002)" fill="#b38a78"/><path d="M232.05,70.728a5.781,5.781,0,0,0-.784-1.517,5.144,5.144,0,0,0-2.242-1.885,8.268,8.268,0,0,0-4.615-.212v5.753a6.968,6.968,0,0,0,.88-.191,6.709,6.709,0,0,1,1.9-.255c.657.016,1.3.133,1.958.173a4.013,4.013,0,0,0,1.636-.232,3.516,3.516,0,0,0,1.293-.622c.24-.273.076-.706-.02-1.008" transform="translate(339 170.002)" fill="#855845"/><path d="M234.928,64.782V117.31h-5.921V63.248Z" transform="translate(339 170.002)" fill="#f0ded5"/><path d="M216.835,57.674a1.563,1.563,0,0,0-1.619.5c1.32-2.739,3.568-5.749,2.3-8.864a3.522,3.522,0,0,0-2.633-2.277,2.917,2.917,0,0,0-2.42.717c1.424-3.564,2.471-7.419,1.912-11.275a5.486,5.486,0,0,0-1.862-3.747,3.336,3.336,0,0,0-4.1.507,6.9,6.9,0,0,0-2.336,4.608,3.142,3.142,0,0,0-1.663-2.164c-1.275-.451-2.238.75-2.844,1.7-.375.589-.723,1.2-1.041,1.825a18.75,18.75,0,0,0-2.036,7.195,14.376,14.376,0,0,0,.579,5.146c-1.062-.6-2.433-1.2-3.505-.347a4.29,4.29,0,0,0-1.23,3.149c-.063,2.706.387,4.918.448,6.421-.37-.016.875,1.168.5,1.157-.133-.007-.131.2,0,.2l1.23.055c.169.3.344.595.531.881.071.107.248.009.177-.106-.164-.253-.318-.508-.468-.768l10.588.484,1.985.089c1.161.053,2.32.122,3.481.157a5.951,5.951,0,0,0,2.647-.389A3.639,3.639,0,0,0,217.728,59a1.6,1.6,0,0,0-.886-1.328" transform="translate(339 170.002)" fill="#83a00a"/><path d="M210.259,52.01c-.882-1.927-3.218-3.352-5.311-2.477-.126.053-.409.247-.531.224-.226-.04-.124-.264-.106-.448q.059-.651.106-1.3.094-1.252.151-2.509a13.157,13.157,0,0,0-.2-4.567,3,3,0,0,0-2.211-2.144,2.108,2.108,0,0,0-1.621.424A18.76,18.76,0,0,0,198.5,46.4a14.376,14.376,0,0,0,.579,5.146c-1.062-.6-2.433-1.2-3.5-.346a4.287,4.287,0,0,0-1.23,3.148c-.063,2.706.387,4.919.448,6.422-.37-.016.874,1.168.5,1.156-.132-.006-.13.2,0,.2l1.23.055c.169.3.344.6.531.882.071.106.248.008.177-.106-.164-.253-.318-.509-.468-.768l10.588.482c.04-.031.082-.062.12-.093a8.381,8.381,0,0,0,2.28-3.017c1.062-2.269,1.594-5.214.513-7.567" transform="translate(339 170.002)" fill="#728409"/><path d="M184.234,44.684,70.964,47.211v.212L184.246,44.9a1.5,1.5,0,0,1-.012-.212" transform="translate(339 170.002)" fill="#452d2e"/><path d="M70.76,47.634v-.622h.2L184.44,44.481v.212a1.674,1.674,0,0,0,.009.188l.028.223h-.224Z" transform="translate(339 170.002)" fill="#452d2e"/><path d="M245.527,49.1v.212l-.212-.014L184.22,44.9v-.213l61.1,4.406Z" transform="translate(339 170.002)" fill="#452d2e"/><path d="M245.734,49.538l-.433-.031-61.285-4.419v-.624l61.717,4.451Z" transform="translate(339 170.002)" fill="#452d2e"/><path d="M75.891,47.316V62.455H76.1V47.312a.106.106,0,1,0-.212,0" transform="translate(339 170.002)" fill="#452d2e"/><path d="M70.964,47.316V62.455h.212V47.312a.106.106,0,0,0-.212,0" transform="translate(339 170.002)" fill="#452d2e"/><path d="M80.973,47.2V62.341h.212V47.2a.106.106,0,1,0-.212,0" transform="translate(339 170.002)" fill="#452d2e"/><path d="M86.084,47.088V62.227H86.3V47.083a.106.106,0,1,0-.212,0" transform="translate(339 170.002)" fill="#452d2e"/><path d="M91.165,46.973V62.112h.212V46.968a.106.106,0,1,0-.212,0" transform="translate(339 170.002)" fill="#452d2e"/><path d="M96.516,46.746V61.884h.212V46.741a.106.106,0,1,0-.212,0" transform="translate(339 170.002)" fill="#452d2e"/><path d="M101.6,46.631V61.77h.212V46.626a.106.106,0,1,0-.212,0" transform="translate(339 170.002)" fill="#452d2e"/><path d="M106.7,46.517V61.656h.212V46.512a.106.106,0,1,0-.212,0" transform="translate(339 170.002)" fill="#452d2e"/><path d="M111.79,46.4V61.541H112V46.4a.106.106,0,1,0-.212,0" transform="translate(339 170.002)" fill="#452d2e"/><path d="M116.936,46.394V61.533h.212V46.389a.106.106,0,1,0-.212,0" transform="translate(339 170.002)" fill="#452d2e"/><path d="M121.983,46.227V61.366h.212V46.222a.106.106,0,1,0-.212,0" transform="translate(339 170.002)" fill="#452d2e"/><path d="M127.061,46.113V61.252h.212V46.108a.106.106,0,1,0-.212,0" transform="translate(339 170.002)" fill="#452d2e"/><path d="M132.178,46V61.137h.212V45.993a.106.106,0,1,0-.212,0" transform="translate(339 170.002)" fill="#452d2e"/><path d="M137.257,45.882V61.021h.212V45.878a.106.106,0,1,0-.212,0" transform="translate(339 170.002)" fill="#452d2e"/><path d="M142.6,45.766V60.795h.212V45.766a.106.106,0,0,0-.212,0" transform="translate(339 170.002)" fill="#452d2e"/><path d="M147.687,45.651V60.68h.212V45.651a.106.106,0,0,0-.212,0" transform="translate(339 170.002)" fill="#452d2e"/><path d="M152.8,45.536V60.565h.212V45.536a.106.106,0,1,0-.212,0" transform="translate(339 170.002)" fill="#452d2e"/><path d="M194.5,45.786V60.925l.212.015V45.8c0-.137-.212-.152-.212-.015" transform="translate(339 170.002)" fill="#452d2e"/><path d="M189.581,45.341V60.48l.212.015V45.356c0-.138-.212-.152-.212-.015" transform="translate(339 170.002)" fill="#452d2e"/><path d="M199.576,46.129V61.268l.212.015V46.144c0-.137-.212-.152-.212-.015" transform="translate(339 170.002)" fill="#452d2e"/><path d="M204.681,46.475V61.614l.212.015V46.49c0-.137-.212-.152-.212-.015" transform="translate(339 170.002)" fill="#452d2e"/><path d="M209.756,46.819V61.958l.212.015V46.834c0-.137-.212-.152-.212-.015" transform="translate(339 170.002)" fill="#452d2e"/><path d="M215.106,47.074V62.213l.212.015V47.089c0-.137-.212-.152-.212-.015" transform="translate(339 170.002)" fill="#452d2e"/><path d="M220.175,47.418V62.557l.212.015V47.433c0-.137-.212-.152-.212-.015" transform="translate(339 170.002)" fill="#452d2e"/><path d="M225.281,47.769V62.9l.212.015V47.78c0-.137-.212-.152-.212-.015" transform="translate(339 170.002)" fill="#452d2e"/><path d="M230.355,48.109V63.248l.212.015V48.124c0-.137-.212-.152-.212-.015" transform="translate(339 170.002)" fill="#452d2e"/><path d="M235.494,48.564V63.7l.212.015V48.579c0-.137-.212-.152-.212-.015" transform="translate(339 170.002)" fill="#452d2e"/><path d="M240.535,48.852V63.991l.212.015V48.868c0-.137-.212-.152-.212-.015" transform="translate(339 170.002)" fill="#452d2e"/><path d="M245.53,49.1V64.351l-.212-.015V49.089Z" transform="translate(339 170.002)" fill="#452d2e"/><path d="M157.879,45.422V60.451h.212V45.422a.106.106,0,0,0-.212,0" transform="translate(339 170.002)" fill="#452d2e"/><path d="M163.206,45.4V60.427h.212V45.4a.106.106,0,0,0-.212,0" transform="translate(339 170.002)" fill="#452d2e"/><path d="M168.287,45.284V60.313h.212V45.284a.106.106,0,1,0-.212,0" transform="translate(339 170.002)" fill="#452d2e"/><path d="M173.426,45.157V60.186h.212V45.157a.106.106,0,1,0-.212,0" transform="translate(339 170.002)" fill="#452d2e"/><path d="M178.508,45.042V60.071h.212V45.042a.106.106,0,0,0-.212,0" transform="translate(339 170.002)" fill="#452d2e"/><path d="M184.113,44.909V59.938h.212V44.909a.106.106,0,1,0-.212,0" transform="translate(339 170.002)" fill="#452d2e"/><path d="M186.387,59.549v6.873l-21.619.5-95.234,2.2V62.247L170.667,59.91Z" transform="translate(339 170.002)" fill="#d9c0b4"/><path d="M245.533,63.821v6.873L186.39,66.423V59.548Z" transform="translate(339 170.002)" fill="#f0ded5"/><path d="M138.02,77.939v39.37H116.392v-39Z" transform="translate(339 170.002)" fill="#51331e"/><path d="M170.669,59.912c-.138.175-.271.355-.4.531a28.042,28.042,0,0,1-2.452,3.037c-.857.9-1.756,1.762-2.528,2.737-.164.212-.342.444-.519.7l21.619-.5V59.549Z" transform="translate(339 170.002)" fill="#c4a397"/><path d="M117.568,114.635l-1.176.014V78.313l1.176-.021Z" transform="translate(339 170.002)" fill="#452d2e"/><rect width="21.624" height="1.176" transform="translate(455.393 248.247) rotate(-0.682)" fill="#452d2e"/><path d="M138.021,114.282l-1.176.014V77.96l1.176-.021Z" transform="translate(339 170.002)" fill="#452d2e"/><path d="M156.414,74.271v35.374h1.021V74.339Z" transform="translate(339 170.002)" fill="#8c6858"/><path d="M156.414,75.293l24.974,1.642.011-1.021-24.985-1.642Z" transform="translate(339 170.002)" fill="#8c6858"/><path d="M156.414,109.64h24.974l.011-1.021H156.414Z" transform="translate(339 170.002)" fill="#8c6858"/><path d="M180.378,75.848v33.8H181.4V75.914Z" transform="translate(339 170.002)" fill="#8c6858"/><path d="M192.51,11.359,148.136,8.433V7.13l46.9,3.08Z" transform="translate(339 170.002)" fill="#b38a78"/><path d="M101.237,11.407l46.9-2.974V7.13l-52.256,3.3Z" transform="translate(339 170.002)" fill="#a6745e"/><path d="M142.517,114.342v2.968H110.7v-2.6Z" transform="translate(339 170.002)" fill="#51331e"/><path d="M117.466,114.737v-35.4l19.48-.339v35.515Zm.2-35.2v35l19.074-.223V79.2Z" transform="translate(339 170.002)" fill="#6e4634"/><path d="M134.351,94.853v-.6c-.344-.011-.943.028-1.11.368a1.412,1.412,0,0,0-.075.608q-.015.648-.013,1.294t.031,1.3a4.435,4.435,0,0,0,.055.935c.111.417.735.411,1.092.34a.04.04,0,0,0,.02-.009v-.664c-.235-.015-.511.062-.579-.137a24.259,24.259,0,0,1-.005-3.156c.033-.342.285-.277.584-.271" transform="translate(339 170.002)" fill="#6e4634"/><rect width="0.204" height="49.638" transform="translate(383.713 237.428)" fill="#6e4634"/><rect width="0.204" height="49.707" transform="translate(386.768 237.354)" fill="#6e4634"/><rect width="0.204" height="49.77" transform="translate(389.467 237.294)" fill="#6e4634"/><rect width="0.204" height="49.83" transform="translate(392.115 237.232)" fill="#6e4634"/><rect width="0.204" height="49.887" transform="translate(394.507 237.178)" fill="#6e4634"/><rect width="0.204" height="49.328" transform="translate(370.272 237.736)" fill="#6e4634"/><path d="M34.53,67.657v49.4h-.2V67.668Z" transform="translate(339 170.002)" fill="#6e4634"/><rect width="0.204" height="49.456" transform="translate(376.025 237.604)" fill="#6e4634"/><rect width="0.204" height="49.521" transform="translate(378.673 237.543)" fill="#6e4634"/><rect width="0.204" height="49.573" transform="translate(381.065 237.488)" fill="#6e4634"/><rect width="0.204" height="49.011" transform="translate(356.475 238.054)" fill="#6e4634"/><path d="M20.735,67.977v49.084h-.2V67.985Z" transform="translate(339 170.002)" fill="#6e4634"/><rect width="0.204" height="49.139" transform="translate(362.229 237.922)" fill="#6e4634"/><rect width="0.204" height="49.204" transform="translate(364.875 237.861)" fill="#6e4634"/><rect width="0.204" height="49.257" transform="translate(367.268 237.806)" fill="#6e4634"/><rect width="0.204" height="48.701" transform="translate(343.034 238.363)" fill="#6e4634"/><rect width="0.204" height="48.643" transform="translate(340.285 238.427)" fill="#6e4634"/><rect width="0.204" height="48.772" transform="translate(346.09 238.294)" fill="#6e4634"/><rect width="0.206" height="48.835" transform="translate(348.784 238.234)" fill="#6e4634"/><rect width="0.204" height="48.895" transform="translate(351.434 238.171)" fill="#6e4634"/><rect width="0.204" height="48.95" transform="translate(353.828 238.116)" fill="#6e4634"/><path d="M9.975,73.183V112.35l-4.617.146V73.3Z" transform="translate(339 170.002)" fill="#6e4634"/><path d="M17.923,72.991v39.254l-7.949.106V73.184Z" transform="translate(339 170.002)" fill="#b6bfd9"/><path d="M17.923,81.625V82.8l-7.934.128-.014-1.174Z" transform="translate(339 170.002)" fill="#452d2e"/><path d="M114.461,77.025c.31-1.069.613-2.572-.161-3.523a1.632,1.632,0,0,0-2.1-.175c-.006-.03.039-.191.066-.063.018.085.03.171.046.256-.01.02-.023.037-.034.058a.107.107,0,0,0,.05.142.1.1,0,0,0,.022.008,10.542,10.542,0,0,1-.115,4.074c-.149.648-.408,1.251-.6,1.884a4.891,4.891,0,0,0,0,1.98c.132,1.415-.886,2.574-1.194,3.911a6.965,6.965,0,0,0-.173,1.814,2.883,2.883,0,0,0,.334,1.593c.733.85,1.637-.469,1.935-1.016a7.791,7.791,0,0,0,.943-3.483c.04-1.323-.4-2.575-.142-3.9.239-1.228.783-2.368,1.13-3.565" transform="translate(339 170.002)" fill="#728409"/><path d="M110.1,73.755a.107.107,0,0,0,.07-.133.1.1,0,0,0-.045-.058,3.32,3.32,0,0,0-4.051.352,9.132,9.132,0,0,0-2.474,4.577,25.526,25.526,0,0,1-1.948,5.6c-.974,1.7-2.461,3.043-3.22,4.87a11.888,11.888,0,0,0-.725,2.729c-.068.425-.121.859-.167,1.29a2.348,2.348,0,0,0,.011,1.154c.255.584.944.409,1.386.169a3.617,3.617,0,0,0,1.455-1.653c.779-1.6.683-3.548,1.758-5.019a17.225,17.225,0,0,1,2.078-2.018A6.385,6.385,0,0,0,105.65,83.5a26.3,26.3,0,0,0,.857-2.991,3.665,3.665,0,0,1,.806-1.555c.348-.365.806-.607,1.168-.956a5.581,5.581,0,0,0,1.319-2.326c.167-.5.589-1.381.3-1.918" transform="translate(339 170.002)" fill="#83a00a"/><path d="M110.4,79.921a2.775,2.775,0,0,1-2.8-2.389,10.419,10.419,0,0,1-.031-3.768h6.411c-.407,2.287-.825,5.827-3.582,6.16" transform="translate(339 170.002)" fill="#f0ded5"/><path d="M112.426,73.347c-.134-.569-.779-.637-1.253-.458a1.868,1.868,0,0,0-.809.606,6.661,6.661,0,0,0-1.7,3.661c-.212,1.749.032,3.524-.9,5.107-.717,1.214-1.813,2.222-2.244,3.594a10.154,10.154,0,0,0-.277,2.33,14.891,14.891,0,0,0-.4,2.51,1.23,1.23,0,0,0,.723,1.069,1.44,1.44,0,0,0,1.487-.6,7.3,7.3,0,0,0,1.38-3.813,19.161,19.161,0,0,1,.819-4.376c.309-.791.8-1.487,1.184-2.241a8.287,8.287,0,0,0,.708-2.323,12.874,12.874,0,0,1,.782-2.735,4.131,4.131,0,0,0,.51-2.327" transform="translate(339 170.002)" fill="#83a00a"/><path d="M110.312,68.195a62.961,62.961,0,0,1-2.741,5.746c-.063.116.113.219.176.106a63.618,63.618,0,0,0,2.761-5.795c.05-.121-.146-.173-.2-.054" transform="translate(339 170.002)" fill="#452d2e"/><path d="M114.064,73.7l-1.249-5.576c-.029-.128-.225-.074-.2.054l1.247,5.576c.029.128.226.073.2-.054" transform="translate(339 170.002)" fill="#452d2e"/><path d="M192.342,116.942a1.586,1.586,0,0,0-1.281-.271,1.905,1.905,0,0,0,.106-2.443,2.6,2.6,0,0,0-3.265-.384,7.867,7.867,0,0,0,.744-4.355,3.214,3.214,0,0,0-2.462-2.631c-2.729-.548-5.321,1.734-6.686,3.863-.014.02-.029.041-.042.061a10.388,10.388,0,0,0-1.507,4.181,1.293,1.293,0,0,0-1.136-.6,2.035,2.035,0,0,0-1.625,1.237,3.276,3.276,0,0,0,.945,3.942.105.105,0,0,0,.144-.008,11.345,11.345,0,0,0,3.863.384l4.471-.01,2.23-.007c.307,0,.622.007.937.007.409.006.819.006,1.22-.018,1.487-.09,3.365-.577,3.658-1.829a1.128,1.128,0,0,0-.31-1.13" transform="translate(339 170.002)" fill="#83a00a"/><path d="M211.679,116.781a2.195,2.195,0,0,0-2.417-1.806,3.8,3.8,0,0,0-.462-4.626c-.9-.882-2.99-1.268-3.7-.047a4.1,4.1,0,0,0-.943-2.879,2.074,2.074,0,0,0-2.747-.233,3.021,3.021,0,0,0-.778.8,7.059,7.059,0,0,0-.892,2.309,13.257,13.257,0,0,0-.279,4.461,1.592,1.592,0,0,0-1.583,1.6c0,.017,0,.035,0,.053a5.005,5.005,0,0,0,.69,2.146.693.693,0,0,0,.267.554,1.254,1.254,0,0,0,.678.061c.467-.014.931-.026,1.4-.036q2.5-.055,4.992-.036,1.247.009,2.5.036a2.548,2.548,0,0,1,.261.009,7.286,7.286,0,0,0,1.912-.033,1.792,1.792,0,0,0,1.135-2.266c-.008-.024-.016-.047-.025-.071" transform="translate(339 170.002)" fill="#83a00a"/><path d="M229.1,116.725a2.386,2.386,0,0,0-2.08-1.352c1.346-.974,1.249-2.919.686-4.355-.454-1.159-1.7-2.466-2.973-1.805a2.084,2.084,0,0,0-.558-2.456,2.727,2.727,0,0,0-3.161.249,5.987,5.987,0,0,0-1.69,1.814,6.658,6.658,0,0,0-.912,4.242c-1.062-.542-2.171.4-2.393,1.478a4.449,4.449,0,0,0,.212,2.167,3.556,3.556,0,0,0,.913,1.823,16.34,16.34,0,0,0,2.639.26c1.61.067,3.694.111,5.383.124a29.824,29.824,0,0,0,2.99-.057,1.412,1.412,0,0,0,.943-2.136" transform="translate(339 170.002)" fill="#83a00a"/><path d="M187.321,118.656a15.549,15.549,0,0,0-1.374-2.089,2.07,2.07,0,0,1-.469-1.444,5.92,5.92,0,0,1,.425-1.419c.566-1.582.484-3.512-1.24-4.319-1.55-.726-3.163.06-4.452.985a.107.107,0,0,0-.075.056c-.082.059-.161.115-.238.177l-.379.14c-.009,0-.014-.01-.023-.014-.013.021-.028.041-.04.062a10.363,10.363,0,0,0-1.507,4.182,1.29,1.29,0,0,0-1.137-.6,2.035,2.035,0,0,0-1.625,1.236,3.278,3.278,0,0,0,.946,3.943.106.106,0,0,0,.144-.009,11.368,11.368,0,0,0,3.863.385l4.47-.01,2.231-.006c.307,0,.621.006.937.006a5.845,5.845,0,0,0-.455-1.263" transform="translate(339 170.002)" fill="#728409"/><path d="M208.647,119A6.419,6.419,0,0,0,206.5,115.1c-.572-.462-1.3-.573-1.9-.98a3.125,3.125,0,0,1-1.094-1.958c-.351-1.467-.542-3.316-2.125-3.992a1.985,1.985,0,0,0-.752-.164,7.1,7.1,0,0,0-.892,2.309,13.255,13.255,0,0,0-.279,4.461,1.593,1.593,0,0,0-1.584,1.6v.053a5.029,5.029,0,0,0,.691,2.147.689.689,0,0,0,.266.553,1.255,1.255,0,0,0,.678.062c.466-.014.93-.027,1.4-.037q2.494-.056,4.992-.036,1.245.009,2.5.036c.086,0,.173,0,.26.008a1.314,1.314,0,0,0-.014-.155" transform="translate(339 170.002)" fill="#728409"/><path d="M225.022,114.994a3.165,3.165,0,0,0-1.03-1.369c-.232-.171-.546-.236-.762-.413-.4-.319-.319-.892-.407-1.354-.26-1.443-.843-2.982-2.508-3.081a5.239,5.239,0,0,0-.986.042,6.66,6.66,0,0,0-.912,4.242c-1.068-.542-2.171.4-2.393,1.478a4.424,4.424,0,0,0,.212,2.167,3.555,3.555,0,0,0,.912,1.823,16.119,16.119,0,0,0,2.64.26c1.611.067,3.694.111,5.382.124a6.892,6.892,0,0,0-.146-3.924" transform="translate(339 170.002)" fill="#728409"/></g><g transform="translate(398 458)"><circle cx="82.5" cy="82.5" r="82.5" fill="#102f81"/><path d="M2314.321-2439.4l-9.1,8.19,9.1,8.19" transform="translate(2512.9 2367.461) rotate(-90)" fill="none" stroke="#fff" stroke-linecap="round" stroke-linejoin="round" stroke-width="1.5"/><text transform="translate(82 39)" fill="#fff" font-size="16" font-family="Roboto-Regular, Roboto"><tspan x="-44.996" y="0">Click to start</tspan></text></g></g></svg>