<svg xmlns="http://www.w3.org/2000/svg" xmlns:xlink="http://www.w3.org/1999/xlink" width="960" height="540" viewBox="0 0 960 540"><defs><filter id="a" x="-5" y="-5" width="52" height="52" filterUnits="userSpaceOnUse"><feOffset dx="1" dy="1" input="SourceAlpha"/><feGaussianBlur stdDeviation="2" result="b"/><feFlood flood-opacity="0.2"/><feComposite operator="in" in2="b"/><feComposite in="SourceGraphic"/></filter><clipPath id="c"><rect width="169.949" height="128.919" transform="translate(51.071 0)" fill="none"/></clipPath><clipPath id="e"><rect width="960" height="540"/></clipPath></defs><g id="d" clip-path="url(#e)"><rect width="960" height="540" fill="#fff"/><rect width="304" height="604" rx="152" transform="translate(328 -146)" fill="#006da9"/><g transform="translate(472 20)"><path d="M2314.321-2439.4l-9.1,8.19,9.1,8.19" transform="translate(-2423.02 -2305.221) rotate(90)" fill="none" stroke="#fff" stroke-linecap="round" stroke-linejoin="round" stroke-width="1.5"/></g><rect width="484.384" height="1117.143" transform="translate(1025.13 309.9) rotate(87)" fill="#f2f2f2"/><rect width="848" height="413" rx="3" transform="translate(56 64)" fill="#fff"/><path d="M3,1A2,2,0,0,0,1,3V410a2,2,0,0,0,2,2H845a2,2,0,0,0,2-2V3a2,2,0,0,0-2-2H3M3,0H845a3,3,0,0,1,3,3V410a3,3,0,0,1-3,3H3a3,3,0,0,1-3-3V3A3,3,0,0,1,3,0Z" transform="translate(56 64)" fill="#102f81"/><g transform="translate(112 289) rotate(180)"><g fill="#fff" stroke="#074e95" stroke-width="1.5"><circle cx="19" cy="19" r="19" stroke="none"/><circle cx="19" cy="19" r="18.25" fill="none"/></g><path d="M2314.321-2439.4l-9.1,8.19,9.1,8.19" transform="translate(2330.771 -2412.52) rotate(180)" fill="none" stroke="#074e95" stroke-linecap="round" stroke-linejoin="round" stroke-width="1.5"/></g><g transform="translate(0)"><g transform="matrix(1, 0, 0, 1, 0, 0)" filter="url(#a)"><path d="M3461.633,3124.767h40v40h-40Z" transform="translate(-3461.63 -3124.77)" fill="#fff"/></g><g transform="translate(-3461.633 -3124.767)"><path d="M3474.435,3142.083h-3.1v-7.915h7.719v3.182h-4.616Z" fill="#3375d0"/><path d="M3492.672,3142.083h-3.181v-4.733h-4.734v-3.182h7.915Z" fill="#3375d0"/><path d="M3492.672,3154.739h-7.914v-3.185h4.733v-4.733h3.182Z" fill="#3375d0"/><path d="M3479.051,3154.739h-7.719v-7.719h3.1v4.616h4.616Z" fill="#3375d0"/></g></g><text transform="translate(338 330)" fill="#050505" font-size="16" font-family="Roboto-Regular, Roboto"><tspan x="-135.48" y="15">How might the continuity of your </tspan><tspan y="15" font-family="Roboto-Bold, Roboto" font-weight="700">focal </tspan><tspan x="-140.324" y="37" font-family="Roboto-Bold, Roboto" font-weight="700">enterprise</tspan><tspan y="37" xml:space="preserve"> be affected by a global crisis </tspan><tspan x="-114.938" y="59">such as the Covid-19 pandemic?</tspan></text><text transform="translate(325 130)" fill="#050505" font-size="16" font-family="Roboto-Regular, Roboto"><tspan x="-152.883" y="15">Now that you’ve completed this case study, </tspan><tspan x="-90.332" y="37">take some time to reflect:</tspan></text><path d="M0,78.992H0a50,50,0,0,1,50-50H214a50,50,0,0,1,0,100H50a50,50,0,0,1-50-50" transform="translate(348 183.513)" fill="#102f81"/><g transform="translate(348 183.513)" clip-path="url(#c)"><path d="M106.524,138.208l8.193-16.387s16.907-2.991,17.167-22.759,0-76.211,0-80.113-1.321-7.108-4.747-8.844c-4.877-2.471-9.1,1.561-9.1,1.561S117.579,6.2,113.4,4.321A7.931,7.931,0,0,0,102.948,7.7s-.313-3.579-4.715-4.8c-4.877-1.349-7.9,1.74-9.331,4.341S77.912,26.1,78.628,54.193c0,0-7.384-8.98-13.461-14.793-4.487-4.292-9.071-3.609-11.634-1.642-2.708,2.079-3.266,6.473-1.254,11.053,2.129,4.847,20.5,49.406,20.5,49.406L56.46,133.29s24.313,6.219,50.064,4.918" fill="#ffa694"/><path d="M78.653,54.4a69.259,69.259,0,0,1,5.4,9.078c.334.675,1.344.083,1.011-.591a69.39,69.39,0,0,0-5.4-9.078c-.429-.612-1.445-.028-1.011.591"/><path d="M102.5,8.409c1.1,7.162-.719,13.972-2.2,20.926a57.561,57.561,0,0,0-.784,22c.127.741,1.255.427,1.129-.311-1.416-8.3-.393-16.18,1.434-24.315,1.393-6.2,2.525-12.26,1.553-18.615-.114-.742-1.242-.427-1.129.311"/><path d="M117.631,11.99A89.052,89.052,0,0,1,117.14,23.9c-.442,3.737-1.512,7.292-2.13,10.985a81.975,81.975,0,0,0-.52,20.291c.063.745,1.234.752,1.171,0-.593-7.017-.721-14.477.741-21.4a95.685,95.685,0,0,0,2.4-21.785.585.585,0,0,0-1.17,0"/><path d="M91.5,52.269c10.874-.875,22.717.248,30.279,9.047.492.572,1.317-.259.828-.828C114.859,51.473,102.662,50.2,91.5,51.1c-.746.059-.752,1.231,0,1.17"/><path d="M106.16,105.658c2.652-17.467-3.915-36.468-21.447-43.04-.706-.265-1.011.866-.311,1.129,16.878,6.327,23.177,24.821,20.629,41.6-.112.737,1.016,1.054,1.129.311"/><path d="M157.476,138.208l-8.193-16.387s-16.907-2.991-17.167-22.759,0-76.211,0-80.113,1.321-7.108,4.747-8.844c4.877-2.471,9.1,1.561,9.1,1.561s.455-5.462,4.633-7.345A7.931,7.931,0,0,1,161.052,7.7s.313-3.579,4.715-4.8c4.877-1.349,7.9,1.74,9.331,4.341s10.99,18.858,10.274,46.949c0,0,7.384-8.98,13.461-14.793,4.487-4.292,9.071-3.609,11.634-1.642,2.708,2.079,3.266,6.473,1.254,11.053-2.129,4.847-20.5,49.406-20.5,49.406L209.581,133.1s-26.354,6.407-52.1,5.106" fill="#ffa694"/><path d="M184.336,53.809a69.258,69.258,0,0,0-5.4,9.078c-.333.673.676,1.267,1.01.591a69.376,69.376,0,0,1,5.4-9.078c.433-.619-.582-1.2-1.011-.591"/><path d="M160.374,8.1c-.972,6.354.16,12.42,1.552,18.615,1.828,8.136,2.851,16.01,1.435,24.315-.126.737,1,1.053,1.129.311a57.536,57.536,0,0,0-.785-22c-1.484-6.956-3.3-13.763-2.2-20.927.112-.737-1.015-1.054-1.129-.311"/><path d="M145.2,11.99a95.735,95.735,0,0,0,2.4,21.785c1.462,6.926,1.335,14.385.742,21.4-.063.75,1.107.746,1.17,0a81.976,81.976,0,0,0-.519-20.291c-.59-3.523-1.624-6.925-2.072-10.484a87.966,87.966,0,0,1-.55-12.412.585.585,0,0,0-1.17,0"/><path d="M172.5,51.1c-11.162-.9-23.358.374-31.107,9.389-.489.569.336,1.4.828.828,7.561-8.8,19.406-9.922,30.279-9.047.751.061.747-1.11,0-1.17"/><path d="M158.969,105.347c-2.548-16.779,3.75-35.273,20.63-41.6.7-.262.4-1.394-.312-1.129-17.532,6.572-24.1,25.573-21.447,43.04.113.742,1.241.427,1.129-.311"/><path d="M131.415,20.366v81.752a.585.585,0,0,0,1.17,0V20.366a.585.585,0,0,0-1.17,0"/><path d="M163.747,55.177A31.747,31.747,0,1,1,132,23.429a31.748,31.748,0,0,1,31.748,31.748" fill="#809b0a"/><path d="M136.72,23.274a4.721,4.721,0,1,1-4.72-4.72,4.72,4.72,0,0,1,4.72,4.72" fill="#809b0a"/><path d="M132,22.017a5.306,5.306,0,1,1,5.306-5.306A5.312,5.312,0,0,1,132,22.017m0-9.441a4.135,4.135,0,1,0,4.135,4.135A4.14,4.14,0,0,0,132,12.576" fill="#809b0a"/><path d="M160.11,55.177A28.11,28.11,0,1,1,132,27.067a28.11,28.11,0,0,1,28.11,28.11" fill="#fff"/><path d="M132.209,38.766h-.216a.555.555,0,0,1-.554-.554V32.577a.555.555,0,0,1,.554-.554h.216a.555.555,0,0,1,.554.554v5.635a.555.555,0,0,1-.554.554"/><path d="M132.209,78.624h-.216a.555.555,0,0,1-.554-.554V72.435a.555.555,0,0,1,.554-.554h.216a.555.555,0,0,1,.554.554V78.07a.555.555,0,0,1-.554.554" fill="#3b466d"/><path d="M114.762,55.452v.216a.555.555,0,0,1-.554.554h-5.635a.555.555,0,0,1-.554-.554v-.216a.555.555,0,0,1,.554-.554h5.635a.555.555,0,0,1,.554.554"/><path d="M155.447,55.452v.216a.555.555,0,0,1-.554.554h-5.635a.555.555,0,0,1-.554-.554v-.216a.555.555,0,0,1,.554-.554h5.635a.555.555,0,0,1,.554.554"/><path d="M120.394,43.247l-.153.153a.556.556,0,0,1-.783,0l-3.985-3.985a.556.556,0,0,1,0-.783l.153-.153a.556.556,0,0,1,.783,0l3.985,3.985a.556.556,0,0,1,0,.783"/><path d="M148.578,71.431l-.153.153a.556.556,0,0,1-.783,0L143.657,67.6a.556.556,0,0,1,0-.783l.153-.153a.556.556,0,0,1,.783,0l3.985,3.985a.556.556,0,0,1,0,.783"/><path d="M119.823,67.415l.153.153a.556.556,0,0,1,0,.783l-3.985,3.985a.556.556,0,0,1-.783,0l-.153-.153a.556.556,0,0,1,0-.783l3.985-3.985a.556.556,0,0,1,.783,0"/><path d="M148.592,38.646l.153.153a.556.556,0,0,1,0,.783l-3.985,3.985a.556.556,0,0,1-.783,0l-.153-.153a.556.556,0,0,1,0-.783l3.985-3.985a.556.556,0,0,1,.783,0"/><path d="M133.433,55.324a1.424,1.424,0,1,1-1.424-1.424,1.424,1.424,0,0,1,1.424,1.424" fill="#ffba00"/><path d="M132.249,55.721l-.078.04a.344.344,0,0,1-.464-.15l-8.015-15.663a.344.344,0,0,1,.15-.464l.078-.04a.344.344,0,0,1,.464.15L132.4,55.257a.345.345,0,0,1-.15.464" fill="#ffba00"/><path d="M131.781,55.629l-.035-.122a.324.324,0,0,1,.222-.4L142.9,51.947a.325.325,0,0,1,.4.222l.035.122a.324.324,0,0,1-.222.4l-10.933,3.158a.326.326,0,0,1-.4-.222" fill="#ffba00"/></g><g transform="translate(-36 361)"><circle cx="7.5" cy="7.5" r="7.5" transform="translate(487 68)" fill="#c2c4c6"/><path d="M7.5,0A7.5,7.5,0,1,1,0,7.5,7.5,7.5,0,0,1,7.5,0Z" transform="translate(509 68)" fill="#c2c4c6"/><circle cx="7.5" cy="7.5" r="7.5" transform="translate(531 68)" fill="#888a90"/></g><text transform="translate(480 52)" fill="#fff" font-size="14" font-family="Roboto-Light, Roboto" font-weight="300"><tspan x="-38.896" y="0">Back to start</tspan></text></g></svg>