<svg xmlns="http://www.w3.org/2000/svg" xmlns:xlink="http://www.w3.org/1999/xlink" width="960" height="540" viewBox="0 0 960 540"><defs><filter id="a" x="-5" y="-5" width="52" height="52" filterUnits="userSpaceOnUse"><feOffset dx="1" dy="1" input="SourceAlpha"/><feGaussianBlur stdDeviation="2" result="b"/><feFlood flood-opacity="0.2"/><feComposite operator="in" in2="b"/><feComposite in="SourceGraphic"/></filter><clipPath id="d"><rect width="960" height="540"/></clipPath></defs><g id="c" clip-path="url(#d)"><rect width="960" height="540" fill="#fff"/><rect width="484.384" height="1117.143" transform="translate(1025.13 241) rotate(87)" fill="#f2f2f2"/><g transform="translate(0)"><g transform="matrix(1, 0, 0, 1, 0, 0)" filter="url(#a)"><path d="M3461.633,3124.767h40v40h-40Z" transform="translate(-3461.63 -3124.77)" fill="#fff"/></g><g transform="translate(-3461.633 -3124.767)"><path d="M3474.435,3142.083h-3.1v-7.915h7.719v3.182h-4.616Z" fill="#3375d0"/><path d="M3492.672,3142.083h-3.181v-4.733h-4.734v-3.182h7.915Z" fill="#3375d0"/><path d="M3492.672,3154.739h-7.914v-3.185h4.733v-4.733h3.182Z" fill="#3375d0"/><path d="M3479.051,3154.739h-7.719v-7.719h3.1v4.616h4.616Z" fill="#3375d0"/></g></g><text transform="translate(175 337)" fill="#050505" font-size="16" font-family="Roboto-Regular, Roboto"><tspan x="-304.535" y="15">The collapse of the Australian construction company Porter Davis (PD) had significant </tspan><tspan x="-303.094" y="38">economic and social impacts (Kolovos 2023). As a result of the collapse, homes were </tspan><tspan x="-302.586" y="61">left unfinished, homeowners feared their deposits were lost, and suppliers feared they </tspan><tspan x="-237.863" y="84">would not be paid (Black &amp; McCubbing 2023; Johnston et al. 2023).</tspan></text><path d="M264.838,215.3a96.849,96.849,0,1,1-96.849-96.849A96.849,96.849,0,0,1,264.838,215.3" transform="translate(695.299 56.011) rotate(90)" fill="#809b0a"/><path d="M216.683,81.928H99.376a4,4,0,0,1-4-4V12.753a4,4,0,0,1,4-4H216.683a4,4,0,0,1,4,4V77.928a4,4,0,0,1-4,4" transform="translate(305 134)"/><path d="M215.11,74.75H100.948a3,3,0,0,1-3-3V14.325a3,3,0,0,1,3-3H215.11a3,3,0,0,1,3,3V71.75a3,3,0,0,1-3,3" transform="translate(305 134)" fill="#fff"/><path d="M169.564,31.285h9.485a.239.239,0,0,1,.135.041L206.4,66.3a.241.241,0,1,1-.269.4L178.976,31.767h-9.245l-4.2,11.155a.242.242,0,0,1-.226.156H145.871l-5.732,9.638a.24.24,0,0,1-.289.1l-19.58-7.008L103.033,60.945a.241.241,0,0,1-.318-.362l17.343-15.228a.243.243,0,0,1,.241-.046l19.527,6.99,5.7-9.585a.238.238,0,0,1,.207-.118h19.4l4.2-11.155a.242.242,0,0,1,.226-.156" transform="translate(305 134)" fill="#ea001f"/><path d="M169.564,30.785h9.485a.739.739,0,0,1,.415.127l.066.045.049.063,27.178,34.927a.741.741,0,0,1-.909,1.167l-.065-.044-.049-.062-27-34.739h-8.654L166,43.1a.747.747,0,0,1-.694.48H146.155l-5.587,9.394a.74.74,0,0,1-.891.317l-19.3-6.907-17.016,14.94a.741.741,0,0,1-.978-1.113l17.343-15.228a.744.744,0,0,1,.736-.142l19.143,6.852,5.49-9.23a.741.741,0,0,1,.637-.363H164.79l4.08-10.831A.747.747,0,0,1,169.564,30.785Z" transform="translate(305 134)" fill="#ea001f"/><path d="M213.126,69.874H103.369a.778.778,0,0,1-.777-.776V18.479a.241.241,0,0,1,.483,0V69.1a.294.294,0,0,0,.294.294H213.126a.241.241,0,0,1,0,.482" transform="translate(305 134)" fill="#4f332e"/><path d="M129.232,71.522a.241.241,0,0,1-.241-.241v-3.3a.241.241,0,0,1,.482,0v3.3a.241.241,0,0,1-.241.241" transform="translate(305 134)" fill="#4f332e"/><path d="M142.142,71.522a.241.241,0,0,1-.241-.241v-3.3a.241.241,0,0,1,.482,0v3.3a.241.241,0,0,1-.241.241" transform="translate(305 134)" fill="#4f332e"/><path d="M38.09,27.566a3.466,3.466,0,0,0,3.767,2.281c3.334-.439,3.213-6.814,3.213-6.814l-5.7.248Z" transform="translate(305 134)" fill="#4f332e"/><path d="M77.9,50.433s-10.37,8.923-10.852,8.923S61.9,57.745,61.9,57.745l-1.071-5.45-1.167-5.957-.173-.892,5.788-13.583,4.259-.323Z" transform="translate(305 134)" fill="#ffa694"/><path d="M68.9,41.669s-3.678,5.6-4.462,7.776a35.731,35.731,0,0,0-1.266,5.8l-.579-1.372-.848-.626.549-1.718a9.118,9.118,0,0,1-.418-1.055,12.346,12.346,0,0,0-1.036-1.647Z" transform="translate(305 134)" fill="#c17568"/><path d="M61.128,53.787l4.455,1.146,9.8-10.31,3.89,5.359,6.6,3.262L77.9,70.367l-6.412,7.657-6.15.3-7.5-6.39-1.572-8.26Z" transform="translate(305 134)" fill="#fff"/><path d="M69.1,62.409h-.026a.239.239,0,0,1-.188-.13c-2.089-4.055-2.925-5.75-3.26-6.473L63.5,59.947a.241.241,0,0,1-.429-.221l2.359-4.593a.241.241,0,0,1,.455.11c.083.26,1.939,3.913,3.264,6.491l9.937-11.906a.241.241,0,1,1,.37.308L69.285,62.322a.239.239,0,0,1-.185.087" transform="translate(305 134)"/><path d="M126.055,130.359a17.74,17.74,0,0,1-16,8.768l-81.311,4.554s-.294-14.673-.087-18.271a2.31,2.31,0,0,1,.087-.7c.044-.058-.082.019-.352.188-2.006,1.24-12.111,7.51-22.037,1.418C-4.9,119.4,1.7,105.1,4.267,99.466s17.2-35.852,25.723-41.784a27.458,27.458,0,0,1,18.068-4.51L64.632,71.611A1.264,1.264,0,0,0,66.6,71.5L81.319,50.992s10.37.685,18.931,4.249c3.984,1.659,8.875,5.528,12.961,10.582.111.131.217.266.318.4a42.68,42.68,0,0,1,3.844,5.711c4.462,7.958,7.317,25.442,9.4,32.518a76.4,76.4,0,0,1,2.012,7.814c.082.444.159.892.227,1.346a24.75,24.75,0,0,1-2.962,16.746" transform="translate(305 134)" fill="#006da9"/><path d="M4.9,104.116a.241.241,0,0,1-.209-.362l7.749-13.43a.241.241,0,0,1,.417.241L5.108,104a.241.241,0,0,1-.209.121" transform="translate(305 134)" fill="#4f332e"/><path d="M28.745,124.711c.043-.058-.082.019-.352.188a39.9,39.9,0,0,0,3.222-8.4l.468.106a39.741,39.741,0,0,1-3.425,8.807,2.24,2.24,0,0,1,.087-.7" transform="translate(305 134)" fill="#4f332e"/><path d="M113.529,66.224A116.236,116.236,0,0,0,102.778,88.7a149.965,149.965,0,0,0-4.085,14.817c-.285,1.186-.57,2.377-.859,3.564a.241.241,0,0,1-.236.183.224.224,0,0,1-.058,0,.247.247,0,0,1-.179-.294c.295-1.186.579-2.373.864-3.564a150.678,150.678,0,0,1,4.1-14.861,117.2,117.2,0,0,1,10.891-22.717c.111.13.217.265.318.4" transform="translate(305 134)"/><path d="M129.017,113.613c-2.045-4-5.011-7.413-9.367-8.875-3.685-1.239-7.741-1.249-11.576-.993-4.249.289-8.035,1.847-10.5,5.44a.267.267,0,0,1-.444-.029c-.091-.14.131-.294.174-.4a4.242,4.242,0,0,1,.806-1.008A12.246,12.246,0,0,1,100,106a12.633,12.633,0,0,1,4.534-2.142,34.544,34.544,0,0,0,3.786-1.6,27.56,27.56,0,0,1,4.22-1.269,18.443,18.443,0,0,1,8.851.184.243.243,0,0,1-.13.468c-4.9-1.4-9.873-.275-14.407,1.746.468-.058.945-.106,1.432-.14,4.057-.251,8.388-.208,12.227,1.292a16.372,16.372,0,0,1,8.089,7.4c.063.106.121.212.183.323.082.444.159.893.227,1.346" transform="translate(305 134)"/><path d="M102.385,107.289a4.673,4.673,0,0,1,2.44-1.561,10.519,10.519,0,0,1,3.747-.182c4.721.409,9.7,1.827,12.681,5.511a18.238,18.238,0,0,1,3.287,8.056c.717,3.61.975,7.524-.673,10.814-1.7,3.4-4.8,5.32-8.328,6.728a16.978,16.978,0,0,1-7.686.607c-4.3-.423-8.135-2.91-8.926-7.162a20.023,20.023,0,0,1,.412-7.169q.9-5.013,1.8-10.024a39.868,39.868,0,0,1,.863-4.878,2.545,2.545,0,0,1,.384-.74" transform="translate(305 134)" fill="#fff"/><path d="M68.755,26.18c-1.222-2.875-3.516-10.046-3.516-10.046l-.9-.957a10.978,10.978,0,0,1-1.414-.143c-1.432-.244-.437-3.4-1.709-4.064-.94-.492-4.4-1.377-5.556-.979a6.487,6.487,0,0,0-1.775,1.261,14.411,14.411,0,0,1-6.84,2.969c-1.542.282-2.831,3.157-4.323,3.666-.127.044-.254.11-.387.16l-3.367,5.3s4.2,11.754,6.3,16.006a16.915,16.915,0,0,0,5.865,6.922c.166.111.344.216.521.315.072.05.149.089.227.133a10.49,10.49,0,0,0,7.049,1.172c.06-.011.119-.027.178-.039a13.7,13.7,0,0,1,4.321-3.689,9.461,9.461,0,0,1,3.524-2.874c.075-.15.15-.3.221-.453a17.474,17.474,0,0,0,1.139-3.444c.038-.183.083-.376.121-.586.039-.177.078-.365.111-.559.569-2.858,1.277-7.569.21-10.068" transform="translate(305 134)" fill="#ffa694"/><path d="M48.935,30.178c.535,1.088.416,2.241-.265,2.576s-1.668-.275-2.2-1.363-.416-2.241.266-2.576,1.667.275,2.2,1.363" transform="translate(305 134)"/><path d="M58.807,27.157c.558,1.134.434,2.337-.277,2.686s-1.738-.287-2.295-1.421-.434-2.337.276-2.686,1.738.287,2.3,1.421" transform="translate(305 134)"/><path d="M54.33,34.337a2.8,2.8,0,0,1-1.155.189c-.6-.025-.726-.554-.768-1.056a20.02,20.02,0,0,1-.039-2.3c.012-.356-.541-.355-.552,0a21.377,21.377,0,0,0,.029,2.163,2.729,2.729,0,0,0,.248,1.194c.455.792,1.669.62,2.384.341.328-.128.185-.663-.147-.533" transform="translate(305 134)"/><path d="M55.572,38.29a4.035,4.035,0,0,1,3.2-3.125.277.277,0,0,0-.147-.533,4.573,4.573,0,0,0-3.59,3.511c-.061.348.472.5.533.147" transform="translate(305 134)"/><path d="M54.846,23.306c1.2.9,3.648,1.721,4.582-.01.285-.529.37-1.343-.374-1.512a5.2,5.2,0,0,0-1.352.135A20.227,20.227,0,0,0,54.991,22a.737.737,0,0,0-.59.409c-.116.356.121.657.445.9" transform="translate(305 134)"/><path d="M46.443,24.546c-.645.09-.967.647-1.291,1.145A10.019,10.019,0,0,1,43.517,27.3a.941.941,0,0,0-.287.4c-.1.356.286.51.556.577a3.607,3.607,0,0,0,3.508-1.259c.676-.794.591-2.679-.851-2.477" transform="translate(305 134)"/><path d="M71.688,24.805A88.6,88.6,0,0,0,70.261,12.88a16.563,16.563,0,0,0-3.3-7.94C65.28,2.955,63.174,3.1,61.047,3.915,59.383.968,55.864-.249,52.57.043A20.577,20.577,0,0,0,41.1,5.352,19.338,19.338,0,0,1,34.93,9.3c-1.3.465-3.9.662-4.616,2.108-.586,1.187.046,2.948.688,3.992a6.037,6.037,0,0,0,1.539,1.679c-1.631,1.351-3.008,3.181-1.979,5.317.6,1.253,1.932,1.634,3.2,1.858.133.023.265.042.4.062a3.743,3.743,0,0,0,1.427,3.3,3.045,3.045,0,0,0,4.084-.5c-.012.047-.028.095-.04.142a.277.277,0,0,0,.533.147A28.088,28.088,0,0,1,44.2,19.02a22.888,22.888,0,0,1,1.412-1.87q7.032-2.572,14.132-4.948c1.505,4.021,3.874,7.689,5.379,11.726.682,1.827,6.471,12.319,6.471,12.319s.292-6.331.094-11.442" transform="translate(305 134)" fill="#4f332e"/><path d="M71.92,23.123c0,4.055-2.2,7.342-4.907,7.342s-4.907-3.287-4.907-7.342,2.2-7.342,4.907-7.342,4.907,3.287,4.907,7.342" transform="translate(305 134)" fill="#ffa694"/><path d="M40.643,60.187s-1.447-5.868.884-9.767,3.618-5.426,3.939-7.959-1.125-4.381,0-5.386,3.216.443,3.979,3.5-.6,5.427-.6,7.6a9.1,9.1,0,0,0,.834,3.793L48.36,56.771Z" transform="translate(305 134)" fill="#ffa694"/><path d="M48.75,48.419a.25.25,0,0,1-.25-.25,11.9,11.9,0,0,1,.385-2.547,10.2,10.2,0,0,0,.226-4.989c-.521-2.085-1.642-3.292-2.523-3.563a1.048,1.048,0,0,0-1.047.191c-.494.442-.388,1.089-.159,2.2a8.937,8.937,0,0,1,.24,3.035.25.25,0,1,1-.5-.063,8.4,8.4,0,0,0-.234-2.87c-.225-1.082-.418-2.016.315-2.671a1.533,1.533,0,0,1,1.527-.3c1.239.381,2.362,1.919,2.861,3.919a10.749,10.749,0,0,1-.223,5.219A11.546,11.546,0,0,0,49,48.169.25.25,0,0,1,48.75,48.419Z" transform="translate(305 134)"/><path d="M68.9,41.669c-2.735,2.373-8.2,7.032-8.2,7.032a10.291,10.291,0,0,1,1.365,2.214,2.948,2.948,0,0,1-.318,2.33,2.824,2.824,0,0,1,1.307,1.727,6.09,6.09,0,0,1,.039,1.929c-.02.154-.039.241-.039.241a1.782,1.782,0,0,1,.232.14,2.382,2.382,0,0,1,1.032,2.074c-.039,1.606-1.727,3.135-4.259,4.539S47.8,68.318,47.8,68.318L41.083,64.58l-.439-4.394,8.036-9.073s18.41-12.82,19.857-13.061,3.1,1.244.362,3.617" transform="translate(305 134)" fill="#ffa694"/><path d="M70.066,38.022a1.483,1.483,0,0,0-.434-.265c-.95-.377-2.122.386-2.928.916-.193.126-.366.241-.521.328-1.263.728-2.6,1.539-4.085,2.474-1.9,1.206-3.81,2.475-5.653,3.7-.666.439-2.54,1.738-3.206,2.177.145.1.433.122.587.208.6-.4,2.281-1.58,2.884-1.985,1.843-1.225,3.748-2.489,5.644-3.69,1.48-.935,2.812-1.741,4.07-2.464.16-.092.343-.212.545-.343.782-.511,1.829-1.2,2.566-.834a.879.879,0,0,1,.218.14,1.156,1.156,0,0,1,.332.825c.044,1.1-.81,1.837-1.649,2.551a.142.142,0,0,0-.034.024l-.265.222c-.936.81-5.195,4.457-6.893,5.909l-.7.6a.265.265,0,0,0-.082.193.245.245,0,0,0,.092.184,4.1,4.1,0,0,1,1.283,2.079,2.65,2.65,0,0,1-.28,2.127.242.242,0,0,0-.039.221.249.249,0,0,0,.164.155,3.025,3.025,0,0,1,.616.311,2.469,2.469,0,0,1,.448.415.716.716,0,0,1,.454.015,2.229,2.229,0,0,0-1.108-1.084,3.3,3.3,0,0,0,.213-2.276,4.588,4.588,0,0,0-1.235-2.151c.246-.213.694-.594,1.249-1.066,1.64-1.409,4.249-3.642,5.542-4.756.256-.217.463-.4.6-.511l.256-.222c.892-.753,1.9-1.611,1.857-2.957a1.614,1.614,0,0,0-.5-1.172" transform="translate(305 134)"/><path d="M60.067,54.571a.241.241,0,0,1-.131-.444l1.678-1.085a.241.241,0,1,1,.262.4L60.2,54.532a.238.238,0,0,1-.131.039" transform="translate(305 134)"/><path d="M58.257,50.771a.241.241,0,0,1-.143-.436l3.35-2.457a.241.241,0,0,1,.285.389L58.4,50.724a.238.238,0,0,1-.143.047" transform="translate(305 134)"/><path d="M63.285,57.282a.269.269,0,0,1-.063.063L61.544,58.43a.274.274,0,0,1-.13.039.233.233,0,0,1-.2-.111.238.238,0,0,1,.072-.333l1.674-1.085a.241.241,0,0,1,.135-.039c-.019.154-.038.241-.038.241a1.988,1.988,0,0,1,.231.14" transform="translate(305 134)"/><path d="M41.587,57.683l-15.254,16.3,9.225,4.763s.784,3.919,1.387,3.919,3.953.844,4.16.6,9.586-16.52,9.586-16.52Z" transform="translate(305 134)" fill="#ffa694"/><path d="M57.926,119.015a1.782,1.782,0,0,1-.482.068H20.628a1.832,1.832,0,0,1-1.766-1.356L4.962,65.67a1.847,1.847,0,0,1-.063-.483,1.626,1.626,0,0,1,.072-.482,1.815,1.815,0,0,1,1.756-1.331H43.533A1.831,1.831,0,0,1,45.3,64.729l13.9,52.058a1.825,1.825,0,0,1-1.278,2.228" transform="translate(305 134)" fill="#5a5a5a"/><path d="M40.933,81.92a2.84,2.84,0,0,1-2.733-2.1l-2.166-8.1a2.834,2.834,0,0,1,5.475-1.465l2.166,8.1a2.833,2.833,0,0,1-2.005,3.47,2.86,2.86,0,0,1-.737.1M38.771,68.635A2.352,2.352,0,0,0,36.5,71.594l2.166,8.1a2.351,2.351,0,0,0,4.543-1.215l-2.166-8.1a2.356,2.356,0,0,0-2.272-1.744" transform="translate(305 134)" fill="#b4b2c2"/><path d="M57.926,119.015a1.782,1.782,0,0,1-.482.068l-14.272-53.6L4.9,65.187a1.626,1.626,0,0,1,.072-.482l38.287.3h.285l.043.178.039.14Z" transform="translate(305 134)" fill="#b4b2c2"/><path d="M44.952,64.049l-1.326,1.273-.1.1-.332-.352L43.259,65,44.6,63.716a1.8,1.8,0,0,1,.352.333" transform="translate(305 134)" fill="#b4b2c2"/><path d="M68.176,91.894l-.212,11.513s-12.348,4.071-13.414,4.341a35.548,35.548,0,0,1-8.359-.482c-2.291-.454-6.545-.907-8.8-1.568a1.692,1.692,0,0,1-1.182-2.469,2.5,2.5,0,0,1,.164-.362,7.022,7.022,0,0,1-1.389-.188,2.392,2.392,0,0,1-1.833-1.293,2.82,2.82,0,0,1-.154-1.625.815.815,0,0,1,.154-.333,1.544,1.544,0,0,1-.733-.415,1.951,1.951,0,0,1-.472-1.577A1.592,1.592,0,0,1,33.632,95.9a2,2,0,0,1,.3,0,1.66,1.66,0,0,1,.038-.352A1.839,1.839,0,0,1,35.378,94c2.932-.724,14.146-.02,15.352-1.085a4.625,4.625,0,0,0,1.389-2.663l-1.427-5.339a33.45,33.45,0,0,1,6.689.887,25.876,25.876,0,0,1,10.8,6.092" transform="translate(305 134)" fill="#ffa694"/><path d="M113.915,134.117c-5.624,2.571-12.217.641-21.864-6.352-4.741-3.439-12.536-9.6-19.235-14.972-1.6-1.278-3.131-2.513-4.544-3.656-4.727-3.82-8.137-6.612-8.137-6.612l8.041-10.631,7.683,2.981c1.481.579,3.106,1.21,4.8,1.871,7.611,2.967,16.66,6.521,20.875,8.267,9.2,3.82,16.236,5.754,18.565,12.907s-.559,13.621-6.188,16.2" transform="translate(305 134)" fill="#ffa694"/><path d="M48.13,96.91l-.019.482s-7.679-.323-11.094-.482A5.3,5.3,0,0,1,33.631,95.9a1.837,1.837,0,0,1,.3,0,1.629,1.629,0,0,1,.039-.352,4.841,4.841,0,0,0,3.068.878c3.419.159,11.093.482,11.093.482" transform="translate(305 134)"/><path d="M47.879,100.527a.247.247,0,0,1-.241.227h-.015c-.091,0-9.227-.531-12.6-.69a8.7,8.7,0,0,1-2.026-.3.816.816,0,0,1,.155-.333,1.543,1.543,0,0,1-.733-.414,6.346,6.346,0,0,0,2.623.573c3.382.16,12.517.681,12.613.685a.246.246,0,0,1,.227.256" transform="translate(305 134)"/><path d="M48.207,103.648a.247.247,0,0,1-.241.227h-.015c-.086,0-7.9-.454-11.744-.647a2.515,2.515,0,0,1,.164-.361,7.014,7.014,0,0,1-1.389-.188c.125.009.255.019.39.024,3.377.159,12.517.685,12.608.689a.237.237,0,0,1,.227.256" transform="translate(305 134)"/><path d="M81.013,51.084a.24.24,0,0,1-.107-.025L79.164,50.2a.242.242,0,0,1-.09-.078l-3.667-5.2a.241.241,0,1,1,.394-.278l3.631,5.148,1.688.835a.241.241,0,0,1-.107.457" transform="translate(305 134)"/><path d="M80.663,96.746c-1.7-.661-3.323-1.293-4.8-1.871a14.434,14.434,0,0,1,.193,5.223,11.334,11.334,0,0,1-3.666,6.444,14.238,14.238,0,0,1-4.114,2.6c1.413,1.143,2.947,2.378,4.543,3.656a14.855,14.855,0,0,0,4.766-3.029,11.626,11.626,0,0,0,3.564-6.637,16.562,16.562,0,0,0-.482-6.381" transform="translate(305 134)" fill="#4f332e"/><path d="M76.561,105.369a3.61,3.61,0,1,1-5.373,1.021,3.888,3.888,0,0,1,5.373-1.021" transform="translate(305 134)" fill="#fff"/><path d="M259.03,56.215,226.479,128.97c-.152.267-61.212,30.263-66.3,32.452a1.267,1.267,0,0,1-.723.085.875.875,0,0,1-.208-.054l-3.91-1.437a1.2,1.2,0,0,1-.628-1.692l33.673-71.549a1.348,1.348,0,0,1,.585-.582l64.645-33.045a1.252,1.252,0,0,1,1.009-.069l3.81,1.4a1.124,1.124,0,0,1,.581.466,1.225,1.225,0,0,1,.017,1.275" transform="translate(305 134)" fill="#c97842"/><path d="M259.013,54.939,193.277,86.8a2.6,2.6,0,0,0-1.092,1.113l-32.729,73.59a.935.935,0,0,1-.208-.053l-3.91-1.437a1.2,1.2,0,0,1-.628-1.693l33.674-71.549a1.34,1.34,0,0,1,.584-.582l64.645-33.044a1.253,1.253,0,0,1,1.009-.07l3.811,1.4a1.131,1.131,0,0,1,.58.466" transform="translate(305 134)" fill="#fabb78"/><path d="M259.013,54.939l-63.03,32.366a2.6,2.6,0,0,0-1.092,1.113l-35.435,73.088a.935.935,0,0,1-.208-.053l-3.91-1.437a1.2,1.2,0,0,1-.628-1.693l33.674-71.549a1.34,1.34,0,0,1,.584-.582l64.645-33.044a1.253,1.253,0,0,1,1.009-.07l3.811,1.4a1.131,1.131,0,0,1,.58.466" transform="translate(305 134)" fill="#de9559"/><path d="M192.472,86.884c1.15.1,2.282.281,3.407.488.035-.022.068-.047.1-.067l63.03-32.366a1.131,1.131,0,0,0-.58-.466l-3.811-1.4a1.253,1.253,0,0,0-1.009.07L188.968,86.192a1.3,1.3,0,0,0-.4.322c1.31.189,2.654.257,3.907.37" transform="translate(305 134)" fill="#fabb78"/><path d="M312.451,127.076l0,3.587a1.378,1.378,0,0,1-.42.987l-33.753,35.324a1.385,1.385,0,0,1-.951.391l-97.28-2.664a1.356,1.356,0,0,1-1.369-1.357l.005-4.441a1.368,1.368,0,0,1,.52-1.073l42.55-33.882a1.361,1.361,0,0,1,.894-.3l88.483,2.071a1.356,1.356,0,0,1,1.166.72c.013.034.03.069.047.1a.834.834,0,0,1,.035.09,1.374,1.374,0,0,1,.056.194,1.068,1.068,0,0,1,.013.112c0,.047.008.091.008.138" transform="translate(305 134)" fill="#fabb78"/><path d="M312.451,127.076l0,3.587a1.378,1.378,0,0,1-.42.987l-33.753,35.324a1.385,1.385,0,0,1-.951.391l-97.28-2.664a1.356,1.356,0,0,1-1.369-1.357l.005-4.35c9.636.276,96.4,3.054,98.3,2.277,1.383-.563,31.339-31.508,35.192-35a1.629,1.629,0,0,1,.117.172c.013.034.03.069.047.1a.834.834,0,0,1,.035.09,1.374,1.374,0,0,1,.056.194,1.068,1.068,0,0,1,.013.112c0,.047.008.091.008.138" transform="translate(305 134)" fill="#de9559"/><path d="M312.443,126.938a1.068,1.068,0,0,0-.013-.112,1.252,1.252,0,0,0-.056-.194.659.659,0,0,0-.034-.09.949.949,0,0,1-.048-.1,1.48,1.48,0,0,0-.116-.172c-3.732,3.386-31.937,32.508-34.976,34.86l-.007,6.234.13,0a1.383,1.383,0,0,0,.951-.391l33.754-35.324a1.382,1.382,0,0,0,.42-.987l0-3.587a1.276,1.276,0,0,0-.008-.138" transform="translate(305 134)" fill="#c97842"/><path d="M317.363,113.177l0,3.587a1.378,1.378,0,0,1-.42.987l-33.753,35.324a1.384,1.384,0,0,1-.952.391L184.955,150.8a1.355,1.355,0,0,1-1.368-1.356l0-4.442a1.374,1.374,0,0,1,.519-1.073l42.551-33.882a1.362,1.362,0,0,1,.894-.3l88.483,2.071a1.358,1.358,0,0,1,1.166.72c.013.034.03.069.047.1a.776.776,0,0,1,.035.091,1.323,1.323,0,0,1,.056.193.851.851,0,0,1,.012.112,1.294,1.294,0,0,1,.009.138" transform="translate(305 134)" fill="#e5a45f"/><path d="M317.363,113.177l0,3.587a1.378,1.378,0,0,1-.42.987l-33.753,35.324a1.384,1.384,0,0,1-.952.391L184.955,150.8a1.355,1.355,0,0,1-1.368-1.356l0-4.351c9.636.276,96.4,3.054,98.3,2.277,1.383-.563,31.338-31.508,35.191-35a1.631,1.631,0,0,1,.117.172c.013.034.03.069.047.1a.776.776,0,0,1,.035.091,1.323,1.323,0,0,1,.056.193.851.851,0,0,1,.012.112,1.294,1.294,0,0,1,.009.138" transform="translate(305 134)" fill="#ce894c"/><path d="M317.355,113.039a1.068,1.068,0,0,0-.013-.112,1.252,1.252,0,0,0-.056-.194.66.66,0,0,0-.034-.09.949.949,0,0,1-.048-.1,1.482,1.482,0,0,0-.116-.172c-3.732,3.386-31.937,32.508-34.976,34.86l-.007,6.234.13,0a1.383,1.383,0,0,0,.951-.391l33.754-35.324a1.378,1.378,0,0,0,.42-.987l0-3.587c0-.048-.005-.091-.009-.138" transform="translate(305 134)" fill="#b46530"/><path d="M317.776,105.785v3.587a1.353,1.353,0,0,1-.419.98l-33.681,34.779a1.361,1.361,0,0,1-.95.375l-97.178-4.238a1.383,1.383,0,0,1-1.368-1.379v-4.441a1.347,1.347,0,0,1,.518-1.065l42.47-33.194a1.337,1.337,0,0,1,.894-.285l88.389,3.5a1.381,1.381,0,0,1,1.165.738.882.882,0,0,0,.048.1.725.725,0,0,1,.034.091,1.265,1.265,0,0,1,.056.2.853.853,0,0,1,.013.112,1.277,1.277,0,0,1,.009.138" transform="translate(305 134)" fill="#fabb78"/><path d="M317.776,105.785v3.587a1.353,1.353,0,0,1-.419.98l-33.681,34.779a1.361,1.361,0,0,1-.95.375l-97.178-4.238a1.383,1.383,0,0,1-1.368-1.379v-4.351c9.626.432,96.3,4.615,98.2,3.868,1.381-.54,31.273-31,35.119-34.434a1.492,1.492,0,0,1,.116.173.882.882,0,0,0,.048.1.725.725,0,0,1,.034.091,1.265,1.265,0,0,1,.056.2.853.853,0,0,1,.013.112,1.277,1.277,0,0,1,.009.138" transform="translate(305 134)" fill="#de9559"/><path d="M317.767,105.647a1.068,1.068,0,0,0-.013-.112,1.265,1.265,0,0,0-.056-.2.94.94,0,0,0-.035-.091c-.017-.034-.034-.069-.047-.1a1.43,1.43,0,0,0-.117-.174c-3.724,3.325-31.87,31.991-34.9,34.294V145.5l.13,0a1.357,1.357,0,0,0,.949-.375l33.682-34.779a1.352,1.352,0,0,0,.419-.979v-3.588c0-.047-.005-.091-.009-.138" transform="translate(305 134)" fill="#c97842"/><path d="M324.244,95v3.587a1.37,1.37,0,0,1-.418.984L290.18,134.644a1.365,1.365,0,0,1-.948.384l-97.074-3.4a1.367,1.367,0,0,1-1.366-1.367v-4.441a1.358,1.358,0,0,1,.517-1.07l42.425-33.559a1.338,1.338,0,0,1,.892-.293l88.294,2.742a1.366,1.366,0,0,1,1.164.729c.013.034.031.069.048.1a.725.725,0,0,1,.034.091,1.218,1.218,0,0,1,.056.194.853.853,0,0,1,.013.112,1.278,1.278,0,0,1,.009.138" transform="translate(305 134)" fill="#e5a45f"/><path d="M324.244,95v3.587a1.37,1.37,0,0,1-.418.984L290.18,134.644a1.365,1.365,0,0,1-.948.384l-97.074-3.4a1.367,1.367,0,0,1-1.366-1.367v-4.351c9.615.349,96.2,3.786,98.095,3.023,1.379-.552,31.239-31.27,35.081-34.737a1.415,1.415,0,0,1,.116.173c.013.034.031.069.048.1a.725.725,0,0,1,.034.091,1.218,1.218,0,0,1,.056.194.853.853,0,0,1,.013.112,1.278,1.278,0,0,1,.009.138" transform="translate(305 134)" fill="#ce894c"/><path d="M324.235,94.867a1.06,1.06,0,0,0-.013-.112,1.218,1.218,0,0,0-.056-.194c-.009-.03-.022-.06-.034-.091a.949.949,0,0,1-.048-.1,1.415,1.415,0,0,0-.116-.173c-3.721,3.357-31.836,32.266-34.866,34.6v6.234l.129.005a1.367,1.367,0,0,0,.949-.384l33.645-35.068a1.367,1.367,0,0,0,.419-.984V95c0-.047,0-.091-.009-.138" transform="translate(305 134)" fill="#b46530"/><path d="M324.244,87.319v3.587a1.37,1.37,0,0,1-.418.984L290.18,126.958a1.365,1.365,0,0,1-.948.384l-97.074-3.4a1.367,1.367,0,0,1-1.366-1.367v-4.441a1.358,1.358,0,0,1,.517-1.07L233.734,83.5a1.338,1.338,0,0,1,.892-.293l88.294,2.742a1.366,1.366,0,0,1,1.164.729c.013.034.031.069.048.1a.672.672,0,0,1,.034.091,1.218,1.218,0,0,1,.056.194.853.853,0,0,1,.013.112,1.277,1.277,0,0,1,.009.138" transform="translate(305 134)" fill="#fabb78"/><path d="M261.275,84.038l-26.649-.828a1.344,1.344,0,0,0-.892.293l-38.046,30.1c6.69-3.356,62.992-28.517,65.587-29.561" transform="translate(305 134)" fill="#de9559"/><path d="M324.244,87.319v3.587a1.37,1.37,0,0,1-.418.984L290.18,126.958a1.365,1.365,0,0,1-.948.384l-97.074-3.4a1.367,1.367,0,0,1-1.366-1.367v-4.351c9.615.349,96.2,3.786,98.095,3.023,1.379-.552,31.239-31.27,35.081-34.737a1.415,1.415,0,0,1,.116.173c.013.034.031.069.048.1a.672.672,0,0,1,.034.091,1.218,1.218,0,0,1,.056.194.853.853,0,0,1,.013.112,1.277,1.277,0,0,1,.009.138" transform="translate(305 134)" fill="#de9559"/><path d="M324.235,87.181a1.06,1.06,0,0,0-.013-.112,1.218,1.218,0,0,0-.056-.194c-.009-.03-.022-.061-.034-.091a.949.949,0,0,1-.048-.1,1.415,1.415,0,0,0-.116-.173c-3.721,3.357-31.836,32.266-34.866,34.595v6.234l.129.005a1.367,1.367,0,0,0,.949-.384l33.645-35.069a1.363,1.363,0,0,0,.419-.983V87.319c0-.048,0-.091-.009-.138" transform="translate(305 134)" fill="#c97842"/><text transform="translate(480 80)" font-size="14" font-family="Roboto-Light, Roboto" font-weight="300"><tspan x="-98.215" y="0">What happened to Porter Davis?</tspan></text><g transform="translate(499 478) rotate(90)"><g fill="#fff" stroke="#074e95" stroke-width="1.5"><circle cx="19" cy="19" r="19" stroke="none"/><circle cx="19" cy="19" r="18.25" fill="none"/></g><path d="M2314.321-2439.4l-9.1,8.19,9.1,8.19" transform="translate(2330.771 -2412.52) rotate(180)" fill="none" stroke="#074e95" stroke-linecap="round" stroke-linejoin="round" stroke-width="1.5"/></g><g transform="translate(472 20)"><path d="M2314.321-2439.4l-9.1,8.19,9.1,8.19" transform="translate(-2423.02 -2305.221) rotate(90)" fill="none" stroke="#babcbf" stroke-linecap="round" stroke-linejoin="round" stroke-width="1.5"/></g><g transform="translate(62 109)"><rect width="67" height="2" transform="translate(9 1) rotate(90)" fill="#3375d0"/><rect width="67" height="2" transform="translate(9 52) rotate(90)" fill="#c2c4c6"/><rect width="67" height="2" transform="translate(9 103) rotate(90)" fill="#c2c4c6"/><rect width="67" height="2" transform="translate(9 154) rotate(90)" fill="#c2c4c6"/><rect width="67" height="2" transform="translate(9 205) rotate(90)" fill="#c2c4c6"/><rect width="67" height="2" transform="translate(9 256) rotate(90)" fill="#c2c4c6"/><circle cx="8" cy="8" r="8" fill="#3375d0"/><circle cx="8" cy="8" r="8" transform="translate(0 103)" fill="#c2c4c6"/><circle cx="8" cy="8" r="8" transform="translate(0 154)" fill="#c2c4c6"/><circle cx="8" cy="8" r="8" transform="translate(0 205)" fill="#c2c4c6"/><circle cx="8" cy="8" r="8" transform="translate(0 256)" fill="#c2c4c6"/><circle cx="8" cy="8" r="8" transform="translate(0 307)" fill="#c2c4c6"/><circle cx="8" cy="8" r="8" transform="translate(0 52)" fill="#3375d0"/><circle cx="5" cy="5" r="5" transform="translate(3 55)" fill="#fff"/></g></g></svg>