<svg xmlns="http://www.w3.org/2000/svg" xmlns:xlink="http://www.w3.org/1999/xlink" width="960" height="540" viewBox="0 0 960 540"><defs><filter id="a" x="-5" y="-5" width="52" height="52" filterUnits="userSpaceOnUse"><feOffset dx="1" dy="1" input="SourceAlpha"/><feGaussianBlur stdDeviation="2" result="b"/><feFlood flood-opacity="0.2"/><feComposite operator="in" in2="b"/><feComposite in="SourceGraphic"/></filter><clipPath id="c"><rect width="49.839" height="28.038" fill="none"/></clipPath><clipPath id="e"><rect width="960" height="540"/></clipPath></defs><g id="d" clip-path="url(#e)"><rect width="960" height="540" fill="#fff"/><rect width="484.384" height="1117.143" transform="translate(1011.13 -61) rotate(87)" fill="#f4f4f4"/><rect width="179" height="457" rx="89.5" transform="translate(709 109) rotate(90)" fill="#fff"/><g transform="translate(0)"><g transform="matrix(1, 0, 0, 1, 0, 0)" filter="url(#a)"><path d="M3461.633,3124.767h40v40h-40Z" transform="translate(-3461.63 -3124.77)" fill="#fff"/></g><g transform="translate(-3461.633 -3124.767)"><path d="M3474.435,3142.083h-3.1v-7.915h7.719v3.182h-4.616Z" fill="#3375d0"/><path d="M3492.672,3142.083h-3.181v-4.733h-4.734v-3.182h7.915Z" fill="#3375d0"/><path d="M3492.672,3154.739h-7.914v-3.185h4.733v-4.733h3.182Z" fill="#3375d0"/><path d="M3479.051,3154.739h-7.719v-7.719h3.1v4.616h4.616Z" fill="#3375d0"/></g></g><text transform="translate(175 337)" fill="#050505" font-size="16" font-family="Roboto-Regular, Roboto"><tspan x="-297.914" y="15">Like a set of dominos, the collapse of one construction company threatened a broad </tspan><tspan x="-205.711" y="38">swathe of immediate stakeholders and their stakeholders.</tspan></text><g transform="translate(62 109)"><rect width="67" height="2" transform="translate(9 1) rotate(90)" fill="#3375d0"/><rect width="67" height="2" transform="translate(9 52) rotate(90)" fill="#c2c4c6"/><rect width="67" height="2" transform="translate(9 103) rotate(90)" fill="#c2c4c6"/><rect width="67" height="2" transform="translate(9 154) rotate(90)" fill="#c2c4c6"/><rect width="67" height="2" transform="translate(9 205) rotate(90)" fill="#c2c4c6"/><rect width="67" height="2" transform="translate(9 256) rotate(90)" fill="#c2c4c6"/><circle cx="8" cy="8" r="8" fill="#3375d0"/><circle cx="8" cy="8" r="8" transform="translate(0 103)" fill="#c2c4c6"/><circle cx="8" cy="8" r="8" transform="translate(0 154)" fill="#c2c4c6"/><circle cx="8" cy="8" r="8" transform="translate(0 205)" fill="#c2c4c6"/><circle cx="8" cy="8" r="8" transform="translate(0 256)" fill="#c2c4c6"/><circle cx="8" cy="8" r="8" transform="translate(0 307)" fill="#c2c4c6"/><circle cx="8" cy="8" r="8" transform="translate(0 52)" fill="#3375d0"/><circle cx="5" cy="5" r="5" transform="translate(3 55)" fill="#fff"/></g><rect width="31.384" height="147.955" transform="translate(555.453 166.017)" fill="#809b0a"/><rect width="31.384" height="147.955" transform="translate(628.683 166.017)" fill="#006da9"/><rect width="31.384" height="147.955" transform="translate(555.453 166.017)" fill="#006da9"/><rect width="31.384" height="147.955" transform="translate(482.223 166.017)" fill="#006da9"/><rect width="31.384" height="147.955" transform="matrix(0.951, 0.309, -0.309, 0.951, 452.374, 163.028)" fill="#006da9"/><rect width="31.384" height="147.955" transform="matrix(0.829, 0.559, -0.559, 0.829, 418.419, 173.49)" fill="#006da9"/><rect width="31.384" height="147.955" transform="matrix(0.695, 0.719, -0.719, 0.695, 368.362, 188.435)" fill="#ffb500"/><text transform="matrix(0.719, -0.695, 0.695, 0.719, 293.081, 290.602)" font-size="18" font-family="Roboto-Medium, Roboto" font-weight="500"><tspan x="0" y="0">Porter Davis</tspan></text><g transform="translate(355.417 166.018)"><g transform="translate(0 0)" clip-path="url(#c)"><path d="M11.264,21.8S11.094-3.258,35.295.357s17.7,27.681,17.7,27.681Z" transform="translate(-3.949 0)" fill="#ffb042"/><path d="M8.265,25.191s-7.082,1.152-7.884,2.1S.044,29.55,1.736,29.8L19.66,32.48Z" transform="translate(0 -8.832)" fill="#ffb042"/><path d="M12.521,25.374a83.534,83.534,0,0,1,18.384,2.8c2.62.739,9.875,2.494,9.721,6.261-.021.512.773.51.794,0,.151-3.688-5.456-5.467-8.157-6.369A78.371,78.371,0,0,0,12.521,24.58c-.51-.026-.509.768,0,.794" transform="translate(-4.256 -8.617)" fill="#2e1616"/><path d="M53.1,34.435l14.67,2.42c.5.082.715-.683.211-.766L53.31,33.67c-.5-.082-.715.683-.211.766" transform="translate(-18.516 -11.802)" fill="#2e1616"/><path d="M47.8,22.544c1.17-6.451,3.957-13.173,10.36-15.925.468-.2.064-.886-.4-.686-6.567,2.824-9.523,9.771-10.724,16.4-.091.5.675.714.766.211" transform="translate(-16.487 -2.067)" fill="#2e1616"/><path d="M58.968,28.72c.508-4.938,3.731-10.433,9.128-10.744.508-.03.512-.824,0-.795-5.874.338-9.366,6.13-9.922,11.538-.053.508.742.5.794,0" transform="translate(-20.395 -6.023)" fill="#2e1616"/></g></g><g transform="translate(499 478) rotate(90)"><g fill="#fff" stroke="#074e95" stroke-width="1.5"><circle cx="19" cy="19" r="19" stroke="none"/><circle cx="19" cy="19" r="18.25" fill="none"/></g><path d="M2314.321-2439.4l-9.1,8.19,9.1,8.19" transform="translate(2330.771 -2412.52) rotate(180)" fill="none" stroke="#074e95" stroke-linecap="round" stroke-linejoin="round" stroke-width="1.5"/></g><g transform="translate(472 20)"><path d="M2314.321-2439.4l-9.1,8.19,9.1,8.19" transform="translate(-2423.02 -2305.221) rotate(90)" fill="none" stroke="#babcbf" stroke-linecap="round" stroke-linejoin="round" stroke-width="1.5"/></g></g></svg>