<svg xmlns="http://www.w3.org/2000/svg" xmlns:xlink="http://www.w3.org/1999/xlink" width="960" height="540" viewBox="0 0 960 540"><defs><filter id="a" x="-5" y="-5" width="52" height="52" filterUnits="userSpaceOnUse"><feOffset dx="1" dy="1" input="SourceAlpha"/><feGaussianBlur stdDeviation="2" result="b"/><feFlood flood-opacity="0.2"/><feComposite operator="in" in2="b"/><feComposite in="SourceGraphic"/></filter><clipPath id="c"><ellipse cx="90.5" cy="88" rx="90.5" ry="88" transform="translate(173 104)" fill="#007cb2"/></clipPath><clipPath id="e"><rect width="960" height="540"/></clipPath></defs><g id="d" clip-path="url(#e)"><rect width="960" height="540" fill="#fff"/><g transform="translate(0)"><g transform="matrix(1, 0, 0, 1, 0, 0)" filter="url(#a)"><path d="M3461.633,3124.767h40v40h-40Z" transform="translate(-3461.63 -3124.77)" fill="#fff"/></g><g transform="translate(-3461.633 -3124.767)"><path d="M3474.435,3142.083h-3.1v-7.915h7.719v3.182h-4.616Z" fill="#3375d0"/><path d="M3492.672,3142.083h-3.181v-4.733h-4.734v-3.182h7.915Z" fill="#3375d0"/><path d="M3492.672,3154.739h-7.914v-3.185h4.733v-4.733h3.182Z" fill="#3375d0"/><path d="M3479.051,3154.739h-7.719v-7.719h3.1v4.616h4.616Z" fill="#3375d0"/></g></g><text transform="translate(480 80)" font-size="14" font-family="Roboto-Light, Roboto" font-weight="300"><tspan x="-70.092" y="0">What were the effects?</tspan></text><text transform="translate(555 169)" fill="#050505" font-size="16" font-family="Roboto-Regular, Roboto"><tspan x="0" y="15">The workers employed by PD’s suppliers </tspan><tspan x="0" y="38">rightly feared for their wages. </tspan><tspan x="0" y="73">The companies who leased those workers </tspan><tspan x="0" y="96">their equipment and trucks rightly feared for </tspan><tspan x="0" y="119">their monthly lease payments.</tspan><tspan x="0" y="154">The local councils that promoted their social </tspan><tspan x="0" y="177">and economic wellbeing rightly feared the </tspan><tspan x="0" y="200">loss of new residents and so on.</tspan></text><g transform="translate(62 109)"><rect width="67" height="2" transform="translate(9 1) rotate(90)" fill="#3375d0"/><rect width="67" height="2" transform="translate(9 52) rotate(90)" fill="#c2c4c6"/><rect width="67" height="2" transform="translate(9 103) rotate(90)" fill="#c2c4c6"/><rect width="67" height="2" transform="translate(9 154) rotate(90)" fill="#c2c4c6"/><rect width="67" height="2" transform="translate(9 205) rotate(90)" fill="#c2c4c6"/><rect width="67" height="2" transform="translate(9 256) rotate(90)" fill="#c2c4c6"/><circle cx="8" cy="8" r="8" fill="#3375d0"/><circle cx="8" cy="8" r="8" transform="translate(0 103)" fill="#c2c4c6"/><circle cx="8" cy="8" r="8" transform="translate(0 154)" fill="#c2c4c6"/><circle cx="8" cy="8" r="8" transform="translate(0 205)" fill="#c2c4c6"/><circle cx="8" cy="8" r="8" transform="translate(0 256)" fill="#c2c4c6"/><circle cx="8" cy="8" r="8" transform="translate(0 307)" fill="#c2c4c6"/><circle cx="8" cy="8" r="8" transform="translate(0 52)" fill="#3375d0"/><circle cx="5" cy="5" r="5" transform="translate(3 55)" fill="#fff"/></g><g transform="translate(30)"><rect width="139" height="272" rx="69.5" transform="translate(484 245) rotate(90)" fill="#809b0a"/><path d="M220.615,58.987a11.8,11.8,0,1,1-11.8-11.8,11.8,11.8,0,0,1,11.8,11.8" transform="translate(144 284.649)"/><path d="M281.74,58.987a11.8,11.8,0,1,1-11.8-11.8,11.8,11.8,0,0,1,11.8,11.8" transform="translate(144 284.649)"/><path d="M226.206,10.179q-1.5.282-2.992.576c-5.023.99-9.278,1.893-14.3,2.891-.749.148-1.5.3-2.247.44q-1.322.258-2.646.5-.473,1.246-.948,2.495c-1.156,3.041-2.308,6.081-3.354,9.16-.625,1.838-1.217,3.683-1.817,5.526,0,0,2.249.84,2.279.84q.521-1.432,1.028-2.867c1.634-4.623,2.979-8.6,4.579-13.167,5.06-.92,10.144-1.7,15.174-2.755,1.9-.4,3.79-.829,5.681-1.251,0,0-.427-2.389-.437-2.389" transform="translate(144 284.649)"/><path d="M258.973,48.256c-7.438-.355-14.9-.432-22.347-.591q-9.362-.2-18.726-.259a20.543,20.543,0,0,1,4.255,10.4c2.8.051,5.594.012,8.394-.006,6.4-.04,12.809.116,19.213.124,2.311,0,3.838-.015,6.149-.067.051-.294.107-.587.171-.878.831-3.736,2.258-6.5,4.827-8.621-.646-.038-1.292-.077-1.936-.107" transform="translate(144 284.649)" fill="#b9c0c4"/><path d="M279.327,49.231l.086.071q.572.01,1.141.038c-.091-1.145-.172-2.291-.269-3.436-.053-.621-.124-1.242-.157-1.865-.019-.367-.036-.733-.056-1.1-2.1-.164-4.213-.09-6.313-.164-1.261-.044-5.911-.1-7.171-.151a.615.615,0,0,1-.433.349c-2.121.538-.592,1.684-2.157,3.168h4.2c.678,0,1.359-.013,2.032-.019a13.838,13.838,0,0,1,5.234.573,11.908,11.908,0,0,1,2.371,1.288,9.1,9.1,0,0,1,1.487,1.248" transform="translate(144 284.649)"/><path d="M296.994,8,229.4,9.277c-.108-.351-.232-.758-.245-.8A67.873,67.873,0,0,0,225.7.115L224.431.073c-1.2-.04-2.4-.054-3.606-.054q-6.547,0-13.1.009h-3.247c-1.047,0-2.1.032-3.147-.016-.9-.042-1.71.074-2.609.018-.268-.017-.543-.03-.818-.03V.111c-.038,1.44-.183,2.64-.234,4.079-.045,1.287-.069,2.574-.108,3.861,1.265.011,2.529.054,3.794.09,1.662.046,3.326.081,4.988,0s3.334-.272,5.006-.338c.832-.033,1.664-.041,2.5-.062.45,2.431.868,5.028,1.178,7.457.214,1.682.6,4.165.787,5.851q.28,2.582.534,5.165c.026.267.052.53.078.791-5.065,0-13.664.074-18.717.269q-3.809.147-7.613.392c-1.3.085-2.59.184-3.884.288.01,1.017.035,2.034.086,3.052.131,2.6.295,5.19.454,7.784s.295,5.17.436,7.755c.14,2.562.42,5.116.512,7.68.048,1.357,0,2.744.122,4.107l.07.008c2.207.237,4.423.38,6.637.532l.49.031c.017-.8.207-1.642.291-2.345a10.955,10.955,0,0,1,.92-3.458,9.882,9.882,0,0,1,2.795-3.577,11.364,11.364,0,0,1,8.629-4.046c6.721-.23,10.971-.15,10.971-.15,1.031.027,2.068.005,3.094.08,2.029.147,24.612.846,27.363.875,1.128-.044,2.256-.089,3.385-.109,1.671-.028,7.237.131,8.193.1,1.535-.045,3.074-.012,4.6-.132l.273-.383a87.974,87.974,0,0,1,6.553-7.893c2.329-2.539,4.758-4.986,7.221-7.4s4.955-4.775,7.429-7.167,4.931-4.824,7.311-7.32q1.1-1.152,2.2-2.3.167-.882.331-1.765.364-1.962.718-3.926h-.308" transform="translate(144 284.649)" fill="#ffba00"/><path d="M275.673,58.987a5.732,5.732,0,1,1-5.732-5.732,5.732,5.732,0,0,1,5.732,5.732" transform="translate(144 284.649)" fill="#fff"/><path d="M214.547,58.987a5.732,5.732,0,1,1-5.732-5.732,5.732,5.732,0,0,1,5.732,5.732" transform="translate(144 284.649)" fill="#fff"/><path d="M209.071,55.9a.956.956,0,0,0-1.641.3.9.9,0,0,0,.9,1.2,1.038,1.038,0,0,0,.837-1.206,1.023,1.023,0,0,0-.1-.294" transform="translate(144 284.649)"/><path d="M210.9,60.923a.956.956,0,0,0-1.641.3.9.9,0,0,0,.9,1.2,1.038,1.038,0,0,0,.837-1.206,1.022,1.022,0,0,0-.1-.294" transform="translate(144 284.649)"/><path d="M211.313,57.257a.936.936,0,0,0-1.057.8.924.924,0,0,0,.01.319,1.043,1.043,0,0,0,1.624.4.9.9,0,0,0-.577-1.514" transform="translate(144 284.649)"/><path d="M206.561,59.2a.936.936,0,0,0-1.057.8.924.924,0,0,0,.01.319,1.043,1.043,0,0,0,1.624.4.9.9,0,0,0-.577-1.514" transform="translate(144 284.649)"/><path d="M272.495,56.847a.955.955,0,0,0-1.315-1.025.9.9,0,0,0-.293,1.474,1.039,1.039,0,0,0,1.457-.181,1.056,1.056,0,0,0,.151-.268" transform="translate(144 284.649)"/><path d="M269.965,61.558a.955.955,0,0,0-1.315-1.025.9.9,0,0,0-.293,1.474,1.039,1.039,0,0,0,1.457-.181,1.056,1.056,0,0,0,.151-.268" transform="translate(144 284.649)"/><path d="M272.974,59.425a.936.936,0,0,0-1.53-.037,1.043,1.043,0,0,0,.786,1.476.905.905,0,0,0,.744-1.439" transform="translate(144 284.649)"/><path d="M268.362,57.173a.936.936,0,0,0-1.53-.037,1.043,1.043,0,0,0,.786,1.476.905.905,0,0,0,.744-1.439" transform="translate(144 284.649)"/><path d="M238.329,60.517a5.354,5.354,0,0,1-.122-1.4c-.016-.568-.054-1.136-.106-1.7-.108-1.188-.177-2.375-.225-3.566s-.092-2.362-.2-3.539-.179-2.355-.249-3.535c-.079-1.339-.27-2.676-.28-4.018a.292.292,0,0,0-.319-.256.3.3,0,0,0-.256.319c0,1.2.17,2.386.242,3.581s.113,2.384.22,3.572c.214,2.376.193,4.766.418,7.141.063.664.117,1.327.146,1.993a5.209,5.209,0,0,0,.178,1.625c.135.359.659.148.55-.211" transform="translate(144 284.649)" fill="#180c45"/><path d="M227.713,60.526c-.117-1.1-.163-2.205-.221-3.309q-.093-1.761-.171-3.522c-.055-1.2-.154-2.384-.27-3.575s-.188-2.375-.281-3.564c-.05-.633-.114-1.266-.155-1.9s-.039-1.268-.038-1.9c0-.324-.534-.332-.568-.011a18.357,18.357,0,0,0,.114,3.38c.1,1.187.158,2.376.267,3.562s.238,2.377.292,3.571.089,2.4.155,3.594c.068,1.25.11,2.5.235,3.749a.322.322,0,0,0,.639-.071" transform="translate(144 284.649)" fill="#180c45"/><path d="M236.906,45.289c-1.268-.014-2.535-.077-3.8-.063-.771.008-1.541.032-2.312.047-.752.015-1.5-.018-2.255-.019-.406,0-.815-.017-1.221-.006-.266.007-.529-.02-.79.009.019.2.049.411.071.614.234,0,.474.027.707.023.349-.005.7.013,1.047.009.751-.007,1.5.039,2.252.027,1.483-.024,2.964-.077,4.447-.022.632.023,1.268.058,1.9.047q-.028-.333-.044-.666" transform="translate(144 284.649)" fill="#180c45"/><path d="M237.278,49.619c-1.268-.014-2.535-.077-3.8-.063-.771.008-1.541.032-2.312.047-.752.015-1.5-.018-2.255-.019-.406,0-.815-.017-1.221-.006-.266.007-.529-.02-.79.009.019.2.049.411.071.614.234,0,.474.027.707.023.349,0,.7.013,1.047.009.751-.007,1.5.039,2.252.027,1.483-.024,2.964-.077,4.447-.022.632.023,1.268.058,1.9.047q-.029-.333-.044-.666" transform="translate(144 284.649)" fill="#180c45"/><path d="M237.466,53.766c-1.268-.014-2.535-.077-3.8-.063-.771.008-1.541.032-2.312.047-.752.015-1.5-.018-2.255-.019-.406,0-.815-.017-1.221-.006-.266.007-.529-.02-.79.009.019.2.049.411.071.614.234,0,.474.027.707.023.349,0,.7.013,1.047.009.751-.007,1.5.039,2.252.027,1.483-.023,2.964-.077,4.447-.022.632.023,1.268.058,1.9.047q-.028-.333-.044-.666" transform="translate(144 284.649)" fill="#180c45"/><path d="M237.589,57.7c-1.268-.014-2.535-.077-3.8-.063-.771.008-1.541.032-2.312.047-.752.015-1.5-.018-2.255-.019-.406,0-.815-.017-1.221-.006-.266.007-.529-.02-.79.009.019.2.049.411.071.614.234,0,.474.027.707.023.349,0,.7.013,1.047.009.751-.007,1.5.039,2.252.027,1.483-.023,2.964-.077,4.447-.022.632.023,1.268.058,1.9.047q-.028-.333-.044-.666" transform="translate(144 284.649)" fill="#180c45"/><path d="M217.161,8.335h0c.013.008.016.008,0,0" transform="translate(144 284.649)" fill="#f5be51"/><path d="M189.033,29.044c-2.12.129-.956,7.072.847,5.048l.011-.012a3.645,3.645,0,0,0,.5-2.436c-.116-1.348-.777-2.635-1.358-2.6" transform="translate(144 284.649)" fill="#fff"/><path d="M215.807,42.857c-.41,0-.82-.006-1.231.005-1.21.034-2.415.092-3.626.081s-2.432-.056-3.648-.112c-2.415-.111-4.829-.256-7.248-.259-2.449,0-4.9.137-7.349.054-2.042-.069-5.823-.357-7.868-.353v.7c.007.776.7,9.354.738,10.783.02.7.049,1.4.1,2.1s.123,1.4.15,2.1c.007.18.01.36.012.539.246.035.491.068.737.1,1.386.164,4.528.319,5.923.372.666.026,1.329.058,1.994.1.253.015.507.025.758.054l.049.006a19.037,19.037,0,0,1,.977-5.243,11.406,11.406,0,0,1,3.748-5.31,13.844,13.844,0,0,1,5.435-2.762c1.593-.364,6.858-.393,10.535-.423-.046-.829-.06-1.677-.19-2.527" transform="translate(144 284.649)"/><path d="M1.886,17.139a.25.25,0,0,1-.248-.222L-.248.028A.25.25,0,0,1-.028-.248a.25.25,0,0,1,.276.221L2.134,16.861a.25.25,0,0,1-.221.276Z" transform="translate(371.471 302.26)" fill="#180c45"/><path d="M1.886,15.548a.25.25,0,0,1-.248-.219L-.248.031A.25.25,0,0,1-.031-.248a.25.25,0,0,1,.279.218l1.886,15.3a.25.25,0,0,1-.218.279Z" transform="translate(383.404 303.055)" fill="#180c45"/><path d="M1.521,13.871a.25.25,0,0,1-.248-.222L-.248.028A.25.25,0,0,1-.028-.248a.25.25,0,0,1,.276.221L1.769,13.593a.25.25,0,0,1-.221.276Z" transform="translate(395.338 303.894)" fill="#180c45"/><path d="M1.461,13.334a.25.25,0,0,1-.248-.222L-.248.028A.25.25,0,0,1-.028-.248a.25.25,0,0,1,.276.221L1.709,13.056a.25.25,0,0,1-.221.276Z" transform="translate(407.271 304.162)" fill="#180c45"/><rect width="4.438" height="1.695" transform="translate(354.109 313.693)"/><path d="M3.164.25H0A.25.25,0,0,1-.25,0,.25.25,0,0,1,0-.25H3.164a.25.25,0,0,1,.25.25A.25.25,0,0,1,3.164.25Z" transform="translate(331.58 321.01)" fill="#180c45"/><path d="M3.164.25H0A.25.25,0,0,1-.25,0,.25.25,0,0,1,0-.25H3.164a.25.25,0,0,1,.25.25A.25.25,0,0,1,3.164.25Z" transform="translate(331.58 322.955)" fill="#180c45"/><path d="M3.164.25H0A.25.25,0,0,1-.25,0,.25.25,0,0,1,0-.25H3.164a.25.25,0,0,1,.25.25A.25.25,0,0,1,3.164.25Z" transform="translate(331.58 324.899)" fill="#180c45"/><path d="M16.1.25H0A.25.25,0,0,1-.25,0,.25.25,0,0,1,0-.25H16.1a.25.25,0,0,1,.25.25A.25.25,0,0,1,16.1.25Z" transform="translate(348.836 289.444)" fill="#180c45"/><path d="M1.473,18.469a.25.25,0,0,1-.249-.23L-.249.02A.25.25,0,0,1-.02-.249.25.25,0,0,1,.249-.02L1.722,18.2a.25.25,0,0,1-.229.269Z" transform="translate(360.427 311.654)" fill="#180c45"/></g><g transform="translate(30)"><ellipse cx="90.5" cy="88" rx="90.5" ry="88" transform="translate(173 104)" fill="#007cb2"/><g clip-path="url(#c)"><g transform="translate(-2775 -2544)"><path d="M46.388,656.912l-1.65,6.026a62.955,62.955,0,0,1-4.4,5.488,5.717,5.717,0,0,0-1.711,6.026h16.9c1.2,0,1.531-1.417,1.463-3.623s-.315-9.927-.315-9.927Z" transform="translate(2968.303 2251.249)" fill="#d4a06e"/><path d="M38.992,698.688H56.855a.175.175,0,0,0,0-.35H38.992a.175.175,0,0,0,0,.35" transform="translate(2968.024 2224.318)" fill="#2e1616"/><path d="M50.856,681.642a31.587,31.587,0,0,1,6.612-.056c.224.021.222-.328,0-.35a31.591,31.591,0,0,0-6.612.057c-.221.025-.224.375,0,.35" transform="translate(2960.31 2235.531)" fill="#2e1616"/><path d="M54.41,676.487a19.443,19.443,0,0,1,5.838-.159c.223.027.221-.323,0-.35a19.759,19.759,0,0,0-5.931.171c-.221.04-.127.377.093.337" transform="translate(2958.033 2238.949)" fill="#2e1616"/><path d="M182.15,656.912l-1.65,6.026a62.958,62.958,0,0,1-4.4,5.488,5.717,5.717,0,0,0-1.711,6.026h16.9c1.2,0,1.531-1.417,1.463-3.623s-.315-9.927-.315-9.927Z" transform="translate(2880.046 2251.249)" fill="#d4a06e"/><path d="M174.754,698.688h17.863a.175.175,0,0,0,0-.35H174.754a.175.175,0,0,0,0,.35" transform="translate(2879.767 2224.318)" fill="#2e1616"/><path d="M186.618,681.642a31.587,31.587,0,0,1,6.612-.056c.224.021.222-.328,0-.35a31.591,31.591,0,0,0-6.612.057c-.221.025-.224.375,0,.35" transform="translate(2872.052 2235.531)" fill="#2e1616"/><path d="M190.173,676.487a19.443,19.443,0,0,1,5.838-.159c.223.027.221-.323,0-.35a19.759,19.759,0,0,0-5.931.171c-.221.04-.127.377.093.337" transform="translate(2869.776 2238.949)" fill="#2e1616"/><path d="M107.029,399.266c-.58-5.639-1.673-14.65-3.066-25.9q-.651-5.259-1.351-10.511-1.369-18.013-2.553-36.039c-.81-12.353-2.478-27.81-2.818-34.776a.169.169,0,0,0-.062-.127c-.2-2.79-.5-6.252-.907-8.665-.78-4.681-5.676-7.316-5.676-7.316s-36.21-1.266-39.538,0-3.453,16.543-5.227,29.779c-.929,6.936-7,71.954-7.43,94.667-.074,3.885.326,9.038,4.711,10.473.17.145,11.093.493,11.317.473,2.073-.186,3.9-.654,5.009-2.562,1.078-1.856,3.078-14.5,3.762-19.815,1.393-10.834,8.01-63.71,8.112-64.411Q73.7,343.291,76.492,362c1.331,8.918,5.15,23.676,7.064,32.28,1.044,4.691,1.642,9.236,3.268,13.765,1.182,3.292,2.851,2.879,7.693,3.5a89.372,89.372,0,0,0,9.31-.1,6.539,6.539,0,0,0,3.533-4.6c.478-2.458-.077-5.12-.33-7.58" transform="translate(2968.454 2499.286)" fill="#9d6a43"/><path d="M46.489,655.767s-.207,3.652,1.978,5.663c1.184,1.09,4.053.9,9,.829s6.026-1.793,6.026-5.273c0-1.506-17.008-1.219-17.008-1.219" transform="translate(2963.043 2252.007)" fill="#9d6a43"/><path d="M47.311,660.371a27.905,27.905,0,0,0,8.317.962,36.09,36.09,0,0,0,8.366-.962.175.175,0,0,0-.093-.337,35.682,35.682,0,0,1-8.274.949,27.582,27.582,0,0,1-8.224-.949c-.216-.066-.308.272-.093.337" transform="translate(2962.586 2249.225)" fill="#2e1616"/><path d="M184.678,654.887s-.207,3.652,1.978,5.663c1.184,1.09,4.053.9,9,.829s5.876-2.77,5.876-6.25c0-1.506-16.858-.243-16.858-.243" transform="translate(2873.208 2252.888)" fill="#9d6a43"/><path d="M185.5,659.688a71.684,71.684,0,0,0,16.464-1.771c.22-.046.127-.383-.093-.337a71.291,71.291,0,0,1-16.371,1.759.175.175,0,0,0,0,.35" transform="translate(2872.78 2250.817)" fill="#2e1616"/><path d="M167.781,307.054a15.661,15.661,0,0,0,7.63,11.221.175.175,0,0,0,.176-.3,15.333,15.333,0,0,1-7.469-11.012c-.033-.222-.37-.127-.337.093" transform="translate(2884.191 2478.83)" fill="#2e1616"/><path d="M108.7,101.4c-8.393-2.3-23.889-1.148-27.045-1.148A54.4,54.4,0,0,0,64.8,104.2l-.718,49.284s-.968,6.456,3.228,8.286,32.928,0,37.339,0c0,0,5.2.943,5.2-6.134v-21.88Z" transform="translate(2951.666 2613.314)" fill="#ffba00"/><path d="M107.033,94.543s.817-2.5,6.911-3.382,9.88.35,11.942,2.9c2.155,2.66-18.853.486-18.853.486" transform="translate(2923.681 2619.22)" fill="#ffba00"/><path d="M70.351,270.744l-.143,4.376s6.236,1.716,20.156,1.716h25.685l-.574-5.518Z" transform="translate(2947.621 2502.292)" fill="#ffb042"/><path d="M110.422,140.088H65.769l.07-4.865H110.25Z" transform="translate(2950.507 2590.392)" fill="#fff"/><path d="M110.491,162.923H65.439l.07-4.861h44.81Z" transform="translate(2950.721 2575.546)" fill="#fff"/><path d="M126.116,123.741a338.48,338.48,0,0,0-.762,41.15c.174,4.263.4,8.523.655,12.781.013.224.363.225.35,0a397.412,397.412,0,0,1-.676-41.751c.186-4.065.455-8.125.783-12.181.018-.224-.332-.223-.349,0" transform="translate(2911.965 2597.966)" fill="#2e1616"/><path d="M70.174,274.639a214.259,214.259,0,0,0,31.861,1.242c2.452-.121,4.9-.305,7.344-.536.222-.021.224-.371,0-.35a175.413,175.413,0,0,1-28.54.209c-3.56-.245-7.114-.561-10.664-.915-.224-.022-.222.328,0,.35" transform="translate(2947.751 2499.988)" fill="#2e1616"/><path d="M208.14,119.99c-5.165-8.68-7.963-13.63-16.356-15.926l1.148,32.354,10.079,15.231,21.277-.017c-4.611-12.152-12.621-25.714-16.148-31.642" transform="translate(2868.586 2610.648)" fill="#fff"/><path d="M167.011,194.579a1.854,1.854,0,0,0-1.526-1.386c-5.74-.865-17.069-2.423-21.03-2.862a2.834,2.834,0,0,0-2.7,2.14,2.057,2.057,0,0,0-.017.8c.035.161.1.437.185.86,2.417,11.251,4.613,21.477,7.033,32.728a10.256,10.256,0,0,0,.5,1.686c.528,1.2,1.409,1.7,3.034,1.923,4.509.606,14.36,1.715,21.262,2.481a1.859,1.859,0,0,0,2.012-2.279c-4.709-19.8-7.816-32.323-8.756-36.089" transform="translate(2901.137 2554.572)" fill="#2e1616"/><path d="M146.356,190.8q4.133,19.922,8.911,39.705c.053.219.39.126.337-.093q-4.777-19.778-8.911-39.706c-.046-.22-.383-.127-.337.093" transform="translate(2898.121 2554.406)" fill="#c2a394"/><path d="M155.678,225.938c-2.168-.276-10.275-1.3-11.254-1.493a3.234,3.234,0,0,0-2.053.322l.42,2.018s-3.6.315-5.036-1.1a6.408,6.408,0,0,1-1.724-5.165,4.343,4.343,0,0,1-.322-4.466s-.913-2.259.539-3.605c1.318-1.217,4.84-3.183,7.372-3.141a8.671,8.671,0,0,1-.64-1.483c-.6-2.1.29-4.081,1.668-3.613,1.095.374,6.235,5.693,8.3,7.862,2.151.952,3.245,1.38,3.245,1.38a42.134,42.134,0,0,1,.178,6.393,27.4,27.4,0,0,1-.692,6.093" transform="translate(2905.357 2545.591)" fill="#f28a6f"/><path d="M174.264,242.363c.419.054,22.2,6.693,30.091,7.778s8.766-5.95,8.544-8.566a42.255,42.255,0,0,0-2.015-7.584L191.4,232.832l-9.83-2.081Z" transform="translate(2879.975 2528.291)" fill="#f28a6f"/><path d="M191.784,104.063s2.072.262,2.139.686c2.092,13.172-1.182,29.05-1.182,29.05Z" transform="translate(2868.586 2610.649)" fill="#ffba00"/><path d="M110.8,100.4s9.112-.4,16.535-.376c0,0-1.789,8.98-9.882,8.98-5.654,0-6.653-8.6-6.653-8.6" transform="translate(2921.232 2613.274)" fill="#fff"/><path d="M117.134,70.987v4.854a5.18,5.18,0,0,0,4.934,3.079,9.975,9.975,0,0,0,7.563-3.325l-.7-13.151Z" transform="translate(2917.115 2637.706)" fill="#f28a6f"/><path d="M141.589,479.772a217.937,217.937,0,0,0,25.122-1.179c.221-.023.224-.373,0-.35a217.869,217.869,0,0,1-25.122,1.179.175.175,0,0,0,0,.35" transform="translate(2901.327 2367.4)" fill="#2e1616"/><path d="M46.611,473.62c8.776,1.647,17.71,1.94,26.617,2.04a.175.175,0,0,0,0-.35c-8.875-.1-17.779-.387-26.524-2.028-.22-.041-.314.3-.093.337" transform="translate(2963.043 2370.626)" fill="#2e1616"/><path d="M136.73,232.241a46.4,46.4,0,0,1,6.367-2.879c.21-.077.119-.415-.093-.337a46.986,46.986,0,0,0-6.451,2.914c-.2.108-.021.41.177.3" transform="translate(2904.546 2529.421)" fill="#2e1616"/><path d="M137.475,245.855q3.051-1.492,6.214-2.728c.207-.081.117-.419-.093-.337q-3.206,1.251-6.3,2.763c-.2.1-.025.4.176.3" transform="translate(2904.064 2520.473)" fill="#2e1616"/><path d="M206.558,154.793a157.544,157.544,0,0,1,6.729-23.137c.079-.211-.259-.3-.337-.093a157.543,157.543,0,0,0-6.729,23.137c-.046.22.291.314.337.093" transform="translate(2859.203 2592.849)" fill="#2e1616"/><path d="M171.851,193.455a7.546,7.546,0,0,1,.678,1.517c.14.839-.639.813-1.258.786-.806-.035-1.612-.125-2.414-.2-.818-.08-1.638-.158-2.454-.261a1.966,1.966,0,0,1-1.7-1.135c-.309-.629-.552-1.3-.819-1.951-.084-.205-.423-.115-.337.093.49,1.188.844,2.921,2.278,3.253a28.171,28.171,0,0,0,3.733.417c.826.076,2.462.49,3.172-.082.725-.585-.321-2.028-.574-2.611-.09-.206-.391-.028-.3.177" transform="translate(2886.953 2553.423)" fill="#c2a394"/><path d="M191.275,104.25c.376,9.852.585,19.709.961,29.561.009.224.358.225.35,0-.376-9.852-.585-19.709-.961-29.561-.008-.224-.358-.225-.35,0" transform="translate(2868.917 2610.637)" fill="#2e1616"/><path d="M70.351,240.605a5.041,5.041,0,0,0-.7-.6,1.871,1.871,0,0,0,.267-2.985c-.757-.581-6.383-1.163-8.33-1.276-.651-.29-1.3-.57-1.929-.833h0a28.563,28.563,0,0,0,3.577-1.835c1.664-1.061,1.7-2.338.488-2.77s-7.8.668-7.8.668q-2.553-.3-4.522-.532a164.1,164.1,0,0,1-25.571-13.187l.757-1.4-16.256-7.355c-3.532,8.357-6.774,18.208,2.654,22.448,12.626,5.678,28.258,9.668,28.258,9.668,1.655.451,11.441,3.1,14.631,3.684,3.166.652,9.9,1.647,11.381,1.368a2.244,2.244,0,0,0,2.029-2.017c1.037-.655,2.266-1.747,1.062-3.052" transform="translate(2988.842 2542.751)" fill="#f28a6f"/><path d="M152.755,298.689c3.835.123,7.659.233,11.5.107.225-.007.226-.357,0-.35-3.836.126-7.661.016-11.5-.108-.225-.007-.225.343,0,.35" transform="translate(2894.067 2484.353)" fill="#2e1616"/><path d="M154.106,308.362c3.586.115,7.157.219,10.745.1.224-.007.225-.357,0-.35-3.588.118-7.159.015-10.745-.1-.225-.007-.225.342,0,.35" transform="translate(2893.189 2478.064)" fill="#2e1616"/><path d="M94.643,16.681c-.307,1.511-.324,7.57-.324,7.57s-.061,3.949-.056,5.053c.02,5.227,1.7,8.525,6.058,9.438,5.642,1.182,11.294-4.322,13.647-10.714s2.265-13.992.023-16.834-7.148-3.7-10.952-2.754-7.2,2.348-8.4,8.242" transform="translate(2931.983 2673.052)" fill="#f28a6f"/><path d="M96.225,45.044c-1.7.029-2.8,1.019-2.751,1.846.037.684.845.79,2.018.429,1.275-.393,2.288.463,2.606-.726.232-.867-.281-1.576-1.872-1.548" transform="translate(2932.497 2649.018)" fill="#452b2b"/><path d="M98.773,54.319c.825-.1.868,1.1.78,1.6-.057.322-.212.713-.586.752-.546.057-.674-.678-.7-1.076-.033-.444-.031-1.208.509-1.272" transform="translate(2929.39 2642.99)" fill="#1f1515"/><path d="M114.014,25.225c1.425-5.67,1.087-11.6-.835-14.032-2.242-2.842-7.147-3.7-10.951-2.752-3.773.934-7.141,2.324-8.365,8.1h0c-.009.047-.68.5-.688.545-.519,3.123.383,4.094.383,4.094s.049-2.692,2.484-3.184c.258-.052,1.106-.1,1.4-.138.164.02.321.037.464.052a44.187,44.187,0,0,0,5.379.227.173.173,0,0,0,.094.1,5.308,5.308,0,0,1,3.18,4.279c.171.95.625,1.357,1.361,1.438,0,2.1.368,4.5,1.767,5.939a4.4,4.4,0,0,0,4.56,1.059c.009.064-.23-5.724-.23-5.724Z" transform="translate(2932.795 2673.052)" fill="#452b2b"/><path d="M94.822,34.288s-1.329,2.217.11,2.556a2.861,2.861,0,0,0,2.689-1.075,1.691,1.691,0,0,0,2.059.483,11.554,11.554,0,0,0,2.443-1.711Z" transform="translate(2931.983 2656.009)" fill="#452b2b"/><path d="M127.678,53.854a3.131,3.131,0,1,0,3.528-2.675,3.131,3.131,0,0,0-3.528,2.675" transform="translate(2910.28 2645.048)" fill="#f28a6f"/><path d="M115.693,54.319c-.825-.1-.868,1.1-.78,1.6.057.322.212.713.586.752.546.057.674-.678.7-1.076.033-.444.031-1.208-.509-1.272" transform="translate(2918.58 2642.99)" fill="#1f1515"/><path d="M114.173,45.044c1.7.029,2.795,1.019,2.751,1.846-.036.684-.845.79-2.018.429-1.275-.393-2.288.463-2.606-.726-.232-.867.281-1.576,1.872-1.548" transform="translate(2920.292 2649.018)" fill="#452b2b"/><path d="M105.74,55.674a16.145,16.145,0,0,1-1.411,4.568c-.119.247.25.464.37.216a16.538,16.538,0,0,0,1.454-4.671c.042-.269-.371-.386-.413-.114" transform="translate(2925.455 2642.207)" fill="#2e1616"/><path d="M104.339,69.017a3.029,3.029,0,0,0,2.681.282c.269-.06.155-.472-.114-.413a2.616,2.616,0,0,1-2.265-.172c-.215-.168-.519.133-.3.3" transform="translate(2925.481 2633.661)" fill="#2e1616"/><path d="M137.738,56.115a1.271,1.271,0,0,1,.426,2.212c-.19.2.112.5.3.3a1.7,1.7,0,0,0-.614-2.928c-.263-.084-.375.329-.114.413" transform="translate(2903.817 2642.095)" fill="#2e1616"/><path d="M91.822,11.749S91.731-1.755,104.77.192s9.537,14.915,9.537,14.915Z" transform="translate(2933.57 2678.299)" fill="#ffba00"/><path d="M85.012,25.192s-3.816.621-4.248,1.133-.182,1.215.73,1.351l9.658,1.443Z" transform="translate(2940.892 2661.922)" fill="#ffba00"/><path d="M92.9,25.007a45.01,45.01,0,0,1,9.906,1.509c1.412.4,5.321,1.343,5.238,3.374-.011.276.417.275.428,0,.081-1.987-2.94-2.946-4.4-3.432A42.228,42.228,0,0,0,92.9,24.579c-.275-.014-.274.414,0,.428" transform="translate(2933.001 2662.321)" fill="#2e1616"/><path d="M133.525,34.079l7.9,1.3c.269.044.385-.368.114-.413l-7.9-1.3c-.269-.044-.385.368-.114.413" transform="translate(2906.56 2656.415)" fill="#2e1616"/><path d="M128,14.868c.63-3.476,2.132-7.1,5.582-8.581.252-.108.034-.477-.216-.37-3.539,1.521-5.131,5.265-5.778,8.837-.049.269.364.385.413.114" transform="translate(2910.323 2674.465)" fill="#2e1616"/><path d="M139.159,23.4c.274-2.661,2.01-5.622,4.918-5.789.274-.016.276-.444,0-.428-3.165.182-5.046,3.3-5.346,6.217-.028.274.4.272.428,0" transform="translate(2903.075 2667.13)" fill="#2e1616"/><path d="M108.53,75.133a10.608,10.608,0,0,0-5.083.108c.677-2.319,4.389-2.419,5.083-.108" transform="translate(2926.013 2630.55)" fill="#964839"/><path d="M109.031,49.029l-1.276-.444a23.761,23.761,0,0,1,.047,5.274,8.692,8.692,0,0,1-3.685,6.569,5.792,5.792,0,0,1-1.9.72c-.522-.635-1.457-1.45-2.354-1.247a3.184,3.184,0,0,0-1.716,1.182,4.648,4.648,0,0,1-3.177-2.275s-.344,3.763,1.266,5.255a7.666,7.666,0,0,0,8.99.235c3.284-2.291,4.159-6.241,4.292-9.708a19.053,19.053,0,0,0-.482-5.562" transform="translate(2931.547 2646.715)" fill="#452b2b"/><path d="M7.184,151.376c4.712,1.2,9.478,2.158,14.23,3.185l1.175-2.171.615-40.332C14.579,115.211,4.2,137.743,0,149.708c2.4.578,4.823,1.067,7.184,1.668" transform="translate(2993.262 2605.451)" fill="#fff"/><path d="M45.648,129.755Q48.5,139.8,52.09,149.592c.077.21.415.119.337-.093q-3.591-9.8-6.442-19.836a.175.175,0,0,0-.337.093" transform="translate(2963.592 2594.087)" fill="#2e1616"/><path d="M60.962,112.059s-2.144.75-2.211,1.175c-2.092,13.172,1.4,28.561,1.4,28.561h.381Z" transform="translate(2955.503 2605.451)" fill="#ffba00"/><path d="M65.039,112.208c-.478,9.747-.56,19.512-.49,29.269a.175.175,0,0,0,.35,0c-.07-9.757.012-19.522.49-29.269.011-.225-.339-.224-.35,0" transform="translate(2951.314 2605.464)" fill="#2e1616"/><path d="M153.559,280.253a29.274,29.274,0,0,0,2.727,2.031c.189.124.364-.179.176-.3a28.553,28.553,0,0,1-2.656-1.976c-.171-.143-.42.1-.247.247" transform="translate(2893.473 2496.299)" fill="#2e1616"/><path d="M159.9,218.642a11.352,11.352,0,0,1,3.185.753c.209.082.3-.256.093-.337a11.678,11.678,0,0,0-3.278-.766c-.224-.02-.223.33,0,.35" transform="translate(2889.42 2536.39)" fill="#2e1616"/><path d="M222.5,236.668a103.31,103.31,0,0,1,11.78,2.532.175.175,0,0,0,.093-.337,103.29,103.29,0,0,0-11.779-2.532c-.22-.034-.315.3-.093.337" transform="translate(2848.697 2524.665)" fill="#2e1616"/><path d="M195.441,245.365c-1.413-.4-2.749-.783-3.959-1.133a22.937,22.937,0,0,0,1.616-13.279l3.819.808a27.9,27.9,0,0,1-1.476,13.6" transform="translate(2868.782 2528.159)" fill="#2e1616"/><path d="M196.063,245.675h0a2.877,2.877,0,0,1-2.563-3.143l.078-.766a2.868,2.868,0,0,1,5.706.579l-.078.766a2.876,2.876,0,0,1-3.143,2.563" transform="translate(2867.48 2522.805)" fill="#fff1de"/><path d="M3.174,26.941a.25.25,0,0,1-.248-.221L-.248.03A.25.25,0,0,1-.03-.248.25.25,0,0,1,.248-.03L3.422,26.661a.25.25,0,0,1-.219.278Z" transform="translate(3036.44 2797.13)" fill="#2e1616"/><path d="M6.1,60.436a.25.25,0,0,1-.248-.225L-.249.025A.25.25,0,0,1-.025-.249a.25.25,0,0,1,.274.224l6.1,60.186a.25.25,0,0,1-.223.274Z" transform="translate(3059.864 2785.664)" fill="#2e1616"/></g></g></g><g transform="translate(30)"><path d="M0,0H143a40,40,0,0,1,40,40V170a0,0,0,0,1,0,0H40A40,40,0,0,1,0,130V0A0,0,0,0,1,0,0Z" transform="translate(114 254)" fill="#ffb500"/><rect width="10.889" height="60.875" transform="translate(257.802 323.125)" fill="#b15830"/><path d="M113.9,61.687h10.568c.236,0,.237-.193,0-.193H113.9c-.236,0-.237.193,0,.193" transform="translate(144 284.649)" fill="#ab562e"/><path d="M113.9,62.627h10.568c.236,0,.237-.193,0-.193H113.9c-.236,0-.237.193,0,.193" transform="translate(144 284.649)" fill="#ab562e"/><path d="M113.9,77.566h10.568c.236,0,.237-.193,0-.193H113.9c-.236,0-.237.193,0,.193" transform="translate(144 284.649)" fill="#ab562e"/><path d="M113.9,78.506h10.568c.236,0,.237-.193,0-.193H113.9c-.236,0-.237.193,0,.193" transform="translate(144 284.649)" fill="#ab562e"/><rect width="113.728" height="60.875" transform="translate(144.074 323.125)" fill="#d37951"/><path d="M84.322,61.687H113.8a.1.1,0,0,0,0-.193H84.322a.1.1,0,0,0,0,.193" transform="translate(144 284.649)" fill="#fbf1eb"/><path d="M84.322,62.627H113.8a.1.1,0,0,0,0-.193H84.322a.1.1,0,0,0,0,.193" transform="translate(144 284.649)" fill="#fbf1eb"/><rect width="52.67" height="26.879" transform="translate(175.898 333.971)" fill="#b15830"/><path d="M.074,78.506H23.918a.1.1,0,0,0,0-.193H.074a.1.1,0,0,0,0,.193" transform="translate(144 284.649)" fill="#fbf1eb"/><path d="M86.364,78.506H113.8a.1.1,0,0,0,0-.193H86.364a.1.1,0,0,0,0,.193" transform="translate(144 284.649)" fill="#fbf1eb"/><rect width="2.567" height="20.581" transform="translate(173.899 336.164)" fill="#f0ccb9"/><rect width="0.749" height="20.581" transform="translate(173.898 336.164)" fill="#fbf1eb"/><rect width="4.407" height="2.289" transform="translate(172.979 333.875)" fill="#f0ccb9"/><rect width="4.407" height="1.222" transform="translate(172.979 356.745)" fill="#fbf1eb"/><rect width="5.656" height="4.051" transform="translate(171.73 357.967)" fill="#fbf1eb"/><rect width="3.987" height="4.051" transform="translate(174.664 357.967)" fill="#f0ccb9"/><rect width="1.861" height="1.222" transform="translate(175.541 356.745)" fill="#f0ccb9"/><path d="M86.364,77.566H113.8a.1.1,0,0,0,0-.193H86.364a.1.1,0,0,0,0,.193" transform="translate(144 284.649)" fill="#fbf1eb"/><rect width="23.009" height="8.937" transform="translate(144.074 375.063)" fill="#fbf1eb"/><rect width="4.621" height="3.321" transform="translate(162.518 378.459)" fill="#77679e"/><path d="M20.723,93.66v3.626a.1.1,0,0,0,.193,0V93.66a.1.1,0,0,0-.193,0" transform="translate(144 284.649)" fill="#fbf1eb"/><rect width="4.621" height="7.172" transform="translate(162.518 367.891)" fill="#77679e"/><path d="M20.723,83.105v7.206a.1.1,0,0,0,.193,0V83.105a.1.1,0,0,0-.193,0" transform="translate(144 284.649)" fill="#fbf1eb"/><path d="M18.611,88.055h4.42a.1.1,0,0,0,0-.193h-4.42a.1.1,0,0,0,0,.193" transform="translate(144 284.649)" fill="#fbf1eb"/><path d="M18.611,85.76h4.42a.1.1,0,0,0,.068-.124.1.1,0,0,0-.068-.068h-4.42a.1.1,0,0,0,0,.192" transform="translate(144 284.649)" fill="#fbf1eb"/><path d="M17.945,82.269l.572,1.631h4.621l.572-1.631Z" transform="translate(144 284.649)" fill="#fbf1eb"/><path d="M19.824,81.765l.353,2.134h1.305l.353-2.134Z" transform="translate(144 284.649)" fill="#fbf1eb"/><rect width="4.621" height="9.435" transform="translate(162.518 352.006)" fill="#77679e"/><path d="M18.518,67.357a3.547,3.547,0,0,1,4.621,0Z" transform="translate(144 284.649)" fill="#fbf1eb"/><path d="M20.723,67.221V76.73a.1.1,0,0,0,.193,0V67.221a.1.1,0,0,0-.193,0" transform="translate(144 284.649)" fill="#fbf1eb"/><path d="M18.611,74.626h4.42a.1.1,0,0,0,0-.193h-4.42a.1.1,0,0,0,0,.193" transform="translate(144 284.649)" fill="#fbf1eb"/><path d="M18.611,72.17h4.42a.1.1,0,0,0,0-.193h-4.42a.1.1,0,0,0,0,.193" transform="translate(144 284.649)" fill="#fbf1eb"/><path d="M18.611,69.876h4.42a.1.1,0,0,0,0-.193h-4.42a.1.1,0,0,0,0,.193" transform="translate(144 284.649)" fill="#fbf1eb"/><rect width="4.621" height="0.61" transform="translate(162.518 361.441)" fill="#fbf1eb"/><rect width="4.621" height="7.172" transform="translate(162.518 338.464)" fill="#77679e"/><path d="M18.518,53.815a3.547,3.547,0,0,1,4.621,0Z" transform="translate(144 284.649)" fill="#fbf1eb"/><path d="M20.723,53.679v7.206a.1.1,0,0,0,.193,0V53.679a.1.1,0,0,0-.193,0" transform="translate(144 284.649)" fill="#fbf1eb"/><path d="M18.611,58.629h4.42a.1.1,0,0,0,0-.193h-4.42a.1.1,0,0,0,0,.193" transform="translate(144 284.649)" fill="#fbf1eb"/><path d="M18.611,56.331h4.42a.1.1,0,0,0,0-.193h-4.42a.1.1,0,0,0,0,.193" transform="translate(144 284.649)" fill="#fbf1eb"/><rect width="4.621" height="0.61" transform="translate(162.518 345.636)" fill="#fbf1eb"/><rect width="4.621" height="9.435" transform="translate(180.956 349.792)" fill="#77679e"/><path d="M36.956,65.143a3.547,3.547,0,0,1,4.621,0Z" transform="translate(144 284.649)" fill="#fbf1eb"/><path d="M39.16,65.006v9.509a.1.1,0,0,0,.193,0V65.006a.1.1,0,0,0-.193,0" transform="translate(144 284.649)" fill="#fbf1eb"/><path d="M37.049,72.413h4.42a.1.1,0,0,0,0-.193h-4.42a.1.1,0,0,0,0,.193" transform="translate(144 284.649)" fill="#fbf1eb"/><path d="M37.049,69.956h4.42a.1.1,0,0,0,0-.193h-4.42a.1.1,0,0,0,0,.193" transform="translate(144 284.649)" fill="#fbf1eb"/><path d="M37.049,67.662h4.42a.1.1,0,0,0,0-.193h-4.42a.1.1,0,0,0,0,.193" transform="translate(144 284.649)" fill="#fbf1eb"/><rect width="4.621" height="0.61" transform="translate(180.956 359.226)" fill="#fbf1eb"/><rect width="4.621" height="4.717" transform="translate(180.956 338.705)" fill="#77679e"/><path d="M36.956,54.056a3.547,3.547,0,0,1,4.621,0Z" transform="translate(144 284.649)" fill="#fbf1eb"/><path d="M39.16,53.919v4.854a.1.1,0,0,0,.193,0V53.919a.1.1,0,0,0-.193,0" transform="translate(144 284.649)" fill="#fbf1eb"/><path d="M37.049,56.575h4.42a.1.1,0,0,0,0-.193h-4.42a.1.1,0,0,0,0,.193" transform="translate(144 284.649)" fill="#fbf1eb"/><rect width="4.621" height="0.61" transform="translate(180.956 343.422)" fill="#fbf1eb"/><rect width="4.621" height="9.435" transform="translate(193.065 349.792)" fill="#77679e"/><path d="M49.065,65.143a3.547,3.547,0,0,1,4.621,0Z" transform="translate(144 284.649)" fill="#fbf1eb"/><path d="M51.269,65.006v9.509a.1.1,0,0,0,.193,0V65.006a.1.1,0,0,0-.193,0" transform="translate(144 284.649)" fill="#fbf1eb"/><path d="M49.157,72.413h4.42a.1.1,0,0,0,0-.193h-4.42a.1.1,0,0,0,0,.193" transform="translate(144 284.649)" fill="#fbf1eb"/><path d="M49.157,69.956h4.42a.1.1,0,0,0,0-.193h-4.42a.1.1,0,0,0,0,.193" transform="translate(144 284.649)" fill="#fbf1eb"/><path d="M49.157,67.662h4.42a.1.1,0,0,0,0-.193h-4.42a.1.1,0,0,0,0,.193" transform="translate(144 284.649)" fill="#fbf1eb"/><rect width="4.621" height="0.61" transform="translate(193.065 359.226)" fill="#fbf1eb"/><rect width="4.621" height="4.717" transform="translate(193.065 338.705)" fill="#77679e"/><path d="M49.065,54.056a3.547,3.547,0,0,1,4.621,0Z" transform="translate(144 284.649)" fill="#fbf1eb"/><path d="M51.269,53.919v4.854a.1.1,0,0,0,.193,0V53.919a.1.1,0,0,0-.193,0" transform="translate(144 284.649)" fill="#fbf1eb"/><path d="M49.157,56.575h4.42a.1.1,0,0,0,0-.193h-4.42a.1.1,0,0,0,0,.193" transform="translate(144 284.649)" fill="#fbf1eb"/><rect width="4.621" height="0.61" transform="translate(193.065 343.422)" fill="#fbf1eb"/><rect width="4.621" height="9.435" transform="translate(205.174 349.792)" fill="#77679e"/><path d="M61.174,65.143a3.547,3.547,0,0,1,4.621,0Z" transform="translate(144 284.649)" fill="#fbf1eb"/><path d="M63.377,65.006v9.509a.1.1,0,0,0,.193,0V65.006a.1.1,0,0,0-.193,0" transform="translate(144 284.649)" fill="#fbf1eb"/><path d="M61.266,72.413h4.42a.1.1,0,0,0,0-.193h-4.42a.1.1,0,0,0,0,.193" transform="translate(144 284.649)" fill="#fbf1eb"/><path d="M61.266,69.956h4.42a.1.1,0,0,0,0-.193h-4.42a.1.1,0,0,0,0,.193" transform="translate(144 284.649)" fill="#fbf1eb"/><path d="M61.266,67.662h4.42a.1.1,0,0,0,0-.193h-4.42a.1.1,0,0,0,0,.193" transform="translate(144 284.649)" fill="#fbf1eb"/><rect width="4.621" height="0.61" transform="translate(205.174 359.226)" fill="#fbf1eb"/><rect width="4.621" height="4.717" transform="translate(205.174 338.705)" fill="#77679e"/><path d="M61.174,54.056a3.547,3.547,0,0,1,4.621,0Z" transform="translate(144 284.649)" fill="#fbf1eb"/><path d="M63.377,53.919v4.854a.1.1,0,0,0,.193,0V53.919a.1.1,0,0,0-.193,0" transform="translate(144 284.649)" fill="#fbf1eb"/><path d="M61.266,56.575h4.42a.1.1,0,0,0,0-.193h-4.42a.1.1,0,0,0,0,.193" transform="translate(144 284.649)" fill="#fbf1eb"/><rect width="4.621" height="0.61" transform="translate(205.174 343.422)" fill="#fbf1eb"/><rect width="4.621" height="9.435" transform="translate(217.283 349.792)" fill="#77679e"/><path d="M73.283,65.143a3.547,3.547,0,0,1,4.621,0Z" transform="translate(144 284.649)" fill="#fbf1eb"/><path d="M75.486,65.006v9.509a.1.1,0,0,0,.193,0V65.006a.1.1,0,0,0-.193,0" transform="translate(144 284.649)" fill="#fbf1eb"/><path d="M73.375,72.413h4.42a.1.1,0,0,0,0-.193h-4.42a.1.1,0,0,0,0,.193" transform="translate(144 284.649)" fill="#fbf1eb"/><path d="M73.375,69.956h4.42a.1.1,0,0,0,0-.193h-4.42a.1.1,0,0,0,0,.193" transform="translate(144 284.649)" fill="#fbf1eb"/><path d="M73.375,67.662h4.42a.1.1,0,0,0,0-.193h-4.42a.1.1,0,0,0,0,.193" transform="translate(144 284.649)" fill="#fbf1eb"/><rect width="4.621" height="0.61" transform="translate(217.283 359.226)" fill="#fbf1eb"/><rect width="4.621" height="4.717" transform="translate(217.283 338.705)" fill="#77679e"/><path d="M73.283,54.056a3.547,3.547,0,0,1,4.621,0Z" transform="translate(144 284.649)" fill="#fbf1eb"/><path d="M75.486,53.919v4.854a.1.1,0,0,0,.193,0V53.919a.1.1,0,0,0-.193,0" transform="translate(144 284.649)" fill="#fbf1eb"/><path d="M73.375,56.575h4.42a.1.1,0,0,0,0-.193h-4.42a.1.1,0,0,0,0,.193" transform="translate(144 284.649)" fill="#fbf1eb"/><rect width="4.621" height="0.61" transform="translate(217.283 343.422)" fill="#fbf1eb"/><rect width="113.728" height="4.849" transform="translate(144.074 323.125)" fill="#fbf1eb"/><path d="M.138,40.594H113.8a.1.1,0,0,0,0-.193H.138a.1.1,0,0,0,0,.193" transform="translate(144 284.649)" fill="#f0ccb9"/><rect width="3.765" height="8.937" transform="translate(257.802 375.063)" fill="#f0ccb9"/><rect width="10.889" height="4.849" transform="translate(257.802 323.125)" fill="#f0ccb9"/><rect width="54.682" height="10.75" transform="translate(165.574 323.125)" fill="#fbf1eb"/><rect width="54.682" height="21.982" transform="translate(165.574 362.018)" fill="#fbf1eb"/><path d="M70.075,88.745H66.4l.83-4.2-.82-1.8.1-.032a5.969,5.969,0,0,1,3.452,0l.105.032-.82,1.8Zm-3.449-.193H69.84l-.8-4.028.755-1.656a5.77,5.77,0,0,0-3.128,0l.754,1.656Z" transform="translate(144 284.649)" fill="#f0ccb9"/><path d="M73.339,86.69a5.354,5.354,0,0,0-3.561-3.475c-.044.053-.084.108-.123.164a5.164,5.164,0,0,1,3.477,3.3l-1.9,1.253h-6l-1.9-1.253a5.161,5.161,0,0,1,3.426-3.286,1.639,1.639,0,0,1-.1-.172,5.356,5.356,0,0,0-3.535,3.468l-.023.07,2.071,1.365h6.118l2.071-1.365Z" transform="translate(144 284.649)" fill="#f0ccb9"/><path d="M57.388,88.745H53.705l.83-4.2-.82-1.8.1-.032a5.969,5.969,0,0,1,3.452,0l.1.032-.82,1.8Zm-3.448-.193h3.217l-.8-4.028.754-1.656a5.77,5.77,0,0,0-3.128,0l.754,1.656Z" transform="translate(144 284.649)" fill="#f0ccb9"/><path d="M60.653,86.689a5.356,5.356,0,0,0-3.535-3.468,1.047,1.047,0,0,1-.083.176,5.162,5.162,0,0,1,3.412,3.282l-1.9,1.253h-6l-1.9-1.253a5.162,5.162,0,0,1,3.467-3.3,1.6,1.6,0,0,1-.091-.174,5.357,5.357,0,0,0-3.582,3.482l-.023.07,2.07,1.365h6.118l2.071-1.365Z" transform="translate(144 284.649)" fill="#f0ccb9"/><path d="M32.015,88.744H28.332l.83-4.2-.82-1.8.105-.032a5.969,5.969,0,0,1,3.452,0l.105.032-.82,1.8Zm-3.448-.193H31.78l-.8-4.028.754-1.656a5.77,5.77,0,0,0-3.128,0l.754,1.656Z" transform="translate(144 284.649)" fill="#f0ccb9"/><path d="M35.28,86.689a5.356,5.356,0,0,0-3.527-3.465.57.57,0,0,0-.094.173,5.162,5.162,0,0,1,3.414,3.283l-1.9,1.253h-6l-1.9-1.253a5.163,5.163,0,0,1,3.454-3.294c-.028-.059-.064-.115-.094-.173a5.356,5.356,0,0,0-3.566,3.477l-.023.07,2.071,1.365h6.118L35.3,86.76Z" transform="translate(144 284.649)" fill="#f0ccb9"/><path d="M21.574,94.527H76.256a.1.1,0,0,0,0-.193H21.574a.1.1,0,0,0,0,.193" transform="translate(144 284.649)" fill="#f0ccb9"/><rect width="10.75" height="10.75" transform="translate(220.256 323.125)" fill="#f0ccb9"/><rect width="10.75" height="21.982" transform="translate(220.256 362.018)" fill="#f0ccb9"/><rect width="2.567" height="20.581" transform="translate(215.871 336.164)" fill="#fbf1eb"/><rect width="4.407" height="2.289" transform="translate(214.951 333.875)" fill="#fbf1eb"/><rect width="4.407" height="1.222" transform="translate(214.951 356.745)" fill="#fbf1eb"/><rect width="6.905" height="4.051" transform="translate(213.702 357.967)" fill="#fbf1eb"/><rect width="2.567" height="20.581" transform="translate(226.011 336.164)" fill="#f0ccb9"/><rect width="4.407" height="2.289" transform="translate(225.091 333.875)" fill="#f0ccb9"/><rect width="1.288" height="2.289" transform="translate(225.091 333.875)" fill="#fbf1eb"/><rect width="2.567" height="20.581" transform="translate(203.762 336.164)" fill="#fbf1eb"/><rect width="4.407" height="2.289" transform="translate(202.842 333.875)" fill="#fbf1eb"/><rect width="4.407" height="1.222" transform="translate(202.842 356.745)" fill="#fbf1eb"/><rect width="6.905" height="4.051" transform="translate(201.593 357.967)" fill="#fbf1eb"/><rect width="2.567" height="20.581" transform="translate(191.653 336.164)" fill="#fbf1eb"/><rect width="4.407" height="2.289" transform="translate(190.733 333.875)" fill="#fbf1eb"/><rect width="4.407" height="1.222" transform="translate(190.733 356.745)" fill="#fbf1eb"/><rect width="6.905" height="4.051" transform="translate(189.484 357.967)" fill="#fbf1eb"/><rect width="0.749" height="20.581" transform="translate(193.471 336.164)" fill="#f0ccb9"/><rect width="2.567" height="20.581" transform="translate(179.544 336.164)" fill="#fbf1eb"/><rect width="4.407" height="2.289" transform="translate(178.625 333.875)" fill="#fbf1eb"/><rect width="4.407" height="1.222" transform="translate(178.625 356.745)" fill="#fbf1eb"/><rect width="6.905" height="4.051" transform="translate(177.376 357.967)" fill="#fbf1eb"/><rect width="2.567" height="20.581" transform="translate(167.436 336.164)" fill="#fbf1eb"/><rect width="0.749" height="20.581" transform="translate(169.254 336.164)" fill="#f0ccb9"/><rect width="4.407" height="2.289" transform="translate(166.516 333.875)" fill="#fbf1eb"/><rect width="4.407" height="1.222" transform="translate(166.516 356.745)" fill="#fbf1eb"/><rect width="6.597" height="4.051" transform="translate(165.575 357.967)" fill="#fbf1eb"/><rect width="4.621" height="3.321" transform="translate(148.984 378.459)" fill="#77679e"/><path d="M7.187,93.911v3.117a.1.1,0,0,0,.193,0V93.911a.1.1,0,0,0-.193,0" transform="translate(144 284.649)" fill="#fbf1eb"/><rect width="4.621" height="7.172" transform="translate(148.984 367.891)" fill="#77679e"/><path d="M7.187,83.105v7.206a.1.1,0,0,0,.193,0V83.105a.1.1,0,0,0-.193,0" transform="translate(144 284.649)" fill="#fbf1eb"/><path d="M5.076,88.055H9.5a.1.1,0,0,0,0-.193H5.078a.1.1,0,0,0,0,.193" transform="translate(144 284.649)" fill="#fbf1eb"/><path d="M5.076,85.76H9.5a.1.1,0,0,0,0-.192H5.078a.1.1,0,0,0,0,.192" transform="translate(144 284.649)" fill="#fbf1eb"/><path d="M4.412,82.269,4.984,83.9H9.6l.572-1.631Z" transform="translate(144 284.649)" fill="#fbf1eb"/><path d="M6.289,81.765,6.642,83.9h1.3L8.3,81.765Z" transform="translate(144 284.649)" fill="#fbf1eb"/><rect width="4.621" height="9.435" transform="translate(148.984 352.006)" fill="#77679e"/><path d="M4.987,67.357a3.547,3.547,0,0,1,4.621,0Z" transform="translate(144 284.649)" fill="#fbf1eb"/><path d="M7.187,67.221V76.73a.1.1,0,0,0,.193,0V67.221a.1.1,0,0,0-.193,0" transform="translate(144 284.649)" fill="#fbf1eb"/><path d="M5.076,74.626H9.5a.1.1,0,0,0,0-.193H5.078a.1.1,0,0,0,0,.193" transform="translate(144 284.649)" fill="#fbf1eb"/><path d="M5.076,72.17H9.5a.1.1,0,0,0,0-.193H5.078a.1.1,0,0,0,0,.193" transform="translate(144 284.649)" fill="#fbf1eb"/><path d="M5.076,69.876H9.5a.1.1,0,0,0,0-.193H5.078a.1.1,0,0,0,0,.193" transform="translate(144 284.649)" fill="#fbf1eb"/><rect width="4.621" height="0.61" transform="translate(148.984 361.441)" fill="#fbf1eb"/><rect width="4.621" height="7.172" transform="translate(148.984 338.464)" fill="#77679e"/><path d="M4.987,53.815a3.547,3.547,0,0,1,4.621,0Z" transform="translate(144 284.649)" fill="#fbf1eb"/><path d="M7.187,53.679v7.206a.1.1,0,0,0,.193,0V53.679a.1.1,0,0,0-.193,0" transform="translate(144 284.649)" fill="#fbf1eb"/><path d="M5.076,58.629H9.5a.1.1,0,0,0,0-.193H5.078a.1.1,0,0,0,0,.193" transform="translate(144 284.649)" fill="#fbf1eb"/><path d="M5.076,56.331H9.5a.1.1,0,0,0,0-.193H5.078a.1.1,0,0,0,0,.193" transform="translate(144 284.649)" fill="#fbf1eb"/><rect width="4.621" height="0.61" transform="translate(148.984 345.636)" fill="#fbf1eb"/><rect width="26.796" height="8.937" transform="translate(231.007 375.063)" fill="#fbf1eb"/><rect width="4.621" height="3.321" transform="translate(234.737 378.459)" fill="#77679e"/><path d="M92.962,93.911v3.117a.1.1,0,0,0,.193,0V93.911a.1.1,0,0,0-.193,0" transform="translate(144 284.649)" fill="#fbf1eb"/><rect width="4.621" height="7.172" transform="translate(234.737 367.891)" fill="#77679e"/><path d="M92.962,83.105v7.206a.1.1,0,0,0,.193,0V83.105a.1.1,0,0,0-.193,0" transform="translate(144 284.649)" fill="#fbf1eb"/><path d="M95.266,87.863H90.845a.1.1,0,0,0,0,.193h4.421a.1.1,0,0,0,0-.193" transform="translate(144 284.649)" fill="#fbf1eb"/><path d="M95.266,85.568H90.845a.1.1,0,0,0,0,.193h4.421a.1.1,0,0,0,0-.193" transform="translate(144 284.649)" fill="#fbf1eb"/><path d="M95.931,82.269,95.359,83.9H90.738l-.572-1.631Z" transform="translate(144 284.649)" fill="#fbf1eb"/><path d="M94.053,81.765,93.7,83.9H92.395l-.353-2.134Z" transform="translate(144 284.649)" fill="#fbf1eb"/><rect width="4.621" height="9.435" transform="translate(234.737 352.006)" fill="#77679e"/><path d="M95.358,67.357a3.547,3.547,0,0,0-4.621,0Z" transform="translate(144 284.649)" fill="#fbf1eb"/><path d="M92.962,67.221V76.73a.1.1,0,0,0,.193,0V67.221a.1.1,0,0,0-.193,0" transform="translate(144 284.649)" fill="#fbf1eb"/><path d="M95.266,74.433H90.845a.1.1,0,0,0,0,.193h4.421a.1.1,0,0,0,0-.193" transform="translate(144 284.649)" fill="#fbf1eb"/><path d="M95.266,71.978H90.845a.1.1,0,0,0,0,.193h4.421a.1.1,0,0,0,0-.193" transform="translate(144 284.649)" fill="#fbf1eb"/><path d="M95.266,69.684H90.845a.1.1,0,0,0,0,.193h4.421a.1.1,0,0,0,0-.193" transform="translate(144 284.649)" fill="#fbf1eb"/><rect width="4.621" height="0.61" transform="translate(234.737 361.441)" fill="#fbf1eb"/><rect width="4.621" height="7.172" transform="translate(234.737 338.464)" fill="#77679e"/><path d="M95.358,53.815a3.547,3.547,0,0,0-4.621,0Z" transform="translate(144 284.649)" fill="#fbf1eb"/><path d="M92.962,53.679v7.206a.1.1,0,0,0,.193,0V53.679a.1.1,0,0,0-.193,0" transform="translate(144 284.649)" fill="#fbf1eb"/><path d="M95.266,58.435H90.845a.1.1,0,0,0,0,.193h4.421a.1.1,0,0,0,0-.193" transform="translate(144 284.649)" fill="#fbf1eb"/><path d="M95.266,56.142H90.845a.1.1,0,0,0,0,.193h4.421a.1.1,0,0,0,0-.193" transform="translate(144 284.649)" fill="#fbf1eb"/><rect width="4.621" height="0.61" transform="translate(234.737 345.636)" fill="#fbf1eb"/><rect width="4.621" height="3.321" transform="translate(248.271 378.459)" fill="#77679e"/><path d="M106.5,93.911v3.117a.1.1,0,0,0,.192,0V93.911a.1.1,0,0,0-.192,0" transform="translate(144 284.649)" fill="#fbf1eb"/><rect width="4.621" height="7.172" transform="translate(248.271 367.891)" fill="#77679e"/><path d="M106.5,83.105v7.206a.1.1,0,0,0,.192,0V83.105a.1.1,0,0,0-.192,0" transform="translate(144 284.649)" fill="#fbf1eb"/><path d="M108.8,87.863h-4.421a.1.1,0,0,0,0,.193H108.8a.1.1,0,0,0,0-.193" transform="translate(144 284.649)" fill="#fbf1eb"/><path d="M108.8,85.568h-4.421a.1.1,0,0,0,0,.193H108.8a.1.1,0,0,0,0-.193" transform="translate(144 284.649)" fill="#fbf1eb"/><path d="M109.464,82.269l-.572,1.631h-4.621l-.572-1.631Z" transform="translate(144 284.649)" fill="#fbf1eb"/><path d="M107.588,81.765l-.353,2.134h-1.3l-.353-2.134Z" transform="translate(144 284.649)" fill="#fbf1eb"/><rect width="4.621" height="9.435" transform="translate(248.271 352.006)" fill="#77679e"/><path d="M108.892,67.357a3.547,3.547,0,0,0-4.621,0Z" transform="translate(144 284.649)" fill="#fbf1eb"/><path d="M106.5,67.221V76.73a.1.1,0,0,0,.192,0V67.221a.1.1,0,0,0-.192,0" transform="translate(144 284.649)" fill="#fbf1eb"/><path d="M108.8,74.433h-4.421a.1.1,0,0,0,0,.193H108.8a.1.1,0,0,0,0-.193" transform="translate(144 284.649)" fill="#fbf1eb"/><path d="M108.8,71.978h-4.421a.1.1,0,0,0,0,.193H108.8a.1.1,0,0,0,0-.193" transform="translate(144 284.649)" fill="#fbf1eb"/><path d="M108.8,69.684h-4.421a.1.1,0,0,0,0,.193H108.8a.1.1,0,0,0,0-.193" transform="translate(144 284.649)" fill="#fbf1eb"/><rect width="4.621" height="0.61" transform="translate(248.271 361.441)" fill="#fbf1eb"/><rect width="4.621" height="7.172" transform="translate(248.271 338.464)" fill="#77679e"/><path d="M108.892,53.815a3.547,3.547,0,0,0-4.621,0Z" transform="translate(144 284.649)" fill="#fbf1eb"/><path d="M106.5,53.679v7.206a.1.1,0,0,0,.192,0V53.679a.1.1,0,0,0-.192,0" transform="translate(144 284.649)" fill="#fbf1eb"/><path d="M108.8,58.435h-4.421a.1.1,0,0,0,0,.193H108.8a.1.1,0,0,0,0-.193" transform="translate(144 284.649)" fill="#fbf1eb"/><path d="M108.8,56.142h-4.421a.1.1,0,0,0,0,.193H108.8a.1.1,0,0,0,0-.193" transform="translate(144 284.649)" fill="#fbf1eb"/><rect width="4.621" height="0.61" transform="translate(248.271 345.636)" fill="#fbf1eb"/><path d="M.074,77.566H23.918a.1.1,0,0,0,0-.193H.074a.1.1,0,0,0,0,.193" transform="translate(144 284.649)" fill="#fbf1eb"/><path d="M.074,61.687H23.918a.1.1,0,0,0,0-.193H.074a.1.1,0,0,0,0,.193" transform="translate(144 284.649)" fill="#fbf1eb"/><path d="M.074,62.627H23.918a.1.1,0,0,0,0-.193H.074a.1.1,0,0,0,0,.193" transform="translate(144 284.649)" fill="#fbf1eb"/><path d="M1.1,38.476,8.246,23.554H30.271V38.476Z" transform="translate(144 284.649)" fill="#9d6a43"/><path d="M23.948,36.706,29.4,25.331l.761-1.59c.053-.111-.113-.209-.166-.1L24.54,35.019l-.761,1.59c-.053.111.113.209.166.1" transform="translate(144 284.649)" fill="#664229"/><path d="M75.863,18.74H32.481l-9.45,19.736H85.313Z" transform="translate(144 284.649)" fill="#9d6a43"/><path d="M85.313,38.476H74.788L65.337,18.74H75.863Z" transform="translate(144 284.649)" fill="#664229"/><path d="M120.158,38.476l-7.146-14.922H73.033l7.146,14.922Z" transform="translate(144 284.649)" fill="#9d6a43"/><path d="M123.344,38.476h-7.958L108.24,23.554H116.2Z" transform="translate(144 284.649)" fill="#664229"/><rect width="2.875" height="4.051" transform="translate(205.623 357.967)" fill="#f0ccb9"/><rect width="1.222" height="1.222" transform="translate(206.027 356.745)" fill="#f0ccb9"/><rect width="2.875" height="4.051" transform="translate(217.732 357.967)" fill="#f0ccb9"/><rect width="1.222" height="1.222" transform="translate(218.136 356.745)" fill="#f0ccb9"/><rect width="1.222" height="2.289" transform="translate(218.136 333.875)" fill="#f0ccb9"/><rect width="2.875" height="4.051" transform="translate(193.514 357.967)" fill="#f0ccb9"/><rect width="1.222" height="1.222" transform="translate(193.918 356.745)" fill="#f0ccb9"/><rect width="2.875" height="4.051" transform="translate(181.406 357.967)" fill="#f0ccb9"/><rect width="6.905" height="2.792" transform="translate(182.843 359.226)" fill="#fbf1eb"/><rect width="6.905" height="2.792" transform="translate(194.952 359.226)" fill="#fbf1eb"/><rect width="6.905" height="2.792" transform="translate(207.249 359.226)" fill="#fbf1eb"/><rect width="1.222" height="1.222" transform="translate(181.809 356.745)" fill="#f0ccb9"/><rect width="1.222" height="2.289" transform="translate(206.027 333.875)" fill="#f0ccb9"/><rect width="1.222" height="2.289" transform="translate(193.918 333.875)" fill="#f0ccb9"/><rect width="1.222" height="2.289" transform="translate(181.809 333.875)" fill="#f0ccb9"/><rect width="2.875" height="4.051" transform="translate(169.297 357.967)" fill="#f0ccb9"/><rect width="6.905" height="2.792" transform="translate(170.923 359.226)" fill="#fbf1eb"/><path d="M26.921,75.278h6.327a.1.1,0,0,0,0-.192H26.921a.1.1,0,0,0,0,.192" transform="translate(144 284.649)" fill="#f0ccb9"/><rect width="1.222" height="1.222" transform="translate(169.701 356.745)" fill="#f0ccb9"/><rect width="1.222" height="2.289" transform="translate(169.701 333.875)" fill="#f0ccb9"/><rect width="4.407" height="1.222" transform="translate(225.091 356.745)" fill="#fbf1eb"/><rect width="6.905" height="4.051" transform="translate(223.842 357.967)" fill="#fbf1eb"/><rect width="5.405" height="2.792" transform="translate(220.607 359.226)" fill="#f0ccb9"/><rect width="3.987" height="4.051" transform="translate(226.76 357.967)" fill="#f0ccb9"/><rect width="1.861" height="1.222" transform="translate(227.637 356.745)" fill="#f0ccb9"/><rect width="0.749" height="20.581" transform="translate(226.011 336.164)" fill="#fbf1eb"/><rect width="0.749" height="20.581" transform="translate(217.689 336.164)" fill="#f0ccb9"/><rect width="0.749" height="20.581" transform="translate(205.58 336.164)" fill="#f0ccb9"/><rect width="0.749" height="20.581" transform="translate(181.363 336.164)" fill="#f0ccb9"/><path d="M22.308,39.492l-.733-1.011,27.34-19.834,1.064.771Z" transform="translate(144 284.649)" fill="#fbf1eb"/><path d="M75.523,39.492l.733-1.011L48.916,18.647l-1.063.771Z" transform="translate(144 284.649)" fill="#fbf1eb"/><path d="M48.937,20.208,74.064,38.477H23.708Z" transform="translate(144 284.649)" fill="#fbf1eb"/><path d="M74.36,38.572H23.411L48.937,20.088ZM24,38.379H73.768L48.937,20.326Z" transform="translate(144 284.649)" fill="#f0ccb9"/><path d="M21.39,38.558v4.686a.1.1,0,0,0,.193,0V38.558a.1.1,0,0,0-.193,0" transform="translate(144 284.649)" fill="#f0ccb9"/><path d="M21.39,90.481v8.768a.1.1,0,0,0,.193,0V90.481a.1.1,0,0,0-.193,0" transform="translate(144 284.649)" fill="#f0ccb9"/><rect width="1.288" height="2.289" transform="translate(172.979 333.875)" fill="#fbf1eb"/><path d="M30.173,84.19A4.17,4.17,0,0,0,26,88.36h0V96.7h8.341V88.361a4.17,4.17,0,0,0-4.169-4.171h0" transform="translate(144 284.649)" fill="#b15830"/><path d="M55.546,84.19a4.17,4.17,0,0,0-4.17,4.17h0V96.7h8.341V88.361a4.17,4.17,0,0,0-4.169-4.171h0" transform="translate(144 284.649)" fill="#b15830"/><path d="M68.237,84.19a4.17,4.17,0,0,0-4.171,4.169V96.7h8.341V88.361a4.17,4.17,0,0,0-4.169-4.171h0" transform="translate(144 284.649)" fill="#c96e44"/><path d="M68.233,84.188a4.172,4.172,0,0,0-4.172,4.172V96.7H72.4V88.36a4.172,4.172,0,0,0-4.172-4.172" transform="translate(144 284.649)" fill="#b15830"/><path d="M21.681,45.932H76.192a.1.1,0,0,0,0-.193H21.681a.1.1,0,0,0,0,.193" transform="translate(144 284.649)" fill="#f0ccb9"/><path d="M21.574,79.167H76.256a.1.1,0,0,0,0-.193H21.574a.1.1,0,0,0,0,.193" transform="translate(144 284.649)" fill="#f0ccb9"/><path d="M25.4,97.319H73.022a.1.1,0,0,0,0-.193H25.4a.1.1,0,0,0,0,.193" transform="translate(144 284.649)" fill="#f0ccb9"/><path d="M24.966,98.129H73.489a.1.1,0,0,0,0-.193H24.966a.1.1,0,0,0,0,.193" transform="translate(144 284.649)" fill="#f0ccb9"/><path d="M24.5,98.939H73.946a.1.1,0,0,0,0-.193H24.5a.1.1,0,0,0,0,.193" transform="translate(144 284.649)" fill="#f0ccb9"/><path d="M44.7,88.745H41.019l.83-4.2-.82-1.8.1-.032a5.969,5.969,0,0,1,3.452,0l.105.032-.82,1.8Zm-3.448-.193h3.214l-.8-4.028.754-1.656a5.77,5.77,0,0,0-3.128,0l.754,1.656Z" transform="translate(144 284.649)" fill="#f0ccb9"/><path d="M47.966,86.689a5.356,5.356,0,0,0-3.579-3.481,1.047,1.047,0,0,0-.085.175,5.165,5.165,0,0,1,3.458,3.3l-1.9,1.253h-6l-1.9-1.253A5.165,5.165,0,0,1,41.381,83.4c-.024-.06-.049-.119-.076-.178a5.354,5.354,0,0,0-3.552,3.473l-.023.07L39.8,88.129h6.118l2.071-1.366Z" transform="translate(144 284.649)" fill="#f0ccb9"/><path d="M42.86,84.19a4.17,4.17,0,0,0-4.17,4.17h0V96.7h8.341V88.361a4.17,4.17,0,0,0-4.169-4.171h0" transform="translate(144 284.649)" fill="#b15830"/><path d="M21.574,77.369H66.931c2.207,0,4.416.018,6.623,0h.178a.1.1,0,0,0,0-.193H28.375c-2.208,0-4.416-.018-6.623,0h-.178a.1.1,0,0,0,0,.193" transform="translate(144 284.649)" fill="#f0ccb9"/><path d="M46.734,49.417h4.012a.1.1,0,0,0,0-.192H46.734a.1.1,0,0,0,0,.192" transform="translate(144 284.649)" fill="#f0ccb9"/><path d="M58.842,49.417h4.012a.1.1,0,0,0,0-.192H58.842a.1.1,0,0,0,0,.192" transform="translate(144 284.649)" fill="#f0ccb9"/><path d="M70.951,49.417h4.012a.1.1,0,0,0,0-.192H70.951a.1.1,0,0,0,0,.192" transform="translate(144 284.649)" fill="#f0ccb9"/><path d="M34.624,49.417h4.012a.1.1,0,0,0,0-.192H34.624a.1.1,0,0,0,0,.192" transform="translate(144 284.649)" fill="#f0ccb9"/><path d="M28.979,49.417H31.8a.1.1,0,0,0,0-.192H28.979a.1.1,0,0,0,0,.192" transform="translate(144 284.649)" fill="#f0ccb9"/><path d="M81.091,49.417h2.816a.1.1,0,0,0,.068-.124.1.1,0,0,0-.068-.068H81.091a.1.1,0,0,0,0,.192" transform="translate(144 284.649)" fill="#f0ccb9"/><path d="M22.515,49.417h4.012a.1.1,0,0,0,0-.192H22.515a.1.1,0,0,0,0,.192" transform="translate(144 284.649)" fill="#f0ccb9"/><path d="M69.25,84.315A4.172,4.172,0,0,0,66.1,88.36V96.7H64.062V88.36a4.174,4.174,0,0,1,5.188-4.045" transform="translate(144 284.649)" fill="#f0ccb9"/><path d="M56.562,84.315a4.172,4.172,0,0,0-3.153,4.045V96.7H51.374V88.36a4.174,4.174,0,0,1,5.188-4.045" transform="translate(144 284.649)" fill="#f0ccb9"/><path d="M43.877,84.315a4.172,4.172,0,0,0-3.153,4.045V96.7H38.689V88.36a4.174,4.174,0,0,1,5.188-4.045" transform="translate(144 284.649)" fill="#f0ccb9"/><path d="M31.191,84.315a4.172,4.172,0,0,0-3.153,4.045V96.7H26V88.36a4.174,4.174,0,0,1,5.188-4.045" transform="translate(144 284.649)" fill="#f0ccb9"/><path d="M51.871,29.921a2.956,2.956,0,1,1-2.956-2.956,2.955,2.955,0,0,1,2.956,2.956" transform="translate(144 284.649)" fill="#f0ccb9"/><path d="M33.179,74.577v2.637a.1.1,0,0,0,.193,0V74.577a.1.1,0,0,0-.193,0" transform="translate(144 284.649)" fill="#f0ccb9"/><path d="M45.289,74.577v2.637a.1.1,0,0,0,.193,0V74.577a.1.1,0,0,0-.193,0" transform="translate(144 284.649)" fill="#f0ccb9"/><path d="M43.8,75.187v2.027a.1.1,0,0,0,.193,0V75.187a.1.1,0,0,0-.193,0" transform="translate(144 284.649)" fill="#f0ccb9"/><path d="M42.487,75.187v2.027a.1.1,0,0,0,.193,0V75.187a.1.1,0,0,0-.193,0" transform="translate(144 284.649)" fill="#f0ccb9"/><path d="M41.171,75.187v2.027a.1.1,0,0,0,.193,0V75.187a.1.1,0,0,0-.193,0" transform="translate(144 284.649)" fill="#f0ccb9"/><path d="M39.855,75.187v2.027a.1.1,0,0,0,.193,0V75.187a.1.1,0,0,0-.193,0" transform="translate(144 284.649)" fill="#f0ccb9"/><path d="M57.4,74.577v2.637a.1.1,0,0,0,.193,0V74.577a.1.1,0,0,0-.193,0" transform="translate(144 284.649)" fill="#f0ccb9"/><path d="M69.509,74.577v2.637a.1.1,0,0,0,.193,0V74.577a.1.1,0,0,0-.193,0" transform="translate(144 284.649)" fill="#f0ccb9"/><path d="M48.886,44.423h0a1.8,1.8,0,0,1-1.8-1.8v-2.2H50.68v2.2a1.8,1.8,0,0,1-1.8,1.8" transform="translate(144 284.649)" fill="#f0ccb9"/><path d="M38.843,75.278h6.542a.1.1,0,0,0,0-.192H38.843a.1.1,0,0,0,0,.192" transform="translate(144 284.649)" fill="#f0ccb9"/><path d="M31.882,75.187v2.027a.1.1,0,0,0,.193,0V75.187a.1.1,0,0,0-.193,0" transform="translate(144 284.649)" fill="#f0ccb9"/><path d="M30.567,75.187v2.027a.1.1,0,0,0,.193,0V75.187a.1.1,0,0,0-.193,0" transform="translate(144 284.649)" fill="#f0ccb9"/><path d="M29.251,75.187v2.027a.1.1,0,0,0,.193,0V75.187a.1.1,0,0,0-.193,0" transform="translate(144 284.649)" fill="#f0ccb9"/><path d="M27.935,75.187v2.027a.1.1,0,0,0,.192,0V75.187a.1.1,0,0,0-.192,0" transform="translate(144 284.649)" fill="#f0ccb9"/><path d="M50.951,75.278H57.5a.1.1,0,0,0,.068-.124.1.1,0,0,0-.068-.068H50.951a.1.1,0,0,0,0,.192" transform="translate(144 284.649)" fill="#f0ccb9"/><path d="M55.911,75.187v2.027a.1.1,0,0,0,.193,0V75.187a.1.1,0,0,0-.193,0" transform="translate(144 284.649)" fill="#f0ccb9"/><path d="M54.6,75.187v2.027a.1.1,0,0,0,.193,0V75.187a.1.1,0,0,0-.193,0" transform="translate(144 284.649)" fill="#f0ccb9"/><path d="M53.28,75.187v2.027a.1.1,0,0,0,.193,0V75.187a.1.1,0,0,0-.193,0" transform="translate(144 284.649)" fill="#f0ccb9"/><path d="M51.964,75.187v2.027a.1.1,0,0,0,.193,0V75.187a.1.1,0,0,0-.193,0" transform="translate(144 284.649)" fill="#f0ccb9"/><path d="M63.248,75.278h6.327a.1.1,0,0,0,.068-.124.1.1,0,0,0-.068-.068H63.248a.1.1,0,0,0,0,.192" transform="translate(144 284.649)" fill="#f0ccb9"/><path d="M68.209,75.187v2.027a.1.1,0,0,0,.193,0V75.187a.1.1,0,0,0-.193,0" transform="translate(144 284.649)" fill="#f0ccb9"/><path d="M66.893,75.187v2.027a.1.1,0,0,0,.193,0V75.187a.1.1,0,0,0-.193,0" transform="translate(144 284.649)" fill="#f0ccb9"/><path d="M65.577,75.187v2.027a.1.1,0,0,0,.192,0V75.187a.1.1,0,0,0-.192,0" transform="translate(144 284.649)" fill="#f0ccb9"/><path d="M64.261,75.187v2.027a.1.1,0,0,0,.193,0V75.187a.1.1,0,0,0-.193,0" transform="translate(144 284.649)" fill="#f0ccb9"/><path d="M76.75,75.278h5.165a.1.1,0,0,0,0-.192H76.75a.1.1,0,0,0,0,.192" transform="translate(144 284.649)" fill="#cf9f86"/><path d="M80.644,75.187v2.027a.1.1,0,0,0,.193,0V75.187a.1.1,0,0,0-.193,0" transform="translate(144 284.649)" fill="#cf9f86"/><path d="M79.328,75.187v2.027a.1.1,0,0,0,.192,0V75.187a.1.1,0,0,0-.192,0" transform="translate(144 284.649)" fill="#cf9f86"/><path d="M78.012,75.187v2.027a.1.1,0,0,0,.193,0V75.187a.1.1,0,0,0-.193,0" transform="translate(144 284.649)" fill="#cf9f86"/><path d="M76.6,74.636v2.578a.1.1,0,0,0,.193,0V74.636a.1.1,0,0,0-.193,0" transform="translate(144 284.649)" fill="#cf9f86"/><path d="M.245,91.874H21.457a.1.1,0,0,0,0-.193H.245a.1.1,0,0,0,0,.193" transform="translate(144 284.649)" fill="#f0ccb9"/><path d="M87.007,91.874h26.8a.1.1,0,0,0,0-.193h-26.8a.1.1,0,0,0,0,.193" transform="translate(144 284.649)" fill="#f0ccb9"/><path d="M95.066,28.739l-.009-.131H93.049l.974,1.8-1.337,2.47v4.38h2.762l1.859-4.38Z" transform="translate(144 284.649)" fill="#664229"/><path d="M95.359,37.257H90.738V32.879l2.311-4.268,2.311,4.268Z" transform="translate(144 284.649)" fill="#d37951"/><rect width="3.546" height="3.91" transform="translate(235.275 317.996)" fill="#77679e"/><path d="M92.879,33.026v4.13a.1.1,0,0,0,.193,0v-4.13a.1.1,0,0,0-.193,0" transform="translate(144 284.649)" fill="#fbf1eb"/><rect width="3.546" height="0.487" transform="translate(235.275 317.509)" fill="#fbf1eb"/><rect width="4.621" height="0.487" transform="translate(234.737 321.419)" fill="#fbf1eb"/><path d="M19.563,28.739l-.009-.131H17.545l.973,1.8-1.337,2.47v4.38h2.762l1.859-4.38Z" transform="translate(144 284.649)" fill="#664229"/><path d="M19.855,37.257H15.234V32.879l2.311-4.268,2.31,4.268Z" transform="translate(144 284.649)" fill="#d37951"/><rect width="3.546" height="3.91" transform="translate(159.772 317.996)" fill="#77679e"/><path d="M17.38,33.026v4.13a.1.1,0,0,0,.193,0v-4.13a.1.1,0,0,0-.193,0" transform="translate(144 284.649)" fill="#fbf1eb"/><rect width="3.546" height="0.487" transform="translate(159.772 317.509)" fill="#fbf1eb"/><rect width="4.621" height="0.487" transform="translate(159.234 321.419)" fill="#fbf1eb"/><path d="M73.826,77.369h8.088a.1.1,0,0,0,0-.193H73.826a.1.1,0,0,0,0,.193" transform="translate(144 284.649)" fill="#cf9f86"/><path d="M82.856,77.369h3.829a.1.1,0,0,0,0-.193H82.856a.1.1,0,0,0,0,.193" transform="translate(144 284.649)" fill="#cf9f86"/><path d="M76.3,79.167h10.63a.1.1,0,0,0,0-.193H76.3a.1.1,0,0,0,0,.193" transform="translate(144 284.649)" fill="#cf9f86"/><path d="M76.3,45.932h10.63a.1.1,0,0,0,0-.193H76.3a.1.1,0,0,0,0,.193" transform="translate(144 284.649)" fill="#cf9f86"/><path d="M113.886,40.594h10.7a.1.1,0,0,0,0-.193h-10.7a.1.1,0,0,0,0,.193" transform="translate(144 284.649)" fill="#cf9f86"/><path d="M117.489,91.682h-3.6a.1.1,0,0,0,0,.193h3.6a.1.1,0,0,0,0-.193" transform="translate(144 284.649)" fill="#cf9f86"/><path d="M76.311,94.527H86.93a.1.1,0,0,0,0-.193H76.311a.1.1,0,0,0,0,.193" transform="translate(144 284.649)" fill="#cf9f86"/></g><g transform="translate(499 478) rotate(90)"><g fill="#fff" stroke="#074e95" stroke-width="1.5"><circle cx="19" cy="19" r="19" stroke="none"/><circle cx="19" cy="19" r="18.25" fill="none"/></g><path d="M2314.321-2439.4l-9.1,8.19,9.1,8.19" transform="translate(2330.771 -2412.52) rotate(180)" fill="none" stroke="#074e95" stroke-linecap="round" stroke-linejoin="round" stroke-width="1.5"/></g><g transform="translate(472 20)"><path d="M2314.321-2439.4l-9.1,8.19,9.1,8.19" transform="translate(-2423.02 -2305.221) rotate(90)" fill="none" stroke="#babcbf" stroke-linecap="round" stroke-linejoin="round" stroke-width="1.5"/></g></g></svg>