<svg xmlns="http://www.w3.org/2000/svg" width="38.299" height="38.306" viewBox="0 0 38.299 38.306"><g transform="translate(-518 -220.083)"><path d="M37.542,76.393A18.733,18.733,0,1,1,18.809,57.661,18.733,18.733,0,0,1,37.542,76.393" transform="translate(518 163.224)" fill="#fff"/><path d="M37.518,76.009a18.563,18.563,0,0,1-12.06,17.27A18.39,18.39,0,1,1,22.8,57.988,18.346,18.346,0,0,1,37.518,76.009a.391.391,0,0,0,.782,0A19.164,19.164,0,0,0,4.332,63.832,19.168,19.168,0,0,0,23,94.785,19.322,19.322,0,0,0,38.072,78.96a19.971,19.971,0,0,0,.228-2.951.391.391,0,0,0-.782,0" transform="translate(518 163.224)" fill="#006dae"/><path d="M9.118,71.3V82.973L19.586,88.8l9.56-7.788V69.88l-9.491-6.665Z" transform="translate(518 163.224)" fill="#cf8048"/><path d="M9.566,71.733q4.968,3.188,9.892,6.44c.422.279.814-.4.4-.675q-4.925-3.253-9.892-6.441c-.425-.272-.818.4-.4.676" transform="translate(518 163.224)" fill="#2d2745"/><path d="M19.932,77.943l9.038-7.462c.388-.321-.168-.872-.554-.554L19.379,77.39c-.389.321.167.871.553.553" transform="translate(518 163.224)" fill="#2d2745"/><path d="M14.384,74.476l9.4-7.764c.389-.321-.167-.872-.553-.553l-9.4,7.764c-.389.321.167.871.553.553" transform="translate(518 163.224)" fill="#2d2745"/><path d="M20.047,88.3V77.855a.391.391,0,0,0-.782,0V88.3a.391.391,0,0,0,.782,0" transform="translate(518 163.224)" fill="#2d2745"/></g></svg>