<svg xmlns="http://www.w3.org/2000/svg" width="38.3" height="38.306" viewBox="0 0 38.3 38.306"><g transform="translate(-761.138 -236.067)"><path d="M281.021,92.361a18.732,18.732,0,1,1-18.732-18.732,18.732,18.732,0,0,1,18.732,18.732" transform="translate(518 163.224)" fill="#fff"/><path d="M280.656,91.993a18.346,18.346,0,1,1-.221-2.876,18.841,18.841,0,0,1,.221,2.876.391.391,0,0,0,.782,0,19.168,19.168,0,1,0-.228,2.951,19.968,19.968,0,0,0,.228-2.951.391.391,0,0,0-.782,0" transform="translate(518 163.224)" fill="#006dae"/><path d="M261.907,81.683a6.745,6.745,0,0,0-6.745,6.745c0,2.632,3.37,9.335,5.346,13.04a1.584,1.584,0,0,0,2.8,0c1.976-3.705,5.346-10.408,5.346-13.04a6.745,6.745,0,0,0-6.743-6.745m0,10.612a3.869,3.869,0,1,1,3.867-3.867,3.868,3.868,0,0,1-3.867,3.867" transform="translate(518 163.224)" fill="#ff624a"/></g></svg>