<svg xmlns="http://www.w3.org/2000/svg" width="38.3" height="38.306" viewBox="0 0 38.3 38.306"><g transform="translate(-581.757 -163.224)"><path d="M101.64,19.153A18.732,18.732,0,1,1,82.908.421,18.732,18.732,0,0,1,101.64,19.153" transform="translate(518 163.224)" fill="#fff"/><path d="M101.275,19.15a18.386,18.386,0,1,1-34.128-9.5,18.389,18.389,0,0,1,33.907,6.625,18.591,18.591,0,0,1,.221,2.876.391.391,0,0,0,.782,0,19.168,19.168,0,1,0-35.586,9.9A19.168,19.168,0,0,0,101.829,22.1a19.972,19.972,0,0,0,.228-2.951.391.391,0,0,0-.782,0" transform="translate(518 163.224)" fill="#006dae"/><path d="M98.634,25.4l-8.806-6.927L72.779,22.292s-.313.273.071.68l.023.023.009.011,8.047,8.526a.666.666,0,0,0,.678.179l16.781-5.187a.368.368,0,0,0,.25-.255l.128-.466a.374.374,0,0,0-.132-.4" transform="translate(518 163.224)" fill="#b0b5c2"/><path d="M89.788,18.24,88,6.489a.256.256,0,0,0-.278-.217L70.872,7.954a.258.258,0,0,0-.177.1h0l-.231.284a.258.258,0,0,0-.059.2l2.058,13.54a.255.255,0,0,0,.309.211l.245-.054.029,0,16.545-3.7a.257.257,0,0,0,.2-.289" transform="translate(518 163.224)" fill="#b0b5c2"/><path d="M89.746,17.959,72.7,21.775,70.779,9.132,88.141,7.4Z" transform="translate(518 163.224)"/><path d="M98.632,25.944a1.293,1.293,0,0,1-.443.169l-.9.279-3.074.95L90.2,28.582,86.17,29.828l-3.145.973c-.433.133-.864.278-1.3.4-.387.11-.608-.135-.838-.378l-.769-.816-2.611-2.766-2.884-3.056-1.71-1.811-.082-.087c-.036-.039-.094.019-.058.058l1.244,1.317,2.741,2.905,2.824,2.992c.477.506.95,1.017,1.433,1.518a.767.767,0,0,0,.83.173l.667-.206,2.782-.86,3.918-1.211,4.147-1.282,3.388-1.047,1.722-.532A.622.622,0,0,0,98.69,26c.041-.033-.017-.091-.058-.058" transform="translate(518 163.224)" fill="#0f1e2e"/><path d="M89.777,18.4l-3.319.757-3.313.755-3.31.755-3.313.755-3.318.757-.413.094c-.051.012-.03.091.022.079l3.319-.757,3.313-.755,3.31-.755,3.313-.755,3.318-.757.413-.094c.051-.012.029-.091-.022-.079" transform="translate(518 163.224)" fill="#0f1e2e"/><path d="M85.317,26.718l.4.411.692.714.219.226a.627.627,0,0,0,.343.2.961.961,0,0,0,.455-.074l.635-.2.9-.28.988-.306.892-.277.618-.191.147-.046a.344.344,0,0,0,.224-.18.335.335,0,0,0-.093-.395l-.189-.168-.72-.641-.543-.485a.588.588,0,0,0-.474-.157,1.011,1.011,0,0,0-.144.036l-.5.15-.837.252-.987.3-.939.282-.694.209-.2.059a.887.887,0,0,0-.113.039.323.323,0,0,0-.178.232.336.336,0,0,0,.089.288c.036.039.094-.02.058-.058a.245.245,0,0,1,.105-.4l.093-.028.535-.161.849-.255.974-.293.912-.275.671-.2.183-.056a.73.73,0,0,1,.159-.035.493.493,0,0,1,.353.119l.033.03.219.2.725.645.5.444a.276.276,0,0,1,.083.114.245.245,0,0,1-.058.255.338.338,0,0,1-.145.073l-.448.139-.791.245-.956.3-.947.293-.77.239-.412.128a.52.52,0,0,1-.305.011.5.5,0,0,1-.217-.132c-.016-.018-.033-.035-.05-.052l-.569-.588-.618-.638c-.036-.036-.071-.073-.106-.109s-.1.02-.058.058" transform="translate(518 163.224)" fill="#0f1e2e"/><path d="M90.437,25.2l-1.965.589-1.959.587-1.108.332a.041.041,0,0,0,.022.079l1.965-.589,1.959-.587,1.108-.332a.041.041,0,0,0-.022-.079" transform="translate(518 163.224)" fill="#0f1e2e"/><path d="M88.136,25.917l-.429-.38c-.039-.035-.1.023-.058.058l.429.38c.039.035.1-.023.058-.058" transform="translate(518 163.224)" fill="#0f1e2e"/><path d="M70.816,9.1q-.059-.387-.118-.774a.542.542,0,0,1-.012-.155c.006-.053-.076-.052-.082,0a.584.584,0,0,0,.011.15l.031.2c.025.161.049.322.073.482l.018.116c.008.052.087.03.079-.022" transform="translate(518 163.224)" fill="#0f1e2e"/><path d="M73.06,22.187a.258.258,0,0,1-.135,0,.212.212,0,0,1-.117-.091.569.569,0,0,1-.051-.212c0-.03-.008-.059-.013-.088a.041.041,0,0,0-.079.021l.03.2a.3.3,0,0,0,.195.246.33.33,0,0,0,.192,0c.051-.011.03-.091-.022-.079" transform="translate(518 163.224)" fill="#0f1e2e"/><path d="M80.046,7.691a.2.2,0,0,1-.2.223.26.26,0,0,1-.252-.223.2.2,0,0,1,.2-.223.26.26,0,0,1,.252.223" transform="translate(518 163.224)" fill="#0f1e2e"/><path d="M74.762,22.57l4.61,4.682a.274.274,0,0,0,.272.071l14.285-4.174a.137.137,0,0,0,.05-.236L89.5,19.131a.273.273,0,0,0-.237-.058L74.829,22.341a.137.137,0,0,0-.067.229" transform="translate(518 163.224)" fill="#0f1e2e"/><path d="M75.214,23.3l.4-.1,1.091-.268,1.613-.4,1.961-.483,2.148-.528,2.175-.536,2.028-.5,1.713-.422,1.228-.3c.194-.047.389-.092.582-.143l.026-.006a.041.041,0,0,0-.022-.079l-.4.1-1.091.269-1.614.4-1.961.483-2.147.529-2.175.536-2.028.5-1.713.422-1.228.3c-.194.048-.389.092-.582.144l-.026.006c-.051.012-.029.092.022.079" transform="translate(518 163.224)" fill="#b0b5c2"/><path d="M76.394,24.311l.4-.1,1.086-.277,1.6-.408,1.951-.5,2.136-.546,2.163-.552,2.018-.515,1.7-.433,1.222-.312c.193-.049.387-.095.578-.148l.025-.006a.041.041,0,0,0-.021-.08l-.4.1-1.086.277-1.6.409-1.951.5-2.137.545-2.164.552-2.017.515-1.7.434-1.222.312c-.192.049-.387.1-.58.147l-.025.007a.041.041,0,0,0,.023.079" transform="translate(518 163.224)" fill="#b0b5c2"/><path d="M77.265,25.379l.406-.108,1.1-.293,1.627-.432,1.984-.527,2.173-.578,2.2-.585,2.039-.542,1.734-.461,1.243-.33c.2-.053.394-.1.589-.157l.026-.007a.041.041,0,0,0-.022-.079l-.406.108-1.1.293-1.627.432-1.984.528-2.173.577-2.2.585-2.039.542-1.735.461-1.243.331c-.2.052-.393.1-.588.156l-.026.007a.041.041,0,0,0,.022.079" transform="translate(518 163.224)" fill="#b0b5c2"/><path d="M78.461,26.516l.4-.116,1.086-.314,1.615-.466,1.958-.566,2.151-.621,2.172-.627,2.024-.585,1.711-.494,1.23-.355c.194-.056.389-.109.582-.168l.025-.007a.041.041,0,0,0-.022-.079l-.4.116-1.086.314-1.615.466-1.958.565-2.151.622-2.171.627-2.025.584-1.711.494-1.23.356c-.194.056-.389.109-.582.168l-.025.007a.041.041,0,0,0,.022.079" transform="translate(518 163.224)" fill="#b0b5c2"/><path d="M85.2,24.5c-.039-.033-.075-.067-.113-.1l-.308-.275-.453-.405c-.185-.165-.371-.329-.554-.494l-.61-.543-.612-.546c-.189-.17-.38-.339-.57-.509L81.5,21.2q-.173-.156-.348-.31c-.055-.049-.108-.1-.164-.147l-.007-.007c-.039-.035-.1.023-.058.058l.113.1.308.275.453.4.554.494.609.543.612.546c.189.17.381.34.571.509.16.144.322.287.481.431l.348.309c.055.049.109.1.165.148l.008.006c.039.035.1-.023.058-.058" transform="translate(518 163.224)" fill="#b0b5c2"/><path d="M83.181,26.446l-.145-.133-.393-.359-.58-.531-.708-.647-.776-.71-.785-.718-.728-.665-.618-.566-.442-.405-.211-.193-.009-.008c-.039-.035-.1.022-.058.058l.145.133.392.359.581.531.708.648.775.709.786.718.727.666.619.566.442.4.211.193.009.008c.039.036.1-.022.058-.058" transform="translate(518 163.224)" fill="#b0b5c2"/><path d="M78.054,23.8l-.205-.194-.492-.466-.593-.562-.515-.487c-.083-.079-.164-.161-.25-.237l0,0c-.038-.036-.1.022-.058.058l.205.194.492.467.593.561.515.488c.083.078.165.161.25.237l0,0c.038.036.1-.022.058-.058" transform="translate(518 163.224)" fill="#b0b5c2"/><path d="M81.452,27.028l-.232-.22-.555-.525-.673-.638-.58-.549c-.093-.089-.185-.181-.282-.267l0,0c-.038-.036-.1.022-.058.058l.232.22.555.526.673.637.58.549c.094.089.186.181.282.267l0,0c.038.036.1-.022.058-.058" transform="translate(518 163.224)" fill="#b0b5c2"/><path d="M86.546,24.116l-.109-.1-.3-.268-.439-.4-.537-.485-.588-.531-.594-.536-.553-.5-.468-.423-.337-.3c-.053-.048-.105-.1-.159-.144l-.007-.006c-.039-.035-.1.022-.058.058l.109.1.3.268.44.4.537.485.588.531.593.535.554.5.468.423.336.3.16.144.007.006c.039.035.1-.023.058-.058" transform="translate(518 163.224)" fill="#b0b5c2"/><path d="M87.885,23.725l-.106-.1-.29-.264-.43-.393-.523-.477-.572-.523-.578-.527-.539-.492-.456-.416-.327-.3-.156-.143-.007-.006c-.039-.035-.1.023-.058.058l.106.1.29.265.43.392.523.477.572.523.578.528.539.492.456.416.328.3.155.142.007.006c.039.036.1-.022.058-.058" transform="translate(518 163.224)" fill="#b0b5c2"/><path d="M90.181,24.27l-.133-.121-.362-.328-.534-.485-.651-.592-.714-.647-.723-.657-.669-.607-.57-.517-.408-.371-.193-.175-.008-.008c-.039-.035-.1.023-.058.058l.133.122.362.328.534.485.651.591.714.648.723.656.669.608q.285.258.569.517l.408.37c.065.058.129.118.194.175l.008.008c.039.035.1-.022.058-.058" transform="translate(518 163.224)" fill="#b0b5c2"/><path d="M91.541,23.9l-.133-.119-.363-.324-.535-.476-.654-.584-.714-.637-.723-.645-.674-.6L87.177,20l-.41-.365-.194-.173-.008-.007c-.039-.035-.1.022-.058.058l.133.119.363.323.534.477.655.583.714.637.723.645.674.6.568.506.41.366c.065.057.128.116.194.173l.008.007c.039.035.1-.023.058-.058" transform="translate(518 163.224)" fill="#b0b5c2"/><path d="M92.773,23.48l-.131-.115-.355-.311-.528-.463-.641-.562-.7-.615-.708-.621-.663-.581-.56-.491-.4-.352c-.063-.056-.126-.112-.19-.167l-.008-.007c-.04-.035-.1.023-.058.058l.131.115.356.311.527.463.641.562.7.615.708.621.663.581.56.491.4.352c.063.056.126.112.19.167l.008.007c.04.035.1-.023.058-.058" transform="translate(518 163.224)" fill="#b0b5c2"/><path d="M84.877,25.937l-.146-.13-.4-.353-.581-.519L83.04,24.3l-.782-.7-.787-.7-.733-.654-.622-.555-.446-.4c-.07-.063-.14-.126-.211-.188L79.45,21.1c-.039-.035-.1.022-.058.058l.146.13.4.353.581.519.714.636.782.7.787.7.733.655q.312.276.622.554l.446.4c.07.062.14.126.211.188l.009.008c.039.035.1-.023.058-.058" transform="translate(518 163.224)" fill="#b0b5c2"/><path d="M89.754,17.9c-.108-.693-.213-1.387-.32-2.08s-.217-1.41-.325-2.115q-.09-.594-.183-1.189l0-.009q-.135-.876-.269-1.752-.162-1.057-.326-2.115-.09-.594-.183-1.189c-.007-.052-.086-.033-.078.019.107.706.217,1.412.325,2.118s.216,1.4.322,2.1c.061.387.12.775.18,1.162v.009q.139.9.276,1.79.162,1.053.323,2.1.09.581.179,1.162c.008.052.088.033.08-.019" transform="translate(518 163.224)" fill="#0f1e2e"/></g></svg>