<svg xmlns="http://www.w3.org/2000/svg" width="38.3" height="38.306" viewBox="0 0 38.3 38.306"><g transform="translate(-699.757 -163.645)"><path d="M219.639,19.571A18.733,18.733,0,1,1,200.907.839a18.732,18.732,0,0,1,18.732,18.732" transform="translate(518 163.224)" fill="#fff"/><path d="M219.275,19.571a18.386,18.386,0,1,1-34.128-9.5,18.377,18.377,0,0,1,34.128,9.5.391.391,0,0,0,.782,0,19.168,19.168,0,1,0-35.586,9.9,19.168,19.168,0,0,0,35.358-6.945,19.972,19.972,0,0,0,.228-2.951.391.391,0,0,0-.782,0" transform="translate(518 163.224)" fill="#006dae"/><path d="M193.942,17.506a71.4,71.4,0,0,0,6.182,4.359l-4.932,6.067a.708.708,0,0,0,.116,1.008l1.264.925a.623.623,0,0,0,.693.03l8.4-5.046s5.406,3.593,6.655,1.894c1.294-1.76-4.793-5.839-4.793-5.839l-.92-10.528a.678.678,0,0,0-.355-.545l-1.165-.605a.651.651,0,0,0-.924.453L202.1,18.112s-4.722-2.38-6.789-3.272l.1-4.711a.668.668,0,0,0-.31-.586.629.629,0,0,0-.91.324l-1.913,4.718L189.3,18.378a.692.692,0,0,0,.1.958l.029.023a.608.608,0,0,0,.656.071Z" transform="translate(518 163.224)" fill="#69f"/><path d="M5.43,3.042a.249.249,0,0,1-.114-.028L-.114.222A.25.25,0,0,1-.222-.114.25.25,0,0,1,.114-.222L5.544,2.57a.25.25,0,0,1-.115.472Z" transform="translate(720.097 181.335)"/><path d="M5.43,3.042a.249.249,0,0,1-.114-.028L-.114.222A.25.25,0,0,1-.222-.114.25.25,0,0,1,.114-.222L5.544,2.57a.25.25,0,0,1-.115.472Z" transform="translate(718.145 185.201)"/></g></svg>