<svg xmlns="http://www.w3.org/2000/svg" width="164.015" height="167.786" viewBox="0 0 164.015 167.786"><g transform="translate(-605.746 -189.916)"><path d="M208.973,92.992c-.285-6.363-5.16-11.746-11.746-11.746a12.122,12.122,0,0,0-8.3,3.44,11.873,11.873,0,0,0-1.907,2.554q-8.25,2.046-16.408,4.429a51.182,51.182,0,0,0-2.724-6.682c-.284-.6-.593-1.175-.927-1.742q2.86-3.372,5.481-6.94c3.5-.423,6.638-3.569,6.474-7.222a7.4,7.4,0,0,0-7.27-7.27c-3.8,0-7.446,3.345-7.27,7.27A8.163,8.163,0,0,0,164.5,70.2c-.323.448-.647.9-.978,1.341-.207.278-.414.552-.621.828l-.235.308c-.647.832-1.313,1.653-1.987,2.466-.345-.351-.7-.7-1.067-1.028a46.023,46.023,0,0,0-13.844-8.6l2.942-11.192c.065-.032.131-.062.2-.1a8.807,8.807,0,0,0,3.78-2.429,8.775,8.775,0,0,0,2.427-3.78,8.842,8.842,0,0,0,1.013-4.524l-.42-3.123a11.736,11.736,0,0,0-3.02-5.183l-2.377-1.836a11.691,11.691,0,0,0-5.929-1.6h-.42a8.841,8.841,0,0,0-4.524,1.011,8.8,8.8,0,0,0-3.78,2.429,8.807,8.807,0,0,0-2.429,3.78,8.843,8.843,0,0,0-1.011,4.526l.42,3.121a11.9,11.9,0,0,0,1.172,2.787q-1.721,6.554-3.446,13.108a49.142,49.142,0,0,0-8.246.909,22.856,22.856,0,0,0-2.664.636L117.5,54.768a6.45,6.45,0,0,0,1.017-3.72,7.4,7.4,0,0,0-7.27-7.272c-3.8,0-7.447,3.345-7.27,7.272a7.676,7.676,0,0,0,3.811,6.377q1.128,5.364,2.257,10.729c-.321.192-.64.39-.951.6a52.421,52.421,0,0,0-5.923,4.53q-4.049-4.116-7.89-8.434c.017-.263.026-.528.028-.8q-.21-1.559-.42-3.121a11.726,11.726,0,0,0-3.02-5.183l-.42-.42a8.807,8.807,0,0,0-3.78-2.429,10.63,10.63,0,0,0-9.05,0,8.8,8.8,0,0,0-3.78,2.429L73,57.7a11.69,11.69,0,0,0-1.6,5.929l.42,3.121a11.708,11.708,0,0,0,3.02,5.183l.42.42a8.8,8.8,0,0,0,3.78,2.429,8.837,8.837,0,0,0,4.524,1.011c.179.007.358.007.535,0q3.378,3.8,6.914,7.442c-.086.1-.179.2-.265.31a52.069,52.069,0,0,0-5.354,7.483,48.9,48.9,0,0,0-2.6,5.526q-3.979-.9-8.011-1.552a7.14,7.14,0,0,0-6.324-3.832c-3.8,0-7.446,3.343-7.27,7.27a7.4,7.4,0,0,0,7.27,7.27,7.215,7.215,0,0,0,3.6-1.007q4,.646,7.96,1.539a43.72,43.72,0,0,0-.511,8.6,55.135,55.135,0,0,0,.886,7.962q-8.21,2.158-16.3,4.75a11.33,11.33,0,0,0-7.384-2.692,12.11,12.11,0,0,0-8.3,3.44,11.927,11.927,0,0,0-3.44,8.306c.284,6.363,5.16,11.744,11.744,11.744a12.118,12.118,0,0,0,8.306-3.44,11.39,11.39,0,0,0,1.341-1.638q9.587-3.143,19.357-5.669c.368.709.756,1.407,1.172,2.091a63.149,63.149,0,0,0,5.75,7.776c.011.015.026.03.037.043l-4.612,7.649-.147.019a7.272,7.272,0,0,0-3.209,1.871q-.568.736-1.138,1.47a7.267,7.267,0,0,0-.993,3.671v.418a7.023,7.023,0,0,0,4.47,6.645,5.48,5.48,0,0,0,2.8.627l1.933-.261a7.255,7.255,0,0,0,3.207-1.869l1.138-1.472a7.236,7.236,0,0,0,.993-3.67V162.2a5.532,5.532,0,0,0-.3-2.05l3.47-5.755a34.289,34.289,0,0,0,4.142,2.705,41.384,41.384,0,0,0,8.444,3.468q-1.492,8.837-3.121,17.654a12.058,12.058,0,0,0-.944.839l-.42.42a13.06,13.06,0,0,0-3.44,8.3,13.059,13.059,0,0,0,3.44,8.306l2.377,1.836a11.691,11.691,0,0,0,5.929,1.6l3.121-.42a11.726,11.726,0,0,0,5.183-3.02l.42-.42a13.06,13.06,0,0,0,3.44-8.3,13.079,13.079,0,0,0-3.4-8.268q1.615-8.862,3.088-17.747a42.479,42.479,0,0,0,7.835-2.244q1.631,5.045,3.336,10.069a7.247,7.247,0,0,0-.511,2.672v.418a7.023,7.023,0,0,0,4.47,6.645,5.478,5.478,0,0,0,2.8.627q.968-.132,1.933-.259a7.272,7.272,0,0,0,3.209-1.871q.568-.736,1.136-1.47a7.25,7.25,0,0,0,.994-3.671v-.418a7.023,7.023,0,0,0-4.47-6.645c-.118-.062-.237-.118-.356-.17q-1.76-5.236-3.446-10.5c2.039-1.308,4-2.748,5.921-4.227q3.35,4.114,6.914,8.046a9.885,9.885,0,0,0-.511,3.427c.285,6.363,5.16,11.744,11.746,11.744a12.11,12.11,0,0,0,8.3-3.44,11.926,11.926,0,0,0,3.44-8.3,12.125,12.125,0,0,0-9.052-11.429q-4.29-4.519-8.283-9.307c-.248-.3-.489-.6-.733-.9,1.119-1.3,2.159-2.673,3.162-4.1a24.9,24.9,0,0,0,2.289-4.1,69.81,69.81,0,0,0,9.667,5.2c.026.054.052.11.08.164a7.475,7.475,0,0,0,6.643,4.47c.645-.088,1.289-.174,1.935-.259a7.276,7.276,0,0,0,3.207-1.871q.568-.736,1.138-1.47a7.248,7.248,0,0,0,.992-3.671V134.1a7.023,7.023,0,0,0-4.47-6.645,5.48,5.48,0,0,0-2.8-.627l-1.933.261a7.334,7.334,0,0,0-1.5.6c-.616-.284-1.229-.575-1.836-.879q-1.978-.991-3.884-2.125-1.8-1.072-3.515-2.265c-.231-.16-.461-.325-.69-.489.224-1.446.392-2.9.573-4.345a68.632,68.632,0,0,0,.451-10.218q8.8-2.628,17.723-4.849a11.32,11.32,0,0,0,6.774,2.214,12.123,12.123,0,0,0,8.306-3.44,11.939,11.939,0,0,0,3.44-8.306" transform="translate(560.781 158.17)" fill="#83a00a"/><path d="M127.274,71.547l-.132-.063a1.232,1.232,0,0,0-.009-.642q-1-3.8-1.992-7.6a1.273,1.273,0,0,0-2.3-.3A7.649,7.649,0,0,0,126,73.721c1.464.66,2.746-1.507,1.27-2.173" transform="translate(627.241 184.654)" fill="#5f7407"/><path d="M82.926,63.247a10.457,10.457,0,0,0-4.263,19.745,1.2,1.2,0,0,0,1.3-.071c.11.03.22.058.336.084,1.578.338,2.254-2.088.668-2.427-3.17-.681-3.4-5.074-2.834-7.613a11.251,11.251,0,0,1,5.423-7.373,1.268,1.268,0,0,0-.634-2.345" transform="translate(585.057 185.434)" fill="#5f7407"/><path d="M104.436,85.341a1.249,1.249,0,0,0-1.769-.756,1.047,1.047,0,0,0-1.584.116C99.551,86.55,97.51,88.332,95,88.5c-1.843.125-4.054-.937-4.63-2.785-.067-.287-.123-.576-.166-.866-.207-1.386-2.651-1.073-2.472.336.015.112.039.222.058.332.707,4.815,4.485,9.166,9.639,9.016,4.658-.136,8.4-4.559,7.011-9.194" transform="translate(597.787 203.363)" fill="#5f7407"/><path d="M99.391,44.871a8.536,8.536,0,0,1-4.365-6.709c-.132-1.6-2.651-1.616-2.517,0,.021.239.047.476.08.711a1.157,1.157,0,0,0-.457.951,7.434,7.434,0,0,0,6.625,7.391c1.282.16,1.647-1.77.634-2.345" transform="translate(601.606 162.68)" fill="#5f7407"/><path d="M72.38,51.515a11.268,11.268,0,0,1-5.559,3.933,1.3,1.3,0,0,0-.6,2.043,1.215,1.215,0,0,0,.9,2.063,8.045,8.045,0,0,0,7.41-7.149,1.268,1.268,0,0,0-2.147-.89" transform="translate(578.909 174.959)" fill="#5f7407"/><path d="M58.333,85.264c-.493-1.392-2.582-.955-2.5.312a1.207,1.207,0,0,0-.375.854q-.146,3.537-.334,7.071a1.268,1.268,0,0,0,2.345.636,10.554,10.554,0,0,0,.866-8.873" transform="translate(569.57 203.75)" fill="#5f7407"/><path d="M102.238,68.641a11,11,0,0,1-1.733-10.149,1.23,1.23,0,0,0-1.644-1.479,1.081,1.081,0,0,0-1.134.354,8.226,8.226,0,0,0,3.287,13.376c1.317.491,1.9-1.237,1.224-2.1" transform="translate(604.531 179.985)" fill="#5f7407"/><path d="M80.987,96.457a7.862,7.862,0,0,1-6.2-6.694c-.16-1.136-1.429-1.116-2.071-.44a1.069,1.069,0,0,0-1.366.873,7.493,7.493,0,0,0,9.632,8.688c1.11-.358,1.284-2.157,0-2.427" transform="translate(583.498 207.603)" fill="#5f7407"/><path d="M97.1,98.4a10.459,10.459,0,0,1-6.994-.959,3.225,3.225,0,0,1-.3-.694,1.29,1.29,0,0,0-2.449.009A1.342,1.342,0,0,0,87.5,98.82c.293.2.6.39.9.565,2.108,2.545,6.24,2.188,9.365,1.444,1.582-.377.909-2.759-.67-2.427" transform="translate(597.115 213.672)" fill="#5f7407"/></g></svg>