<svg xmlns="http://www.w3.org/2000/svg" width="74.461" height="74.078" viewBox="0 0 74.461 74.078"><g transform="translate(-748.539 -130.693)"><path d="M131.611,16.4a5.745,5.745,0,0,0,.17,7.981A5.832,5.832,0,0,0,135.8,25.95a5.755,5.755,0,0,0,1.511-.252q3.543,2.034,7.166,3.92a24.38,24.38,0,0,0-1.276,3.224c-.1.3-.185.6-.257.912q-2.113.221-4.209.586a3.493,3.493,0,1,0,.4,5.188,4.412,4.412,0,0,0,.326-.429c.261-.049.522-.1.785-.142.164-.026.325-.054.491-.08l.183-.028c.5-.075,1.006-.138,1.509-.2,0,.237.011.474.028.711a22.149,22.149,0,0,0,1.946,7.587l-4.74,2.9c-.034-.011-.065-.022-.1-.032a5.8,5.8,0,0,0-6.072,1.323c-.3.409-.6.815-.892,1.224a5.622,5.622,0,0,0-.675,2.8l.213,1.427a5.617,5.617,0,0,0,1.524,2.528l.145.138a5.448,5.448,0,0,0,6.125,1.065,4.287,4.287,0,0,0,1.856-1.235l.892-1.222a5.813,5.813,0,0,0,.52-1.356q2.773-1.7,5.552-3.4a23.612,23.612,0,0,0,3.164,2.427,11.144,11.144,0,0,0,1.136.664l-2.412,3.873a3.111,3.111,0,0,0-1.589.953,3.494,3.494,0,0,0,5.044,4.836,3.686,3.686,0,0,0,.8-3.481q1.394-2.236,2.783-4.474c.173.041.353.078.53.11a24.978,24.978,0,0,0,3.56.4q.036,2.776-.065,5.55c-.1.086-.185.174-.276.267-.3.409-.6.815-.89,1.224a5.622,5.622,0,0,0-.675,2.8l.006.285A6.248,6.248,0,0,0,161.6,72.5a6.274,6.274,0,0,0,4.024,1.569l1.429-.215a5.627,5.627,0,0,0,2.528-1.524l.892-1.222a5.667,5.667,0,0,0,.675-2.8l-.007-.285a6.258,6.258,0,0,0-1.737-3.955c-.06-.062-.121-.121-.183-.179q.09-2.44.075-4.88c.065-.007.129-.011.194-.021a24.882,24.882,0,0,0,4.345-.815,23.42,23.42,0,0,0,2.739-1.054q1.08,1.634,2.263,3.2a3.432,3.432,0,0,0,.92,3.433,3.493,3.493,0,0,0,4.834-5.045,3.435,3.435,0,0,0-1.584-.849q-1.175-1.556-2.252-3.181a21.086,21.086,0,0,0,3.039-2.815,26.283,26.283,0,0,0,2.339-3.058q3.565,1.981,7.235,3.772a5.437,5.437,0,0,0,1.668,3.388,5.825,5.825,0,0,0,4.024,1.569,5.645,5.645,0,0,0,3.785-9.718,5.826,5.826,0,0,0-4.026-1.569,5.48,5.48,0,0,0-1.009.123q-4.371-2.1-8.6-4.47c.106-.368.207-.739.289-1.114a30.456,30.456,0,0,0,.59-4.61v-.028q2.076-.56,4.145-1.121l.058.043a3.473,3.473,0,0,0,1.735.418c.295-.043.59-.088.884-.132a3.464,3.464,0,0,0,1.563-.942l.138-.146a2.624,2.624,0,0,0,.716-1.181,3.15,3.15,0,0,0-.056-2.612,2.609,2.609,0,0,0-.765-1.147c-.25-.185-.5-.369-.756-.552a3.48,3.48,0,0,0-1.737-.418c-.293.043-.588.088-.882.132a3.445,3.445,0,0,0-1.563.942l-.14.146a2.648,2.648,0,0,0-.576.812l-3.117.843a16.621,16.621,0,0,0-.537-2.315,19.762,19.762,0,0,0-1.78-4.011q3.462-2.572,6.955-5.087a5.93,5.93,0,0,0,.6.022l.285-.006a4.237,4.237,0,0,0,2.1-.5,4.25,4.25,0,0,0,1.858-1.235,4.243,4.243,0,0,0,1.153-1.907,4.2,4.2,0,0,0,.414-2.117q-.106-.714-.213-1.429a5.644,5.644,0,0,0-1.524-2.526l-1.224-.894a5.667,5.667,0,0,0-2.8-.675l-.284.007a4.209,4.209,0,0,0-2.1.5,4.272,4.272,0,0,0-1.856,1.233A4.269,4.269,0,0,0,189.63,12.2a4.212,4.212,0,0,0-.414,2.093q-3.506,2.538-6.972,5.132A20.4,20.4,0,0,0,178.78,17.6q1.111-2.292,2.188-4.6a3.478,3.478,0,0,0,1.067-.756l.14-.146a2.634,2.634,0,0,0,.713-1.181,2.652,2.652,0,0,0,.257-1.312,2.632,2.632,0,0,0-.312-1.3,2.625,2.625,0,0,0-.765-1.147l-.757-.554a3.506,3.506,0,0,0-1.733-.418l-.884.134a3.46,3.46,0,0,0-1.565.942l-.14.146a2.607,2.607,0,0,0-.713,1.181,2.611,2.611,0,0,0-.257,1.312,2.638,2.638,0,0,0,.31,1.3c.021.062.045.119.069.177q-1.131,2.4-2.293,4.789c-1.145-.224-2.3-.375-3.461-.5q.2-2.541.276-5.091a4.747,4.747,0,0,0,1.315-1.019,5.741,5.741,0,0,0-.17-7.981A5.827,5.827,0,0,0,168.042,0a5.74,5.74,0,0,0-3.955,1.737,5.826,5.826,0,0,0-.659,6.975q-.014,2.994-.22,5.983c-.013.187-.03.371-.047.556-.819.08-1.636.211-2.461.371a11.894,11.894,0,0,0-2.155.66,33.5,33.5,0,0,0-1.625-5.02c.009-.028.021-.054.028-.084a2.6,2.6,0,0,0,.254-1.312,2.579,2.579,0,0,0-.31-1.3,2.627,2.627,0,0,0-.763-1.149c-.252-.185-.507-.368-.757-.552a3.5,3.5,0,0,0-1.735-.418c-.295.043-.59.088-.886.132a3.5,3.5,0,0,0-1.563.942l-.138.146a2.637,2.637,0,0,0-.715,1.181,2.611,2.611,0,0,0-.257,1.312,2.649,2.649,0,0,0,.313,1.3,2.637,2.637,0,0,0,.763,1.147l.757.554a3.559,3.559,0,0,0,.722.289c.117.3.235.606.343.914.241.668.453,1.345.644,2.03q.266.968.466,1.953c.026.132.05.267.076.4-.56.427-1.1.877-1.645,1.317a33.546,33.546,0,0,0-3.554,3.4q-3.926-2.015-7.759-4.211a5.437,5.437,0,0,0-1.617-3.02,5.808,5.808,0,0,0-4.024-1.567,5.727,5.727,0,0,0-3.953,1.737" transform="translate(618.456 130.693)" fill="#83a00a"/><path d="M147.41,12.234a9.86,9.86,0,0,0-4.752,3.375,1.72,1.72,0,0,0-.453.543c-.1.179-.185.362-.267.548a9.582,9.582,0,0,0-1.265,4.781,1.664,1.664,0,0,0,2.1,1.608,1.582,1.582,0,0,0,1.1.086,1.785,1.785,0,0,0,1.261-1.856,1.522,1.522,0,0,0,1.035-1.134,10.729,10.729,0,0,1,2.9-5.093,1.723,1.723,0,0,0-1.664-2.858" transform="translate(627.623 141.209)" fill="#5f7407"/><path d="M153.069,27.867q-1.131-2.667-2.263-5.336a1.725,1.725,0,0,0-2.686-.345c-2.476,2.291-1.239,7.015,2.125,7.668l.03,0a1.8,1.8,0,0,0,2.181.349,1.755,1.755,0,0,0,.614-2.339" transform="translate(632.939 149.48)" fill="#5f7407"/><path d="M160.621,24.33a14.855,14.855,0,0,1-2.685-8.246c-.045-2.2-3.466-2.205-3.421,0,0,.151.011.3.019.451a1.515,1.515,0,0,0-.272.256,5.321,5.321,0,0,0-.733,5.936,1.462,1.462,0,0,0,.761.778,7.691,7.691,0,0,0,2.89,3.074,1.561,1.561,0,0,0,1.367.157c1.354.451,3.076-.94,2.075-2.407" transform="translate(638.244 143.185)" fill="#5f7407"/><path d="M155.962,12.054l-1.707-1.713a1.71,1.71,0,1,0-2.42,2.418l1.707,1.714a1.711,1.711,0,0,0,2.42-2.42" transform="translate(636.862 139.216)" fill="#5f7407"/></g></svg>