<svg xmlns="http://www.w3.org/2000/svg" width="60.151" height="52.622" viewBox="0 0 60.151 52.622"><g transform="translate(-505.86 -221.732)"><path d="M44.7,101.288A4.225,4.225,0,0,0,47.7,96.236a4.278,4.278,0,0,0-1.9-2.543,4.167,4.167,0,0,0-1.043-.429q-1.422-2.647-2.953-5.233a18.4,18.4,0,0,0,2.052-1.519c.179-.149.349-.306.515-.47q1.4.686,2.856,1.27a2.569,2.569,0,1,0,1.767-3.4,2.748,2.748,0,0,0-.369.142c-.183-.073-.366-.144-.547-.218l-.338-.14-.125-.054q-.515-.224-1.019-.465c.09-.149.177-.3.257-.455a16.26,16.26,0,0,0,1.733-5.494l4.091.026c.017.021.032.041.049.06a3.727,3.727,0,0,0,2.67,1.582,3.12,3.12,0,0,0,1.64-.049l1.032-.418a4.159,4.159,0,0,0,1.511-1.489l.422-.974a4.143,4.143,0,0,0,.03-2.172l-.037-.144a4.011,4.011,0,0,0-3.412-3.045,3.14,3.14,0,0,0-1.64.05l-1.032.416a4.192,4.192,0,0,0-.853.647l-4.791-.034a17.28,17.28,0,0,0-1.034-2.744,7.948,7.948,0,0,0-.45-.856l3.011-1.483a2.274,2.274,0,0,0,1.362.022,2.571,2.571,0,0,0-1.272-4.981,2.713,2.713,0,0,0-1.851,1.864l-3.477,1.713c-.093-.093-.19-.185-.287-.274a18.424,18.424,0,0,0-2.071-1.631q1.055-1.749,2.2-3.442c.091-.017.185-.037.276-.06l1.032-.418A4.159,4.159,0,0,0,47.2,57.914l.106-.179a4.61,4.61,0,0,0,.451-3.147,4.622,4.622,0,0,0-1.9-2.543l-.976-.42a4.117,4.117,0,0,0-2.17-.032l-1.034.418A4.159,4.159,0,0,0,40.168,53.5l-.106.179a4.638,4.638,0,0,0-.451,3.147c.013.062.03.123.047.183q-1,1.489-1.944,3.02l-.129-.063a18.41,18.41,0,0,0-3.032-1.179,16.949,16.949,0,0,0-2.121-.4q-.039-1.441-.17-2.88a2.525,2.525,0,0,0,.759-2.5,2.571,2.571,0,1,0-4.981,1.274,2.562,2.562,0,0,0,.66,1.145q.132,1.427.172,2.862a15.324,15.324,0,0,0-2.992.578,19.519,19.519,0,0,0-2.649,1q-1.458-2.625-3.054-5.168a4.012,4.012,0,0,0,.276-2.765,4.288,4.288,0,0,0-1.907-2.543,4.152,4.152,0,0,0-6.14,4.6,4.278,4.278,0,0,0,1.9,2.543,3.84,3.84,0,0,0,.679.315q1.914,3.011,3.636,6.136-.313.28-.614.584a22.26,22.26,0,0,0-2.158,2.649l-.013.017-3.022-.909-.021-.05a2.559,2.559,0,0,0-.922-.935c-.2-.088-.4-.173-.6-.261a2.563,2.563,0,0,0-1.343-.019l-.144.037a1.928,1.928,0,0,0-.9.459A2.322,2.322,0,0,0,7.9,66.2a1.934,1.934,0,0,0,.032,1.015l.257.64a2.574,2.574,0,0,0,.922.935l.6.261a2.564,2.564,0,0,0,1.343.019l.144-.037a1.957,1.957,0,0,0,.675-.282q1.139.341,2.276.685a12.019,12.019,0,0,0-.565,1.655,14.647,14.647,0,0,0-.448,3.2q-3.159.263-6.321.476c-.118-.088-.241-.172-.369-.25l-.181-.106a3.1,3.1,0,0,0-1.507-.5,3.114,3.114,0,0,0-1.638.049,3.136,3.136,0,0,0-1.461.742A3.108,3.108,0,0,0,.582,75.864q-.213.487-.422.974A4.143,4.143,0,0,0,.13,79.01l.416,1.032a4.13,4.13,0,0,0,1.489,1.511c.06.035.121.071.181.108a3.122,3.122,0,0,0,1.507.5,3.134,3.134,0,0,0,1.638-.05,3.1,3.1,0,0,0,1.461-.742,3.089,3.089,0,0,0,1.073-1.145q3.176-.224,6.35-.5A14.957,14.957,0,0,0,15.7,82.213q-1.584,1-3.157,2.024a2.566,2.566,0,0,0-.959.058l-.144.037a1.923,1.923,0,0,0-.9.461,2.3,2.3,0,0,0-.979,1.653,1.928,1.928,0,0,0,.03,1.013c.086.215.173.427.259.64a2.559,2.559,0,0,0,.922.935c.2.088.4.174.6.261a2.563,2.563,0,0,0,1.343.019l.144-.037a1.928,1.928,0,0,0,.9-.459,2.322,2.322,0,0,0,.981-1.653c.009-.047.019-.091.026-.136q1.64-1.063,3.295-2.1c.625.584,1.291,1.129,1.966,1.659q-1.117,1.508-2.151,3.073a3.5,3.5,0,0,0-1.218.125,4.225,4.225,0,0,0-2.994,5.052,4.278,4.278,0,0,0,1.9,2.543,4.226,4.226,0,0,0,3.145.451,4.289,4.289,0,0,0,3.123-4.1c.782-1.242,1.6-2.463,2.463-3.651.08-.112.162-.22.243-.33.545.269,1.106.506,1.681.724a8.866,8.866,0,0,0,1.6.425,24.7,24.7,0,0,0-.937,3.767c-.015.015-.032.028-.049.043a2.645,2.645,0,0,0-.95,2.666c.086.215.172.427.259.64a2.554,2.554,0,0,0,.92.935c.2.088.4.175.6.261a2.544,2.544,0,0,0,1.343.019l.144-.037a1.937,1.937,0,0,0,.9-.459,2.311,2.311,0,0,0,.979-1.653,1.935,1.935,0,0,0-.03-1.015l-.257-.638a2.648,2.648,0,0,0-.34-.461c.043-.237.09-.472.14-.707q.168-.764.388-1.517c.14-.472.3-.94.468-1.4.034-.093.071-.187.106-.28.515-.05,1.028-.119,1.539-.185a24.055,24.055,0,0,0,3.539-.741q1.671,2.787,3.213,5.647a4.006,4.006,0,0,0-.166,2.515,4.288,4.288,0,0,0,1.907,2.543,4.216,4.216,0,0,0,3.145.451" transform="translate(505.86 172.932)" fill="#83a00a"/><path d="M12.541,59.857a7.168,7.168,0,0,0-2.289,6.569.967.967,0,0,0,.875.9c.028.248.062.5.1.746.265,1.593,2.69.918,2.427-.67a10.06,10.06,0,0,1,.86-6.02,1.264,1.264,0,0,0-1.976-1.524" transform="translate(514.659 182.197)" fill="#5f7407"/><path d="M23.18,64.353a19.449,19.449,0,0,1-5.031,4.593,1.272,1.272,0,0,0-.256,1.978,3.589,3.589,0,0,0,4.466.312,1.28,1.28,0,0,0,.53-1.291,8.2,8.2,0,0,0,2.394-4.367c.211-1.086-1.256-2.317-2.1-1.224" transform="translate(521.026 186.026)" fill="#5f7407"/><path d="M22.216,58.918a2.812,2.812,0,0,0-3.578-.942,1.255,1.255,0,0,0-.578,1.42q.437,1.318.875,2.632a1.285,1.285,0,0,0,1.547.879,1.091,1.091,0,0,0,.28-.119,1.522,1.522,0,0,0,.9-.354,2.759,2.759,0,0,0,.55-3.515" transform="translate(521.45 180.635)" fill="#5f7407"/></g></svg>