<svg xmlns="http://www.w3.org/2000/svg" width="104.632" height="108.524" viewBox="0 0 104.632 108.524"><g transform="translate(-459.568 -187.003)"><path d="M259.03,56.215,226.479,128.97c-.152.267-61.212,30.263-66.3,32.452a1.267,1.267,0,0,1-.723.085.875.875,0,0,1-.208-.054l-3.91-1.437a1.2,1.2,0,0,1-.628-1.692l33.673-71.549a1.348,1.348,0,0,1,.585-.582l64.645-33.045a1.252,1.252,0,0,1,1.009-.069l3.81,1.4a1.124,1.124,0,0,1,.581.466,1.225,1.225,0,0,1,.017,1.275" transform="translate(305 134)" fill="#c97842"/><path d="M259.013,54.939l-63.03,32.366a2.6,2.6,0,0,0-1.092,1.113l-35.435,73.088a.935.935,0,0,1-.208-.053l-3.91-1.437a1.2,1.2,0,0,1-.628-1.693l33.674-71.549a1.34,1.34,0,0,1,.584-.582l64.645-33.044a1.253,1.253,0,0,1,1.009-.07l3.811,1.4a1.131,1.131,0,0,1,.58.466" transform="translate(305 134)" fill="#de9559"/><path d="M192.472,86.884c1.15.1,2.282.281,3.407.488.035-.022.068-.047.1-.067l63.03-32.366a1.131,1.131,0,0,0-.58-.466l-3.811-1.4a1.253,1.253,0,0,0-1.009.07L188.968,86.192a1.3,1.3,0,0,0-.4.322c1.31.189,2.654.257,3.907.37" transform="translate(305 134)" fill="#fabb78"/></g></svg>