<svg xmlns="http://www.w3.org/2000/svg" width="125.307" height="73.175" viewBox="0 0 125.307 73.175"><g transform="translate(-400.376 -142.753)"><path d="M216.683,81.928H99.376a4,4,0,0,1-4-4V12.753a4,4,0,0,1,4-4H216.683a4,4,0,0,1,4,4V77.928a4,4,0,0,1-4,4" transform="translate(305 134)"/><path d="M215.11,74.75H100.948a3,3,0,0,1-3-3V14.325a3,3,0,0,1,3-3H215.11a3,3,0,0,1,3,3V71.75a3,3,0,0,1-3,3" transform="translate(305 134)" fill="#fff"/><path d="M169.564,30.785h9.485a.739.739,0,0,1,.415.127l.066.045.049.063,27.178,34.927a.741.741,0,0,1-.909,1.167l-.065-.044-.049-.062-27-34.739h-8.654L166,43.1a.747.747,0,0,1-.694.48H146.155l-5.587,9.394a.74.74,0,0,1-.891.317l-19.3-6.907-17.016,14.94a.741.741,0,0,1-.978-1.113l17.343-15.228a.744.744,0,0,1,.736-.142l19.143,6.852,5.49-9.23a.741.741,0,0,1,.637-.363H164.79l4.08-10.831A.747.747,0,0,1,169.564,30.785Z" transform="translate(305 134)" fill="#ea001f"/><path d="M213.126,69.874H103.369a.778.778,0,0,1-.777-.776V18.479a.241.241,0,0,1,.483,0V69.1a.294.294,0,0,0,.294.294H213.126a.241.241,0,0,1,0,.482" transform="translate(305 134)" fill="#4f332e"/><path d="M129.232,71.522a.241.241,0,0,1-.241-.241v-3.3a.241.241,0,0,1,.482,0v3.3a.241.241,0,0,1-.241.241" transform="translate(305 134)" fill="#4f332e"/><path d="M142.142,71.522a.241.241,0,0,1-.241-.241v-3.3a.241.241,0,0,1,.482,0v3.3a.241.241,0,0,1-.241.241" transform="translate(305 134)" fill="#4f332e"/></g></svg>