<svg xmlns="http://www.w3.org/2000/svg" width="133.452" height="44.133" viewBox="0 0 133.452 44.133"><g transform="translate(-495.792 -224.895)"><path d="M324.244,95v3.587a1.37,1.37,0,0,1-.418.984L290.18,134.644a1.365,1.365,0,0,1-.948.384l-97.074-3.4a1.367,1.367,0,0,1-1.366-1.367v-4.441a1.358,1.358,0,0,1,.517-1.07l42.425-33.559a1.338,1.338,0,0,1,.892-.293l88.294,2.742a1.366,1.366,0,0,1,1.164.729c.013.034.031.069.048.1a.725.725,0,0,1,.034.091,1.218,1.218,0,0,1,.056.194.853.853,0,0,1,.013.112,1.278,1.278,0,0,1,.009.138" transform="translate(305 134)" fill="#e5a45f"/><path d="M324.244,95v3.587a1.37,1.37,0,0,1-.418.984L290.18,134.644a1.365,1.365,0,0,1-.948.384l-97.074-3.4a1.367,1.367,0,0,1-1.366-1.367v-4.351c9.615.349,96.2,3.786,98.095,3.023,1.379-.552,31.239-31.27,35.081-34.737a1.415,1.415,0,0,1,.116.173c.013.034.031.069.048.1a.725.725,0,0,1,.034.091,1.218,1.218,0,0,1,.056.194.853.853,0,0,1,.013.112,1.278,1.278,0,0,1,.009.138" transform="translate(305 134)" fill="#ce894c"/><path d="M324.235,94.867a1.06,1.06,0,0,0-.013-.112,1.218,1.218,0,0,0-.056-.194c-.009-.03-.022-.06-.034-.091a.949.949,0,0,1-.048-.1,1.415,1.415,0,0,0-.116-.173c-3.721,3.357-31.836,32.266-34.866,34.6v6.234l.129.005a1.367,1.367,0,0,0,.949-.384l33.645-35.068a1.367,1.367,0,0,0,.419-.984V95c0-.047,0-.091-.009-.138" transform="translate(305 134)" fill="#b46530"/></g></svg>