<svg xmlns="http://www.w3.org/2000/svg" width="133.777" height="43.718" viewBox="0 0 133.777 43.718"><g transform="translate(-488.587 -243.748)"><path d="M317.363,113.177l0,3.587a1.378,1.378,0,0,1-.42.987l-33.753,35.324a1.384,1.384,0,0,1-.952.391L184.955,150.8a1.355,1.355,0,0,1-1.368-1.356l0-4.442a1.374,1.374,0,0,1,.519-1.073l42.551-33.882a1.362,1.362,0,0,1,.894-.3l88.483,2.071a1.358,1.358,0,0,1,1.166.72c.013.034.03.069.047.1a.776.776,0,0,1,.035.091,1.323,1.323,0,0,1,.056.193.851.851,0,0,1,.012.112,1.294,1.294,0,0,1,.009.138" transform="translate(305 134)" fill="#e5a45f"/><path d="M317.363,113.177l0,3.587a1.378,1.378,0,0,1-.42.987l-33.753,35.324a1.384,1.384,0,0,1-.952.391L184.955,150.8a1.355,1.355,0,0,1-1.368-1.356l0-4.351c9.636.276,96.4,3.054,98.3,2.277,1.383-.563,31.338-31.508,35.191-35a1.631,1.631,0,0,1,.117.172c.013.034.03.069.047.1a.776.776,0,0,1,.035.091,1.323,1.323,0,0,1,.056.193.851.851,0,0,1,.012.112,1.294,1.294,0,0,1,.009.138" transform="translate(305 134)" fill="#ce894c"/><path d="M317.355,113.039a1.068,1.068,0,0,0-.013-.112,1.252,1.252,0,0,0-.056-.194.66.66,0,0,0-.034-.09.949.949,0,0,1-.048-.1,1.482,1.482,0,0,0-.116-.172c-3.732,3.386-31.937,32.508-34.976,34.86l-.007,6.234.13,0a1.383,1.383,0,0,0,.951-.391l33.754-35.324a1.378,1.378,0,0,0,.42-.987l0-3.587c0-.048-.005-.091-.009-.138" transform="translate(305 134)" fill="#b46530"/></g></svg>