<svg xmlns="http://www.w3.org/2000/svg" width="133.452" height="44.133" viewBox="0 0 133.452 44.133"><path d="M324.244,87.319v3.587a1.37,1.37,0,0,1-.418.984L290.18,126.958a1.365,1.365,0,0,1-.948.384l-97.074-3.4a1.367,1.367,0,0,1-1.366-1.367v-4.441a1.358,1.358,0,0,1,.517-1.07L233.734,83.5a1.338,1.338,0,0,1,.892-.293l88.294,2.742a1.366,1.366,0,0,1,1.164.729c.013.034.031.069.048.1a.672.672,0,0,1,.034.091,1.218,1.218,0,0,1,.056.194.853.853,0,0,1,.013.112,1.277,1.277,0,0,1,.009.138" transform="translate(-190.792 -83.209)" fill="#fabb78"/></svg>