<svg xmlns="http://www.w3.org/2000/svg" width="268.478" height="187.379" viewBox="0 0 268.478 187.379"><g transform="translate(-349 -93.71)"><path d="M216.975,110.232a75.432,75.432,0,0,1-18.213,49.207,77.432,77.432,0,0,1-55.854,27.03c-1.065.051-2.138.073-3.209.073a77.839,77.839,0,0,1-25.907-4.4C83.859,171.63,62.43,143.405,62.43,110.232a74.521,74.521,0,0,1,.475-8.45A76.2,76.2,0,0,1,99.838,44.86a78.181,78.181,0,0,1,75.638-2.271,76.539,76.539,0,0,1,39.582,50.692,71.9,71.9,0,0,1,1.284,7.154,74.886,74.886,0,0,1,.634,9.8" transform="translate(350.542 94.547)" fill="#63bdea"/><path d="M212.565,93.073c-3.118.546-6.312.852-9.4,1.426a58.636,58.636,0,0,0-8.231,2.439,9.739,9.739,0,0,1-6.4.385c-3.3-1.164-5.165-4.389-7.265-6.878a10.369,10.369,0,0,0-4.56-3.53c-2.749-.873-5.558.306-8.351.1-3.9-.284-5.981-3.377-4.523-6.943.845-2.089,2.634-3.617,4.122-5.277a20.506,20.506,0,0,0,4.214-7.292,19.824,19.824,0,0,0,.951-7.8c-.234-2.874-1.177-5.633-1.592-8.478a14.516,14.516,0,0,1,1.457-8.836,76.542,76.542,0,0,1,39.582,50.692" transform="translate(353.034 94.756)" fill="#83a00a"/><path d="M214.5,108.629a75.432,75.432,0,0,1-18.213,49.207,20.05,20.05,0,0,0-3.277-2.911c-2.439-1.791-5.2-3.34-7.128-5.692-2.205-2.685-1.963-5.567-2.326-8.792-.679-5.945-6.4-5.654-11.206-5.807-3.39-.11-6.493-1.121-8.23-4.1a11.183,11.183,0,0,1-.657-9.193c1.284-3.821,3.9-7.19,6.388-10.371,2.084-2.671,4.471-5.357,7.627-6.885,3.33-1.616,6.743-1.252,10.209-.255a32.97,32.97,0,0,0,7.136,1.7,14.384,14.384,0,0,0,7.166-1.754c3.262-1.6,7.747-4.446,11.877-4.934a74.886,74.886,0,0,1,.634,9.8" transform="translate(353.02 96.15)" fill="#83a00a"/><path d="M166.412,68.011c2.378-3.217,5.361-8.7,3.783-12.751-1.443-3.725-6.2-3.348-7.838-.509-1.934,2.235-3.2,5.284-4.659,7.816-1.5,2.577-7.2,10.014-1.812,11.965,4.07,1.471,8.524-3.807,10.526-6.521" transform="translate(352.793 95.007)" fill="#83a00a"/><path d="M139.929,163.1c-2.122,2.794-1.609,6.244-.8,9.4.778,3.072,1.676,6.114,2.515,9.164l1.253,4.549c-1.065.05-2.136.073-3.209.073a77.839,77.839,0,0,1-25.907-4.4q-1.891-1.354-3.76-2.773c-7.25-5.5-15.631-11.747-18.311-20.677-.688-2.3-.891-4.694-1.344-7.038a16.644,16.644,0,0,0-2.922-6.754c-1.858-2.577-4.288-6.136-1.208-8.85a6.61,6.61,0,0,1,3.678-1.55c1.208-.117,2.461.262,3.571-.378,3.723-2.148,1.8-6.354-.075-8.894-1.1-1.492-2.212-2.984-3.353-4.446-3.436-4.411-7.347-8.581-12.489-11.165-4.222-2.125-8.994-3.3-12.8-6.172a16.016,16.016,0,0,1-1.872-1.659A76.2,76.2,0,0,1,99.826,44.6a19.047,19.047,0,0,1,1.775,4.069,18.158,18.158,0,0,1,.558,8.027c-.317,2.045-.906,4.185-.226,6.223.907,2.7,3.481,3.261,6.071,2.525,6.456-1.812,11.606-6.528,18.077-8.377,5.06-1.448,10.859-1.048,14.438,3.094,3.042,3.522,2.582,8.166-.8,11.3-3.851,3.566-9.3,4.454-13.759,7.045-2.643,1.536-4.749,3.668-5.293,6.682-.439,2.423-.106,5.131-1.382,7.357-1.2,2.1-3.534,2.788-5.829,3.261A21.129,21.129,0,0,0,105.27,99a18.773,18.773,0,0,0-7.921,15.91,37.829,37.829,0,0,0,1.344,9.417c.664,2.584.6,7.25,3.752,8.385a4.082,4.082,0,0,0,2.326.043c2.627-.611,4.674-2.562,7.128-3.573a11.065,11.065,0,0,1,8.729-.19,14.674,14.674,0,0,1,5.135,3.931c1.367,1.558,2.25,3.683,3.768,5.079a10.8,10.8,0,0,0,1.5,1.07c5.014,3.181,10.5,7.5,12.852,12.984a7.369,7.369,0,0,1,.257,5.874c-.9,2.074-2.869,3.4-4.214,5.168" transform="translate(350.553 94.811)" fill="#83a00a"/><path d="M55.073,125.716a.407.407,0,0,1-.085-.009.378.378,0,0,1-.283-.454C58.573,108.6,72.993,98.629,73.138,98.531a.377.377,0,1,1,.425.623c-.143.1-14.323,9.915-18.123,26.27a.377.377,0,0,1-.368.292" transform="translate(350.351 96.141)" fill="#402620"/><path d="M216,128.039a.378.378,0,0,1-.217-.687c12.274-8.591,12.23-26.693,12.228-26.876a.378.378,0,0,1,.374-.381h0a.377.377,0,0,1,.377.374c0,.184.053,18.679-12.548,27.5a.381.381,0,0,1-.217.069" transform="translate(354.325 96.181)" fill="#402620"/><path d="M61.706,131.333v43.426c-.18,1.441-1.075,2.31-2.167,2.174H2.174A2.174,2.174,0,0,1,0,174.759V131.333a2.168,2.168,0,0,1,2.174-2.167H59.539a2.167,2.167,0,0,1,2.167,2.167" transform="translate(349 96.899)" fill="#95cfe5"/><path d="M42.2,149.035v27.485h-4.53V149.035a.389.389,0,0,1,.392-.392H41.8a.4.4,0,0,1,.4.392" transform="translate(349.93 97.38)" fill="#fff"/><path d="M36.168,157.91a13.723,13.723,0,0,0-.445-1.874c-.628-1.956-2.21-4.948-4.633-4.948-.613,0-1.056.37-1.644.36-.852-.016-1.488-.537-2.43-.354a3.5,3.5,0,0,0-2.829,3.246c-.032,1.848,1.281,1.962,2.719,2.151,2.185.288,1.8,1.612,2.98,2.637.558.486,1.3.368,1.894.7,1.126.634.9,3.982,2.935,3.271,1.77-.617,1.787-3.182,1.453-5.191" transform="translate(349.597 97.44)" fill="#fff"/><path d="M51.449,142.16v34.53h-4.53V142.16a.4.4,0,0,1,.4-.4h3.738a.4.4,0,0,1,.392.4" transform="translate(350.159 97.21)" fill="#fff"/><path d="M40.435,176.088H28.255c.03-.174.045-.34.068-.513a73.211,73.211,0,0,0,.189-9.272c-.03-1.11-.075-1.994-.1-2.485a.39.39,0,0,1,.392-.415l5.4.038h.438l5.384.038a.39.39,0,0,1,.392.415,88.464,88.464,0,0,0-.038,11.757c.015.143.031.294.053.438" transform="translate(349.698 97.745)" fill="#fff"/><path d="M33.5,175.278c-1.8-2.975-3.806-5.792-4.984-9.046a73.211,73.211,0,0,1-.189,9.272c-.023.174-.038.34-.068.513h5.626a6.328,6.328,0,0,0-.385-.74" transform="translate(349.698 97.814)" fill="#402620"/><path d="M30.692,176.54l-11.077-.06L18,176.464,6.921,176.4a39.916,39.916,0,0,0,4.334-13.139c.069-.574.121-1.186.159-1.827.023-.249.038-.5.045-.755.219-4.017.069-8.835-.03-11.265-.023-.484-.045-.869-.06-1.14a.4.4,0,0,1,.4-.415l6.932.045h.551l6.932.038a.4.4,0,0,1,.392.422c-.015.25-.038.6-.06,1.05-.128,2.371-.34,7.211-.181,11.265.008.257.023.513.031.755.037.679.09,1.322.151,1.918a39.892,39.892,0,0,0,4.176,13.184" transform="translate(349.171 97.361)" fill="#fff"/><path d="M40.738,163.609a.894.894,0,0,0-.211-.641.742.742,0,0,0-.567-.273l-2.288-.014v.853l2.3.023a112.006,112.006,0,0,0-.091,12.618h.771a111.047,111.047,0,0,1,.083-12.565" transform="translate(349.93 97.727)" fill="#402620"/><path d="M26.47,148.367c-.015.249-.038.6-.06,1.049H11.322c-.023-.483-.045-.868-.06-1.139a.4.4,0,0,1,.4-.416l6.932.046h.551l6.932.037a.4.4,0,0,1,.392.423" transform="translate(349.278 97.361)" fill="#ea001f"/><path d="M22.576,143.2a4.321,4.321,0,0,0-.966-2.356c-.679-.838-1.918-1.02-2.523-1.767-.619-.779-.135-2.893-.286-3.973a10.688,10.688,0,0,0-1.465-4.2,7.847,7.847,0,0,0-1.48-1.737H4.6a5.761,5.761,0,0,0,1.782,7.876,5.988,5.988,0,0,0,2.87.944c2.446.152,1.435,2.764,2.831,3.957,1.578,1.343,4.425-.3,5.558,1.955.566,1.125.392,4.1,2.423,3.624,1.714-.4,2.643-2.771,2.515-4.326" transform="translate(349.093 96.899)" fill="#fff"/><rect width="4.53" height="5.459" transform="translate(397.078 244.491)" fill="#ea001f"/><rect width="4.53" height="5.459" transform="translate(397.078 255.692)" fill="#ea001f"/><rect width="4.53" height="5.459" transform="translate(397.078 266.892)" fill="#ea001f"/><path d="M40.9,144.417a23.67,23.67,0,0,0-1.426-3.578,5.31,5.31,0,0,0-2.193-2.581,2.2,2.2,0,0,0-2.409,3.648,8.217,8.217,0,0,0,1.33.761c1.733.971,2.684,2.865,3.761,4.534a1.1,1.1,0,0,0,.563.527.765.765,0,0,0,.856-.555,2.1,2.1,0,0,0-.041-1.113q-.191-.828-.44-1.643" transform="translate(349.841 97.118)" fill="#fff"/><path d="M49.815,134.045c-.392-.513-1.322-.717-1.54-1.246a11.716,11.716,0,0,1,.211-1.8,6.1,6.1,0,0,0-.257-1.518c-.03-.106-.068-.211-.106-.317H39.41a7.721,7.721,0,0,0,2.423,4.266,4.327,4.327,0,0,0,1.918.823c.853.212,1.4.046,1.955,1.073.174.317.136.74.318,1.065.385.717,1.11.928,1.676,1.487.717.717.89,1.714,1.684,2.387a.376.376,0,0,0,.589-.083c.89-1.835,1.177-4.4-.159-6.139" transform="translate(349.973 96.899)" fill="#fff"/><path d="M263.495,53.111V96.537a2.168,2.168,0,0,1-2.167,2.174H203.963a2.173,2.173,0,0,1-2.167-2.174V53.111a2.167,2.167,0,0,1,2.167-2.167h57.364a2.162,2.162,0,0,1,2.167,2.167" transform="translate(353.983 94.967)" fill="#ffba00"/><path d="M91.048,67.282a.377.377,0,0,1-.247-.662c9.84-8.614,11.886-28.055,11.906-28.251a.377.377,0,0,1,.751.076c-.018.2-2.1,19.935-12.161,28.744a.379.379,0,0,1-.249.093" transform="translate(351.239 94.649)" fill="#402620"/><path d="M142.329,2.174V34.651a2.175,2.175,0,0,1-2.174,2.168H67.272A2.175,2.175,0,0,1,65.1,34.651V2.174A2.175,2.175,0,0,1,67.272,0h72.882a2.175,2.175,0,0,1,2.174,2.173" transform="translate(350.608 93.709)" fill="#102f86"/><path d="M127.1,14.217V30.361c-2.069-.143-3.7-.378-5.595.332-2.062.762-4.531,2.643-6.736,2.477a3.312,3.312,0,0,1-2.952-2.537c-.7-1.941-1.933-2.219-3.632-2.145a15.8,15.8,0,0,0-4.214.816.314.314,0,0,1-.506.166c-.015,0-.023.008-.03.008-.4.143-.574-.589-.174-.725a.332.332,0,0,1,.076-.03V13.636c0,.007-.008.007-.015.007-.4.159-.567-.574-.173-.724a1.855,1.855,0,0,1,.2-.069.317.317,0,0,1,.582-.211,24.374,24.374,0,0,1,6.38-1.457c.091-.008.19-.015.287-.031,1.246-.121,3.149-.347,3.949.959.778,1.276-.612,2.862,1.768,3.322a7.471,7.471,0,0,0,3.616-.543,14.39,14.39,0,0,1,7.174-.672" transform="translate(351.542 93.982)" fill="#ea001f"/><path d="M104.45,12.361v24.17h-1.51V12.361a.755.755,0,1,1,1.51,0" transform="translate(351.542 93.996)" fill="#fff"/><path d="M106.351,8.116V24.26c-2.062-.143-3.7-.378-5.595.332-2.055.762-4.531,2.636-6.736,2.477a3.329,3.329,0,0,1-2.952-2.537c-.7-1.941-1.933-2.219-3.632-2.145a15.487,15.487,0,0,0-4.214.816.309.309,0,0,1-.506.159c-.007.007-.023.007-.03.015-.4.143-.567-.589-.174-.733.031-.007.053-.015.083-.023V7.535c-.007,0-.015.007-.023.007-.392.159-.567-.574-.173-.733a1.568,1.568,0,0,0,.2-.068.32.32,0,0,1,.582-.212,24.987,24.987,0,0,1,6.388-1.457c1.223-.106,3.367-.475,4.228.929.778,1.283-.6,2.869,1.775,3.329a7.455,7.455,0,0,0,3.609-.543,14.316,14.316,0,0,1,7.174-.672" transform="translate(351.029 93.832)" fill="#ff9b57"/><path d="M106.34,11.519v2.3a16.526,16.526,0,0,0-8.654,1.148,9.541,9.541,0,0,1-3.557.793,4.813,4.813,0,0,1-4.371-2.477c-.695-1.208-1.277-1.231-3.277-.831a30.583,30.583,0,0,0-3.2.846l-.687-2.16a32.438,32.438,0,0,1,3.443-.906c1.82-.37,4.093-.831,5.678,1.91.325.559,1.315,2.266,5.128.725a18.825,18.825,0,0,1,9.5-1.344" transform="translate(351.04 93.955)" fill="#fff"/><path d="M106.34,17.724v2.288a16.626,16.626,0,0,0-8.654,1.155,9.541,9.541,0,0,1-3.557.793,4.813,4.813,0,0,1-4.371-2.477c-.7-1.208-1.284-1.239-3.277-.831a29.161,29.161,0,0,0-3.2.846l-.687-2.16a31.634,31.634,0,0,1,3.443-.906c1.82-.37,4.093-.831,5.678,1.91.325.559,1.315,2.266,5.128.725a18.825,18.825,0,0,1,9.5-1.344" transform="translate(351.04 94.108)" fill="#fff"/><path d="M83.7,6.26V36.683h-1.51V6.26a.755.755,0,1,1,1.51,0" transform="translate(351.03 93.845)" fill="#fff"/><path d="M90.673,9.112A57.048,57.048,0,0,1,89.656,21.4c-.092.474.635.677.728.2A57.91,57.91,0,0,0,91.428,9.112a.378.378,0,0,0-.755,0" transform="translate(351.214 93.925)" fill="#402620"/><path d="M126.917,14.217v7.627a9.1,9.1,0,0,0-3.337-.755,16.588,16.588,0,0,0-4.079.453,5.641,5.641,0,0,0-1.688.74,2.956,2.956,0,0,1-1.916.608,3.184,3.184,0,0,1-2.036-1.074,4.024,4.024,0,0,0-2.092-.859c-.584-.069-1.358.07-1.358-.764V11.151c1.246-.121,3.149-.347,3.949.959.778,1.276.162,2.609,2.033,3.045a5.889,5.889,0,0,0,3.351-.266,14.39,14.39,0,0,1,7.174-.672" transform="translate(351.727 93.982)" fill="#fff"/><path d="M113.121,16.786a32.733,32.733,0,0,1-1.7,10.1c-.154.462.575.66.729.2a33.37,33.37,0,0,0,1.724-10.3.378.378,0,0,0-.755,0" transform="translate(351.751 94.115)" fill="#402620"/><path d="M260.342,67.342a2.554,2.554,0,0,0-2.511-2.51,2.591,2.591,0,0,0-1.775.736,2.494,2.494,0,0,0-.407.546q-1.765.437-3.508.946a10.953,10.953,0,0,0-.582-1.428c-.06-.127-.127-.251-.2-.372q.61-.721,1.171-1.484a1.553,1.553,0,1,0-1.725-1.543,1.834,1.834,0,0,0,.028.239c-.07.1-.138.192-.209.287-.044.058-.088.118-.133.176-.011.016-.036.047-.05.066-.138.178-.281.354-.424.528-.074-.075-.149-.149-.228-.219a9.837,9.837,0,0,0-2.958-1.838l.628-2.392.042-.02a1.863,1.863,0,0,0,.807-.518,2.793,2.793,0,0,0,.736-1.775q-.045-.335-.09-.668a2.5,2.5,0,0,0-.646-1.108L247.8,54.6a2.5,2.5,0,0,0-1.268-.342h-.089a2.58,2.58,0,0,0-2.51,2.51q.045.334.09.667a2.532,2.532,0,0,0,.25.6q-.367,1.4-.737,2.8a10.437,10.437,0,0,0-1.761.194,4.854,4.854,0,0,0-.57.136l-.418-1.986a1.37,1.37,0,0,0,.217-.8,1.554,1.554,0,0,0-3.108,0,1.641,1.641,0,0,0,.816,1.363q.241,1.147.482,2.293c-.069.041-.136.084-.2.128a11.118,11.118,0,0,0-1.266.968q-.867-.881-1.687-1.8c0-.055.005-.113.006-.17q-.046-.334-.09-.667a2.5,2.5,0,0,0-.646-1.108l-.089-.089a2.581,2.581,0,0,0-3.551,0l-.392.507a2.505,2.505,0,0,0-.342,1.268l.089.667a2.522,2.522,0,0,0,.646,1.108l.09.09a2.794,2.794,0,0,0,1.775.735c.038,0,.077,0,.114,0q.722.812,1.479,1.59c-.018.023-.039.044-.056.067a11.054,11.054,0,0,0-1.146,1.6,10.433,10.433,0,0,0-.554,1.181q-.85-.192-1.712-.332a1.527,1.527,0,0,0-1.352-.819,1.554,1.554,0,0,0,0,3.108,1.548,1.548,0,0,0,.771-.215q.856.137,1.7.329a9.263,9.263,0,0,0-.11,1.838,11.69,11.69,0,0,0,.19,1.7q-1.755.461-3.484,1.014a2.421,2.421,0,0,0-1.578-.575,2.59,2.59,0,0,0-1.775.735,2.51,2.51,0,0,0,1.775,4.285,2.59,2.59,0,0,0,1.775-.735,2.448,2.448,0,0,0,.287-.35q2.049-.672,4.138-1.211c.078.151.161.3.25.447a13.433,13.433,0,0,0,1.229,1.662l.008.009q-.493.816-.986,1.634l-.032,0a1.549,1.549,0,0,0-.686.4l-.243.315a1.549,1.549,0,0,0-.212.784v.09a1.595,1.595,0,0,0,1.553,1.553l.413-.055a1.558,1.558,0,0,0,.687-.4l.243-.315a1.546,1.546,0,0,0,.212-.784v-.09a1.2,1.2,0,0,0-.065-.438q.37-.615.742-1.23a7.528,7.528,0,0,0,.884.578,8.887,8.887,0,0,0,1.806.741q-.32,1.889-.667,3.773c-.07.056-.137.116-.2.179-.031.03-.06.06-.09.09a2.582,2.582,0,0,0,0,3.55l.508.392a2.5,2.5,0,0,0,1.267.343l.667-.09a2.5,2.5,0,0,0,1.108-.646l.09-.089a2.586,2.586,0,0,0,.008-3.542q.344-1.894.66-3.793a9.044,9.044,0,0,0,1.674-.479q.349,1.077.713,2.151a1.559,1.559,0,0,0-.11.572v.089a1.5,1.5,0,0,0,.955,1.42,1.182,1.182,0,0,0,.6.134l.413-.056a1.549,1.549,0,0,0,.686-.4l.243-.315a1.546,1.546,0,0,0,.212-.784V84.2a1.72,1.72,0,0,0-.455-1.1,1.159,1.159,0,0,0-.5-.321c-.026-.013-.05-.026-.076-.037q-.377-1.119-.737-2.243c.435-.28.854-.588,1.266-.9q.716.879,1.478,1.719a2.087,2.087,0,0,0-.109.733,2.554,2.554,0,0,0,2.509,2.511,2.6,2.6,0,0,0,1.776-.736,2.556,2.556,0,0,0,.735-1.775,2.592,2.592,0,0,0-1.935-2.443q-.918-.965-1.771-1.989c-.053-.064-.1-.128-.157-.193.24-.278.462-.571.676-.875a5.362,5.362,0,0,0,.489-.876,14.873,14.873,0,0,0,2.067,1.112.37.37,0,0,0,.016.035,1.6,1.6,0,0,0,1.42.956l.413-.055a1.578,1.578,0,0,0,.687-.4l.243-.315a1.553,1.553,0,0,0,.212-.785v-.089a1.6,1.6,0,0,0-1.554-1.554l-.413.055a1.547,1.547,0,0,0-.321.13c-.131-.06-.262-.123-.392-.189q-.423-.211-.83-.454-.384-.229-.751-.484l-.148-.1c.048-.309.084-.62.122-.929a14.776,14.776,0,0,0,.1-2.184q1.881-.561,3.787-1.036a2.421,2.421,0,0,0,1.448.473,2.6,2.6,0,0,0,1.776-.736,2.556,2.556,0,0,0,.735-1.775" transform="translate(354.563 95.049)" fill="#83a00a"/><path d="M217.346,72.107a.9.9,0,0,0,.64-1.08.915.915,0,0,0-.408-.543.9.9,0,0,0-.222-.092q-.3-.566-.631-1.118a3.883,3.883,0,0,0,.439-.325c.038-.032.075-.066.11-.1.2.1.4.188.611.272a.549.549,0,1,0,.377-.725.736.736,0,0,0-.079.03l-.117-.046-.072-.03-.027-.011-.218-.1c.019-.032.038-.065.055-.1a3.465,3.465,0,0,0,.37-1.174l.875.005.01.013a.91.91,0,0,0,.921.327l.22-.089a.88.88,0,0,0,.323-.318l.09-.208a.881.881,0,0,0,.006-.464l-.007-.031a.914.914,0,0,0-1.08-.64l-.22.089a.9.9,0,0,0-.182.138l-1.024-.007a3.664,3.664,0,0,0-.221-.586,1.637,1.637,0,0,0-.1-.183l.643-.318a.481.481,0,0,0,.292.005.55.55,0,0,0-.273-1.065.581.581,0,0,0-.4.4l-.743.366-.061-.058a4.034,4.034,0,0,0-.443-.348q.226-.374.469-.736l.059-.012.22-.089a.891.891,0,0,0,.323-.319l.024-.038a1,1,0,0,0,.1-.673.675.675,0,0,0-.159-.312.668.668,0,0,0-.249-.232l-.208-.09a.891.891,0,0,0-.464-.006l-.22.089a.88.88,0,0,0-.323.318l-.024.039a.993.993,0,0,0-.1.672c0,.013.006.027.01.039q-.215.318-.416.646l-.028-.013a3.852,3.852,0,0,0-.648-.252,3.564,3.564,0,0,0-.453-.086q-.009-.309-.037-.616a.539.539,0,0,0,.163-.535.549.549,0,1,0-1.065.273.543.543,0,0,0,.141.245q.028.3.036.612a3.237,3.237,0,0,0-.639.123,4.107,4.107,0,0,0-.566.214q-.312-.561-.653-1.1a.861.861,0,0,0,.058-.591.914.914,0,0,0-.407-.543.888.888,0,0,0-.906,1.527.862.862,0,0,0,.146.068q.409.642.777,1.311c-.044.041-.088.082-.131.125a4.882,4.882,0,0,0-.461.567l0,0-.646-.194,0-.011a.557.557,0,0,0-.2-.2l-.129-.055a.549.549,0,0,0-.288,0l-.031.008a.4.4,0,0,0-.193.1.406.406,0,0,0-.143.154.415.415,0,0,0-.067.2.423.423,0,0,0,.007.217l.055.136a.541.541,0,0,0,.2.2l.129.056a.556.556,0,0,0,.287,0l.031-.008a.412.412,0,0,0,.144-.06l.486.147a2.612,2.612,0,0,0-.12.354,3.142,3.142,0,0,0-.1.683c-.45.037-.9.072-1.351.1-.026-.018-.051-.037-.079-.053l-.039-.023a.655.655,0,0,0-.322-.108.908.908,0,0,0-.894.418l-.09.208a.871.871,0,0,0-.006.464c.029.074.058.148.088.221a.9.9,0,0,0,.319.323l.039.023a.66.66,0,0,0,.322.107.91.91,0,0,0,.891-.414q.679-.048,1.357-.107a3.253,3.253,0,0,0,.312.532q-.34.214-.674.432a.56.56,0,0,0-.206.013l-.031.007a.417.417,0,0,0-.193.1.421.421,0,0,0-.143.154.414.414,0,0,0-.067.2.423.423,0,0,0,.007.217l.055.136a.542.542,0,0,0,.2.2l.129.055a.535.535,0,0,0,.287,0l.031-.007a.425.425,0,0,0,.194-.1.419.419,0,0,0,.142-.154.415.415,0,0,0,.067-.2l.006-.03q.35-.226.7-.449c.133.125.276.242.42.355q-.238.323-.46.657a.754.754,0,0,0-.26.027.9.9,0,0,0-.639,1.08.914.914,0,0,0,.407.543.9.9,0,0,0,.672.1.916.916,0,0,0,.667-.877c.167-.265.342-.527.527-.781l.052-.071a3.87,3.87,0,0,0,.359.156,1.922,1.922,0,0,0,.343.09,5.233,5.233,0,0,0-.2.805l-.011.009a.5.5,0,0,0-.209.352.412.412,0,0,0,.006.217l.055.136a.541.541,0,0,0,.2.2l.129.056a.56.56,0,0,0,.288,0l.031-.008a.417.417,0,0,0,.193-.1.406.406,0,0,0,.143-.154.414.414,0,0,0,.067-.2.419.419,0,0,0-.007-.216l-.055-.137a.575.575,0,0,0-.072-.1c.009-.05.018-.1.03-.151.024-.109.051-.217.083-.324s.064-.2.1-.3c.008-.019.015-.04.024-.059.11-.01.219-.026.329-.039a5.2,5.2,0,0,0,.756-.159q.357.6.687,1.207a.852.852,0,0,0-.036.537.914.914,0,0,0,.408.544.9.9,0,0,0,.672.1" transform="translate(354.131 95.213)" fill="#83a00a"/><path d="M256.347,68.125l-.029-.013a.26.26,0,0,0,0-.137q-.214-.813-.426-1.625a.273.273,0,0,0-.492-.065,1.634,1.634,0,0,0,.676,2.3c.314.141.587-.322.272-.464" transform="translate(355.301 95.343)" fill="#5f7407"/><path d="M238.321,66.509a2.236,2.236,0,0,0-.911,4.221.258.258,0,0,0,.28-.015l.071.018c.338.072.483-.447.143-.52-.677-.146-.727-1.084-.606-1.627a2.407,2.407,0,0,1,1.159-1.576.271.271,0,0,0-.136-.5m-1.554,1.9a1.615,1.615,0,0,1,.183-.481,2.915,2.915,0,0,0-.214.763,1.559,1.559,0,0,1,.031-.283" transform="translate(354.833 95.352)" fill="#5f7407"/><path d="M245.5,74.865a.267.267,0,0,0-.378-.162.224.224,0,0,0-.338.025,1.965,1.965,0,0,1-1.3.813.981.981,0,0,1-.99-.6c-.014-.061-.026-.123-.035-.184-.045-.3-.567-.23-.529.072,0,.024.008.047.012.071A2.129,2.129,0,0,0,244,76.829a1.564,1.564,0,0,0,1.5-1.964" transform="translate(354.974 95.551)" fill="#5f7407"/><path d="M245.193,57.972a1.826,1.826,0,0,1-.934-1.434c-.028-.342-.566-.345-.537,0,0,.051.009.1.016.152a.25.25,0,0,0-.1.2,1.589,1.589,0,0,0,1.416,1.58c.274.035.351-.378.135-.5" transform="translate(355.017 95.099)" fill="#5f7407"/><path d="M234.821,61.88a2.4,2.4,0,0,1-1.189.84.278.278,0,0,0-.128.437.26.26,0,0,0,.192.442,1.721,1.721,0,0,0,1.584-1.528.271.271,0,0,0-.459-.191" transform="translate(354.765 95.236)" fill="#5f7407"/><path d="M229.927,74.926c-.106-.3-.551-.2-.535.067a.259.259,0,0,0-.08.182q-.031.756-.072,1.511a.271.271,0,0,0,.5.136,2.255,2.255,0,0,0,.185-1.9" transform="translate(354.661 95.555)" fill="#5f7407"/><path d="M246.395,66.558a2.348,2.348,0,0,1-.37-2.169.263.263,0,0,0-.351-.316.229.229,0,0,0-.243.076,1.759,1.759,0,0,0,.7,2.859c.281.1.407-.264.261-.45" transform="translate(355.049 95.291)" fill="#5f7407"/><path d="M237.59,78.1a1.68,1.68,0,0,1-1.324-1.43c-.035-.243-.305-.239-.443-.094a.228.228,0,0,0-.292.187,1.6,1.6,0,0,0,2.059,1.857c.237-.077.275-.46,0-.519" transform="translate(354.816 95.598)" fill="#5f7407"/><path d="M243.793,79.745a2.234,2.234,0,0,1-1.5-.2.726.726,0,0,1-.064-.149.276.276,0,0,0-.524,0,.287.287,0,0,0,.032.441c.062.044.127.083.192.121.451.544,1.334.468,2,.308.338-.08.194-.589-.143-.518" transform="translate(354.967 95.665)" fill="#5f7407"/><path d="M212.255,65.13a1.53,1.53,0,0,0-.49,1.4.209.209,0,0,0,.188.193c.006.052.013.106.022.159.057.341.576.2.52-.142a2.152,2.152,0,0,1,.183-1.287.27.27,0,0,0-.422-.326" transform="translate(354.229 95.316)" fill="#252a57"/><path d="M210.224,87.473a.9.9,0,0,0,.771.991.916.916,0,0,0,.655-.179.9.9,0,0,0,.167-.174q.638-.075,1.272-.177a3.771,3.771,0,0,0,.141.527,1.448,1.448,0,0,0,.053.139q-.246.226-.476.468a.549.549,0,1,0,.537.617.576.576,0,0,0,0-.084l.086-.092.054-.055.021-.022q.085-.085.172-.166c.023.03.045.058.07.087a3.492,3.492,0,0,0,.958.775l-.326.812-.015.005a.8.8,0,0,0-.525.407.672.672,0,0,0-.118.33c0,.08,0,.159,0,.238a.887.887,0,0,0,.177.417l.161.16a.883.883,0,0,0,.429.176l.032,0a.685.685,0,0,0,.349-.033.912.912,0,0,0,.641-.738c0-.079,0-.158,0-.238a.89.89,0,0,0-.061-.22l.381-.95a3.664,3.664,0,0,0,.627.009,1.758,1.758,0,0,0,.206-.023l.058.715a.49.49,0,0,0-.111.269.549.549,0,0,0,1.09.136.58.58,0,0,0-.226-.514l-.068-.825.077-.036a3.986,3.986,0,0,0,.487-.284q.264.346.512.706c0,.019-.007.04-.01.059,0,.08,0,.159,0,.238a.889.889,0,0,0,.178.417l.028.036a.913.913,0,0,0,1.245.156l.16-.161a.879.879,0,0,0,.176-.429c0-.079,0-.159,0-.238a.889.889,0,0,0-.178-.417l-.028-.036a.991.991,0,0,0-.59-.336l-.04-.005c-.144-.211-.294-.418-.448-.623l.023-.02a3.834,3.834,0,0,0,.471-.51,3.742,3.742,0,0,0,.247-.39q.289.106.586.192a.538.538,0,0,0,.438.347.549.549,0,0,0,.137-1.09.545.545,0,0,0-.28.041c-.2-.057-.39-.12-.583-.19a3.31,3.31,0,0,0,.12-.64,4.26,4.26,0,0,0,.008-.606c.423-.056.846-.124,1.267-.2a.851.851,0,0,0,.528.272.887.887,0,0,0,.992-.771.9.9,0,0,0-.771-.991.92.92,0,0,0-.655.18.785.785,0,0,0-.116.111q-.749.144-1.505.243c-.021-.056-.043-.113-.068-.168a4.812,4.812,0,0,0-.359-.637l0,0,.417-.53h.012a.54.54,0,0,0,.257-.11c.034-.033.067-.067.1-.1a.541.541,0,0,0,.109-.266l0-.031a.614.614,0,0,0-.111-.406.622.622,0,0,0-.366-.208h-.148a.549.549,0,0,0-.258.111l-.1.1a.548.548,0,0,0-.11.265l0,.032a.424.424,0,0,0,0,.157l-.315.4a2.652,2.652,0,0,0-.285-.242,3.121,3.121,0,0,0-.6-.339q.2-.649.4-1.294c.027-.016.053-.035.079-.054l.035-.028a.661.661,0,0,0,.218-.26.672.672,0,0,0,.118-.33.984.984,0,0,0-.179-.655l-.161-.16a.883.883,0,0,0-.429-.176l-.239,0a.89.89,0,0,0-.416.178l-.036.027a.916.916,0,0,0-.159,1.243q-.2.649-.4,1.3a3.215,3.215,0,0,0-.609.094q-.075-.393-.156-.786a.557.557,0,0,0,.064-.2l0-.031a.563.563,0,0,0-.478-.614h-.147a.541.541,0,0,0-.258.111c-.033.033-.067.066-.1.1a.547.547,0,0,0-.109.265l0,.032a.418.418,0,0,0,.02.216.5.5,0,0,0,.252.324l.025.016q.083.409.16.819c-.165.079-.325.169-.484.261q-.212-.34-.443-.668a.74.74,0,0,0,.071-.252.9.9,0,0,0-.771-.991.916.916,0,0,0-.655.18.9.9,0,0,0-.336.59.916.916,0,0,0,.572.942q.28.38.534.776l.046.074c-.1.087-.187.18-.276.278a1.937,1.937,0,0,0-.21.286,5.2,5.2,0,0,0-.676-.481l0-.013a.409.409,0,0,0-.091-.19.616.616,0,0,0-.365-.208h-.148a.549.549,0,0,0-.258.111c-.033.033-.066.067-.1.1a.557.557,0,0,0-.109.265l0,.032a.419.419,0,0,0,.021.216.424.424,0,0,0,.091.19.415.415,0,0,0,.161.134.427.427,0,0,0,.2.074l.147,0a.562.562,0,0,0,.119-.031q.065.04.129.083c.093.061.183.127.272.2s.164.132.242.2l.047.043c-.03.107-.056.214-.084.321a5.277,5.277,0,0,0-.129.761q-.686.115-1.375.2a.854.854,0,0,0-.487-.231.92.92,0,0,0-.655.18.9.9,0,0,0-.336.59" transform="translate(354.191 95.694)" fill="#83a00a"/><path d="M214.8,86.037a1.441,1.441,0,0,0-.284,1.869.267.267,0,0,0,.119.1l0,.033c-.016.346.522.345.538,0q.045-.907.088-1.814a.272.272,0,0,0-.459-.191" transform="translate(354.292 95.832)" fill="#252a57"/><path d="M217.7,84.581a.277.277,0,0,0-.3-.124,1.1,1.1,0,0,0-.838.858.277.277,0,0,0,.188.331.283.283,0,0,0,.178-.014.266.266,0,0,0,.338-.176,1.117,1.117,0,0,1,.4-.548.271.271,0,0,0,.042-.326" transform="translate(354.348 95.795)" fill="#252a57"/><path d="M215.819,66.866a4.158,4.158,0,0,1-1.075.982.271.271,0,0,0-.055.422.766.766,0,0,0,.955.067.272.272,0,0,0,.113-.276,1.753,1.753,0,0,0,.512-.933c.045-.232-.268-.495-.45-.261" transform="translate(354.3 95.358)" fill="#252a57"/><path d="M215.7,64.611a.6.6,0,0,0-.764-.2.268.268,0,0,0-.124.3c.063.188.125.376.186.564a.277.277,0,0,0,.331.188.24.24,0,0,0,.059-.027.336.336,0,0,0,.194-.075.591.591,0,0,0,.118-.752" transform="translate(354.304 95.299)" fill="#252a57"/></g></svg>