<svg xmlns="http://www.w3.org/2000/svg" xmlns:xlink="http://www.w3.org/1999/xlink" width="181" height="176" viewBox="0 0 181 176"><defs><clipPath id="a"><ellipse cx="90.5" cy="88" rx="90.5" ry="88" transform="translate(173 104)" fill="#007cb2"/></clipPath></defs><g transform="translate(-173 -104)" clip-path="url(#a)"><g transform="translate(-2775 -2544)"><path d="M46.388,656.912l-1.65,6.026a62.955,62.955,0,0,1-4.4,5.488,5.717,5.717,0,0,0-1.711,6.026h16.9c1.2,0,1.531-1.417,1.463-3.623s-.315-9.927-.315-9.927Z" transform="translate(2968.303 2251.249)" fill="#d4a06e"/><path d="M38.992,698.688H56.855a.175.175,0,0,0,0-.35H38.992a.175.175,0,0,0,0,.35" transform="translate(2968.024 2224.318)" fill="#2e1616"/><path d="M50.856,681.642a31.587,31.587,0,0,1,6.612-.056c.224.021.222-.328,0-.35a31.591,31.591,0,0,0-6.612.057c-.221.025-.224.375,0,.35" transform="translate(2960.31 2235.531)" fill="#2e1616"/><path d="M54.41,676.487a19.443,19.443,0,0,1,5.838-.159c.223.027.221-.323,0-.35a19.759,19.759,0,0,0-5.931.171c-.221.04-.127.377.093.337" transform="translate(2958.033 2238.949)" fill="#2e1616"/><path d="M182.15,656.912l-1.65,6.026a62.958,62.958,0,0,1-4.4,5.488,5.717,5.717,0,0,0-1.711,6.026h16.9c1.2,0,1.531-1.417,1.463-3.623s-.315-9.927-.315-9.927Z" transform="translate(2880.046 2251.249)" fill="#d4a06e"/><path d="M174.754,698.688h17.863a.175.175,0,0,0,0-.35H174.754a.175.175,0,0,0,0,.35" transform="translate(2879.767 2224.318)" fill="#2e1616"/><path d="M186.618,681.642a31.587,31.587,0,0,1,6.612-.056c.224.021.222-.328,0-.35a31.591,31.591,0,0,0-6.612.057c-.221.025-.224.375,0,.35" transform="translate(2872.052 2235.531)" fill="#2e1616"/><path d="M190.173,676.487a19.443,19.443,0,0,1,5.838-.159c.223.027.221-.323,0-.35a19.759,19.759,0,0,0-5.931.171c-.221.04-.127.377.093.337" transform="translate(2869.776 2238.949)" fill="#2e1616"/><path d="M107.029,399.266c-.58-5.639-1.673-14.65-3.066-25.9q-.651-5.259-1.351-10.511-1.369-18.013-2.553-36.039c-.81-12.353-2.478-27.81-2.818-34.776a.169.169,0,0,0-.062-.127c-.2-2.79-.5-6.252-.907-8.665-.78-4.681-5.676-7.316-5.676-7.316s-36.21-1.266-39.538,0-3.453,16.543-5.227,29.779c-.929,6.936-7,71.954-7.43,94.667-.074,3.885.326,9.038,4.711,10.473.17.145,11.093.493,11.317.473,2.073-.186,3.9-.654,5.009-2.562,1.078-1.856,3.078-14.5,3.762-19.815,1.393-10.834,8.01-63.71,8.112-64.411Q73.7,343.291,76.492,362c1.331,8.918,5.15,23.676,7.064,32.28,1.044,4.691,1.642,9.236,3.268,13.765,1.182,3.292,2.851,2.879,7.693,3.5a89.372,89.372,0,0,0,9.31-.1,6.539,6.539,0,0,0,3.533-4.6c.478-2.458-.077-5.12-.33-7.58" transform="translate(2968.454 2499.286)" fill="#9d6a43"/><path d="M46.489,655.767s-.207,3.652,1.978,5.663c1.184,1.09,4.053.9,9,.829s6.026-1.793,6.026-5.273c0-1.506-17.008-1.219-17.008-1.219" transform="translate(2963.043 2252.007)" fill="#9d6a43"/><path d="M47.311,660.371a27.905,27.905,0,0,0,8.317.962,36.09,36.09,0,0,0,8.366-.962.175.175,0,0,0-.093-.337,35.682,35.682,0,0,1-8.274.949,27.582,27.582,0,0,1-8.224-.949c-.216-.066-.308.272-.093.337" transform="translate(2962.586 2249.225)" fill="#2e1616"/><path d="M184.678,654.887s-.207,3.652,1.978,5.663c1.184,1.09,4.053.9,9,.829s5.876-2.77,5.876-6.25c0-1.506-16.858-.243-16.858-.243" transform="translate(2873.208 2252.888)" fill="#9d6a43"/><path d="M185.5,659.688a71.684,71.684,0,0,0,16.464-1.771c.22-.046.127-.383-.093-.337a71.291,71.291,0,0,1-16.371,1.759.175.175,0,0,0,0,.35" transform="translate(2872.78 2250.817)" fill="#2e1616"/><path d="M167.781,307.054a15.661,15.661,0,0,0,7.63,11.221.175.175,0,0,0,.176-.3,15.333,15.333,0,0,1-7.469-11.012c-.033-.222-.37-.127-.337.093" transform="translate(2884.191 2478.83)" fill="#2e1616"/><path d="M108.7,101.4c-8.393-2.3-23.889-1.148-27.045-1.148A54.4,54.4,0,0,0,64.8,104.2l-.718,49.284s-.968,6.456,3.228,8.286,32.928,0,37.339,0c0,0,5.2.943,5.2-6.134v-21.88Z" transform="translate(2951.666 2613.314)" fill="#ffba00"/><path d="M107.033,94.543s.817-2.5,6.911-3.382,9.88.35,11.942,2.9c2.155,2.66-18.853.486-18.853.486" transform="translate(2923.681 2619.22)" fill="#ffba00"/><path d="M70.351,270.744l-.143,4.376s6.236,1.716,20.156,1.716h25.685l-.574-5.518Z" transform="translate(2947.621 2502.292)" fill="#ffb042"/><path d="M110.422,140.088H65.769l.07-4.865H110.25Z" transform="translate(2950.507 2590.392)" fill="#fff"/><path d="M110.491,162.923H65.439l.07-4.861h44.81Z" transform="translate(2950.721 2575.546)" fill="#fff"/><path d="M126.116,123.741a338.48,338.48,0,0,0-.762,41.15c.174,4.263.4,8.523.655,12.781.013.224.363.225.35,0a397.412,397.412,0,0,1-.676-41.751c.186-4.065.455-8.125.783-12.181.018-.224-.332-.223-.349,0" transform="translate(2911.965 2597.966)" fill="#2e1616"/><path d="M70.174,274.639a214.259,214.259,0,0,0,31.861,1.242c2.452-.121,4.9-.305,7.344-.536.222-.021.224-.371,0-.35a175.413,175.413,0,0,1-28.54.209c-3.56-.245-7.114-.561-10.664-.915-.224-.022-.222.328,0,.35" transform="translate(2947.751 2499.988)" fill="#2e1616"/><path d="M208.14,119.99c-5.165-8.68-7.963-13.63-16.356-15.926l1.148,32.354,10.079,15.231,21.277-.017c-4.611-12.152-12.621-25.714-16.148-31.642" transform="translate(2868.586 2610.648)" fill="#fff"/><path d="M167.011,194.579a1.854,1.854,0,0,0-1.526-1.386c-5.74-.865-17.069-2.423-21.03-2.862a2.834,2.834,0,0,0-2.7,2.14,2.057,2.057,0,0,0-.017.8c.035.161.1.437.185.86,2.417,11.251,4.613,21.477,7.033,32.728a10.256,10.256,0,0,0,.5,1.686c.528,1.2,1.409,1.7,3.034,1.923,4.509.606,14.36,1.715,21.262,2.481a1.859,1.859,0,0,0,2.012-2.279c-4.709-19.8-7.816-32.323-8.756-36.089" transform="translate(2901.137 2554.572)" fill="#2e1616"/><path d="M146.356,190.8q4.133,19.922,8.911,39.705c.053.219.39.126.337-.093q-4.777-19.778-8.911-39.706c-.046-.22-.383-.127-.337.093" transform="translate(2898.121 2554.406)" fill="#c2a394"/><path d="M155.678,225.938c-2.168-.276-10.275-1.3-11.254-1.493a3.234,3.234,0,0,0-2.053.322l.42,2.018s-3.6.315-5.036-1.1a6.408,6.408,0,0,1-1.724-5.165,4.343,4.343,0,0,1-.322-4.466s-.913-2.259.539-3.605c1.318-1.217,4.84-3.183,7.372-3.141a8.671,8.671,0,0,1-.64-1.483c-.6-2.1.29-4.081,1.668-3.613,1.095.374,6.235,5.693,8.3,7.862,2.151.952,3.245,1.38,3.245,1.38a42.134,42.134,0,0,1,.178,6.393,27.4,27.4,0,0,1-.692,6.093" transform="translate(2905.357 2545.591)" fill="#f28a6f"/><path d="M174.264,242.363c.419.054,22.2,6.693,30.091,7.778s8.766-5.95,8.544-8.566a42.255,42.255,0,0,0-2.015-7.584L191.4,232.832l-9.83-2.081Z" transform="translate(2879.975 2528.291)" fill="#f28a6f"/><path d="M191.784,104.063s2.072.262,2.139.686c2.092,13.172-1.182,29.05-1.182,29.05Z" transform="translate(2868.586 2610.649)" fill="#ffba00"/><path d="M110.8,100.4s9.112-.4,16.535-.376c0,0-1.789,8.98-9.882,8.98-5.654,0-6.653-8.6-6.653-8.6" transform="translate(2921.232 2613.274)" fill="#fff"/><path d="M117.134,70.987v4.854a5.18,5.18,0,0,0,4.934,3.079,9.975,9.975,0,0,0,7.563-3.325l-.7-13.151Z" transform="translate(2917.115 2637.706)" fill="#f28a6f"/><path d="M141.589,479.772a217.937,217.937,0,0,0,25.122-1.179c.221-.023.224-.373,0-.35a217.869,217.869,0,0,1-25.122,1.179.175.175,0,0,0,0,.35" transform="translate(2901.327 2367.4)" fill="#2e1616"/><path d="M46.611,473.62c8.776,1.647,17.71,1.94,26.617,2.04a.175.175,0,0,0,0-.35c-8.875-.1-17.779-.387-26.524-2.028-.22-.041-.314.3-.093.337" transform="translate(2963.043 2370.626)" fill="#2e1616"/><path d="M136.73,232.241a46.4,46.4,0,0,1,6.367-2.879c.21-.077.119-.415-.093-.337a46.986,46.986,0,0,0-6.451,2.914c-.2.108-.021.41.177.3" transform="translate(2904.546 2529.421)" fill="#2e1616"/><path d="M137.475,245.855q3.051-1.492,6.214-2.728c.207-.081.117-.419-.093-.337q-3.206,1.251-6.3,2.763c-.2.1-.025.4.176.3" transform="translate(2904.064 2520.473)" fill="#2e1616"/><path d="M206.558,154.793a157.544,157.544,0,0,1,6.729-23.137c.079-.211-.259-.3-.337-.093a157.543,157.543,0,0,0-6.729,23.137c-.046.22.291.314.337.093" transform="translate(2859.203 2592.849)" fill="#2e1616"/><path d="M171.851,193.455a7.546,7.546,0,0,1,.678,1.517c.14.839-.639.813-1.258.786-.806-.035-1.612-.125-2.414-.2-.818-.08-1.638-.158-2.454-.261a1.966,1.966,0,0,1-1.7-1.135c-.309-.629-.552-1.3-.819-1.951-.084-.205-.423-.115-.337.093.49,1.188.844,2.921,2.278,3.253a28.171,28.171,0,0,0,3.733.417c.826.076,2.462.49,3.172-.082.725-.585-.321-2.028-.574-2.611-.09-.206-.391-.028-.3.177" transform="translate(2886.953 2553.423)" fill="#c2a394"/><path d="M191.275,104.25c.376,9.852.585,19.709.961,29.561.009.224.358.225.35,0-.376-9.852-.585-19.709-.961-29.561-.008-.224-.358-.225-.35,0" transform="translate(2868.917 2610.637)" fill="#2e1616"/><path d="M70.351,240.605a5.041,5.041,0,0,0-.7-.6,1.871,1.871,0,0,0,.267-2.985c-.757-.581-6.383-1.163-8.33-1.276-.651-.29-1.3-.57-1.929-.833h0a28.563,28.563,0,0,0,3.577-1.835c1.664-1.061,1.7-2.338.488-2.77s-7.8.668-7.8.668q-2.553-.3-4.522-.532a164.1,164.1,0,0,1-25.571-13.187l.757-1.4-16.256-7.355c-3.532,8.357-6.774,18.208,2.654,22.448,12.626,5.678,28.258,9.668,28.258,9.668,1.655.451,11.441,3.1,14.631,3.684,3.166.652,9.9,1.647,11.381,1.368a2.244,2.244,0,0,0,2.029-2.017c1.037-.655,2.266-1.747,1.062-3.052" transform="translate(2988.842 2542.751)" fill="#f28a6f"/><path d="M152.755,298.689c3.835.123,7.659.233,11.5.107.225-.007.226-.357,0-.35-3.836.126-7.661.016-11.5-.108-.225-.007-.225.343,0,.35" transform="translate(2894.067 2484.353)" fill="#2e1616"/><path d="M154.106,308.362c3.586.115,7.157.219,10.745.1.224-.007.225-.357,0-.35-3.588.118-7.159.015-10.745-.1-.225-.007-.225.342,0,.35" transform="translate(2893.189 2478.064)" fill="#2e1616"/><path d="M94.643,16.681c-.307,1.511-.324,7.57-.324,7.57s-.061,3.949-.056,5.053c.02,5.227,1.7,8.525,6.058,9.438,5.642,1.182,11.294-4.322,13.647-10.714s2.265-13.992.023-16.834-7.148-3.7-10.952-2.754-7.2,2.348-8.4,8.242" transform="translate(2931.983 2673.052)" fill="#f28a6f"/><path d="M96.225,45.044c-1.7.029-2.8,1.019-2.751,1.846.037.684.845.79,2.018.429,1.275-.393,2.288.463,2.606-.726.232-.867-.281-1.576-1.872-1.548" transform="translate(2932.497 2649.018)" fill="#452b2b"/><path d="M98.773,54.319c.825-.1.868,1.1.78,1.6-.057.322-.212.713-.586.752-.546.057-.674-.678-.7-1.076-.033-.444-.031-1.208.509-1.272" transform="translate(2929.39 2642.99)" fill="#1f1515"/><path d="M114.014,25.225c1.425-5.67,1.087-11.6-.835-14.032-2.242-2.842-7.147-3.7-10.951-2.752-3.773.934-7.141,2.324-8.365,8.1h0c-.009.047-.68.5-.688.545-.519,3.123.383,4.094.383,4.094s.049-2.692,2.484-3.184c.258-.052,1.106-.1,1.4-.138.164.02.321.037.464.052a44.187,44.187,0,0,0,5.379.227.173.173,0,0,0,.094.1,5.308,5.308,0,0,1,3.18,4.279c.171.95.625,1.357,1.361,1.438,0,2.1.368,4.5,1.767,5.939a4.4,4.4,0,0,0,4.56,1.059c.009.064-.23-5.724-.23-5.724Z" transform="translate(2932.795 2673.052)" fill="#452b2b"/><path d="M94.822,34.288s-1.329,2.217.11,2.556a2.861,2.861,0,0,0,2.689-1.075,1.691,1.691,0,0,0,2.059.483,11.554,11.554,0,0,0,2.443-1.711Z" transform="translate(2931.983 2656.009)" fill="#452b2b"/><path d="M127.678,53.854a3.131,3.131,0,1,0,3.528-2.675,3.131,3.131,0,0,0-3.528,2.675" transform="translate(2910.28 2645.048)" fill="#f28a6f"/><path d="M115.693,54.319c-.825-.1-.868,1.1-.78,1.6.057.322.212.713.586.752.546.057.674-.678.7-1.076.033-.444.031-1.208-.509-1.272" transform="translate(2918.58 2642.99)" fill="#1f1515"/><path d="M114.173,45.044c1.7.029,2.795,1.019,2.751,1.846-.036.684-.845.79-2.018.429-1.275-.393-2.288.463-2.606-.726-.232-.867.281-1.576,1.872-1.548" transform="translate(2920.292 2649.018)" fill="#452b2b"/><path d="M105.74,55.674a16.145,16.145,0,0,1-1.411,4.568c-.119.247.25.464.37.216a16.538,16.538,0,0,0,1.454-4.671c.042-.269-.371-.386-.413-.114" transform="translate(2925.455 2642.207)" fill="#2e1616"/><path d="M104.339,69.017a3.029,3.029,0,0,0,2.681.282c.269-.06.155-.472-.114-.413a2.616,2.616,0,0,1-2.265-.172c-.215-.168-.519.133-.3.3" transform="translate(2925.481 2633.661)" fill="#2e1616"/><path d="M137.738,56.115a1.271,1.271,0,0,1,.426,2.212c-.19.2.112.5.3.3a1.7,1.7,0,0,0-.614-2.928c-.263-.084-.375.329-.114.413" transform="translate(2903.817 2642.095)" fill="#2e1616"/><path d="M91.822,11.749S91.731-1.755,104.77.192s9.537,14.915,9.537,14.915Z" transform="translate(2933.57 2678.299)" fill="#ffba00"/><path d="M85.012,25.192s-3.816.621-4.248,1.133-.182,1.215.73,1.351l9.658,1.443Z" transform="translate(2940.892 2661.922)" fill="#ffba00"/><path d="M92.9,25.007a45.01,45.01,0,0,1,9.906,1.509c1.412.4,5.321,1.343,5.238,3.374-.011.276.417.275.428,0,.081-1.987-2.94-2.946-4.4-3.432A42.228,42.228,0,0,0,92.9,24.579c-.275-.014-.274.414,0,.428" transform="translate(2933.001 2662.321)" fill="#2e1616"/><path d="M133.525,34.079l7.9,1.3c.269.044.385-.368.114-.413l-7.9-1.3c-.269-.044-.385.368-.114.413" transform="translate(2906.56 2656.415)" fill="#2e1616"/><path d="M128,14.868c.63-3.476,2.132-7.1,5.582-8.581.252-.108.034-.477-.216-.37-3.539,1.521-5.131,5.265-5.778,8.837-.049.269.364.385.413.114" transform="translate(2910.323 2674.465)" fill="#2e1616"/><path d="M139.159,23.4c.274-2.661,2.01-5.622,4.918-5.789.274-.016.276-.444,0-.428-3.165.182-5.046,3.3-5.346,6.217-.028.274.4.272.428,0" transform="translate(2903.075 2667.13)" fill="#2e1616"/><path d="M108.53,75.133a10.608,10.608,0,0,0-5.083.108c.677-2.319,4.389-2.419,5.083-.108" transform="translate(2926.013 2630.55)" fill="#964839"/><path d="M109.031,49.029l-1.276-.444a23.761,23.761,0,0,1,.047,5.274,8.692,8.692,0,0,1-3.685,6.569,5.792,5.792,0,0,1-1.9.72c-.522-.635-1.457-1.45-2.354-1.247a3.184,3.184,0,0,0-1.716,1.182,4.648,4.648,0,0,1-3.177-2.275s-.344,3.763,1.266,5.255a7.666,7.666,0,0,0,8.99.235c3.284-2.291,4.159-6.241,4.292-9.708a19.053,19.053,0,0,0-.482-5.562" transform="translate(2931.547 2646.715)" fill="#452b2b"/><path d="M7.184,151.376c4.712,1.2,9.478,2.158,14.23,3.185l1.175-2.171.615-40.332C14.579,115.211,4.2,137.743,0,149.708c2.4.578,4.823,1.067,7.184,1.668" transform="translate(2993.262 2605.451)" fill="#fff"/><path d="M45.648,129.755Q48.5,139.8,52.09,149.592c.077.21.415.119.337-.093q-3.591-9.8-6.442-19.836a.175.175,0,0,0-.337.093" transform="translate(2963.592 2594.087)" fill="#2e1616"/><path d="M60.962,112.059s-2.144.75-2.211,1.175c-2.092,13.172,1.4,28.561,1.4,28.561h.381Z" transform="translate(2955.503 2605.451)" fill="#ffba00"/><path d="M65.039,112.208c-.478,9.747-.56,19.512-.49,29.269a.175.175,0,0,0,.35,0c-.07-9.757.012-19.522.49-29.269.011-.225-.339-.224-.35,0" transform="translate(2951.314 2605.464)" fill="#2e1616"/><path d="M153.559,280.253a29.274,29.274,0,0,0,2.727,2.031c.189.124.364-.179.176-.3a28.553,28.553,0,0,1-2.656-1.976c-.171-.143-.42.1-.247.247" transform="translate(2893.473 2496.299)" fill="#2e1616"/><path d="M159.9,218.642a11.352,11.352,0,0,1,3.185.753c.209.082.3-.256.093-.337a11.678,11.678,0,0,0-3.278-.766c-.224-.02-.223.33,0,.35" transform="translate(2889.42 2536.39)" fill="#2e1616"/><path d="M222.5,236.668a103.31,103.31,0,0,1,11.78,2.532.175.175,0,0,0,.093-.337,103.29,103.29,0,0,0-11.779-2.532c-.22-.034-.315.3-.093.337" transform="translate(2848.697 2524.665)" fill="#2e1616"/><path d="M195.441,245.365c-1.413-.4-2.749-.783-3.959-1.133a22.937,22.937,0,0,0,1.616-13.279l3.819.808a27.9,27.9,0,0,1-1.476,13.6" transform="translate(2868.782 2528.159)" fill="#2e1616"/><path d="M196.063,245.675h0a2.877,2.877,0,0,1-2.563-3.143l.078-.766a2.868,2.868,0,0,1,5.706.579l-.078.766a2.876,2.876,0,0,1-3.143,2.563" transform="translate(2867.48 2522.805)" fill="#fff1de"/><path d="M3.174,26.941a.25.25,0,0,1-.248-.221L-.248.03A.25.25,0,0,1-.03-.248.25.25,0,0,1,.248-.03L3.422,26.661a.25.25,0,0,1-.219.278Z" transform="translate(3036.44 2797.13)" fill="#2e1616"/><path d="M6.1,60.436a.25.25,0,0,1-.248-.225L-.249.025A.25.25,0,0,1-.025-.249a.25.25,0,0,1,.274.224l6.1,60.186a.25.25,0,0,1-.223.274Z" transform="translate(3059.864 2785.664)" fill="#2e1616"/></g></g></svg>