<svg xmlns="http://www.w3.org/2000/svg" xmlns:xlink="http://www.w3.org/1999/xlink" width="49.839" height="28.038" viewBox="0 0 49.839 28.038"><defs><clipPath id="a"><rect width="49.839" height="28.038" fill="none"/></clipPath></defs><g transform="translate(0 0)"><g transform="translate(0 0)" clip-path="url(#a)"><path d="M11.264,21.8S11.094-3.258,35.295.357s17.7,27.681,17.7,27.681Z" transform="translate(-3.949 0)" fill="#ffb042"/><path d="M8.265,25.191s-7.082,1.152-7.884,2.1S.044,29.55,1.736,29.8L19.66,32.48Z" transform="translate(0 -8.832)" fill="#ffb042"/><path d="M12.521,25.374a83.534,83.534,0,0,1,18.384,2.8c2.62.739,9.875,2.494,9.721,6.261-.021.512.773.51.794,0,.151-3.688-5.456-5.467-8.157-6.369A78.371,78.371,0,0,0,12.521,24.58c-.51-.026-.509.768,0,.794" transform="translate(-4.256 -8.617)" fill="#2e1616"/><path d="M53.1,34.435l14.67,2.42c.5.082.715-.683.211-.766L53.31,33.67c-.5-.082-.715.683-.211.766" transform="translate(-18.516 -11.802)" fill="#2e1616"/><path d="M47.8,22.544c1.17-6.451,3.957-13.173,10.36-15.925.468-.2.064-.886-.4-.686-6.567,2.824-9.523,9.771-10.724,16.4-.091.5.675.714.766.211" transform="translate(-16.487 -2.067)" fill="#2e1616"/><path d="M58.968,28.72c.508-4.938,3.731-10.433,9.128-10.744.508-.03.512-.824,0-.795-5.874.338-9.366,6.13-9.922,11.538-.053.508.742.5.794,0" transform="translate(-20.395 -6.023)" fill="#2e1616"/></g></g></svg>