<svg xmlns="http://www.w3.org/2000/svg" width="112.46" height="70.787" viewBox="0 0 112.46 70.787"><g transform="translate(-328.837 -284.649)"><path d="M220.615,58.987a11.8,11.8,0,1,1-11.8-11.8,11.8,11.8,0,0,1,11.8,11.8" transform="translate(144 284.649)"/><path d="M281.74,58.987a11.8,11.8,0,1,1-11.8-11.8,11.8,11.8,0,0,1,11.8,11.8" transform="translate(144 284.649)"/><path d="M226.206,10.179q-1.5.282-2.992.576c-5.023.99-9.278,1.893-14.3,2.891-.749.148-1.5.3-2.247.44q-1.322.258-2.646.5-.473,1.246-.948,2.495c-1.156,3.041-2.308,6.081-3.354,9.16-.625,1.838-1.217,3.683-1.817,5.526,0,0,2.249.84,2.279.84q.521-1.432,1.028-2.867c1.634-4.623,2.979-8.6,4.579-13.167,5.06-.92,10.144-1.7,15.174-2.755,1.9-.4,3.79-.829,5.681-1.251,0,0-.427-2.389-.437-2.389" transform="translate(144 284.649)"/><path d="M258.973,48.256c-7.438-.355-14.9-.432-22.347-.591q-9.362-.2-18.726-.259a20.543,20.543,0,0,1,4.255,10.4c2.8.051,5.594.012,8.394-.006,6.4-.04,12.809.116,19.213.124,2.311,0,3.838-.015,6.149-.067.051-.294.107-.587.171-.878.831-3.736,2.258-6.5,4.827-8.621-.646-.038-1.292-.077-1.936-.107" transform="translate(144 284.649)" fill="#b9c0c4"/><path d="M279.327,49.231l.086.071q.572.01,1.141.038c-.091-1.145-.172-2.291-.269-3.436-.053-.621-.124-1.242-.157-1.865-.019-.367-.036-.733-.056-1.1-2.1-.164-4.213-.09-6.313-.164-1.261-.044-5.911-.1-7.171-.151a.615.615,0,0,1-.433.349c-2.121.538-.592,1.684-2.157,3.168h4.2c.678,0,1.359-.013,2.032-.019a13.838,13.838,0,0,1,5.234.573,11.908,11.908,0,0,1,2.371,1.288,9.1,9.1,0,0,1,1.487,1.248" transform="translate(144 284.649)"/><path d="M296.994,8,229.4,9.277c-.108-.351-.232-.758-.245-.8A67.873,67.873,0,0,0,225.7.115L224.431.073c-1.2-.04-2.4-.054-3.606-.054q-6.547,0-13.1.009h-3.247c-1.047,0-2.1.032-3.147-.016-.9-.042-1.71.074-2.609.018-.268-.017-.543-.03-.818-.03V.111c-.038,1.44-.183,2.64-.234,4.079-.045,1.287-.069,2.574-.108,3.861,1.265.011,2.529.054,3.794.09,1.662.046,3.326.081,4.988,0s3.334-.272,5.006-.338c.832-.033,1.664-.041,2.5-.062.45,2.431.868,5.028,1.178,7.457.214,1.682.6,4.165.787,5.851q.28,2.582.534,5.165c.026.267.052.53.078.791-5.065,0-13.664.074-18.717.269q-3.809.147-7.613.392c-1.3.085-2.59.184-3.884.288.01,1.017.035,2.034.086,3.052.131,2.6.295,5.19.454,7.784s.295,5.17.436,7.755c.14,2.562.42,5.116.512,7.68.048,1.357,0,2.744.122,4.107l.07.008c2.207.237,4.423.38,6.637.532l.49.031c.017-.8.207-1.642.291-2.345a10.955,10.955,0,0,1,.92-3.458,9.882,9.882,0,0,1,2.795-3.577,11.364,11.364,0,0,1,8.629-4.046c6.721-.23,10.971-.15,10.971-.15,1.031.027,2.068.005,3.094.08,2.029.147,24.612.846,27.363.875,1.128-.044,2.256-.089,3.385-.109,1.671-.028,7.237.131,8.193.1,1.535-.045,3.074-.012,4.6-.132l.273-.383a87.974,87.974,0,0,1,6.553-7.893c2.329-2.539,4.758-4.986,7.221-7.4s4.955-4.775,7.429-7.167,4.931-4.824,7.311-7.32q1.1-1.152,2.2-2.3.167-.882.331-1.765.364-1.962.718-3.926h-.308" transform="translate(144 284.649)" fill="#ffba00"/><path d="M275.673,58.987a5.732,5.732,0,1,1-5.732-5.732,5.732,5.732,0,0,1,5.732,5.732" transform="translate(144 284.649)" fill="#fff"/><path d="M214.547,58.987a5.732,5.732,0,1,1-5.732-5.732,5.732,5.732,0,0,1,5.732,5.732" transform="translate(144 284.649)" fill="#fff"/><path d="M209.071,55.9a.956.956,0,0,0-1.641.3.9.9,0,0,0,.9,1.2,1.038,1.038,0,0,0,.837-1.206,1.023,1.023,0,0,0-.1-.294" transform="translate(144 284.649)"/><path d="M210.9,60.923a.956.956,0,0,0-1.641.3.9.9,0,0,0,.9,1.2,1.038,1.038,0,0,0,.837-1.206,1.022,1.022,0,0,0-.1-.294" transform="translate(144 284.649)"/><path d="M211.313,57.257a.936.936,0,0,0-1.057.8.924.924,0,0,0,.01.319,1.043,1.043,0,0,0,1.624.4.9.9,0,0,0-.577-1.514" transform="translate(144 284.649)"/><path d="M206.561,59.2a.936.936,0,0,0-1.057.8.924.924,0,0,0,.01.319,1.043,1.043,0,0,0,1.624.4.9.9,0,0,0-.577-1.514" transform="translate(144 284.649)"/><path d="M272.495,56.847a.955.955,0,0,0-1.315-1.025.9.9,0,0,0-.293,1.474,1.039,1.039,0,0,0,1.457-.181,1.056,1.056,0,0,0,.151-.268" transform="translate(144 284.649)"/><path d="M269.965,61.558a.955.955,0,0,0-1.315-1.025.9.9,0,0,0-.293,1.474,1.039,1.039,0,0,0,1.457-.181,1.056,1.056,0,0,0,.151-.268" transform="translate(144 284.649)"/><path d="M272.974,59.425a.936.936,0,0,0-1.53-.037,1.043,1.043,0,0,0,.786,1.476.905.905,0,0,0,.744-1.439" transform="translate(144 284.649)"/><path d="M268.362,57.173a.936.936,0,0,0-1.53-.037,1.043,1.043,0,0,0,.786,1.476.905.905,0,0,0,.744-1.439" transform="translate(144 284.649)"/><path d="M238.329,60.517a5.354,5.354,0,0,1-.122-1.4c-.016-.568-.054-1.136-.106-1.7-.108-1.188-.177-2.375-.225-3.566s-.092-2.362-.2-3.539-.179-2.355-.249-3.535c-.079-1.339-.27-2.676-.28-4.018a.292.292,0,0,0-.319-.256.3.3,0,0,0-.256.319c0,1.2.17,2.386.242,3.581s.113,2.384.22,3.572c.214,2.376.193,4.766.418,7.141.063.664.117,1.327.146,1.993a5.209,5.209,0,0,0,.178,1.625c.135.359.659.148.55-.211" transform="translate(144 284.649)" fill="#180c45"/><path d="M227.713,60.526c-.117-1.1-.163-2.205-.221-3.309q-.093-1.761-.171-3.522c-.055-1.2-.154-2.384-.27-3.575s-.188-2.375-.281-3.564c-.05-.633-.114-1.266-.155-1.9s-.039-1.268-.038-1.9c0-.324-.534-.332-.568-.011a18.357,18.357,0,0,0,.114,3.38c.1,1.187.158,2.376.267,3.562s.238,2.377.292,3.571.089,2.4.155,3.594c.068,1.25.11,2.5.235,3.749a.322.322,0,0,0,.639-.071" transform="translate(144 284.649)" fill="#180c45"/><path d="M236.906,45.289c-1.268-.014-2.535-.077-3.8-.063-.771.008-1.541.032-2.312.047-.752.015-1.5-.018-2.255-.019-.406,0-.815-.017-1.221-.006-.266.007-.529-.02-.79.009.019.2.049.411.071.614.234,0,.474.027.707.023.349-.005.7.013,1.047.009.751-.007,1.5.039,2.252.027,1.483-.024,2.964-.077,4.447-.022.632.023,1.268.058,1.9.047q-.028-.333-.044-.666" transform="translate(144 284.649)" fill="#180c45"/><path d="M237.278,49.619c-1.268-.014-2.535-.077-3.8-.063-.771.008-1.541.032-2.312.047-.752.015-1.5-.018-2.255-.019-.406,0-.815-.017-1.221-.006-.266.007-.529-.02-.79.009.019.2.049.411.071.614.234,0,.474.027.707.023.349,0,.7.013,1.047.009.751-.007,1.5.039,2.252.027,1.483-.024,2.964-.077,4.447-.022.632.023,1.268.058,1.9.047q-.029-.333-.044-.666" transform="translate(144 284.649)" fill="#180c45"/><path d="M237.466,53.766c-1.268-.014-2.535-.077-3.8-.063-.771.008-1.541.032-2.312.047-.752.015-1.5-.018-2.255-.019-.406,0-.815-.017-1.221-.006-.266.007-.529-.02-.79.009.019.2.049.411.071.614.234,0,.474.027.707.023.349,0,.7.013,1.047.009.751-.007,1.5.039,2.252.027,1.483-.023,2.964-.077,4.447-.022.632.023,1.268.058,1.9.047q-.028-.333-.044-.666" transform="translate(144 284.649)" fill="#180c45"/><path d="M237.589,57.7c-1.268-.014-2.535-.077-3.8-.063-.771.008-1.541.032-2.312.047-.752.015-1.5-.018-2.255-.019-.406,0-.815-.017-1.221-.006-.266.007-.529-.02-.79.009.019.2.049.411.071.614.234,0,.474.027.707.023.349,0,.7.013,1.047.009.751-.007,1.5.039,2.252.027,1.483-.023,2.964-.077,4.447-.022.632.023,1.268.058,1.9.047q-.028-.333-.044-.666" transform="translate(144 284.649)" fill="#180c45"/><path d="M217.161,8.335h0c.013.008.016.008,0,0" transform="translate(144 284.649)" fill="#f5be51"/><path d="M189.033,29.044c-2.12.129-.956,7.072.847,5.048l.011-.012a3.645,3.645,0,0,0,.5-2.436c-.116-1.348-.777-2.635-1.358-2.6" transform="translate(144 284.649)" fill="#fff"/><path d="M215.807,42.857c-.41,0-.82-.006-1.231.005-1.21.034-2.415.092-3.626.081s-2.432-.056-3.648-.112c-2.415-.111-4.829-.256-7.248-.259-2.449,0-4.9.137-7.349.054-2.042-.069-5.823-.357-7.868-.353v.7c.007.776.7,9.354.738,10.783.02.7.049,1.4.1,2.1s.123,1.4.15,2.1c.007.18.01.36.012.539.246.035.491.068.737.1,1.386.164,4.528.319,5.923.372.666.026,1.329.058,1.994.1.253.015.507.025.758.054l.049.006a19.037,19.037,0,0,1,.977-5.243,11.406,11.406,0,0,1,3.748-5.31,13.844,13.844,0,0,1,5.435-2.762c1.593-.364,6.858-.393,10.535-.423-.046-.829-.06-1.677-.19-2.527" transform="translate(144 284.649)"/><path d="M1.886,17.139a.25.25,0,0,1-.248-.222L-.248.028A.25.25,0,0,1-.028-.248a.25.25,0,0,1,.276.221L2.134,16.861a.25.25,0,0,1-.221.276Z" transform="translate(371.471 302.26)" fill="#180c45"/><path d="M1.886,15.548a.25.25,0,0,1-.248-.219L-.248.031A.25.25,0,0,1-.031-.248a.25.25,0,0,1,.279.218l1.886,15.3a.25.25,0,0,1-.218.279Z" transform="translate(383.404 303.055)" fill="#180c45"/><path d="M1.521,13.871a.25.25,0,0,1-.248-.222L-.248.028A.25.25,0,0,1-.028-.248a.25.25,0,0,1,.276.221L1.769,13.593a.25.25,0,0,1-.221.276Z" transform="translate(395.338 303.894)" fill="#180c45"/><path d="M1.461,13.334a.25.25,0,0,1-.248-.222L-.248.028A.25.25,0,0,1-.028-.248a.25.25,0,0,1,.276.221L1.709,13.056a.25.25,0,0,1-.221.276Z" transform="translate(407.271 304.162)" fill="#180c45"/><rect width="4.438" height="1.695" transform="translate(354.109 313.693)"/><path d="M3.164.25H0A.25.25,0,0,1-.25,0,.25.25,0,0,1,0-.25H3.164a.25.25,0,0,1,.25.25A.25.25,0,0,1,3.164.25Z" transform="translate(331.58 321.01)" fill="#180c45"/><path d="M3.164.25H0A.25.25,0,0,1-.25,0,.25.25,0,0,1,0-.25H3.164a.25.25,0,0,1,.25.25A.25.25,0,0,1,3.164.25Z" transform="translate(331.58 322.955)" fill="#180c45"/><path d="M3.164.25H0A.25.25,0,0,1-.25,0,.25.25,0,0,1,0-.25H3.164a.25.25,0,0,1,.25.25A.25.25,0,0,1,3.164.25Z" transform="translate(331.58 324.899)" fill="#180c45"/><path d="M16.1.25H0A.25.25,0,0,1-.25,0,.25.25,0,0,1,0-.25H16.1a.25.25,0,0,1,.25.25A.25.25,0,0,1,16.1.25Z" transform="translate(348.836 289.444)" fill="#180c45"/><path d="M1.473,18.469a.25.25,0,0,1-.249-.23L-.249.02A.25.25,0,0,1-.02-.249.25.25,0,0,1,.249-.02L1.722,18.2a.25.25,0,0,1-.229.269Z" transform="translate(360.427 311.654)" fill="#180c45"/></g></svg>