<svg xmlns="http://www.w3.org/2000/svg" width="124.691" height="80.704" viewBox="0 0 124.691 80.704"><g transform="translate(-144 -303.296)"><rect width="10.889" height="60.875" transform="translate(257.802 323.125)" fill="#b15830"/><path d="M113.9,61.687h10.568c.236,0,.237-.193,0-.193H113.9c-.236,0-.237.193,0,.193" transform="translate(144 284.649)" fill="#ab562e"/><path d="M113.9,62.627h10.568c.236,0,.237-.193,0-.193H113.9c-.236,0-.237.193,0,.193" transform="translate(144 284.649)" fill="#ab562e"/><path d="M113.9,77.566h10.568c.236,0,.237-.193,0-.193H113.9c-.236,0-.237.193,0,.193" transform="translate(144 284.649)" fill="#ab562e"/><path d="M113.9,78.506h10.568c.236,0,.237-.193,0-.193H113.9c-.236,0-.237.193,0,.193" transform="translate(144 284.649)" fill="#ab562e"/><rect width="113.728" height="60.875" transform="translate(144.074 323.125)" fill="#d37951"/><path d="M84.322,61.687H113.8a.1.1,0,0,0,0-.193H84.322a.1.1,0,0,0,0,.193" transform="translate(144 284.649)" fill="#fbf1eb"/><path d="M84.322,62.627H113.8a.1.1,0,0,0,0-.193H84.322a.1.1,0,0,0,0,.193" transform="translate(144 284.649)" fill="#fbf1eb"/><rect width="52.67" height="26.879" transform="translate(175.898 333.971)" fill="#b15830"/><path d="M.074,78.506H23.918a.1.1,0,0,0,0-.193H.074a.1.1,0,0,0,0,.193" transform="translate(144 284.649)" fill="#fbf1eb"/><path d="M86.364,78.506H113.8a.1.1,0,0,0,0-.193H86.364a.1.1,0,0,0,0,.193" transform="translate(144 284.649)" fill="#fbf1eb"/><rect width="2.567" height="20.581" transform="translate(173.899 336.164)" fill="#f0ccb9"/><rect width="0.749" height="20.581" transform="translate(173.898 336.164)" fill="#fbf1eb"/><rect width="4.407" height="2.289" transform="translate(172.979 333.875)" fill="#f0ccb9"/><rect width="4.407" height="1.222" transform="translate(172.979 356.745)" fill="#fbf1eb"/><rect width="5.656" height="4.051" transform="translate(171.73 357.967)" fill="#fbf1eb"/><rect width="3.987" height="4.051" transform="translate(174.664 357.967)" fill="#f0ccb9"/><rect width="1.861" height="1.222" transform="translate(175.541 356.745)" fill="#f0ccb9"/><path d="M86.364,77.566H113.8a.1.1,0,0,0,0-.193H86.364a.1.1,0,0,0,0,.193" transform="translate(144 284.649)" fill="#fbf1eb"/><rect width="23.009" height="8.937" transform="translate(144.074 375.063)" fill="#fbf1eb"/><rect width="4.621" height="3.321" transform="translate(162.518 378.459)" fill="#77679e"/><path d="M20.723,93.66v3.626a.1.1,0,0,0,.193,0V93.66a.1.1,0,0,0-.193,0" transform="translate(144 284.649)" fill="#fbf1eb"/><rect width="4.621" height="7.172" transform="translate(162.518 367.891)" fill="#77679e"/><path d="M20.723,83.105v7.206a.1.1,0,0,0,.193,0V83.105a.1.1,0,0,0-.193,0" transform="translate(144 284.649)" fill="#fbf1eb"/><path d="M18.611,88.055h4.42a.1.1,0,0,0,0-.193h-4.42a.1.1,0,0,0,0,.193" transform="translate(144 284.649)" fill="#fbf1eb"/><path d="M18.611,85.76h4.42a.1.1,0,0,0,.068-.124.1.1,0,0,0-.068-.068h-4.42a.1.1,0,0,0,0,.192" transform="translate(144 284.649)" fill="#fbf1eb"/><path d="M17.945,82.269l.572,1.631h4.621l.572-1.631Z" transform="translate(144 284.649)" fill="#fbf1eb"/><path d="M19.824,81.765l.353,2.134h1.305l.353-2.134Z" transform="translate(144 284.649)" fill="#fbf1eb"/><rect width="4.621" height="9.435" transform="translate(162.518 352.006)" fill="#77679e"/><path d="M18.518,67.357a3.547,3.547,0,0,1,4.621,0Z" transform="translate(144 284.649)" fill="#fbf1eb"/><path d="M20.723,67.221V76.73a.1.1,0,0,0,.193,0V67.221a.1.1,0,0,0-.193,0" transform="translate(144 284.649)" fill="#fbf1eb"/><path d="M18.611,74.626h4.42a.1.1,0,0,0,0-.193h-4.42a.1.1,0,0,0,0,.193" transform="translate(144 284.649)" fill="#fbf1eb"/><path d="M18.611,72.17h4.42a.1.1,0,0,0,0-.193h-4.42a.1.1,0,0,0,0,.193" transform="translate(144 284.649)" fill="#fbf1eb"/><path d="M18.611,69.876h4.42a.1.1,0,0,0,0-.193h-4.42a.1.1,0,0,0,0,.193" transform="translate(144 284.649)" fill="#fbf1eb"/><rect width="4.621" height="0.61" transform="translate(162.518 361.441)" fill="#fbf1eb"/><rect width="4.621" height="7.172" transform="translate(162.518 338.464)" fill="#77679e"/><path d="M18.518,53.815a3.547,3.547,0,0,1,4.621,0Z" transform="translate(144 284.649)" fill="#fbf1eb"/><path d="M20.723,53.679v7.206a.1.1,0,0,0,.193,0V53.679a.1.1,0,0,0-.193,0" transform="translate(144 284.649)" fill="#fbf1eb"/><path d="M18.611,58.629h4.42a.1.1,0,0,0,0-.193h-4.42a.1.1,0,0,0,0,.193" transform="translate(144 284.649)" fill="#fbf1eb"/><path d="M18.611,56.331h4.42a.1.1,0,0,0,0-.193h-4.42a.1.1,0,0,0,0,.193" transform="translate(144 284.649)" fill="#fbf1eb"/><rect width="4.621" height="0.61" transform="translate(162.518 345.636)" fill="#fbf1eb"/><rect width="4.621" height="9.435" transform="translate(180.956 349.792)" fill="#77679e"/><path d="M36.956,65.143a3.547,3.547,0,0,1,4.621,0Z" transform="translate(144 284.649)" fill="#fbf1eb"/><path d="M39.16,65.006v9.509a.1.1,0,0,0,.193,0V65.006a.1.1,0,0,0-.193,0" transform="translate(144 284.649)" fill="#fbf1eb"/><path d="M37.049,72.413h4.42a.1.1,0,0,0,0-.193h-4.42a.1.1,0,0,0,0,.193" transform="translate(144 284.649)" fill="#fbf1eb"/><path d="M37.049,69.956h4.42a.1.1,0,0,0,0-.193h-4.42a.1.1,0,0,0,0,.193" transform="translate(144 284.649)" fill="#fbf1eb"/><path d="M37.049,67.662h4.42a.1.1,0,0,0,0-.193h-4.42a.1.1,0,0,0,0,.193" transform="translate(144 284.649)" fill="#fbf1eb"/><rect width="4.621" height="0.61" transform="translate(180.956 359.226)" fill="#fbf1eb"/><rect width="4.621" height="4.717" transform="translate(180.956 338.705)" fill="#77679e"/><path d="M36.956,54.056a3.547,3.547,0,0,1,4.621,0Z" transform="translate(144 284.649)" fill="#fbf1eb"/><path d="M39.16,53.919v4.854a.1.1,0,0,0,.193,0V53.919a.1.1,0,0,0-.193,0" transform="translate(144 284.649)" fill="#fbf1eb"/><path d="M37.049,56.575h4.42a.1.1,0,0,0,0-.193h-4.42a.1.1,0,0,0,0,.193" transform="translate(144 284.649)" fill="#fbf1eb"/><rect width="4.621" height="0.61" transform="translate(180.956 343.422)" fill="#fbf1eb"/><rect width="4.621" height="9.435" transform="translate(193.065 349.792)" fill="#77679e"/><path d="M49.065,65.143a3.547,3.547,0,0,1,4.621,0Z" transform="translate(144 284.649)" fill="#fbf1eb"/><path d="M51.269,65.006v9.509a.1.1,0,0,0,.193,0V65.006a.1.1,0,0,0-.193,0" transform="translate(144 284.649)" fill="#fbf1eb"/><path d="M49.157,72.413h4.42a.1.1,0,0,0,0-.193h-4.42a.1.1,0,0,0,0,.193" transform="translate(144 284.649)" fill="#fbf1eb"/><path d="M49.157,69.956h4.42a.1.1,0,0,0,0-.193h-4.42a.1.1,0,0,0,0,.193" transform="translate(144 284.649)" fill="#fbf1eb"/><path d="M49.157,67.662h4.42a.1.1,0,0,0,0-.193h-4.42a.1.1,0,0,0,0,.193" transform="translate(144 284.649)" fill="#fbf1eb"/><rect width="4.621" height="0.61" transform="translate(193.065 359.226)" fill="#fbf1eb"/><rect width="4.621" height="4.717" transform="translate(193.065 338.705)" fill="#77679e"/><path d="M49.065,54.056a3.547,3.547,0,0,1,4.621,0Z" transform="translate(144 284.649)" fill="#fbf1eb"/><path d="M51.269,53.919v4.854a.1.1,0,0,0,.193,0V53.919a.1.1,0,0,0-.193,0" transform="translate(144 284.649)" fill="#fbf1eb"/><path d="M49.157,56.575h4.42a.1.1,0,0,0,0-.193h-4.42a.1.1,0,0,0,0,.193" transform="translate(144 284.649)" fill="#fbf1eb"/><rect width="4.621" height="0.61" transform="translate(193.065 343.422)" fill="#fbf1eb"/><rect width="4.621" height="9.435" transform="translate(205.174 349.792)" fill="#77679e"/><path d="M61.174,65.143a3.547,3.547,0,0,1,4.621,0Z" transform="translate(144 284.649)" fill="#fbf1eb"/><path d="M63.377,65.006v9.509a.1.1,0,0,0,.193,0V65.006a.1.1,0,0,0-.193,0" transform="translate(144 284.649)" fill="#fbf1eb"/><path d="M61.266,72.413h4.42a.1.1,0,0,0,0-.193h-4.42a.1.1,0,0,0,0,.193" transform="translate(144 284.649)" fill="#fbf1eb"/><path d="M61.266,69.956h4.42a.1.1,0,0,0,0-.193h-4.42a.1.1,0,0,0,0,.193" transform="translate(144 284.649)" fill="#fbf1eb"/><path d="M61.266,67.662h4.42a.1.1,0,0,0,0-.193h-4.42a.1.1,0,0,0,0,.193" transform="translate(144 284.649)" fill="#fbf1eb"/><rect width="4.621" height="0.61" transform="translate(205.174 359.226)" fill="#fbf1eb"/><rect width="4.621" height="4.717" transform="translate(205.174 338.705)" fill="#77679e"/><path d="M61.174,54.056a3.547,3.547,0,0,1,4.621,0Z" transform="translate(144 284.649)" fill="#fbf1eb"/><path d="M63.377,53.919v4.854a.1.1,0,0,0,.193,0V53.919a.1.1,0,0,0-.193,0" transform="translate(144 284.649)" fill="#fbf1eb"/><path d="M61.266,56.575h4.42a.1.1,0,0,0,0-.193h-4.42a.1.1,0,0,0,0,.193" transform="translate(144 284.649)" fill="#fbf1eb"/><rect width="4.621" height="0.61" transform="translate(205.174 343.422)" fill="#fbf1eb"/><rect width="4.621" height="9.435" transform="translate(217.283 349.792)" fill="#77679e"/><path d="M73.283,65.143a3.547,3.547,0,0,1,4.621,0Z" transform="translate(144 284.649)" fill="#fbf1eb"/><path d="M75.486,65.006v9.509a.1.1,0,0,0,.193,0V65.006a.1.1,0,0,0-.193,0" transform="translate(144 284.649)" fill="#fbf1eb"/><path d="M73.375,72.413h4.42a.1.1,0,0,0,0-.193h-4.42a.1.1,0,0,0,0,.193" transform="translate(144 284.649)" fill="#fbf1eb"/><path d="M73.375,69.956h4.42a.1.1,0,0,0,0-.193h-4.42a.1.1,0,0,0,0,.193" transform="translate(144 284.649)" fill="#fbf1eb"/><path d="M73.375,67.662h4.42a.1.1,0,0,0,0-.193h-4.42a.1.1,0,0,0,0,.193" transform="translate(144 284.649)" fill="#fbf1eb"/><rect width="4.621" height="0.61" transform="translate(217.283 359.226)" fill="#fbf1eb"/><rect width="4.621" height="4.717" transform="translate(217.283 338.705)" fill="#77679e"/><path d="M73.283,54.056a3.547,3.547,0,0,1,4.621,0Z" transform="translate(144 284.649)" fill="#fbf1eb"/><path d="M75.486,53.919v4.854a.1.1,0,0,0,.193,0V53.919a.1.1,0,0,0-.193,0" transform="translate(144 284.649)" fill="#fbf1eb"/><path d="M73.375,56.575h4.42a.1.1,0,0,0,0-.193h-4.42a.1.1,0,0,0,0,.193" transform="translate(144 284.649)" fill="#fbf1eb"/><rect width="4.621" height="0.61" transform="translate(217.283 343.422)" fill="#fbf1eb"/><rect width="113.728" height="4.849" transform="translate(144.074 323.125)" fill="#fbf1eb"/><path d="M.138,40.594H113.8a.1.1,0,0,0,0-.193H.138a.1.1,0,0,0,0,.193" transform="translate(144 284.649)" fill="#f0ccb9"/><rect width="3.765" height="8.937" transform="translate(257.802 375.063)" fill="#f0ccb9"/><rect width="10.889" height="4.849" transform="translate(257.802 323.125)" fill="#f0ccb9"/><rect width="54.682" height="10.75" transform="translate(165.574 323.125)" fill="#fbf1eb"/><rect width="54.682" height="21.982" transform="translate(165.574 362.018)" fill="#fbf1eb"/><path d="M70.075,88.745H66.4l.83-4.2-.82-1.8.1-.032a5.969,5.969,0,0,1,3.452,0l.105.032-.82,1.8Zm-3.449-.193H69.84l-.8-4.028.755-1.656a5.77,5.77,0,0,0-3.128,0l.754,1.656Z" transform="translate(144 284.649)" fill="#f0ccb9"/><path d="M73.339,86.69a5.354,5.354,0,0,0-3.561-3.475c-.044.053-.084.108-.123.164a5.164,5.164,0,0,1,3.477,3.3l-1.9,1.253h-6l-1.9-1.253a5.161,5.161,0,0,1,3.426-3.286,1.639,1.639,0,0,1-.1-.172,5.356,5.356,0,0,0-3.535,3.468l-.023.07,2.071,1.365h6.118l2.071-1.365Z" transform="translate(144 284.649)" fill="#f0ccb9"/><path d="M57.388,88.745H53.705l.83-4.2-.82-1.8.1-.032a5.969,5.969,0,0,1,3.452,0l.1.032-.82,1.8Zm-3.448-.193h3.217l-.8-4.028.754-1.656a5.77,5.77,0,0,0-3.128,0l.754,1.656Z" transform="translate(144 284.649)" fill="#f0ccb9"/><path d="M60.653,86.689a5.356,5.356,0,0,0-3.535-3.468,1.047,1.047,0,0,1-.083.176,5.162,5.162,0,0,1,3.412,3.282l-1.9,1.253h-6l-1.9-1.253a5.162,5.162,0,0,1,3.467-3.3,1.6,1.6,0,0,1-.091-.174,5.357,5.357,0,0,0-3.582,3.482l-.023.07,2.07,1.365h6.118l2.071-1.365Z" transform="translate(144 284.649)" fill="#f0ccb9"/><path d="M32.015,88.744H28.332l.83-4.2-.82-1.8.105-.032a5.969,5.969,0,0,1,3.452,0l.105.032-.82,1.8Zm-3.448-.193H31.78l-.8-4.028.754-1.656a5.77,5.77,0,0,0-3.128,0l.754,1.656Z" transform="translate(144 284.649)" fill="#f0ccb9"/><path d="M35.28,86.689a5.356,5.356,0,0,0-3.527-3.465.57.57,0,0,0-.094.173,5.162,5.162,0,0,1,3.414,3.283l-1.9,1.253h-6l-1.9-1.253a5.163,5.163,0,0,1,3.454-3.294c-.028-.059-.064-.115-.094-.173a5.356,5.356,0,0,0-3.566,3.477l-.023.07,2.071,1.365h6.118L35.3,86.76Z" transform="translate(144 284.649)" fill="#f0ccb9"/><path d="M21.574,94.527H76.256a.1.1,0,0,0,0-.193H21.574a.1.1,0,0,0,0,.193" transform="translate(144 284.649)" fill="#f0ccb9"/><rect width="10.75" height="10.75" transform="translate(220.256 323.125)" fill="#f0ccb9"/><rect width="10.75" height="21.982" transform="translate(220.256 362.018)" fill="#f0ccb9"/><rect width="2.567" height="20.581" transform="translate(215.871 336.164)" fill="#fbf1eb"/><rect width="4.407" height="2.289" transform="translate(214.951 333.875)" fill="#fbf1eb"/><rect width="4.407" height="1.222" transform="translate(214.951 356.745)" fill="#fbf1eb"/><rect width="6.905" height="4.051" transform="translate(213.702 357.967)" fill="#fbf1eb"/><rect width="2.567" height="20.581" transform="translate(226.011 336.164)" fill="#f0ccb9"/><rect width="4.407" height="2.289" transform="translate(225.091 333.875)" fill="#f0ccb9"/><rect width="1.288" height="2.289" transform="translate(225.091 333.875)" fill="#fbf1eb"/><rect width="2.567" height="20.581" transform="translate(203.762 336.164)" fill="#fbf1eb"/><rect width="4.407" height="2.289" transform="translate(202.842 333.875)" fill="#fbf1eb"/><rect width="4.407" height="1.222" transform="translate(202.842 356.745)" fill="#fbf1eb"/><rect width="6.905" height="4.051" transform="translate(201.593 357.967)" fill="#fbf1eb"/><rect width="2.567" height="20.581" transform="translate(191.653 336.164)" fill="#fbf1eb"/><rect width="4.407" height="2.289" transform="translate(190.733 333.875)" fill="#fbf1eb"/><rect width="4.407" height="1.222" transform="translate(190.733 356.745)" fill="#fbf1eb"/><rect width="6.905" height="4.051" transform="translate(189.484 357.967)" fill="#fbf1eb"/><rect width="0.749" height="20.581" transform="translate(193.471 336.164)" fill="#f0ccb9"/><rect width="2.567" height="20.581" transform="translate(179.544 336.164)" fill="#fbf1eb"/><rect width="4.407" height="2.289" transform="translate(178.625 333.875)" fill="#fbf1eb"/><rect width="4.407" height="1.222" transform="translate(178.625 356.745)" fill="#fbf1eb"/><rect width="6.905" height="4.051" transform="translate(177.376 357.967)" fill="#fbf1eb"/><rect width="2.567" height="20.581" transform="translate(167.436 336.164)" fill="#fbf1eb"/><rect width="0.749" height="20.581" transform="translate(169.254 336.164)" fill="#f0ccb9"/><rect width="4.407" height="2.289" transform="translate(166.516 333.875)" fill="#fbf1eb"/><rect width="4.407" height="1.222" transform="translate(166.516 356.745)" fill="#fbf1eb"/><rect width="6.597" height="4.051" transform="translate(165.575 357.967)" fill="#fbf1eb"/><rect width="4.621" height="3.321" transform="translate(148.984 378.459)" fill="#77679e"/><path d="M7.187,93.911v3.117a.1.1,0,0,0,.193,0V93.911a.1.1,0,0,0-.193,0" transform="translate(144 284.649)" fill="#fbf1eb"/><rect width="4.621" height="7.172" transform="translate(148.984 367.891)" fill="#77679e"/><path d="M7.187,83.105v7.206a.1.1,0,0,0,.193,0V83.105a.1.1,0,0,0-.193,0" transform="translate(144 284.649)" fill="#fbf1eb"/><path d="M5.076,88.055H9.5a.1.1,0,0,0,0-.193H5.078a.1.1,0,0,0,0,.193" transform="translate(144 284.649)" fill="#fbf1eb"/><path d="M5.076,85.76H9.5a.1.1,0,0,0,0-.192H5.078a.1.1,0,0,0,0,.192" transform="translate(144 284.649)" fill="#fbf1eb"/><path d="M4.412,82.269,4.984,83.9H9.6l.572-1.631Z" transform="translate(144 284.649)" fill="#fbf1eb"/><path d="M6.289,81.765,6.642,83.9h1.3L8.3,81.765Z" transform="translate(144 284.649)" fill="#fbf1eb"/><rect width="4.621" height="9.435" transform="translate(148.984 352.006)" fill="#77679e"/><path d="M4.987,67.357a3.547,3.547,0,0,1,4.621,0Z" transform="translate(144 284.649)" fill="#fbf1eb"/><path d="M7.187,67.221V76.73a.1.1,0,0,0,.193,0V67.221a.1.1,0,0,0-.193,0" transform="translate(144 284.649)" fill="#fbf1eb"/><path d="M5.076,74.626H9.5a.1.1,0,0,0,0-.193H5.078a.1.1,0,0,0,0,.193" transform="translate(144 284.649)" fill="#fbf1eb"/><path d="M5.076,72.17H9.5a.1.1,0,0,0,0-.193H5.078a.1.1,0,0,0,0,.193" transform="translate(144 284.649)" fill="#fbf1eb"/><path d="M5.076,69.876H9.5a.1.1,0,0,0,0-.193H5.078a.1.1,0,0,0,0,.193" transform="translate(144 284.649)" fill="#fbf1eb"/><rect width="4.621" height="0.61" transform="translate(148.984 361.441)" fill="#fbf1eb"/><rect width="4.621" height="7.172" transform="translate(148.984 338.464)" fill="#77679e"/><path d="M4.987,53.815a3.547,3.547,0,0,1,4.621,0Z" transform="translate(144 284.649)" fill="#fbf1eb"/><path d="M7.187,53.679v7.206a.1.1,0,0,0,.193,0V53.679a.1.1,0,0,0-.193,0" transform="translate(144 284.649)" fill="#fbf1eb"/><path d="M5.076,58.629H9.5a.1.1,0,0,0,0-.193H5.078a.1.1,0,0,0,0,.193" transform="translate(144 284.649)" fill="#fbf1eb"/><path d="M5.076,56.331H9.5a.1.1,0,0,0,0-.193H5.078a.1.1,0,0,0,0,.193" transform="translate(144 284.649)" fill="#fbf1eb"/><rect width="4.621" height="0.61" transform="translate(148.984 345.636)" fill="#fbf1eb"/><rect width="26.796" height="8.937" transform="translate(231.007 375.063)" fill="#fbf1eb"/><rect width="4.621" height="3.321" transform="translate(234.737 378.459)" fill="#77679e"/><path d="M92.962,93.911v3.117a.1.1,0,0,0,.193,0V93.911a.1.1,0,0,0-.193,0" transform="translate(144 284.649)" fill="#fbf1eb"/><rect width="4.621" height="7.172" transform="translate(234.737 367.891)" fill="#77679e"/><path d="M92.962,83.105v7.206a.1.1,0,0,0,.193,0V83.105a.1.1,0,0,0-.193,0" transform="translate(144 284.649)" fill="#fbf1eb"/><path d="M95.266,87.863H90.845a.1.1,0,0,0,0,.193h4.421a.1.1,0,0,0,0-.193" transform="translate(144 284.649)" fill="#fbf1eb"/><path d="M95.266,85.568H90.845a.1.1,0,0,0,0,.193h4.421a.1.1,0,0,0,0-.193" transform="translate(144 284.649)" fill="#fbf1eb"/><path d="M95.931,82.269,95.359,83.9H90.738l-.572-1.631Z" transform="translate(144 284.649)" fill="#fbf1eb"/><path d="M94.053,81.765,93.7,83.9H92.395l-.353-2.134Z" transform="translate(144 284.649)" fill="#fbf1eb"/><rect width="4.621" height="9.435" transform="translate(234.737 352.006)" fill="#77679e"/><path d="M95.358,67.357a3.547,3.547,0,0,0-4.621,0Z" transform="translate(144 284.649)" fill="#fbf1eb"/><path d="M92.962,67.221V76.73a.1.1,0,0,0,.193,0V67.221a.1.1,0,0,0-.193,0" transform="translate(144 284.649)" fill="#fbf1eb"/><path d="M95.266,74.433H90.845a.1.1,0,0,0,0,.193h4.421a.1.1,0,0,0,0-.193" transform="translate(144 284.649)" fill="#fbf1eb"/><path d="M95.266,71.978H90.845a.1.1,0,0,0,0,.193h4.421a.1.1,0,0,0,0-.193" transform="translate(144 284.649)" fill="#fbf1eb"/><path d="M95.266,69.684H90.845a.1.1,0,0,0,0,.193h4.421a.1.1,0,0,0,0-.193" transform="translate(144 284.649)" fill="#fbf1eb"/><rect width="4.621" height="0.61" transform="translate(234.737 361.441)" fill="#fbf1eb"/><rect width="4.621" height="7.172" transform="translate(234.737 338.464)" fill="#77679e"/><path d="M95.358,53.815a3.547,3.547,0,0,0-4.621,0Z" transform="translate(144 284.649)" fill="#fbf1eb"/><path d="M92.962,53.679v7.206a.1.1,0,0,0,.193,0V53.679a.1.1,0,0,0-.193,0" transform="translate(144 284.649)" fill="#fbf1eb"/><path d="M95.266,58.435H90.845a.1.1,0,0,0,0,.193h4.421a.1.1,0,0,0,0-.193" transform="translate(144 284.649)" fill="#fbf1eb"/><path d="M95.266,56.142H90.845a.1.1,0,0,0,0,.193h4.421a.1.1,0,0,0,0-.193" transform="translate(144 284.649)" fill="#fbf1eb"/><rect width="4.621" height="0.61" transform="translate(234.737 345.636)" fill="#fbf1eb"/><rect width="4.621" height="3.321" transform="translate(248.271 378.459)" fill="#77679e"/><path d="M106.5,93.911v3.117a.1.1,0,0,0,.192,0V93.911a.1.1,0,0,0-.192,0" transform="translate(144 284.649)" fill="#fbf1eb"/><rect width="4.621" height="7.172" transform="translate(248.271 367.891)" fill="#77679e"/><path d="M106.5,83.105v7.206a.1.1,0,0,0,.192,0V83.105a.1.1,0,0,0-.192,0" transform="translate(144 284.649)" fill="#fbf1eb"/><path d="M108.8,87.863h-4.421a.1.1,0,0,0,0,.193H108.8a.1.1,0,0,0,0-.193" transform="translate(144 284.649)" fill="#fbf1eb"/><path d="M108.8,85.568h-4.421a.1.1,0,0,0,0,.193H108.8a.1.1,0,0,0,0-.193" transform="translate(144 284.649)" fill="#fbf1eb"/><path d="M109.464,82.269l-.572,1.631h-4.621l-.572-1.631Z" transform="translate(144 284.649)" fill="#fbf1eb"/><path d="M107.588,81.765l-.353,2.134h-1.3l-.353-2.134Z" transform="translate(144 284.649)" fill="#fbf1eb"/><rect width="4.621" height="9.435" transform="translate(248.271 352.006)" fill="#77679e"/><path d="M108.892,67.357a3.547,3.547,0,0,0-4.621,0Z" transform="translate(144 284.649)" fill="#fbf1eb"/><path d="M106.5,67.221V76.73a.1.1,0,0,0,.192,0V67.221a.1.1,0,0,0-.192,0" transform="translate(144 284.649)" fill="#fbf1eb"/><path d="M108.8,74.433h-4.421a.1.1,0,0,0,0,.193H108.8a.1.1,0,0,0,0-.193" transform="translate(144 284.649)" fill="#fbf1eb"/><path d="M108.8,71.978h-4.421a.1.1,0,0,0,0,.193H108.8a.1.1,0,0,0,0-.193" transform="translate(144 284.649)" fill="#fbf1eb"/><path d="M108.8,69.684h-4.421a.1.1,0,0,0,0,.193H108.8a.1.1,0,0,0,0-.193" transform="translate(144 284.649)" fill="#fbf1eb"/><rect width="4.621" height="0.61" transform="translate(248.271 361.441)" fill="#fbf1eb"/><rect width="4.621" height="7.172" transform="translate(248.271 338.464)" fill="#77679e"/><path d="M108.892,53.815a3.547,3.547,0,0,0-4.621,0Z" transform="translate(144 284.649)" fill="#fbf1eb"/><path d="M106.5,53.679v7.206a.1.1,0,0,0,.192,0V53.679a.1.1,0,0,0-.192,0" transform="translate(144 284.649)" fill="#fbf1eb"/><path d="M108.8,58.435h-4.421a.1.1,0,0,0,0,.193H108.8a.1.1,0,0,0,0-.193" transform="translate(144 284.649)" fill="#fbf1eb"/><path d="M108.8,56.142h-4.421a.1.1,0,0,0,0,.193H108.8a.1.1,0,0,0,0-.193" transform="translate(144 284.649)" fill="#fbf1eb"/><rect width="4.621" height="0.61" transform="translate(248.271 345.636)" fill="#fbf1eb"/><path d="M.074,77.566H23.918a.1.1,0,0,0,0-.193H.074a.1.1,0,0,0,0,.193" transform="translate(144 284.649)" fill="#fbf1eb"/><path d="M.074,61.687H23.918a.1.1,0,0,0,0-.193H.074a.1.1,0,0,0,0,.193" transform="translate(144 284.649)" fill="#fbf1eb"/><path d="M.074,62.627H23.918a.1.1,0,0,0,0-.193H.074a.1.1,0,0,0,0,.193" transform="translate(144 284.649)" fill="#fbf1eb"/><path d="M1.1,38.476,8.246,23.554H30.271V38.476Z" transform="translate(144 284.649)" fill="#9d6a43"/><path d="M23.948,36.706,29.4,25.331l.761-1.59c.053-.111-.113-.209-.166-.1L24.54,35.019l-.761,1.59c-.053.111.113.209.166.1" transform="translate(144 284.649)" fill="#664229"/><path d="M75.863,18.74H32.481l-9.45,19.736H85.313Z" transform="translate(144 284.649)" fill="#9d6a43"/><path d="M85.313,38.476H74.788L65.337,18.74H75.863Z" transform="translate(144 284.649)" fill="#664229"/><path d="M120.158,38.476l-7.146-14.922H73.033l7.146,14.922Z" transform="translate(144 284.649)" fill="#9d6a43"/><path d="M123.344,38.476h-7.958L108.24,23.554H116.2Z" transform="translate(144 284.649)" fill="#664229"/><rect width="2.875" height="4.051" transform="translate(205.623 357.967)" fill="#f0ccb9"/><rect width="1.222" height="1.222" transform="translate(206.027 356.745)" fill="#f0ccb9"/><rect width="2.875" height="4.051" transform="translate(217.732 357.967)" fill="#f0ccb9"/><rect width="1.222" height="1.222" transform="translate(218.136 356.745)" fill="#f0ccb9"/><rect width="1.222" height="2.289" transform="translate(218.136 333.875)" fill="#f0ccb9"/><rect width="2.875" height="4.051" transform="translate(193.514 357.967)" fill="#f0ccb9"/><rect width="1.222" height="1.222" transform="translate(193.918 356.745)" fill="#f0ccb9"/><rect width="2.875" height="4.051" transform="translate(181.406 357.967)" fill="#f0ccb9"/><rect width="6.905" height="2.792" transform="translate(182.843 359.226)" fill="#fbf1eb"/><rect width="6.905" height="2.792" transform="translate(194.952 359.226)" fill="#fbf1eb"/><rect width="6.905" height="2.792" transform="translate(207.249 359.226)" fill="#fbf1eb"/><rect width="1.222" height="1.222" transform="translate(181.809 356.745)" fill="#f0ccb9"/><rect width="1.222" height="2.289" transform="translate(206.027 333.875)" fill="#f0ccb9"/><rect width="1.222" height="2.289" transform="translate(193.918 333.875)" fill="#f0ccb9"/><rect width="1.222" height="2.289" transform="translate(181.809 333.875)" fill="#f0ccb9"/><rect width="2.875" height="4.051" transform="translate(169.297 357.967)" fill="#f0ccb9"/><rect width="6.905" height="2.792" transform="translate(170.923 359.226)" fill="#fbf1eb"/><path d="M26.921,75.278h6.327a.1.1,0,0,0,0-.192H26.921a.1.1,0,0,0,0,.192" transform="translate(144 284.649)" fill="#f0ccb9"/><rect width="1.222" height="1.222" transform="translate(169.701 356.745)" fill="#f0ccb9"/><rect width="1.222" height="2.289" transform="translate(169.701 333.875)" fill="#f0ccb9"/><rect width="4.407" height="1.222" transform="translate(225.091 356.745)" fill="#fbf1eb"/><rect width="6.905" height="4.051" transform="translate(223.842 357.967)" fill="#fbf1eb"/><rect width="5.405" height="2.792" transform="translate(220.607 359.226)" fill="#f0ccb9"/><rect width="3.987" height="4.051" transform="translate(226.76 357.967)" fill="#f0ccb9"/><rect width="1.861" height="1.222" transform="translate(227.637 356.745)" fill="#f0ccb9"/><rect width="0.749" height="20.581" transform="translate(226.011 336.164)" fill="#fbf1eb"/><rect width="0.749" height="20.581" transform="translate(217.689 336.164)" fill="#f0ccb9"/><rect width="0.749" height="20.581" transform="translate(205.58 336.164)" fill="#f0ccb9"/><rect width="0.749" height="20.581" transform="translate(181.363 336.164)" fill="#f0ccb9"/><path d="M22.308,39.492l-.733-1.011,27.34-19.834,1.064.771Z" transform="translate(144 284.649)" fill="#fbf1eb"/><path d="M75.523,39.492l.733-1.011L48.916,18.647l-1.063.771Z" transform="translate(144 284.649)" fill="#fbf1eb"/><path d="M48.937,20.208,74.064,38.477H23.708Z" transform="translate(144 284.649)" fill="#fbf1eb"/><path d="M74.36,38.572H23.411L48.937,20.088ZM24,38.379H73.768L48.937,20.326Z" transform="translate(144 284.649)" fill="#f0ccb9"/><path d="M21.39,38.558v4.686a.1.1,0,0,0,.193,0V38.558a.1.1,0,0,0-.193,0" transform="translate(144 284.649)" fill="#f0ccb9"/><path d="M21.39,90.481v8.768a.1.1,0,0,0,.193,0V90.481a.1.1,0,0,0-.193,0" transform="translate(144 284.649)" fill="#f0ccb9"/><rect width="1.288" height="2.289" transform="translate(172.979 333.875)" fill="#fbf1eb"/><path d="M30.173,84.19A4.17,4.17,0,0,0,26,88.36h0V96.7h8.341V88.361a4.17,4.17,0,0,0-4.169-4.171h0" transform="translate(144 284.649)" fill="#b15830"/><path d="M55.546,84.19a4.17,4.17,0,0,0-4.17,4.17h0V96.7h8.341V88.361a4.17,4.17,0,0,0-4.169-4.171h0" transform="translate(144 284.649)" fill="#b15830"/><path d="M68.237,84.19a4.17,4.17,0,0,0-4.171,4.169V96.7h8.341V88.361a4.17,4.17,0,0,0-4.169-4.171h0" transform="translate(144 284.649)" fill="#c96e44"/><path d="M68.233,84.188a4.172,4.172,0,0,0-4.172,4.172V96.7H72.4V88.36a4.172,4.172,0,0,0-4.172-4.172" transform="translate(144 284.649)" fill="#b15830"/><path d="M21.681,45.932H76.192a.1.1,0,0,0,0-.193H21.681a.1.1,0,0,0,0,.193" transform="translate(144 284.649)" fill="#f0ccb9"/><path d="M21.574,79.167H76.256a.1.1,0,0,0,0-.193H21.574a.1.1,0,0,0,0,.193" transform="translate(144 284.649)" fill="#f0ccb9"/><path d="M25.4,97.319H73.022a.1.1,0,0,0,0-.193H25.4a.1.1,0,0,0,0,.193" transform="translate(144 284.649)" fill="#f0ccb9"/><path d="M24.966,98.129H73.489a.1.1,0,0,0,0-.193H24.966a.1.1,0,0,0,0,.193" transform="translate(144 284.649)" fill="#f0ccb9"/><path d="M24.5,98.939H73.946a.1.1,0,0,0,0-.193H24.5a.1.1,0,0,0,0,.193" transform="translate(144 284.649)" fill="#f0ccb9"/><path d="M44.7,88.745H41.019l.83-4.2-.82-1.8.1-.032a5.969,5.969,0,0,1,3.452,0l.105.032-.82,1.8Zm-3.448-.193h3.214l-.8-4.028.754-1.656a5.77,5.77,0,0,0-3.128,0l.754,1.656Z" transform="translate(144 284.649)" fill="#f0ccb9"/><path d="M47.966,86.689a5.356,5.356,0,0,0-3.579-3.481,1.047,1.047,0,0,0-.085.175,5.165,5.165,0,0,1,3.458,3.3l-1.9,1.253h-6l-1.9-1.253A5.165,5.165,0,0,1,41.381,83.4c-.024-.06-.049-.119-.076-.178a5.354,5.354,0,0,0-3.552,3.473l-.023.07L39.8,88.129h6.118l2.071-1.366Z" transform="translate(144 284.649)" fill="#f0ccb9"/><path d="M42.86,84.19a4.17,4.17,0,0,0-4.17,4.17h0V96.7h8.341V88.361a4.17,4.17,0,0,0-4.169-4.171h0" transform="translate(144 284.649)" fill="#b15830"/><path d="M21.574,77.369H66.931c2.207,0,4.416.018,6.623,0h.178a.1.1,0,0,0,0-.193H28.375c-2.208,0-4.416-.018-6.623,0h-.178a.1.1,0,0,0,0,.193" transform="translate(144 284.649)" fill="#f0ccb9"/><path d="M46.734,49.417h4.012a.1.1,0,0,0,0-.192H46.734a.1.1,0,0,0,0,.192" transform="translate(144 284.649)" fill="#f0ccb9"/><path d="M58.842,49.417h4.012a.1.1,0,0,0,0-.192H58.842a.1.1,0,0,0,0,.192" transform="translate(144 284.649)" fill="#f0ccb9"/><path d="M70.951,49.417h4.012a.1.1,0,0,0,0-.192H70.951a.1.1,0,0,0,0,.192" transform="translate(144 284.649)" fill="#f0ccb9"/><path d="M34.624,49.417h4.012a.1.1,0,0,0,0-.192H34.624a.1.1,0,0,0,0,.192" transform="translate(144 284.649)" fill="#f0ccb9"/><path d="M28.979,49.417H31.8a.1.1,0,0,0,0-.192H28.979a.1.1,0,0,0,0,.192" transform="translate(144 284.649)" fill="#f0ccb9"/><path d="M81.091,49.417h2.816a.1.1,0,0,0,.068-.124.1.1,0,0,0-.068-.068H81.091a.1.1,0,0,0,0,.192" transform="translate(144 284.649)" fill="#f0ccb9"/><path d="M22.515,49.417h4.012a.1.1,0,0,0,0-.192H22.515a.1.1,0,0,0,0,.192" transform="translate(144 284.649)" fill="#f0ccb9"/><path d="M69.25,84.315A4.172,4.172,0,0,0,66.1,88.36V96.7H64.062V88.36a4.174,4.174,0,0,1,5.188-4.045" transform="translate(144 284.649)" fill="#f0ccb9"/><path d="M56.562,84.315a4.172,4.172,0,0,0-3.153,4.045V96.7H51.374V88.36a4.174,4.174,0,0,1,5.188-4.045" transform="translate(144 284.649)" fill="#f0ccb9"/><path d="M43.877,84.315a4.172,4.172,0,0,0-3.153,4.045V96.7H38.689V88.36a4.174,4.174,0,0,1,5.188-4.045" transform="translate(144 284.649)" fill="#f0ccb9"/><path d="M31.191,84.315a4.172,4.172,0,0,0-3.153,4.045V96.7H26V88.36a4.174,4.174,0,0,1,5.188-4.045" transform="translate(144 284.649)" fill="#f0ccb9"/><path d="M51.871,29.921a2.956,2.956,0,1,1-2.956-2.956,2.955,2.955,0,0,1,2.956,2.956" transform="translate(144 284.649)" fill="#f0ccb9"/><path d="M33.179,74.577v2.637a.1.1,0,0,0,.193,0V74.577a.1.1,0,0,0-.193,0" transform="translate(144 284.649)" fill="#f0ccb9"/><path d="M45.289,74.577v2.637a.1.1,0,0,0,.193,0V74.577a.1.1,0,0,0-.193,0" transform="translate(144 284.649)" fill="#f0ccb9"/><path d="M43.8,75.187v2.027a.1.1,0,0,0,.193,0V75.187a.1.1,0,0,0-.193,0" transform="translate(144 284.649)" fill="#f0ccb9"/><path d="M42.487,75.187v2.027a.1.1,0,0,0,.193,0V75.187a.1.1,0,0,0-.193,0" transform="translate(144 284.649)" fill="#f0ccb9"/><path d="M41.171,75.187v2.027a.1.1,0,0,0,.193,0V75.187a.1.1,0,0,0-.193,0" transform="translate(144 284.649)" fill="#f0ccb9"/><path d="M39.855,75.187v2.027a.1.1,0,0,0,.193,0V75.187a.1.1,0,0,0-.193,0" transform="translate(144 284.649)" fill="#f0ccb9"/><path d="M57.4,74.577v2.637a.1.1,0,0,0,.193,0V74.577a.1.1,0,0,0-.193,0" transform="translate(144 284.649)" fill="#f0ccb9"/><path d="M69.509,74.577v2.637a.1.1,0,0,0,.193,0V74.577a.1.1,0,0,0-.193,0" transform="translate(144 284.649)" fill="#f0ccb9"/><path d="M48.886,44.423h0a1.8,1.8,0,0,1-1.8-1.8v-2.2H50.68v2.2a1.8,1.8,0,0,1-1.8,1.8" transform="translate(144 284.649)" fill="#f0ccb9"/><path d="M38.843,75.278h6.542a.1.1,0,0,0,0-.192H38.843a.1.1,0,0,0,0,.192" transform="translate(144 284.649)" fill="#f0ccb9"/><path d="M31.882,75.187v2.027a.1.1,0,0,0,.193,0V75.187a.1.1,0,0,0-.193,0" transform="translate(144 284.649)" fill="#f0ccb9"/><path d="M30.567,75.187v2.027a.1.1,0,0,0,.193,0V75.187a.1.1,0,0,0-.193,0" transform="translate(144 284.649)" fill="#f0ccb9"/><path d="M29.251,75.187v2.027a.1.1,0,0,0,.193,0V75.187a.1.1,0,0,0-.193,0" transform="translate(144 284.649)" fill="#f0ccb9"/><path d="M27.935,75.187v2.027a.1.1,0,0,0,.192,0V75.187a.1.1,0,0,0-.192,0" transform="translate(144 284.649)" fill="#f0ccb9"/><path d="M50.951,75.278H57.5a.1.1,0,0,0,.068-.124.1.1,0,0,0-.068-.068H50.951a.1.1,0,0,0,0,.192" transform="translate(144 284.649)" fill="#f0ccb9"/><path d="M55.911,75.187v2.027a.1.1,0,0,0,.193,0V75.187a.1.1,0,0,0-.193,0" transform="translate(144 284.649)" fill="#f0ccb9"/><path d="M54.6,75.187v2.027a.1.1,0,0,0,.193,0V75.187a.1.1,0,0,0-.193,0" transform="translate(144 284.649)" fill="#f0ccb9"/><path d="M53.28,75.187v2.027a.1.1,0,0,0,.193,0V75.187a.1.1,0,0,0-.193,0" transform="translate(144 284.649)" fill="#f0ccb9"/><path d="M51.964,75.187v2.027a.1.1,0,0,0,.193,0V75.187a.1.1,0,0,0-.193,0" transform="translate(144 284.649)" fill="#f0ccb9"/><path d="M63.248,75.278h6.327a.1.1,0,0,0,.068-.124.1.1,0,0,0-.068-.068H63.248a.1.1,0,0,0,0,.192" transform="translate(144 284.649)" fill="#f0ccb9"/><path d="M68.209,75.187v2.027a.1.1,0,0,0,.193,0V75.187a.1.1,0,0,0-.193,0" transform="translate(144 284.649)" fill="#f0ccb9"/><path d="M66.893,75.187v2.027a.1.1,0,0,0,.193,0V75.187a.1.1,0,0,0-.193,0" transform="translate(144 284.649)" fill="#f0ccb9"/><path d="M65.577,75.187v2.027a.1.1,0,0,0,.192,0V75.187a.1.1,0,0,0-.192,0" transform="translate(144 284.649)" fill="#f0ccb9"/><path d="M64.261,75.187v2.027a.1.1,0,0,0,.193,0V75.187a.1.1,0,0,0-.193,0" transform="translate(144 284.649)" fill="#f0ccb9"/><path d="M76.75,75.278h5.165a.1.1,0,0,0,0-.192H76.75a.1.1,0,0,0,0,.192" transform="translate(144 284.649)" fill="#cf9f86"/><path d="M80.644,75.187v2.027a.1.1,0,0,0,.193,0V75.187a.1.1,0,0,0-.193,0" transform="translate(144 284.649)" fill="#cf9f86"/><path d="M79.328,75.187v2.027a.1.1,0,0,0,.192,0V75.187a.1.1,0,0,0-.192,0" transform="translate(144 284.649)" fill="#cf9f86"/><path d="M78.012,75.187v2.027a.1.1,0,0,0,.193,0V75.187a.1.1,0,0,0-.193,0" transform="translate(144 284.649)" fill="#cf9f86"/><path d="M76.6,74.636v2.578a.1.1,0,0,0,.193,0V74.636a.1.1,0,0,0-.193,0" transform="translate(144 284.649)" fill="#cf9f86"/><path d="M.245,91.874H21.457a.1.1,0,0,0,0-.193H.245a.1.1,0,0,0,0,.193" transform="translate(144 284.649)" fill="#f0ccb9"/><path d="M87.007,91.874h26.8a.1.1,0,0,0,0-.193h-26.8a.1.1,0,0,0,0,.193" transform="translate(144 284.649)" fill="#f0ccb9"/><path d="M95.066,28.739l-.009-.131H93.049l.974,1.8-1.337,2.47v4.38h2.762l1.859-4.38Z" transform="translate(144 284.649)" fill="#664229"/><path d="M95.359,37.257H90.738V32.879l2.311-4.268,2.311,4.268Z" transform="translate(144 284.649)" fill="#d37951"/><rect width="3.546" height="3.91" transform="translate(235.275 317.996)" fill="#77679e"/><path d="M92.879,33.026v4.13a.1.1,0,0,0,.193,0v-4.13a.1.1,0,0,0-.193,0" transform="translate(144 284.649)" fill="#fbf1eb"/><rect width="3.546" height="0.487" transform="translate(235.275 317.509)" fill="#fbf1eb"/><rect width="4.621" height="0.487" transform="translate(234.737 321.419)" fill="#fbf1eb"/><path d="M19.563,28.739l-.009-.131H17.545l.973,1.8-1.337,2.47v4.38h2.762l1.859-4.38Z" transform="translate(144 284.649)" fill="#664229"/><path d="M19.855,37.257H15.234V32.879l2.311-4.268,2.31,4.268Z" transform="translate(144 284.649)" fill="#d37951"/><rect width="3.546" height="3.91" transform="translate(159.772 317.996)" fill="#77679e"/><path d="M17.38,33.026v4.13a.1.1,0,0,0,.193,0v-4.13a.1.1,0,0,0-.193,0" transform="translate(144 284.649)" fill="#fbf1eb"/><rect width="3.546" height="0.487" transform="translate(159.772 317.509)" fill="#fbf1eb"/><rect width="4.621" height="0.487" transform="translate(159.234 321.419)" fill="#fbf1eb"/><path d="M73.826,77.369h8.088a.1.1,0,0,0,0-.193H73.826a.1.1,0,0,0,0,.193" transform="translate(144 284.649)" fill="#cf9f86"/><path d="M82.856,77.369h3.829a.1.1,0,0,0,0-.193H82.856a.1.1,0,0,0,0,.193" transform="translate(144 284.649)" fill="#cf9f86"/><path d="M76.3,79.167h10.63a.1.1,0,0,0,0-.193H76.3a.1.1,0,0,0,0,.193" transform="translate(144 284.649)" fill="#cf9f86"/><path d="M76.3,45.932h10.63a.1.1,0,0,0,0-.193H76.3a.1.1,0,0,0,0,.193" transform="translate(144 284.649)" fill="#cf9f86"/><path d="M113.886,40.594h10.7a.1.1,0,0,0,0-.193h-10.7a.1.1,0,0,0,0,.193" transform="translate(144 284.649)" fill="#cf9f86"/><path d="M117.489,91.682h-3.6a.1.1,0,0,0,0,.193h3.6a.1.1,0,0,0,0-.193" transform="translate(144 284.649)" fill="#cf9f86"/><path d="M76.311,94.527H86.93a.1.1,0,0,0,0-.193H76.311a.1.1,0,0,0,0,.193" transform="translate(144 284.649)" fill="#cf9f86"/></g></svg>