<svg xmlns="http://www.w3.org/2000/svg" width="167.091" height="172.156" viewBox="0 0 167.091 172.156"><g transform="translate(-294.449 -152.133)"><path d="M54.414,82.131,32.838,226.681H30.4L52,81.979c.44.05,2.179.159,2.417.152" transform="translate(285.124 94.67)" fill="#9d6a43"/><path d="M42.187,287.013,1,287.221q-.479,1.209-1,2.415l41.645-.208q.277-1.207.541-2.416" transform="translate(294.449 31.769)" fill="#9d6a43"/><path d="M188.579,287.235l-41.187.208q-.485,1.215-1,2.418l41.645-.208q.278-1.206.541-2.416" transform="translate(249.538 31.7)" fill="#9d6a43"/><path d="M200.933,83.446,179.491,227.087h-2.439L198.517,83.294c.439.051,2.179.159,2.417.152" transform="translate(240.132 94.267)" fill="#9d6a43"/><path d="M161.62,135.237H16.971L27.65,46.613H172.3Z" transform="translate(289.243 105.52)" fill="#fbf1eb"/><path d="M165.133,55.974h-.157v.01l-4.124.01-29.19.069-12.074.029h-.153V56.1l-16.966.04L73.286,56.2l-29.19.069-3.628.009v0h-.153l-.023.187q-1.762,14.475-3.527,28.951T33.24,114.363q-1.06,8.694-2.118,17.383h.153v-.037l29.134-.069,29.195-.062,29.189-.07,29.189-.07,8.026-.019a1.042,1.042,0,0,1,.017-.15h-.063q1.041-8.51,2.073-17.02Q159.8,99.773,161.561,85.3q.7-5.708,1.39-11.415h.1c0-.05.006-.1.011-.151h-.1q1.06-8.692,2.118-17.382l.044-.373m-37.714,56.207q1.19-9.767,2.378-19.534l15.531-.037q-1.075,8.816-2.147,17.631l-.232,1.9-15.531.037m15.509.114-2.315,19.011-15.531.037,1.858-15.259q.23-1.874.458-3.748l15.531-.037m-46.153.111,15.8-.037q-1.158,9.5-2.316,19.01l-15.8.037q1.1-9.04,2.2-18.082l.114-.928m.019-.151,2.379-19.535,15.8-.037q-1.049,8.628-2.1,17.253-.138,1.146-.278,2.281l-15.8.039M36,92.877,51.53,92.84q-1.168,9.683-2.349,19.384c0,.046-.011.094-.017.14l-11.866.03-3.661.009q1.189-9.768,2.38-19.535M51.7,92.83,65.186,92.8l2.32-.006q-1.191,9.768-2.379,19.534l-15.806.037Q50.512,102.6,51.7,92.83m64.709-11.847Q115.7,86.754,115,92.531l-15.8.037q.5-4.092,1-8.184.631-5.176,1.262-10.352l15.8-.037q-.425,3.495-.851,6.99m1-6.99,8.4-.021,6.108-.015q-.576,4.734-1.153,9.472-.554,4.532-1.1,9.066l-2.385,0-12.126.029.955-7.84q.651-5.348,1.3-10.695m-16.923,6.679q-.724,5.945-1.447,11.889H98.09L83.51,92.6l.741-6.082q.759-6.226,1.517-12.454l10.857-.026,4.674-.012q-.406,3.323-.81,6.647M84.55,82.815q-.6,4.892-1.193,9.784L68.9,92.635h-1.23l.653-5.356q.8-6.588,1.6-13.179l15.685-.037q-.533,4.371-1.065,8.744m-15.926.774q-.553,4.529-1.1,9.062l-15.8.037.695-5.7q.782-6.418,1.561-12.836l13.462-.035,2.341-.006q-.571,4.742-1.151,9.478m-.969,9.213,15.685-.037q-1.158,9.506-2.316,19.011l-.063.521-14.478.034H65.273l2.379-19.534m15.838-.037,10.881-.021,4.653-.011q-1.028,8.455-2.059,16.91l-.321,2.625h-.971l-14.56.035,2.379-19.534m31.643-.075,8.431-.021,6.086-.015-2.381,19.534-2.405.006-12.106.029q1.189-9.767,2.38-19.534m14.684-.187.652-5.361q.8-6.586,1.605-13.175l15.531-.037q-.448,3.684-.9,7.368-.679,5.584-1.36,11.168l-15.531.037M132.1,73.8,134,58.182q.119-.984.24-1.967l15.529-.039q-1.071,8.8-2.143,17.591l-15.531.037m-4.147-17.576,6.141-.015q-1.071,8.8-2.143,17.591l-2.406.006-12.106.029q1.073-8.795,2.143-17.591l8.374-.019m-10.67,17.612-15.808.036q1.071-8.795,2.143-17.591l15.8-.038-2.142,17.591M103.462,56.286q-1.073,8.8-2.143,17.591h-.973l-14.558.035q1-8.173,1.992-16.342l.15-1.248L98.755,56.3l4.7-.012m-15.685.038q-1.072,8.795-2.143,17.59l-14.478.035H69.947q.951-7.807,1.9-15.619l.241-1.972,15.685-.037m-15.838.037q-1.072,8.795-2.145,17.59l-15.8.037Q54.96,66,55.933,58.02q.1-.814.2-1.629l13.428-.032,2.374-.006m-31.489.075,15.539-.03q-1.071,8.795-2.143,17.59l-11.873.029-3.659.008Q39.153,67.1,40,60.166ZM38.288,74.18l15.533-.037q-.556,4.566-1.113,9.13-.573,4.7-1.145,9.406l-11.849.028-3.68.009q.218-1.8.438-3.6.91-7.469,1.818-14.937M31.3,131.563l1.645-13.5q.336-2.757.671-5.517l15.532-.035q-1.157,9.5-2.315,19.011l-11.886.028Zm15.685-.037q.95-7.8,1.9-15.6.209-1.705.417-3.412l13.466-.032,2.34-.006-.006.051q-1.156,9.48-2.31,18.959l-15.8.037m15.956-.037L64.8,116.234q.229-1.874.457-3.757l15.685-.037q-1.158,9.5-2.316,19.01l-14.491.035h-1.2m15.839-.034,1.947-15.981q.185-1.514.368-3.03l10.858-.029,4.673-.011q-1.157,9.5-2.316,19.01h-.986l-14.544.041m31.642-.075,2.161-17.739q.079-.636.155-1.272l8.405-.021,6.107-.015a.152.152,0,0,1,0,.046l-2.31,18.965-2.42.006-12.092.029m45.389-.1-4.107.01-10.929.026,2.115-17.361q.1-.826.2-1.651l7.247-.017,7.792-.019-2.315,19.011m2.335-19.162-4.093.009-10.951.022q1.191-9.768,2.38-19.534l7.266-.017,7.774-.019q-1.1,8.985-2.186,17.972-.095.781-.19,1.562m3.717-30.512q-.658,5.412-1.318,10.825l-4.073.009-10.965.026q.453-3.731.908-7.462.675-5.536,1.353-11.073l7.246-.017,7.794-.019q-.47,3.85-.937,7.709m-3.135-7.852-10.946.026q1.072-8.8,2.143-17.591l7.213-.017,7.826-.019q-1.071,8.795-2.143,17.59l-4.094.01" transform="translate(284.901 102.648)"/><path d="M31.525,132H30.84l.368-3.024q.891-7.318,1.784-14.64c1.154-9.484,2.34-19.222,3.525-28.945l1.263-10.37q1.132-9.291,2.264-18.582l.05-.407.625,0,3.378-.008,29.19-.069,29.184-.064,16.717-.04v-.009h.4l45.137-.107v-.01l.41,0,.268.013-.076.64q-1.042,8.551-2.084,17.1h.1l-.03.291c0,.039-.008.079-.008.11v.25h-.133l-.008.069q-.677,5.563-1.355,11.126-1.762,14.475-3.526,28.951c-.65,5.36-1.317,10.838-2.038,16.74h.071l-.047.317a.628.628,0,0,0-.01.084v.249l-66.654.159-29.195.062-28.884.069Zm2.309-19.2q-.322,2.65-.644,5.3l-1.611,13.216,15.029-.036,2.254-18.511Zm15.686-.035q-.2,1.6-.39,3.193-.851,6.992-1.7,13.984l-.163,1.334,15.3-.036.093-.766q1.08-8.872,2.162-17.745Zm13.7,18.47h.911L78.4,131.2q1.127-9.255,2.255-18.51l-15.181.036q-.215,1.772-.43,3.537ZM81.315,112.69q-.17,1.406-.342,2.811l-1.912,15.7,15.026-.04q1.128-9.255,2.255-18.509l-4.39.01Zm15.675-.028-.087.709q-1.083,8.9-2.168,17.8l15.3-.036q1.127-9.255,2.255-18.51Zm15.969-.047q-.064.527-.129,1.053L110.7,131.125l14.009-.033,2.255-18.511Zm14.654-.026-.125,1.027q-.152,1.251-.306,2.5l-1.824,14.978,15.027-.036.006-.048q1.124-9.231,2.249-18.459Zm15.7-.042c-.054.454-.111.925-.175,1.432l-2.081,17.079,14.536-.035,2.254-18.511ZM36.239,93.117q-1.161,9.517-2.319,19.035l15.022-.038c.793-6.516,1.569-12.914,2.306-19.024Zm15.685-.038q-1.159,9.517-2.32,19.034l15.3-.036q1.158-9.516,2.318-19.034ZM65.555,112.07h.926l14.256-.033.036-.3q1.14-9.365,2.282-18.731l-15.182.031ZM83.714,93,81.4,112.036,96.423,112l.294-2.406q1.013-8.314,2.025-16.629Zm15.674-.027-2.318,19.035,15.3-.038q.126-1.026.251-2.061,1.034-8.485,2.066-16.973Zm15.974-.048q-1.16,9.517-2.319,19.034l14.008-.034,2.32-19.034Zm14.65-.029-1.168,9.6-1.149,9.438,15.027-.036.205-1.684q1.055-8.675,2.113-17.35Zm15.7-.042q-1.032,8.472-2.065,16.945l-.255,2.089,14.54-.03q.082-.673.164-1.347c.658-5.429,1.363-11.219,2.152-17.692ZM38.512,74.429l-.151,1.245q-.82,6.736-1.64,13.474-.2,1.659-.4,3.318l15.026-.036.515-4.233q.3-2.477.6-4.953.355-2.921.712-5.843l.367-3.006Zm15.681-.037q-.766,6.308-1.535,12.617L52,92.428l15.3-.036q.538-4.422,1.077-8.842h0c.411-3.362.777-6.374,1.117-9.2ZM67.953,92.385H68.9l14.235-.035c.325-2.667.746-6.121,1.165-9.575h0q.515-4.232,1.031-8.463l-15.181.036q-.709,5.813-1.416,11.625ZM85.989,74.314q-.745,6.118-1.49,12.234l-.707,5.8,15.028-.033q.466-3.832.932-7.664l.488-4.008q.371-3.053.744-6.1l.032-.262Zm15.687-.032q-.595,4.884-1.191,9.769l-.044.363q-.48,3.952-.963,7.9l15.3-.036c.42-3.462.849-6.974,1.264-10.372l.116-.954h0q.385-3.158.769-6.317l.048-.393Zm15.958-.035q-.639,5.23-1.275,10.462l0,.014-.92,7.559,14.008-.033c.41-3.374.754-6.191,1.078-8.847q.347-2.853.694-5.7l.424-3.486-5.825.014ZM132.3,74.2q-.79,6.479-1.579,12.956l-.618,5.08,15.027-.036q.668-5.474,1.333-10.948.433-3.544.864-7.087Zm15.689-.037q-.665,5.427-1.326,10.854l-.122,1q-.376,3.089-.752,6.178l14.535-.034q.646-5.3,1.291-10.606l.145.018v0l-.137-.017c.343-2.834.631-5.2.9-7.429ZM40.666,56.678,40.245,60.2q-.826,6.791-1.654,13.58l15.028-.036Q54.66,65.2,55.7,56.649Zm15.687-.038q-.085.693-.168,1.385l0,.024q-.956,7.842-1.91,15.682l15.3-.036L69.777,72c.615-5.046,1.251-10.261,1.873-15.4ZM70.229,73.7h.925l14.256-.034q.621-5.1,1.244-10.208l.839-6.886L72.311,56.6,72.1,58.358Q71.164,66.031,70.229,73.7ZM88.151,56.571,88.027,57.6q-.979,8.029-1.957,16.061l15.028-.035.812-6.673q.634-5.209,1.268-10.419Zm15.683-.036q-1.042,8.546-2.082,17.091l15.3-.037L119.133,56.5Zm15.961-.037q-1.04,8.546-2.082,17.091l14.009-.034q1.042-8.545,2.082-17.091Zm14.664-.034q-.107.874-.213,1.748l-1.871,15.342,15.027-.036.224-1.834q.93-7.629,1.859-15.257Zm15.7-.039q-1.041,8.545-2.082,17.091l14.535-.035q1.042-8.545,2.082-17.09Z" transform="translate(284.901 102.648)"/><path d="M153.728,135.023a58.83,58.83,0,0,1-16.55-9.564c-7.918-6.511-13.457-15.269-20.536-22.6A106.728,106.728,0,0,0,95.357,85.876,110.148,110.148,0,0,0,70.376,74.659,106.384,106.384,0,0,0,43.534,70.05q-1.736-.07-3.476-.081a.168.168,0,0,0,0,.336,105.706,105.706,0,0,1,27.405,3.851A109.7,109.7,0,0,1,92.886,84.8a106.966,106.966,0,0,1,22.019,16.772,140.186,140.186,0,0,1,9.768,11.06,98.288,98.288,0,0,0,10.476,11.525,59.277,59.277,0,0,0,18.417,11.168c.051-.1.1-.208.161-.306" transform="translate(282.212 98.355)" fill="#ea001f"/><path d="M153.816,135.955l-.427-.162a59.556,59.556,0,0,1-18.572-11.262l-.01-.009a99.1,99.1,0,0,1-10.527-11.58,140.242,140.242,0,0,0-9.729-11.016A106.518,106.518,0,0,0,92.637,85.235a109.276,109.276,0,0,0-25.308-10.6A105.246,105.246,0,0,0,40.053,70.8a.668.668,0,0,1,0-1.336c1.164.008,2.339.035,3.5.082a106.943,106.943,0,0,1,26.97,4.63A110.731,110.731,0,0,1,95.617,85.449,107.289,107.289,0,0,1,117,102.514c2.783,2.881,5.364,6.025,7.86,9.065,3.859,4.7,7.85,9.561,12.634,13.494a58.212,58.212,0,0,0,16.409,9.482l-.176.466.431.249c-.044.076-.091.166-.144.275Z" transform="translate(282.212 98.355)" fill="#ea001f"/><path d="M63.278,69.033a1.964,1.964,0,1,0,1.876,1.876,1.963,1.963,0,0,0-1.876-1.876" transform="translate(275.613 98.642)" fill="#ea001f"/><path d="M125.785,95.078a1.964,1.964,0,1,0,1.876,1.876,1.963,1.963,0,0,0-1.876-1.876" transform="translate(256.436 90.652)" fill="#ea001f"/><path d="M162.951,129.758a1.964,1.964,0,1,0,1.876,1.876,1.963,1.963,0,0,0-1.876-1.876" transform="translate(245.034 80.012)" fill="#ea001f"/><path d="M201.16,160.4a1.964,1.964,0,1,0,1.876,1.876,1.963,1.963,0,0,0-1.876-1.876" transform="translate(233.312 70.612)" fill="#ea001f"/><path d="M107.559,94.823a1,1,0,1,0,.95.95,1,1,0,0,0-.95-.95" transform="translate(261.743 90.73)" fill="#7a3f54"/><path d="M144.272,92.045a.716.716,0,0,0-.261-.291c0-.071.053-.454.058-.526.038-.689-.087-1.213-.618-1.353a3.057,3.057,0,0,0-.118-.763c-.112-.372-.473-.984-.918-.943-.006-.012-.012-.025-.019-.038a.688.688,0,0,1-.033-.089,1.45,1.45,0,0,0-.313-.408,1.078,1.078,0,0,0-1.291-.114.7.7,0,0,0-.22.293.065.065,0,0,0,0,.033.074.074,0,0,0-.033.032c0,.006,0,.01-.006.015-.057-.009-.113-.019-.168-.025a1.6,1.6,0,0,0-1,.132c-.491.249-.95.566-1.415.847-.329.2-.625.381-.683.747a4.723,4.723,0,0,0,.116,1.353,9.09,9.09,0,0,1,.128,1.458,4.316,4.316,0,0,0,.069,1.374,5.826,5.826,0,0,0,.617,1.184l.652,1.115q-.177,1.784-.351,3.567c-.075-.028-.152.073-.079.125l.064.044c-.006.05-.012.1-.015.149-.01.1.141.126.151.028a.269.269,0,0,1,.007-.074,14.542,14.542,0,0,1,3.56,4.319.077.077,0,0,0,.108.017.08.08,0,0,0,.03-.046c.273-2.739.335-5.49.343-8.24.262-.532,1.183-2.22,1.488-2.752a1.263,1.263,0,0,0,.155-1.17" transform="translate(252.349 93.021)" fill="#ffbd99"/><path d="M141.627,89.177c-.272.281-.537.571-.817.845a1.63,1.63,0,0,1-.437.363l-.023.008a.129.129,0,0,0-.015-.023.848.848,0,0,1-.263-1.019,2.835,2.835,0,0,1,.485-.576c.219-.229.472-.453.674-.706a.072.072,0,0,0-.033.031.042.042,0,0,1-.006.015c-.056-.009-.113-.019-.168-.025a9.441,9.441,0,0,0-1.05,1.145.952.952,0,0,0,.224,1.214,4.373,4.373,0,0,1-.631.059c-.1.01-.1.163,0,.153a1.813,1.813,0,0,0,1.073-.264,11.221,11.221,0,0,0,1.1-1.1c.069-.071-.041-.18-.1-.1" transform="translate(251.655 92.802)" fill="#da7366"/><path d="M144.809,88.9a.077.077,0,0,0-.153,0c0,.254.054.5.049.759a1.826,1.826,0,0,1-.32.883.077.077,0,0,0,.04.1.078.078,0,0,0,.093-.024,2.208,2.208,0,0,0,.328-.777,6.492,6.492,0,0,0-.036-.943" transform="translate(250.156 92.567)" fill="#da7366"/><path d="M146.524,93.676a1.436,1.436,0,0,1-.247.826c-.055.082.078.159.132.077a1.583,1.583,0,0,0,.269-.9.078.078,0,0,0-.086-.068.077.077,0,0,0-.067.068" transform="translate(249.578 91.103)" fill="#da7366"/><path d="M145.883,91.306a2.676,2.676,0,0,1-.367,1.025.077.077,0,0,0,.132.077,2.813,2.813,0,0,0,.383-1.061c.015-.1-.133-.138-.148-.041" transform="translate(249.811 91.826)" fill="#da7366"/><path d="M114.7,78.794c1.341-4.052-.079-8.646-7.88-8.834a8.158,8.158,0,0,0-5.394,1.347,11.888,11.888,0,0,0-3.61,4.832,8.707,8.707,0,0,0-.328,6.195,6.582,6.582,0,0,0,2.6,3.389,14.257,14.257,0,0,0,2.165,1.989,8.5,8.5,0,0,0,3.227,1.1c1.827.338,7.721-5.507,9.214-10.021" transform="translate(264.669 98.371)" fill="#ffbd99"/><path d="M61.117,178.109a1.215,1.215,0,0,0-1.158-.535H59.2a1.533,1.533,0,0,0-.313-.1c-.216-.049-.6-.14-.785.012a.076.076,0,0,0-.019.075.114.114,0,0,0,.049.08c-.415,1.921-1,3.778-1.58,5.654a5.811,5.811,0,0,0-.333,2.549,5.939,5.939,0,0,0,1,2.312c.125.193.264.446.514.5a.35.35,0,0,0,.424-.254.337.337,0,0,0,.01-.059v-.01c.037.156.073.313.112.469a2.264,2.264,0,0,0,.49,1.145c.15.146.426.305.573.073a.358.358,0,0,0,.025-.052.657.657,0,0,0,.32.094c.45.017.734-.509.9-.857a7.6,7.6,0,0,0,.4-3.282q0-2.1.094-4.205.05-1.089.125-2.175a2.714,2.714,0,0,0-.095-1.431m-2.6-.543a.5.5,0,0,0-.213.05l.01-.045a.139.139,0,0,0,0-.034l.208.029m-.6,9.929a3.288,3.288,0,0,1-.51-1.523,5.292,5.292,0,0,1,.134-1.341,17.188,17.188,0,0,0,.324,2.318c.052.255.11.509.166.763-.037-.076-.078-.148-.116-.216" transform="translate(277.208 65.397)" fill="#ffbd99"/><path d="M79.65,91.059l.147-.053c.091-.033.052-.177-.041-.142l-.141.051-.058-.228a.077.077,0,0,0-.148.039q.031.122.06.241c-4.5,1.637-9.044,3.361-12.737,6.416a25.379,25.379,0,0,0-7.343,10.071,24.024,24.024,0,0,0-1.561,6.046,59.868,59.868,0,0,0-.055,7.523,20.342,20.342,0,0,1-.33,4.019c-.238,1.206-1.537,8.59-1.89,9.767a20.688,20.688,0,0,0-1.275,6.9,13.116,13.116,0,0,0,.806,3.445,7.144,7.144,0,0,1,.417,1.9,4.782,4.782,0,0,1-.361,1.775c-.281.824-.4,1.727.569,2.135a17.9,17.9,0,0,0,1.868.571l2,.593,2,.591a.079.079,0,0,0,.095-.051,25.279,25.279,0,0,1,1.8-5.484q1.173-2.761,2.44-5.483c1.665-3.6,4.371-13.364,6.129-16.925,1.74-3.514,3.473-7.035,5.11-10.592a37.137,37.137,0,0,0,3.524-10.689A33.869,33.869,0,0,0,79.65,91.059" transform="translate(277.797 92.014)" fill="#83a00a"/><path d="M94.162,281.178a8.928,8.928,0,0,1-.069.942c-.051.27-.1.416-.313.485a1.549,1.549,0,0,1-.416-.006l-3.123-.058c.06-2.281-.265-14.964-.277-15.319,1.532.279,3.813,1.575,5.338,1.635-.185,2.539-.824,7.9-1.009,10.437q-.068.943-.137,1.884" transform="translate(266.849 37.84)" fill="#ffbd99"/><path d="M89.865,290.177a1.666,1.666,0,0,0,1.323,1.106c.757.231,9.993.336,10.455.281a.115.115,0,0,0,.094-.114,1.983,1.983,0,0,0-.26-1.305,2.136,2.136,0,0,0-1.444-1.024c-1.517-.4-3.528-.709-4.677-1.133a1.553,1.553,0,0,1-.986-1.285,7.657,7.657,0,0,1,0-1.843.092.092,0,0,0-.078-.1h-.01c-.787-.024-3.6-.231-3.931-.182-.164.024-.13.423-.15.548q-.093.577-.143,1.154a35.738,35.738,0,0,0-.194,3.9" transform="translate(266.88 32.519)" fill="#006dae"/><path d="M57.647,280.871a9.408,9.408,0,0,1-.218.937c-.094.269-.168.417-.39.47a1.5,1.5,0,0,1-.417-.027l-3.093-.209c.425-2.279,2.136-14.982,2.181-15.339,1.48.357,3.539,1.77,5.049,1.9-.591,2.53-2.082,7.86-2.677,10.39q-.219.937-.439,1.874" transform="translate(278.027 38)" fill="#ffbd99"/><path d="M53.17,289.627c.143.665.652.952,1.26,1.174.74.27,9.926.837,10.386.806a.117.117,0,0,0,.1-.1,2,2,0,0,0-.192-1.322,2.125,2.125,0,0,0-1.384-1.1c-1.489-.474-3.474-.887-4.6-1.37a1.562,1.562,0,0,1-.916-1.338,7.78,7.78,0,0,1,.094-1.847.09.09,0,0,0-.076-.1h-.006c-.782-.064-3.568-.417-3.9-.38-.165.015-.151.416-.177.542q-.122.573-.2,1.145a36.07,36.07,0,0,0-.394,3.9" transform="translate(278.137 32.681)" fill="#006dae"/><path d="M91.991,87.066c1.866-3.488,5.512-8.662,5.643-8.951,2.261.976,4.8,3.083,7.169,3.833-1.242,1.885-3.976,6.754-5.517,9.085C96.71,90.688,93.2,89.211,92,87.062" transform="translate(266.228 95.856)" fill="#ffbd99"/><path d="M86.613,183.6a132.507,132.507,0,0,0-.1-16.74c-.218-2.9-.512-5.778-.847-8.654a.07.07,0,0,0-.069-.055l-17.53-.469-5.029-.136a.084.084,0,0,0-.082.076,14.2,14.2,0,0,1-.6,2.632c-3.219,5.858-3.919,7.469-4.963,13.185-.948,5.18-7.648,67.061-7.648,67.061q-.141,1-.282,2.007a.066.066,0,0,0,.058.076.073.073,0,0,0,.03,0c3.34-.661,8.549.114,11.812.458a.087.087,0,0,0,.081-.056c1.26-4.646,4.891-24.669,7.042-35.92.227,1.525.4,3.062.548,4.6.469,4.855.865,9.724,1.294,14.587l1.452,16.482a.071.071,0,0,0,.085.055h0c.269-.085,7.962.064,11.506-.573a.084.084,0,0,0,.062-.073c.031-1.434,2.88-53.917,3.171-58.541" transform="translate(279.273 71.487)"/><path d="M100.531,96.92a6.534,6.534,0,0,0-2.256-1.935c-1.022-.589-2.129-1.089-3.206-1.6q-1.08-.521-2.175-1.012a4.78,4.78,0,0,0,.3-1.125,1,1,0,0,0-.589-.937,9.445,9.445,0,0,0-1.653-.747c-1.256-.467-2.539-.876-3.809-1.309l-1.963-.667a1.951,1.951,0,0,0-1.381-.175,2.252,2.252,0,0,0-.645.52l-.78.764-1.26,1.234c-5.767,1.838-13.911,3.331-17.07,12.37-2.3,6.578,1.474,15.516,1.115,22.164-.055,1.012-.145,2.021-.3,3.019-.146.978-.407,1.933-.584,2.906a4.648,4.648,0,0,0,.234,2.721,7.03,7.03,0,0,1,.964,2.864c0,.033.039.06.078.064,6.281.539,24.148,1.16,24.318,1.139h.021a.062.062,0,0,0,.058-.016,1.871,1.871,0,0,0,1.312-.969c.465-.867.139-1.892.381-2.81a5.419,5.419,0,0,1,1.666-2.263,6.775,6.775,0,0,0,1.59-2.036,6.542,6.542,0,0,0,.428-2.723c-.013-1-.123-2-.079-3,.045-1.012,1.874-10.154,2.76-11.97a29.322,29.322,0,0,0,2.173-5.858c.263-1.073.478-2.155.686-3.239a15.03,15.03,0,0,0,.369-2.769,4.608,4.608,0,0,0-.7-2.6" transform="translate(275.032 93.021)" fill="#83a00a"/><path d="M115.19,75.5a5.726,5.726,0,0,0-1.5-5.988,11.17,11.17,0,0,0-3.539-2.762,13.727,13.727,0,0,0-3.967-1.31,7.528,7.528,0,0,0-2.258-.1c-.6.069-1.36.175-1.651.779-.119.246-.361.521-.65.328-.155-.1-.907-.625-1.047-.74A2.351,2.351,0,0,0,99.5,65.23a2.907,2.907,0,0,0-1.978.216,1.757,1.757,0,0,0-.955,1.576,1.329,1.329,0,0,0,1.077,1.223c-.064.464-.456.833-.454,1.307a1.025,1.025,0,0,0,.5.821,1.663,1.663,0,0,0,.605.223c.121.023.285.018.435.033A3.208,3.208,0,0,0,97.2,73.254a4.959,4.959,0,0,1-.14,1.156,6.645,6.645,0,0,1-.643,1.1,1.761,1.761,0,0,0-.118,1.183,2.623,2.623,0,0,1-.051,1.218,1,1,0,0,0-.052.5.481.481,0,0,0,.116.218,1.612,1.612,0,0,0,.538.729,6.492,6.492,0,0,0,2.164,1.1,3.407,3.407,0,0,0,.473.1,15.2,15.2,0,0,0,2.248,1,3.549,3.549,0,0,0,3.674-.287c.625-.409.969-.533,1.6-.93.706-.444,1.532-.287,2.3-.494a5.072,5.072,0,0,0,1.625-.937,4.857,4.857,0,0,1,.986-.6,9.169,9.169,0,0,1,1.193-.3,2.386,2.386,0,0,0,1.561-1.337,2.494,2.494,0,0,0,.135-.338,1.019,1.019,0,0,0,.223-.446,2.456,2.456,0,0,0,.157-.389" transform="translate(264.941 99.834)" fill="#764038"/><path d="M135.67,111.229c.016-.98-1.106-1.64-.78-2.749a2.606,2.606,0,0,0,.193-1.1,1.874,1.874,0,0,0-.494-1.073c-.3-.319-.713-.507-1.007-.833a2.271,2.271,0,0,1-.463-1.531,8.9,8.9,0,0,0-.051-1.193c-.059-.36-.233-.411-.577-.438-1.145-.089-2.29-.147-3.43-.208l-.746-.037a1.822,1.822,0,0,0-.649.012.52.52,0,0,0-.343.481c-.046.49.153.894-.282,1.285a5.7,5.7,0,0,1-1.4.634,2.8,2.8,0,0,0-1.542,1.991,2.458,2.458,0,0,0,.2,1.262c.216.581-.745,2.932-1.408,3.074a2.429,2.429,0,0,1-2.009-.737c-.473-.39-1.166-1.79-1.837-2.022a5.788,5.788,0,0,1-2.123-1.113,6.694,6.694,0,0,1-1.271-1.8c-1.249-2.337-2.5-4.832-4.815-6.382a7.457,7.457,0,0,0-1.7-.845c-.093-.033-.133.1-.041.141.114.04.227.084.34.13a.063.063,0,0,0,0,.023v.069a.064.064,0,0,0-.035.059c.051,2.941-1.287,5.639-2.5,8.266a37.509,37.509,0,0,0-1.608,3.943,41,41,0,0,0-1.165,4.38c-.363,1.706-.651,3.426-.937,5.145a.075.075,0,0,0,.055.091l.019,0a13.247,13.247,0,0,1,5.1,1c1.439.6,2.73,1.688,4.312,1.935,1.642.257,3.217-.485,4.846-.51,1.654-.025,1.685.592,3.245,1.031a9.42,9.42,0,0,0,4.107.361,8.709,8.709,0,0,0,3.539-1.44,8.26,8.26,0,0,0,2.5-2.692,6.973,6.973,0,0,0,.671-1.635,15.779,15.779,0,0,1,.567-2.319c.611-1.4,3.481-1.561,3.532-4.674" transform="translate(262.796 89.783)" fill="#83a00a"/><path d="M74.614,205.608c-.021-.1-.168-.055-.148.041q.864,4.059,1.483,8.173c.015.1.163.056.148-.041q-.62-4.114-1.483-8.173" transform="translate(271.605 56.76)" fill="#8595a8"/><path d="M107.292,119.219a22.318,22.318,0,0,1-3.082-11.105.077.077,0,0,0-.153,0,22.485,22.485,0,0,0,3.1,11.182.077.077,0,0,0,.108.015.077.077,0,0,0,.024-.092" transform="translate(262.526 86.673)" fill="#1f2c44"/><path d="M70.766,112.794c-.937,4.282-1.874,8.569-2.539,12.907-.325,2.122-.583,4.254-.743,6.4-.081,1.092-.125,2.186-.288,3.273a13.431,13.431,0,0,1-.86,3.007c-.759,1.9-1.69,4.073-.692,6.075.044.087.175.01.132-.077-.952-1.909-.075-4.007.655-5.829a13.915,13.915,0,0,0,.878-2.927c.162-.973.218-1.959.285-2.943a100.281,100.281,0,0,1,1.813-12.749c.471-2.371.988-4.733,1.5-7.094.021-.1-.127-.137-.148-.041" transform="translate(274.443 85.234)" fill="#1f2c44"/><path d="M104.661,67.958c-.029-.094-.171-.034-.141.059.521,1.655-.752,3.043-2.059,3.844-.084.051.01.173.094.121,1.374-.842,2.654-2.3,2.107-4.023" transform="translate(263.026 98.986)" fill="#1f2c44"/><path d="M116.465,77.006c-.031-.093-.173-.033-.141.06a4.216,4.216,0,0,1-.232,3.275c-.044.089.1.147.142.059a4.372,4.372,0,0,0,.231-3.394" transform="translate(258.836 96.21)" fill="#1f2c44"/><path d="M114.482,80.96a6.652,6.652,0,0,1-.353,1.581.077.077,0,0,0,.141.059,6.837,6.837,0,0,0,.363-1.62c.01-.1-.142-.118-.152-.019" transform="translate(259.438 95.002)" fill="#1f2c44"/><path d="M135.886,122.783a11.668,11.668,0,0,0-3.522-5.933c-.073-.065-.181.043-.1.1a11.529,11.529,0,0,1,3.483,5.866c.023.1.171.055.148-.041" transform="translate(253.882 83.979)" fill="#1f2c44"/><path d="M115.61,84.565a2.318,2.318,0,0,0-1.457-.006,3.835,3.835,0,0,0-2.5,2.277c-.134.317-.281.8.087,1.023.439.261.945-.221,1.273-.453a7.963,7.963,0,0,0,2.652-2.4,1,1,0,0,1-.021.128c-.079.058.01.184.087.125a.4.4,0,0,0,.06-.564.407.407,0,0,0-.183-.128" transform="translate(260.24 93.914)" fill="#ffbd99"/><path d="M115.825,85.491c-.043.379-.587.512-.869.677a5.073,5.073,0,0,0-1.457,1.3,2.749,2.749,0,0,1-.363.456c-.187.159-.28.189-.489.051-.192-.128-.2-.159-.208-.373,0-.1-.156-.083-.153.015.012.293.121.6.455.625.465.037.709-.471.953-.776a4.943,4.943,0,0,1,1.409-1.2c.325-.186.833-.313.878-.745.011-.1-.139-.125-.151-.028" transform="translate(260.002 93.613)" fill="#da7366"/></g></svg>